<?xml version="1.0" encoding="UTF-8" standalone="no"?>
<!DOCTYPE svg PUBLIC "-//W3C//DTD SVG 1.1//EN"
 "http://www.w3.org/Graphics/SVG/1.1/DTD/svg11.dtd">
<!-- Generated by graphviz version 2.38.0 (20140413.2041)
 -->
<!-- Pages: 1 -->
<svg width="1101pt" height="212pt"
 viewBox="0.00 0.00 1101.31 212.00" xmlns="http://www.w3.org/2000/svg" xmlns:xlink="http://www.w3.org/1999/xlink">
<g id="graph0" class="graph" transform="scale(1 1) rotate(0) translate(4 208)">
<polygon fill="white" stroke="none" points="-4,4 -4,-208 1097.31,-208 1097.31,4 -4,4"/>
<g id="clust1" class="cluster"><title>cluster_Class</title>
<polygon fill="moccasin" stroke="black" points="166.593,-8 166.593,-117 693.742,-117 693.742,-8 166.593,-8"/>
<text text-anchor="middle" x="430.168" y="-105" font-family="meiryo" font-size="10.00">管理クラス</text>
</g>
<g id="clust2" class="cluster"><title>cluster_GPU</title>
<polygon fill="moccasin" stroke="black" points="566.742,-19 566.742,-90 685.742,-90 685.742,-19 566.742,-19"/>
<text text-anchor="middle" x="626.242" y="-78" font-family="meiryo" font-size="10.00">バッファー領域 &#160;(GPU)</text>
</g>
<g id="clust3" class="cluster"><title>cluster_location</title>
<polygon fill="moccasin" stroke="black" points="482.742,-125 482.742,-196 769.742,-196 769.742,-125 482.742,-125"/>
<text text-anchor="middle" x="626.242" y="-184" font-family="meiryo" font-size="10.00">シェーダーのユニフォームブロック</text>
</g>
<!-- GPU -->
<g id="node1" class="node"><title>GPU</title>
<polygon fill="lightyellow" stroke="black" points="668.742,-63 583.742,-63 583.742,-27 668.742,-27 668.742,-63"/>
<text text-anchor="middle" x="626.242" y="-42.8" font-family="meiryo" font-size="9.00"> nn::gfx::Buffer</text>
</g>
<!-- setConstantBuffer -->
<g id="node6" class="node"><title>setConstantBuffer</title>
<ellipse fill="none" stroke="black" stroke-dasharray="5,2" cx="945.528" cy="-98" rx="147.571" ry="18.2703"/>
<text text-anchor="middle" x="945.528" y="-100.6" font-family="meiryo" font-size="8.00">シェーダーに値セット</text>
<text text-anchor="middle" x="945.528" y="-91.6" font-family="meiryo" font-size="8.00">nn::gfx::CommandBuffer::SetConstantBuffer()</text>
</g>
<!-- GPU&#45;&gt;setConstantBuffer -->
<g id="edge4" class="edge"><title>GPU&#45;&gt;setConstantBuffer</title>
<path fill="none" stroke="black" d="M684.922,-54.635C730.498,-62.248 795.094,-73.0383 848.448,-81.9507"/>
<polygon fill="black" stroke="black" points="848.075,-84.7271 856.427,-83.2836 848.998,-79.2037 848.075,-84.7271"/>
</g>
<!-- CPU -->
<g id="node2" class="node"><title>CPU</title>
<polygon fill="lightyellow" stroke="black" points="264.593,-71 174.593,-71 174.593,-35 264.593,-35 264.593,-71"/>
<text text-anchor="middle" x="219.593" y="-50.8" font-family="meiryo" font-size="9.00">ソース領域 (CPU)</text>
</g>
<!-- calculate -->
<g id="node3" class="node"><title>calculate</title>
<ellipse fill="none" stroke="black" stroke-dasharray="5,2" cx="377.668" cy="-53" rx="77.1494" ry="37.4533"/>
<text text-anchor="middle" x="377.668" y="-69.1" font-family="meiryo" font-size="8.00"> 値の書き込み</text>
<text text-anchor="middle" x="377.668" y="-60.1" font-family="meiryo" font-size="8.00">CalculateShape()</text>
<text text-anchor="middle" x="377.668" y="-51.1" font-family="meiryo" font-size="8.00">CalculateSkeleton()</text>
<text text-anchor="middle" x="377.668" y="-42.1" font-family="meiryo" font-size="8.00">CalculateMaterial()</text>
<text text-anchor="middle" x="377.668" y="-33.1" font-family="meiryo" font-size="8.00">CalculateOptionBlock()</text>
</g>
<!-- CPU&#45;&gt;calculate -->
<g id="edge2" class="edge"><title>CPU&#45;&gt;calculate</title>
<path fill="none" stroke="black" d="M264.9,-53C273.474,-53 282.72,-53 292.093,-53"/>
<polygon fill="black" stroke="black" points="292.348,-55.8001 300.348,-53 292.348,-50.2001 292.348,-55.8001"/>
</g>
<!-- calculate&#45;&gt;GPU -->
<g id="edge3" class="edge"><title>calculate&#45;&gt;GPU</title>
<path fill="none" stroke="black" d="M454.66,-50.5345C487.936,-49.4548 526.629,-48.1995 558.744,-47.1575"/>
<polygon fill="black" stroke="black" points="558.855,-49.9555 566.76,-46.8974 558.673,-44.3584 558.855,-49.9555"/>
</g>
<!-- location -->
<g id="node4" class="node"><title>location</title>
<polygon fill="lightyellow" stroke="black" points="761.742,-169 490.742,-169 490.742,-133 761.742,-133 761.742,-169"/>
<text text-anchor="middle" x="626.242" y="-148.8" font-family="meiryo" font-size="9.00"> nn::g3d::ResShaderProgram::GetUniformBlockLocation()</text>
</g>
<!-- location&#45;&gt;setConstantBuffer -->
<g id="edge5" class="edge"><title>location&#45;&gt;setConstantBuffer</title>
<path fill="none" stroke="black" d="M769.564,-127.226C796.246,-122.769 823.551,-118.208 848.416,-114.055"/>
<polygon fill="black" stroke="black" points="849.01,-116.794 856.439,-112.715 848.087,-111.271 849.01,-116.794"/>
</g>
<!-- change -->
<g id="node5" class="node"><title>change</title>
<ellipse fill="none" stroke="black" stroke-dasharray="5,2" cx="69.2965" cy="-53" rx="69.0935" ry="37.4533"/>
<text text-anchor="middle" x="69.2965" y="-69.1" font-family="meiryo" font-size="8.00">値を変更</text>
<text text-anchor="middle" x="69.2965" y="-60.1" font-family="meiryo" font-size="8.00">GetUserArea()</text>
<text text-anchor="middle" x="69.2965" y="-51.1" font-family="meiryo" font-size="8.00">GetWorldMtxArray()</text>
<text text-anchor="middle" x="69.2965" y="-42.1" font-family="meiryo" font-size="8.00">EditShaderParam()</text>
<text text-anchor="middle" x="69.2965" y="-33.1" font-family="meiryo" font-size="8.00">WriteStaticKey()</text>
</g>
<!-- change&#45;&gt;CPU -->
<g id="edge1" class="edge"><title>change&#45;&gt;CPU</title>
<path fill="none" stroke="black" d="M138.802,-53C148.098,-53 157.514,-53 166.459,-53"/>
<polygon fill="black" stroke="black" points="166.526,-55.8001 174.526,-53 166.526,-50.2001 166.526,-55.8001"/>
</g>
</g>
</svg>
