<?xml version="1.0" encoding="UTF-8" standalone="no"?>
<!DOCTYPE svg PUBLIC "-//W3C//DTD SVG 1.1//EN"
 "http://www.w3.org/Graphics/SVG/1.1/DTD/svg11.dtd">
<!-- Generated by graphviz version 2.38.0 (20140413.2041)
 -->
<!-- Pages: 1 -->
<svg width="509pt" height="242pt"
 viewBox="0.00 0.00 509.00 242.00" xmlns="http://www.w3.org/2000/svg" xmlns:xlink="http://www.w3.org/1999/xlink">
<g id="graph0" class="graph" transform="scale(1 1) rotate(0) translate(4 238)">
<polygon fill="white" stroke="none" points="-4,4 -4,-238 505,-238 505,4 -4,4"/>
<g id="clust1" class="cluster"><title>cluster_shapes</title>
<polygon fill="none" stroke="black" stroke-dasharray="5,2" points="295,-8 295,-98 493,-98 493,-8 295,-8"/>
<text text-anchor="middle" x="394" y="-30.8" font-family="Times New Roman,serif" font-size="14.00">boneC のビジビリティーが効く</text>
<text text-anchor="middle" x="394" y="-15.8" font-family="Times New Roman,serif" font-size="14.00">シェイプ圧縮も可能</text>
</g>
<!-- boneRoot -->
<g id="node1" class="node"><title>boneRoot</title>
<polygon fill="lightyellow" stroke="black" points="310,-234 248,-234 248,-198 310,-198 310,-234"/>
<text text-anchor="middle" x="279" y="-213.8" font-family="Verdana" font-size="9.00">boneRoot</text>
</g>
<!-- boneC -->
<g id="node2" class="node"><title>boneC</title>
<polygon fill="lightyellow" stroke="black" points="347.5,-162 210.5,-162 210.5,-126 347.5,-126 347.5,-162"/>
<text text-anchor="middle" x="279" y="-146.8" font-family="Verdana" font-size="9.00">boneC</text>
<text text-anchor="middle" x="279" y="-136.8" font-family="Verdana" font-size="9.00">(compress_enable=false)</text>
</g>
<!-- boneC&#45;&gt;boneRoot -->
<g id="edge5" class="edge"><title>boneC&#45;&gt;boneRoot</title>
<path fill="none" stroke="black" d="M279,-162.303C279,-170.611 279,-180.723 279,-189.859"/>
<polygon fill="black" stroke="black" points="276.2,-189.896 279,-197.896 281.8,-189.896 276.2,-189.896"/>
</g>
<!-- boneB -->
<g id="node3" class="node"><title>boneB</title>
<polygon fill="lightyellow" stroke="black" points="134,-90 0,-90 0,-54 134,-54 134,-90"/>
<text text-anchor="middle" x="67" y="-74.8" font-family="Verdana" font-size="9.00">boneB</text>
<text text-anchor="middle" x="67" y="-64.8" font-family="Verdana" font-size="9.00">(compress_enable=true)</text>
</g>
<!-- boneB&#45;&gt;boneC -->
<g id="edge3" class="edge"><title>boneB&#45;&gt;boneC</title>
<path fill="none" stroke="black" d="M118.59,-90.0344C148.984,-100.07 187.566,-112.81 219.274,-123.279"/>
<polygon fill="black" stroke="black" points="218.704,-126.04 227.179,-125.889 220.46,-120.722 218.704,-126.04"/>
</g>
<!-- boneA -->
<g id="node4" class="node"><title>boneA</title>
<polygon fill="lightyellow" stroke="black" points="286,-90 152,-90 152,-54 286,-54 286,-90"/>
<text text-anchor="middle" x="219" y="-74.8" font-family="Verdana" font-size="9.00">boneA</text>
<text text-anchor="middle" x="219" y="-64.8" font-family="Verdana" font-size="9.00">(compress_enable=true)</text>
</g>
<!-- boneA&#45;&gt;boneC -->
<g id="edge4" class="edge"><title>boneA&#45;&gt;boneC</title>
<path fill="none" stroke="black" d="M233.831,-90.3034C241.461,-99.204 250.866,-110.177 259.115,-119.801"/>
<polygon fill="black" stroke="black" points="257.007,-121.644 264.339,-125.896 261.259,-117.999 257.007,-121.644"/>
</g>
<!-- shapeA -->
<g id="node5" class="node"><title>shapeA</title>
<polygon fill="moccasin" stroke="black" points="460.834,-72 443.417,-90 408.583,-90 391.166,-72 408.583,-54 443.417,-54 460.834,-72"/>
<text text-anchor="middle" x="426" y="-69.8" font-family="Verdana" font-size="9.00">shapeA</text>
</g>
<!-- shapeA&#45;&gt;boneC -->
<g id="edge1" class="edge"><title>shapeA&#45;&gt;boneC</title>
<path fill="none" stroke="black" d="M404.401,-86.2264C397.64,-90.1841 390.092,-94.4198 383,-98 365.79,-106.688 346.517,-115.318 329.282,-122.662"/>
<polygon fill="black" stroke="black" points="327.801,-120.248 321.522,-125.941 329.981,-125.406 327.801,-120.248"/>
</g>
<!-- shapeB -->
<g id="node6" class="node"><title>shapeB</title>
<polygon fill="moccasin" stroke="black" points="373.834,-72 356.417,-90 321.583,-90 304.166,-72 321.583,-54 356.417,-54 373.834,-72"/>
<text text-anchor="middle" x="339" y="-69.8" font-family="Verdana" font-size="9.00">shapeB</text>
</g>
<!-- shapeB&#45;&gt;boneC -->
<g id="edge2" class="edge"><title>shapeB&#45;&gt;boneC</title>
<path fill="none" stroke="black" d="M324.169,-90.3034C316.539,-99.204 307.134,-110.177 298.885,-119.801"/>
<polygon fill="black" stroke="black" points="296.741,-117.999 293.661,-125.896 300.993,-121.644 296.741,-117.999"/>
</g>
</g>
</svg>
