<?xml version="1.0" encoding="UTF-8" standalone="no"?>
<!DOCTYPE svg PUBLIC "-//W3C//DTD SVG 1.1//EN"
 "http://www.w3.org/Graphics/SVG/1.1/DTD/svg11.dtd">
<!-- Generated by graphviz version 2.38.0 (20140413.2041)
 -->
<!-- Pages: 1 -->
<svg width="410pt" height="206pt"
 viewBox="0.00 0.00 410.00 206.00" xmlns="http://www.w3.org/2000/svg" xmlns:xlink="http://www.w3.org/1999/xlink">
<g id="graph0" class="graph" transform="scale(1 1) rotate(0) translate(4 202)">
<polygon fill="white" stroke="none" points="-4,4 -4,-202 406,-202 406,4 -4,4"/>
<g id="clust1" class="cluster"><title>cluster_shapes</title>
<polygon fill="none" stroke="black" stroke-dasharray="5,2" points="221,-44 221,-134 394,-134 394,-44 221,-44"/>
<text text-anchor="middle" x="307.5" y="-66.8" font-family="Times New Roman,serif" font-size="14.00">boneC のビジビリティーが</text>
<text text-anchor="middle" x="307.5" y="-51.8" font-family="Times New Roman,serif" font-size="14.00">効かない</text>
</g>
<!-- boneRoot -->
<g id="node1" class="node"><title>boneRoot</title>
<polygon fill="lightyellow" stroke="black" points="295,-198 233,-198 233,-162 295,-162 295,-198"/>
<text text-anchor="middle" x="264" y="-177.8" font-family="Verdana" font-size="9.00">boneRoot</text>
</g>
<!-- boneC -->
<g id="node2" class="node"><title>boneC</title>
<polygon fill="lightyellow" stroke="black" points="211.5,-126 74.5,-126 74.5,-90 211.5,-90 211.5,-126"/>
<text text-anchor="middle" x="143" y="-110.8" font-family="Verdana" font-size="9.00">boneC</text>
<text text-anchor="middle" x="143" y="-100.8" font-family="Verdana" font-size="9.00">(compress_enable=false)</text>
</g>
<!-- boneC&#45;&gt;boneRoot -->
<g id="edge5" class="edge"><title>boneC&#45;&gt;boneRoot</title>
<path fill="none" stroke="black" d="M172.6,-126.124C189.007,-135.615 209.558,-147.504 227.015,-157.604"/>
<polygon fill="black" stroke="black" points="225.959,-160.228 234.286,-161.81 228.764,-155.381 225.959,-160.228"/>
</g>
<!-- boneB -->
<g id="node3" class="node"><title>boneB</title>
<polygon fill="lightyellow" stroke="black" points="134,-36 0,-36 0,-0 134,-0 134,-36"/>
<text text-anchor="middle" x="67" y="-20.8" font-family="Verdana" font-size="9.00">boneB</text>
<text text-anchor="middle" x="67" y="-10.8" font-family="Verdana" font-size="9.00">(compress_enable=true)</text>
</g>
<!-- boneB&#45;&gt;boneC -->
<g id="edge3" class="edge"><title>boneB&#45;&gt;boneC</title>
<path fill="none" stroke="black" d="M82.0152,-36.386C93.7492,-49.9728 110.167,-68.9828 123.012,-83.8563"/>
<polygon fill="black" stroke="black" points="120.927,-85.7251 128.275,-89.9496 125.165,-82.0648 120.927,-85.7251"/>
</g>
<!-- boneA -->
<g id="node4" class="node"><title>boneA</title>
<polygon fill="lightyellow" stroke="black" points="286,-36 152,-36 152,-0 286,-0 286,-36"/>
<text text-anchor="middle" x="219" y="-20.8" font-family="Verdana" font-size="9.00">boneA</text>
<text text-anchor="middle" x="219" y="-10.8" font-family="Verdana" font-size="9.00">(compress_enable=true)</text>
</g>
<!-- boneA&#45;&gt;boneC -->
<g id="edge4" class="edge"><title>boneA&#45;&gt;boneC</title>
<path fill="none" stroke="black" d="M203.985,-36.386C192.251,-49.9728 175.833,-68.9828 162.988,-83.8563"/>
<polygon fill="black" stroke="black" points="160.835,-82.0648 157.725,-89.9496 165.073,-85.7251 160.835,-82.0648"/>
</g>
<!-- shapeA -->
<g id="node5" class="node"><title>shapeA</title>
<polygon fill="moccasin" stroke="black" points="385.834,-108 368.417,-126 333.583,-126 316.166,-108 333.583,-90 368.417,-90 385.834,-108"/>
<text text-anchor="middle" x="351" y="-105.8" font-family="Verdana" font-size="9.00">shapeA</text>
</g>
<!-- shapeA&#45;&gt;boneRoot -->
<g id="edge1" class="edge"><title>shapeA&#45;&gt;boneRoot</title>
<path fill="none" stroke="black" d="M331.692,-124.535C320.011,-133.933 304.919,-146.077 291.95,-156.512"/>
<polygon fill="black" stroke="black" points="289.868,-154.593 285.391,-161.789 293.379,-158.956 289.868,-154.593"/>
</g>
<!-- shapeB -->
<g id="node6" class="node"><title>shapeB</title>
<polygon fill="moccasin" stroke="black" points="298.834,-108 281.417,-126 246.583,-126 229.166,-108 246.583,-90 281.417,-90 298.834,-108"/>
<text text-anchor="middle" x="264" y="-105.8" font-family="Verdana" font-size="9.00">shapeB</text>
</g>
<!-- shapeB&#45;&gt;boneRoot -->
<g id="edge2" class="edge"><title>shapeB&#45;&gt;boneRoot</title>
<path fill="none" stroke="black" d="M264,-126.303C264,-134.611 264,-144.723 264,-153.859"/>
<polygon fill="black" stroke="black" points="261.2,-153.896 264,-161.896 266.8,-153.896 261.2,-153.896"/>
</g>
</g>
</svg>
