<?xml version="1.0" encoding="UTF-8" standalone="no"?>
<!DOCTYPE svg PUBLIC "-//W3C//DTD SVG 1.1//EN"
 "http://www.w3.org/Graphics/SVG/1.1/DTD/svg11.dtd">
<!-- Generated by graphviz version 2.38.0 (20140413.2041)
 -->
<!-- Pages: 1 -->
<svg width="294pt" height="260pt"
 viewBox="0.00 0.00 294.00 260.00" xmlns="http://www.w3.org/2000/svg" xmlns:xlink="http://www.w3.org/1999/xlink">
<g id="graph0" class="graph" transform="scale(1 1) rotate(0) translate(4 256)">
<polygon fill="white" stroke="none" points="-4,4 -4,-256 290,-256 290,4 -4,4"/>
<!-- boneRoot -->
<g id="node1" class="node"><title>boneRoot</title>
<polygon fill="lightyellow" stroke="black" points="174,-252 112,-252 112,-216 174,-216 174,-252"/>
<text text-anchor="middle" x="143" y="-231.8" font-family="Verdana" font-size="9.00">boneRoot</text>
</g>
<!-- boneC -->
<g id="node2" class="node"><title>boneC</title>
<polygon fill="lightyellow" stroke="black" points="211.5,-180 74.5,-180 74.5,-144 211.5,-144 211.5,-180"/>
<text text-anchor="middle" x="143" y="-164.8" font-family="Verdana" font-size="9.00">boneC</text>
<text text-anchor="middle" x="143" y="-154.8" font-family="Verdana" font-size="9.00">(compress_enable=false)</text>
</g>
<!-- boneC&#45;&gt;boneRoot -->
<g id="edge5" class="edge"><title>boneC&#45;&gt;boneRoot</title>
<path fill="none" stroke="black" d="M143,-180.303C143,-188.611 143,-198.723 143,-207.859"/>
<polygon fill="black" stroke="black" points="140.2,-207.896 143,-215.896 145.8,-207.896 140.2,-207.896"/>
</g>
<!-- boneB -->
<g id="node3" class="node"><title>boneB</title>
<polygon fill="lightyellow" stroke="black" points="134,-108 0,-108 0,-72 134,-72 134,-108"/>
<text text-anchor="middle" x="67" y="-92.8" font-family="Verdana" font-size="9.00">boneB</text>
<text text-anchor="middle" x="67" y="-82.8" font-family="Verdana" font-size="9.00">(compress_enable=true)</text>
</g>
<!-- boneB&#45;&gt;boneC -->
<g id="edge3" class="edge"><title>boneB&#45;&gt;boneC</title>
<path fill="none" stroke="black" d="M85.7865,-108.303C95.6342,-117.374 107.818,-128.596 118.408,-138.35"/>
<polygon fill="black" stroke="black" points="116.648,-140.535 124.43,-143.896 120.442,-136.416 116.648,-140.535"/>
</g>
<!-- boneA -->
<g id="node4" class="node"><title>boneA</title>
<polygon fill="lightyellow" stroke="black" points="286,-108 152,-108 152,-72 286,-72 286,-108"/>
<text text-anchor="middle" x="219" y="-92.8" font-family="Verdana" font-size="9.00">boneA</text>
<text text-anchor="middle" x="219" y="-82.8" font-family="Verdana" font-size="9.00">(compress_enable=true)</text>
</g>
<!-- boneA&#45;&gt;boneC -->
<g id="edge4" class="edge"><title>boneA&#45;&gt;boneC</title>
<path fill="none" stroke="black" d="M200.213,-108.303C190.366,-117.374 178.182,-128.596 167.592,-138.35"/>
<polygon fill="black" stroke="black" points="165.558,-136.416 161.57,-143.896 169.352,-140.535 165.558,-136.416"/>
</g>
<!-- shapeA -->
<g id="node5" class="node"><title>shapeA</title>
<polygon fill="moccasin" stroke="black" points="253.834,-18 236.417,-36 201.583,-36 184.166,-18 201.583,-2.13163e-014 236.417,-0 253.834,-18"/>
<text text-anchor="middle" x="219" y="-15.8" font-family="Verdana" font-size="9.00">shapeA</text>
</g>
<!-- shapeA&#45;&gt;boneA -->
<g id="edge1" class="edge"><title>shapeA&#45;&gt;boneA</title>
<path fill="none" stroke="black" d="M219,-36.3034C219,-44.6107 219,-54.7229 219,-63.8593"/>
<polygon fill="black" stroke="black" points="216.2,-63.8956 219,-71.8957 221.8,-63.8957 216.2,-63.8956"/>
</g>
<!-- shapeB -->
<g id="node6" class="node"><title>shapeB</title>
<polygon fill="moccasin" stroke="black" points="101.834,-18 84.4171,-36 49.5829,-36 32.1659,-18 49.5829,-2.13163e-014 84.4171,-0 101.834,-18"/>
<text text-anchor="middle" x="67" y="-15.8" font-family="Verdana" font-size="9.00">shapeB</text>
</g>
<!-- shapeB&#45;&gt;boneB -->
<g id="edge2" class="edge"><title>shapeB&#45;&gt;boneB</title>
<path fill="none" stroke="black" d="M67,-36.3034C67,-44.6107 67,-54.7229 67,-63.8593"/>
<polygon fill="black" stroke="black" points="64.2001,-63.8956 67,-71.8957 69.8001,-63.8957 64.2001,-63.8956"/>
</g>
</g>
</svg>
