<?xml version="1.0" encoding="UTF-8" standalone="no"?>
<!DOCTYPE svg PUBLIC "-//W3C//DTD SVG 1.1//EN"
 "http://www.w3.org/Graphics/SVG/1.1/DTD/svg11.dtd">
<!-- Generated by graphviz version 2.38.0 (20140413.2041)
 -->
<!-- Pages: 1 -->
<svg width="918pt" height="233pt"
 viewBox="0.00 0.00 918.00 233.00" xmlns="http://www.w3.org/2000/svg" xmlns:xlink="http://www.w3.org/1999/xlink">
<g id="graph0" class="graph" transform="scale(1 1) rotate(0) translate(4 229)">
<polygon fill="white" stroke="none" points="-4,4 -4,-229 914,-229 914,4 -4,4"/>
<!-- top -->
<g id="node1" class="node"><title>top</title>
<path fill="none" stroke="black" d="M123,-119C123,-119 12,-119 12,-119 6,-119 0,-113 0,-107 0,-107 0,-95 0,-95 0,-89 6,-83 12,-83 12,-83 123,-83 123,-83 129,-83 135,-89 135,-95 135,-95 135,-107 135,-107 135,-113 129,-119 123,-119"/>
<text text-anchor="middle" x="67.5" y="-103.8" font-family="Verdana" font-size="9.00">使う色は</text>
<text text-anchor="middle" x="67.5" y="-93.8" font-family="Verdana" font-size="9.00">2色間のグラデーション</text>
</g>
<!-- alpha_01 -->
<g id="node2" class="node"><title>alpha_01</title>
<polygon fill="lightblue" stroke="black" points="286,-144 196,-144 196,-108 286,-108 286,-144"/>
<text text-anchor="middle" x="241" y="-128.8" font-family="Verdana" font-size="9.00">αチャンネルを</text>
<text text-anchor="middle" x="241" y="-118.8" font-family="Verdana" font-size="9.00">使いたい</text>
</g>
<!-- top&#45;&gt;alpha_01 -->
<g id="edge1" class="edge"><title>top&#45;&gt;alpha_01</title>
<path fill="none" stroke="blue" d="M135.297,-110.737C152.756,-113.282 171.317,-115.988 187.888,-118.403"/>
<polygon fill="blue" stroke="blue" points="187.528,-121.181 195.848,-119.564 188.336,-115.639 187.528,-121.181"/>
<text text-anchor="middle" x="165.5" y="-119" font-family="MS UI Gothic" font-size="10.00" fill="blue">はい</text>
</g>
<!-- reduce_04 -->
<g id="node7" class="node"><title>reduce_04</title>
<polygon fill="lightpink" stroke="black" points="283,-90 199,-90 199,-54 283,-54 283,-90"/>
<text text-anchor="middle" x="241" y="-74.8" font-family="Verdana" font-size="9.00">データ容量を</text>
<text text-anchor="middle" x="241" y="-64.8" font-family="Verdana" font-size="9.00">減らしたい</text>
</g>
<!-- top&#45;&gt;reduce_04 -->
<g id="edge13" class="edge"><title>top&#45;&gt;reduce_04</title>
<path fill="none" stroke="red" d="M135.297,-89.7048C153.726,-86.5887 173.383,-83.2647 190.63,-80.3482"/>
<polygon fill="red" stroke="red" points="191.466,-83.0467 198.887,-78.952 190.533,-77.5251 191.466,-83.0467"/>
<text text-anchor="middle" x="165.5" y="-90" font-family="MS UI Gothic" font-size="10.00" fill="#ff0000">いいえ</text>
</g>
<!-- same_01 -->
<g id="node3" class="node"><title>same_01</title>
<polygon fill="lightblue" stroke="black" points="497,-144 347,-144 347,-108 497,-108 497,-144"/>
<text text-anchor="middle" x="422" y="-128.8" font-family="Verdana" font-size="9.00">RGB(明度)とαチャンネルの</text>
<text text-anchor="middle" x="422" y="-118.8" font-family="Verdana" font-size="9.00">イメージは同じで良い</text>
</g>
<!-- alpha_01&#45;&gt;same_01 -->
<g id="edge2" class="edge"><title>alpha_01&#45;&gt;same_01</title>
<path fill="none" stroke="blue" d="M286.247,-126C302.138,-126 320.612,-126 338.692,-126"/>
<polygon fill="blue" stroke="blue" points="338.96,-128.8 346.96,-126 338.96,-123.2 338.96,-128.8"/>
<text text-anchor="middle" x="316.5" y="-129" font-family="MS UI Gothic" font-size="10.00" fill="blue">はい</text>
</g>
<!-- reduce_01 -->
<g id="node4" class="node"><title>reduce_01</title>
<polygon fill="lightpink" stroke="black" points="642,-198 558,-198 558,-162 642,-162 642,-198"/>
<text text-anchor="middle" x="600" y="-182.8" font-family="Verdana" font-size="9.00">データ容量を</text>
<text text-anchor="middle" x="600" y="-172.8" font-family="Verdana" font-size="9.00">減らしたい</text>
</g>
<!-- alpha_01&#45;&gt;reduce_01 -->
<g id="edge8" class="edge"><title>alpha_01&#45;&gt;reduce_01</title>
<path fill="none" stroke="red" d="M286.134,-138.866C304.78,-143.905 326.812,-149.343 347,-153 416.721,-165.63 498.442,-173.054 549.478,-176.824"/>
<polygon fill="red" stroke="red" points="549.528,-179.635 557.709,-177.42 549.932,-174.05 549.528,-179.635"/>
<text text-anchor="middle" x="422" y="-175" font-family="MS UI Gothic" font-size="10.00" fill="#ff0000">いいえ</text>
</g>
<!-- reduce_02 -->
<g id="node5" class="node"><title>reduce_02</title>
<polygon fill="lightblue" stroke="black" points="642,-144 558,-144 558,-108 642,-108 642,-144"/>
<text text-anchor="middle" x="600" y="-128.8" font-family="Verdana" font-size="9.00">データ容量を</text>
<text text-anchor="middle" x="600" y="-118.8" font-family="Verdana" font-size="9.00">減らしたい</text>
</g>
<!-- same_01&#45;&gt;reduce_02 -->
<g id="edge4" class="edge"><title>same_01&#45;&gt;reduce_02</title>
<path fill="none" stroke="blue" d="M497.13,-126C514.73,-126 533.089,-126 549.295,-126"/>
<polygon fill="blue" stroke="blue" points="549.559,-128.8 557.559,-126 549.559,-123.2 549.559,-128.8"/>
<text text-anchor="middle" x="527.5" y="-129" font-family="MS UI Gothic" font-size="10.00" fill="blue">はい</text>
</g>
<!-- reduce_03 -->
<g id="node6" class="node"><title>reduce_03</title>
<polygon fill="lightpink" stroke="black" points="642,-90 558,-90 558,-54 642,-54 642,-90"/>
<text text-anchor="middle" x="600" y="-74.8" font-family="Verdana" font-size="9.00">データ容量を</text>
<text text-anchor="middle" x="600" y="-64.8" font-family="Verdana" font-size="9.00">減らしたい</text>
</g>
<!-- same_01&#45;&gt;reduce_03 -->
<g id="edge12" class="edge"><title>same_01&#45;&gt;reduce_03</title>
<path fill="none" stroke="red" d="M482.095,-107.869C504.144,-101.104 528.917,-93.5028 549.963,-87.0453"/>
<polygon fill="red" stroke="red" points="551.007,-89.654 557.834,-84.6305 549.364,-84.3003 551.007,-89.654"/>
<text text-anchor="middle" x="527.5" y="-100" font-family="MS UI Gothic" font-size="10.00" fill="#ff0000">いいえ</text>
</g>
<!-- a_comp_01 -->
<g id="node8" class="node"><title>a_comp_01</title>
<polygon fill="lightyellow" stroke="blue" points="904,-225 703,-225 703,-189 910,-189 910,-219 904,-225"/>
<polyline fill="none" stroke="blue" points="904,-225 904,-219 "/>
<polyline fill="none" stroke="blue" points="910,-219 904,-219 "/>
<text text-anchor="middle" x="806.5" y="-214.1" font-family="Verdana" font-size="8.00">vfx_L_comp</text>
<text text-anchor="middle" x="806.5" y="-205.1" font-family="Verdana" font-size="8.00">「RGB を二乗して取得」</text>
<text text-anchor="middle" x="806.5" y="-196.1" font-family="Verdana" font-size="8.00">を使用</text>
</g>
<!-- reduce_01&#45;&gt;a_comp_01 -->
<g id="edge3" class="edge"><title>reduce_01&#45;&gt;a_comp_01</title>
<path fill="none" stroke="blue" d="M642.04,-192.195C648.024,-193.662 654.143,-194.994 660,-196 671.157,-197.917 682.852,-199.5 694.558,-200.806"/>
<polygon fill="blue" stroke="blue" points="694.406,-203.606 702.658,-201.668 694.999,-198.037 694.406,-203.606"/>
<text text-anchor="middle" x="672.5" y="-202" font-family="MS UI Gothic" font-size="10.00" fill="blue">はい</text>
</g>
<!-- a_01 -->
<g id="node9" class="node"><title>a_01</title>
<polygon fill="lightyellow" stroke="red" points="904,-160 703,-160 703,-124 910,-124 910,-154 904,-160"/>
<polyline fill="none" stroke="red" points="904,-160 904,-154 "/>
<polyline fill="none" stroke="red" points="910,-154 904,-154 "/>
<text text-anchor="middle" x="806.5" y="-149.1" font-family="Verdana" font-size="8.00">vfx_L</text>
<text text-anchor="middle" x="806.5" y="-140.1" font-family="Verdana" font-size="8.00">「RGB を二乗して取得」</text>
<text text-anchor="middle" x="806.5" y="-131.1" font-family="Verdana" font-size="8.00">を使用</text>
</g>
<!-- reduce_01&#45;&gt;a_01 -->
<g id="edge9" class="edge"><title>reduce_01&#45;&gt;a_01</title>
<path fill="none" stroke="red" d="M631.947,-161.949C640.741,-157.615 650.513,-153.517 660,-151 671.13,-148.047 682.901,-145.86 694.732,-144.259"/>
<polygon fill="red" stroke="red" points="695.331,-147.006 702.925,-143.242 694.641,-141.449 695.331,-147.006"/>
<text text-anchor="middle" x="672.5" y="-154" font-family="MS UI Gothic" font-size="10.00" fill="#ff0000">いいえ</text>
</g>
<!-- reduce_02&#45;&gt;a_comp_01 -->
<g id="edge5" class="edge"><title>reduce_02&#45;&gt;a_comp_01</title>
<path fill="none" stroke="blue" d="M627.547,-144.129C637.44,-150.36 648.953,-157.015 660,-162 681.128,-171.534 704.847,-179.815 726.906,-186.584"/>
<polygon fill="blue" stroke="blue" points="726.165,-189.285 734.633,-188.915 727.782,-183.923 726.165,-189.285"/>
<text text-anchor="middle" x="672.5" y="-174" font-family="MS UI Gothic" font-size="10.00" fill="blue">はい</text>
</g>
<!-- reduce_02&#45;&gt;a_01 -->
<g id="edge10" class="edge"><title>reduce_02&#45;&gt;a_01</title>
<path fill="none" stroke="red" d="M642.171,-118.907C648.136,-118.116 654.214,-117.439 660,-117 683.89,-115.188 709.734,-118.033 732.919,-122.375"/>
<polygon fill="red" stroke="red" points="732.61,-125.168 741.001,-123.968 733.694,-119.674 732.61,-125.168"/>
<text text-anchor="middle" x="672.5" y="-120" font-family="MS UI Gothic" font-size="10.00" fill="#ff0000">いいえ</text>
</g>
<!-- la_comp_01 -->
<g id="node10" class="node"><title>la_comp_01</title>
<polygon fill="lightyellow" stroke="blue" points="870.5,-98 736.5,-98 736.5,-60 876.5,-60 876.5,-92 870.5,-98"/>
<polyline fill="none" stroke="blue" points="870.5,-98 870.5,-92 "/>
<polyline fill="none" stroke="blue" points="876.5,-92 870.5,-92 "/>
<text text-anchor="middle" x="806.5" y="-86.8" font-family="Verdana" font-size="9.00">vfx_LA_comp</text>
<text text-anchor="middle" x="806.5" y="-76.8" font-family="Verdana" font-size="9.00">「RGB を二乗して取得」</text>
<text text-anchor="middle" x="806.5" y="-66.8" font-family="Verdana" font-size="9.00">を使用</text>
</g>
<!-- reduce_03&#45;&gt;la_comp_01 -->
<g id="edge6" class="edge"><title>reduce_03&#45;&gt;la_comp_01</title>
<path fill="none" stroke="blue" d="M642.384,-73.4166C667.027,-74.2601 699.086,-75.3575 728.253,-76.3559"/>
<polygon fill="blue" stroke="blue" points="728.304,-79.1591 736.395,-76.6345 728.495,-73.5624 728.304,-79.1591"/>
<text text-anchor="middle" x="672.5" y="-78" font-family="MS UI Gothic" font-size="10.00" fill="blue">はい</text>
</g>
<!-- la_01 -->
<g id="node11" class="node"><title>la_01</title>
<polygon fill="lightyellow" stroke="red" points="870.5,-42 736.5,-42 736.5,-4 876.5,-4 876.5,-36 870.5,-42"/>
<polyline fill="none" stroke="red" points="870.5,-42 870.5,-36 "/>
<polyline fill="none" stroke="red" points="876.5,-36 870.5,-36 "/>
<text text-anchor="middle" x="806.5" y="-30.8" font-family="Verdana" font-size="9.00">vfx_LA</text>
<text text-anchor="middle" x="806.5" y="-20.8" font-family="Verdana" font-size="9.00">「RGB を二乗して取得」</text>
<text text-anchor="middle" x="806.5" y="-10.8" font-family="Verdana" font-size="9.00">を使用</text>
</g>
<!-- reduce_03&#45;&gt;la_01 -->
<g id="edge11" class="edge"><title>reduce_03&#45;&gt;la_01</title>
<path fill="none" stroke="red" d="M642.384,-62.0841C667.027,-56.1794 699.086,-48.4977 728.253,-41.509"/>
<polygon fill="red" stroke="red" points="729.268,-44.1453 736.395,-39.5582 727.963,-38.6995 729.268,-44.1453"/>
<text text-anchor="middle" x="672.5" y="-61" font-family="MS UI Gothic" font-size="10.00" fill="#ff0000">いいえ</text>
</g>
<!-- rgba_comp_01 -->
<g id="node12" class="node"><title>rgba_comp_01</title>
<polygon fill="lightyellow" stroke="blue" points="472,-90 366,-90 366,-54 478,-54 478,-84 472,-90"/>
<polyline fill="none" stroke="blue" points="472,-90 472,-84 "/>
<polyline fill="none" stroke="blue" points="478,-84 472,-84 "/>
<text text-anchor="middle" x="422" y="-69.8" font-family="Verdana" font-size="9.00">vfx_linr_RGBA_comp</text>
</g>
<!-- reduce_04&#45;&gt;rgba_comp_01 -->
<g id="edge7" class="edge"><title>reduce_04&#45;&gt;rgba_comp_01</title>
<path fill="none" stroke="blue" d="M283.066,-72C305.137,-72 332.831,-72 357.601,-72"/>
<polygon fill="blue" stroke="blue" points="357.877,-74.8001 365.877,-72 357.877,-69.2001 357.877,-74.8001"/>
<text text-anchor="middle" x="316.5" y="-75" font-family="MS UI Gothic" font-size="10.00" fill="blue">はい</text>
</g>
<!-- rgba_01 -->
<g id="node13" class="node"><title>rgba_01</title>
<polygon fill="lightyellow" stroke="red" points="456.5,-36 381.5,-36 381.5,-0 462.5,-0 462.5,-30 456.5,-36"/>
<polyline fill="none" stroke="red" points="456.5,-36 456.5,-30 "/>
<polyline fill="none" stroke="red" points="462.5,-30 456.5,-30 "/>
<text text-anchor="middle" x="422" y="-15.8" font-family="Verdana" font-size="9.00">vfx_linr_RGBA</text>
</g>
<!-- reduce_04&#45;&gt;rgba_01 -->
<g id="edge14" class="edge"><title>reduce_04&#45;&gt;rgba_01</title>
<path fill="none" stroke="red" d="M283.066,-59.6113C310.049,-51.4712 345.437,-40.7954 373.613,-32.2955"/>
<polygon fill="red" stroke="red" points="374.505,-34.951 381.356,-29.9597 372.888,-29.5897 374.505,-34.951"/>
<text text-anchor="middle" x="316.5" y="-56" font-family="MS UI Gothic" font-size="10.00" fill="#ff0000">いいえ</text>
</g>
</g>
</svg>
