<?xml version="1.0" encoding="UTF-8" standalone="no"?>
<!DOCTYPE svg PUBLIC "-//W3C//DTD SVG 1.1//EN"
 "http://www.w3.org/Graphics/SVG/1.1/DTD/svg11.dtd">
<!-- Generated by graphviz version 2.38.0 (20140413.2041)
 -->
<!-- Pages: 1 -->
<svg width="789pt" height="232pt"
 viewBox="0.00 0.00 789.00 232.00" xmlns="http://www.w3.org/2000/svg" xmlns:xlink="http://www.w3.org/1999/xlink">
<g id="graph0" class="graph" transform="scale(1 1) rotate(0) translate(4 228)">
<polygon fill="white" stroke="none" points="-4,4 -4,-228 785,-228 785,4 -4,4"/>
<!-- top -->
<g id="node1" class="node"><title>top</title>
<path fill="none" stroke="black" d="M123,-119C123,-119 12,-119 12,-119 6,-119 0,-113 0,-107 0,-107 0,-95 0,-95 0,-89 6,-83 12,-83 12,-83 123,-83 123,-83 129,-83 135,-89 135,-95 135,-95 135,-107 135,-107 135,-113 129,-119 123,-119"/>
<text text-anchor="middle" x="67.5" y="-103.8" font-family="Verdana" font-size="9.00">使う色は</text>
<text text-anchor="middle" x="67.5" y="-93.8" font-family="Verdana" font-size="9.00">2色間のグラデーション</text>
</g>
<!-- alpha_01 -->
<g id="node2" class="node"><title>alpha_01</title>
<polygon fill="lightblue" stroke="black" points="286,-144 196,-144 196,-108 286,-108 286,-144"/>
<text text-anchor="middle" x="241" y="-128.8" font-family="Verdana" font-size="9.00">αチャンネルを</text>
<text text-anchor="middle" x="241" y="-118.8" font-family="Verdana" font-size="9.00">使いたい</text>
</g>
<!-- top&#45;&gt;alpha_01 -->
<g id="edge1" class="edge"><title>top&#45;&gt;alpha_01</title>
<path fill="none" stroke="blue" d="M135.297,-110.737C152.756,-113.282 171.317,-115.988 187.888,-118.403"/>
<polygon fill="blue" stroke="blue" points="187.528,-121.181 195.848,-119.564 188.336,-115.639 187.528,-121.181"/>
<text text-anchor="middle" x="165.5" y="-119" font-family="MS UI Gothic" font-size="10.00" fill="blue">はい</text>
</g>
<!-- reduce_04 -->
<g id="node7" class="node"><title>reduce_04</title>
<polygon fill="lightpink" stroke="black" points="283,-90 199,-90 199,-54 283,-54 283,-90"/>
<text text-anchor="middle" x="241" y="-74.8" font-family="Verdana" font-size="9.00">データ容量を</text>
<text text-anchor="middle" x="241" y="-64.8" font-family="Verdana" font-size="9.00">減らしたい</text>
</g>
<!-- top&#45;&gt;reduce_04 -->
<g id="edge13" class="edge"><title>top&#45;&gt;reduce_04</title>
<path fill="none" stroke="red" d="M135.297,-89.7048C153.726,-86.5887 173.383,-83.2647 190.63,-80.3482"/>
<polygon fill="red" stroke="red" points="191.466,-83.0467 198.887,-78.952 190.533,-77.5251 191.466,-83.0467"/>
<text text-anchor="middle" x="165.5" y="-90" font-family="MS UI Gothic" font-size="10.00" fill="#ff0000">いいえ</text>
</g>
<!-- same_01 -->
<g id="node3" class="node"><title>same_01</title>
<polygon fill="lightblue" stroke="black" points="497,-144 347,-144 347,-108 497,-108 497,-144"/>
<text text-anchor="middle" x="422" y="-128.8" font-family="Verdana" font-size="9.00">RGB(明度)とαチャンネルの</text>
<text text-anchor="middle" x="422" y="-118.8" font-family="Verdana" font-size="9.00">イメージは同じで良い</text>
</g>
<!-- alpha_01&#45;&gt;same_01 -->
<g id="edge2" class="edge"><title>alpha_01&#45;&gt;same_01</title>
<path fill="none" stroke="blue" d="M286.247,-126C302.138,-126 320.612,-126 338.692,-126"/>
<polygon fill="blue" stroke="blue" points="338.96,-128.8 346.96,-126 338.96,-123.2 338.96,-128.8"/>
<text text-anchor="middle" x="316.5" y="-129" font-family="MS UI Gothic" font-size="10.00" fill="blue">はい</text>
</g>
<!-- reduce_01 -->
<g id="node4" class="node"><title>reduce_01</title>
<polygon fill="lightpink" stroke="black" points="642,-198 558,-198 558,-162 642,-162 642,-198"/>
<text text-anchor="middle" x="600" y="-182.8" font-family="Verdana" font-size="9.00">データ容量を</text>
<text text-anchor="middle" x="600" y="-172.8" font-family="Verdana" font-size="9.00">減らしたい</text>
</g>
<!-- alpha_01&#45;&gt;reduce_01 -->
<g id="edge8" class="edge"><title>alpha_01&#45;&gt;reduce_01</title>
<path fill="none" stroke="red" d="M286.134,-138.866C304.78,-143.905 326.812,-149.343 347,-153 416.721,-165.63 498.442,-173.054 549.478,-176.824"/>
<polygon fill="red" stroke="red" points="549.528,-179.635 557.709,-177.42 549.932,-174.05 549.528,-179.635"/>
<text text-anchor="middle" x="422" y="-175" font-family="MS UI Gothic" font-size="10.00" fill="#ff0000">いいえ</text>
</g>
<!-- reduce_02 -->
<g id="node5" class="node"><title>reduce_02</title>
<polygon fill="lightblue" stroke="black" points="642,-144 558,-144 558,-108 642,-108 642,-144"/>
<text text-anchor="middle" x="600" y="-128.8" font-family="Verdana" font-size="9.00">データ容量を</text>
<text text-anchor="middle" x="600" y="-118.8" font-family="Verdana" font-size="9.00">減らしたい</text>
</g>
<!-- same_01&#45;&gt;reduce_02 -->
<g id="edge4" class="edge"><title>same_01&#45;&gt;reduce_02</title>
<path fill="none" stroke="blue" d="M497.13,-126C514.73,-126 533.089,-126 549.295,-126"/>
<polygon fill="blue" stroke="blue" points="549.559,-128.8 557.559,-126 549.559,-123.2 549.559,-128.8"/>
<text text-anchor="middle" x="527.5" y="-129" font-family="MS UI Gothic" font-size="10.00" fill="blue">はい</text>
</g>
<!-- reduce_03 -->
<g id="node6" class="node"><title>reduce_03</title>
<polygon fill="lightpink" stroke="black" points="642,-90 558,-90 558,-54 642,-54 642,-90"/>
<text text-anchor="middle" x="600" y="-74.8" font-family="Verdana" font-size="9.00">データ容量を</text>
<text text-anchor="middle" x="600" y="-64.8" font-family="Verdana" font-size="9.00">減らしたい</text>
</g>
<!-- same_01&#45;&gt;reduce_03 -->
<g id="edge12" class="edge"><title>same_01&#45;&gt;reduce_03</title>
<path fill="none" stroke="red" d="M482.095,-107.869C504.144,-101.104 528.917,-93.5028 549.963,-87.0453"/>
<polygon fill="red" stroke="red" points="551.007,-89.654 557.834,-84.6305 549.364,-84.3003 551.007,-89.654"/>
<text text-anchor="middle" x="527.5" y="-100" font-family="MS UI Gothic" font-size="10.00" fill="#ff0000">いいえ</text>
</g>
<!-- a_comp_01 -->
<g id="node8" class="node"><title>a_comp_01</title>
<polygon fill="lightyellow" stroke="blue" points="770,-224 708,-224 708,-188 776,-188 776,-218 770,-224"/>
<polyline fill="none" stroke="blue" points="770,-224 770,-218 "/>
<polyline fill="none" stroke="blue" points="776,-218 770,-218 "/>
<text text-anchor="middle" x="742" y="-204.1" font-family="Verdana" font-size="8.00">vfx_L_comp</text>
</g>
<!-- reduce_01&#45;&gt;a_comp_01 -->
<g id="edge3" class="edge"><title>reduce_01&#45;&gt;a_comp_01</title>
<path fill="none" stroke="blue" d="M642.087,-191.942C648.064,-193.446 654.168,-194.855 660,-196 672.774,-198.507 686.812,-200.503 699.562,-202.031"/>
<polygon fill="blue" stroke="blue" points="699.46,-204.838 707.727,-202.969 700.099,-199.275 699.46,-204.838"/>
<text text-anchor="middle" x="672.5" y="-203" font-family="MS UI Gothic" font-size="10.00" fill="blue">はい</text>
</g>
<!-- a_01 -->
<g id="node9" class="node"><title>a_01</title>
<polygon fill="lightyellow" stroke="red" points="763,-159 715,-159 715,-123 769,-123 769,-153 763,-159"/>
<polyline fill="none" stroke="red" points="763,-159 763,-153 "/>
<polyline fill="none" stroke="red" points="769,-153 763,-153 "/>
<text text-anchor="middle" x="742" y="-139.1" font-family="Verdana" font-size="8.00">vfx_L</text>
</g>
<!-- reduce_01&#45;&gt;a_01 -->
<g id="edge9" class="edge"><title>reduce_01&#45;&gt;a_01</title>
<path fill="none" stroke="red" d="M632.978,-161.878C641.528,-157.708 650.922,-153.707 660,-151 674.869,-146.565 691.839,-144.095 706.391,-142.72"/>
<polygon fill="red" stroke="red" points="706.907,-145.486 714.646,-142.03 706.441,-139.906 706.907,-145.486"/>
<text text-anchor="middle" x="672.5" y="-154" font-family="MS UI Gothic" font-size="10.00" fill="#ff0000">いいえ</text>
</g>
<!-- reduce_02&#45;&gt;a_comp_01 -->
<g id="edge5" class="edge"><title>reduce_02&#45;&gt;a_comp_01</title>
<path fill="none" stroke="blue" d="M629.936,-144.054C639.452,-149.884 650.123,-156.309 660,-162 673.104,-169.55 687.57,-177.522 700.609,-184.575"/>
<polygon fill="blue" stroke="blue" points="699.317,-187.06 707.687,-188.391 701.974,-182.13 699.317,-187.06"/>
<text text-anchor="middle" x="672.5" y="-178" font-family="MS UI Gothic" font-size="10.00" fill="blue">はい</text>
</g>
<!-- reduce_02&#45;&gt;a_01 -->
<g id="edge10" class="edge"><title>reduce_02&#45;&gt;a_01</title>
<path fill="none" stroke="red" d="M642.259,-116.53C655.947,-114.727 671.207,-114.169 685,-117 692.457,-118.531 700.147,-121.097 707.35,-123.997"/>
<polygon fill="red" stroke="red" points="706.484,-126.672 714.94,-127.24 708.684,-121.522 706.484,-126.672"/>
<text text-anchor="middle" x="672.5" y="-120" font-family="MS UI Gothic" font-size="10.00" fill="#ff0000">いいえ</text>
</g>
<!-- la_comp_01 -->
<g id="node10" class="node"><title>la_comp_01</title>
<polygon fill="lightyellow" stroke="blue" points="775,-97 703,-97 703,-61 781,-61 781,-91 775,-97"/>
<polyline fill="none" stroke="blue" points="775,-97 775,-91 "/>
<polyline fill="none" stroke="blue" points="781,-91 775,-91 "/>
<text text-anchor="middle" x="742" y="-76.8" font-family="Verdana" font-size="9.00">vfx_LA_comp</text>
</g>
<!-- reduce_03&#45;&gt;la_comp_01 -->
<g id="edge6" class="edge"><title>reduce_03&#45;&gt;la_comp_01</title>
<path fill="none" stroke="blue" d="M642.247,-74.0624C658.744,-74.8872 677.82,-75.841 694.782,-76.6891"/>
<polygon fill="blue" stroke="blue" points="694.788,-79.4928 702.918,-77.0959 695.068,-73.8998 694.788,-79.4928"/>
<text text-anchor="middle" x="672.5" y="-80" font-family="MS UI Gothic" font-size="10.00" fill="blue">はい</text>
</g>
<!-- la_01 -->
<g id="node11" class="node"><title>la_01</title>
<polygon fill="lightyellow" stroke="red" points="763,-43 715,-43 715,-7 769,-7 769,-37 763,-43"/>
<polyline fill="none" stroke="red" points="763,-43 763,-37 "/>
<polyline fill="none" stroke="red" points="769,-37 763,-37 "/>
<text text-anchor="middle" x="742" y="-22.8" font-family="Verdana" font-size="9.00">vfx_LA</text>
</g>
<!-- reduce_03&#45;&gt;la_01 -->
<g id="edge11" class="edge"><title>reduce_03&#45;&gt;la_01</title>
<path fill="none" stroke="red" d="M642.247,-58.1527C662.806,-51.251 687.368,-43.0049 706.854,-36.4633"/>
<polygon fill="red" stroke="red" points="707.902,-39.065 714.595,-33.8645 706.12,-33.7562 707.902,-39.065"/>
<text text-anchor="middle" x="672.5" y="-55" font-family="MS UI Gothic" font-size="10.00" fill="#ff0000">いいえ</text>
</g>
<!-- rgba_comp_01 -->
<g id="node12" class="node"><title>rgba_comp_01</title>
<polygon fill="lightyellow" stroke="blue" points="462,-90 376,-90 376,-54 468,-54 468,-84 462,-90"/>
<polyline fill="none" stroke="blue" points="462,-90 462,-84 "/>
<polyline fill="none" stroke="blue" points="468,-84 462,-84 "/>
<text text-anchor="middle" x="422" y="-69.8" font-family="Verdana" font-size="9.00">vfx_RGBA_comp</text>
</g>
<!-- reduce_04&#45;&gt;rgba_comp_01 -->
<g id="edge7" class="edge"><title>reduce_04&#45;&gt;rgba_comp_01</title>
<path fill="none" stroke="blue" d="M283.066,-72C308.135,-72 340.458,-72 367.513,-72"/>
<polygon fill="blue" stroke="blue" points="367.726,-74.8001 375.726,-72 367.726,-69.2001 367.726,-74.8001"/>
<text text-anchor="middle" x="316.5" y="-75" font-family="MS UI Gothic" font-size="10.00" fill="blue">はい</text>
</g>
<!-- rgba_01 -->
<g id="node13" class="node"><title>rgba_01</title>
<polygon fill="lightyellow" stroke="red" points="446.5,-36 391.5,-36 391.5,-0 452.5,-0 452.5,-30 446.5,-36"/>
<polyline fill="none" stroke="red" points="446.5,-36 446.5,-30 "/>
<polyline fill="none" stroke="red" points="452.5,-30 446.5,-30 "/>
<text text-anchor="middle" x="422" y="-15.8" font-family="Verdana" font-size="9.00">vfx_RGBA</text>
</g>
<!-- reduce_04&#45;&gt;rgba_01 -->
<g id="edge14" class="edge"><title>reduce_04&#45;&gt;rgba_01</title>
<path fill="none" stroke="red" d="M283.066,-59.6113C313.257,-50.5034 353.97,-38.2213 383.33,-29.3643"/>
<polygon fill="red" stroke="red" points="384.441,-31.9538 391.291,-26.9625 382.823,-26.5924 384.441,-31.9538"/>
<text text-anchor="middle" x="316.5" y="-56" font-family="MS UI Gothic" font-size="10.00" fill="#ff0000">いいえ</text>
</g>
</g>
</svg>
