<?xml version="1.0" encoding="UTF-8" standalone="no"?>
<!DOCTYPE svg PUBLIC "-//W3C//DTD SVG 1.1//EN"
 "http://www.w3.org/Graphics/SVG/1.1/DTD/svg11.dtd">
<!-- Generated by graphviz version 2.38.0 (20140413.2041)
 -->
<!-- Pages: 1 -->
<svg width="669pt" height="630pt"
 viewBox="0.00 0.00 669.00 630.00" xmlns="http://www.w3.org/2000/svg" xmlns:xlink="http://www.w3.org/1999/xlink">
<g id="graph0" class="graph" transform="scale(1 1) rotate(0) translate(4 626)">
<polygon fill="white" stroke="none" points="-4,4 -4,-626 665,-626 665,4 -4,4"/>
<!-- DescriptorPool -->
<g id="node1" class="node"><title>DescriptorPool</title>
<ellipse fill="lightyellow" stroke="blue" cx="181.072" cy="-323.621" rx="49.1497" ry="18"/>
<text text-anchor="middle" x="181.072" y="-321.421" font-family="Verdana" font-size="9.00">DescriptorPool</text>
</g>
<!-- DescriptorSlot -->
<g id="node2" class="node"><title>DescriptorSlot</title>
<ellipse fill="lightyellow" stroke="blue" cx="227.524" cy="-277.406" rx="47.8403" ry="18"/>
<text text-anchor="middle" x="227.524" y="-275.206" font-family="Verdana" font-size="9.00">DescriptorSlot</text>
</g>
<!-- DescriptorPool&#45;&gt;DescriptorSlot -->
<g id="edge2" class="edge"><title>DescriptorPool&#45;&gt;DescriptorSlot</title>
<path fill="none" stroke="black" d="M198.105,-306.674C200.251,-304.54 202.473,-302.329 204.691,-300.123"/>
<polygon fill="black" stroke="black" points="206.796,-301.978 210.493,-294.35 202.847,-298.008 206.796,-301.978"/>
</g>
<!-- CommandBuffer -->
<g id="node4" class="node"><title>CommandBuffer</title>
<ellipse fill="lightyellow" stroke="black" cx="376.379" cy="-320.439" rx="53.2327" ry="18"/>
<text text-anchor="middle" x="376.379" y="-318.239" font-family="Verdana" font-size="9.00">CommandBuffer</text>
</g>
<!-- DescriptorPool&#45;&gt;CommandBuffer -->
<g id="edge3" class="edge"><title>DescriptorPool&#45;&gt;CommandBuffer</title>
<path fill="none" stroke="black" d="M230.104,-322.822C255.807,-322.403 287.543,-321.886 314.879,-321.441"/>
<polygon fill="black" stroke="black" points="315.256,-324.235 323.209,-321.305 315.165,-318.636 315.256,-324.235"/>
</g>
<!-- DescriptorSlot&#45;&gt;CommandBuffer -->
<g id="edge4" class="edge"><title>DescriptorSlot&#45;&gt;CommandBuffer</title>
<path fill="none" stroke="black" d="M265.858,-288.488C284.793,-293.962 307.842,-300.625 327.981,-306.447"/>
<polygon fill="black" stroke="black" points="327.368,-309.185 335.831,-308.717 328.923,-303.805 327.368,-309.185"/>
</g>
<!-- Pipeline -->
<g id="node3" class="node"><title>Pipeline</title>
<ellipse fill="lightyellow" stroke="blue" cx="442.378" cy="-166.424" rx="30.6995" ry="18"/>
<text text-anchor="middle" x="442.378" y="-164.224" font-family="Verdana" font-size="9.00">Pipeline</text>
</g>
<!-- Pipeline&#45;&gt;CommandBuffer -->
<g id="edge14" class="edge"><title>Pipeline&#45;&gt;CommandBuffer</title>
<path fill="none" stroke="black" d="M434.807,-184.092C423.133,-211.334 400.686,-263.715 387.269,-295.025"/>
<polygon fill="black" stroke="black" points="384.642,-294.047 384.064,-302.503 389.789,-296.253 384.642,-294.047"/>
</g>
<!-- Queue -->
<g id="node5" class="node"><title>Queue</title>
<ellipse fill="lightyellow" stroke="black" cx="405.447" cy="-493.083" rx="27.9273" ry="18"/>
<text text-anchor="middle" x="405.447" y="-490.883" font-family="Verdana" font-size="9.00">Queue</text>
</g>
<!-- CommandBuffer&#45;&gt;Queue -->
<g id="edge1" class="edge"><title>CommandBuffer&#45;&gt;Queue</title>
<path fill="none" stroke="black" d="M379.434,-338.588C384.616,-369.365 395.143,-431.885 401.094,-467.23"/>
<polygon fill="black" stroke="black" points="398.343,-467.753 402.432,-475.177 403.865,-466.823 398.343,-467.753"/>
</g>
<!-- Buffer -->
<g id="node6" class="node"><title>Buffer</title>
<ellipse fill="lightyellow" stroke="black" cx="74.0082" cy="-417.962" rx="27" ry="18"/>
<text text-anchor="middle" x="74.0082" y="-415.762" font-family="Verdana" font-size="9.00">Buffer</text>
</g>
<!-- Buffer&#45;&gt;DescriptorPool -->
<g id="edge5" class="edge"><title>Buffer&#45;&gt;DescriptorPool</title>
<path fill="none" stroke="black" d="M90.737,-403.222C108.144,-387.883 135.612,-363.679 155.693,-345.984"/>
<polygon fill="black" stroke="black" points="157.78,-347.877 161.931,-340.487 154.078,-343.675 157.78,-347.877"/>
</g>
<!-- TextureView -->
<g id="node7" class="node"><title>TextureView</title>
<ellipse fill="lightyellow" stroke="black" cx="43.7802" cy="-240.634" rx="43.1034" ry="18"/>
<text text-anchor="middle" x="43.7802" y="-238.434" font-family="Verdana" font-size="9.00">TextureView</text>
</g>
<!-- TextureView&#45;&gt;DescriptorPool -->
<g id="edge6" class="edge"><title>TextureView&#45;&gt;DescriptorPool</title>
<path fill="none" stroke="black" d="M68.3253,-255.47C90.6488,-268.964 123.763,-288.979 148.334,-303.832"/>
<polygon fill="black" stroke="black" points="147.047,-306.325 155.342,-308.068 149.944,-301.533 147.047,-306.325"/>
</g>
<!-- Sampler -->
<g id="node8" class="node"><title>Sampler</title>
<ellipse fill="lightyellow" stroke="black" cx="31.4149" cy="-335.071" rx="31.5104" ry="18"/>
<text text-anchor="middle" x="31.4149" y="-332.871" font-family="Verdana" font-size="9.00">Sampler</text>
</g>
<!-- Sampler&#45;&gt;DescriptorPool -->
<g id="edge7" class="edge"><title>Sampler&#45;&gt;DescriptorPool</title>
<path fill="none" stroke="black" d="M63.1534,-332.643C81.0297,-331.275 103.883,-329.526 124.703,-327.933"/>
<polygon fill="black" stroke="black" points="125.107,-330.711 132.87,-327.308 124.68,-325.127 125.107,-330.711"/>
</g>
<!-- Shader -->
<g id="node9" class="node"><title>Shader</title>
<ellipse fill="lightyellow" stroke="black" cx="403.18" cy="-40.208" rx="28.7356" ry="18"/>
<text text-anchor="middle" x="403.18" y="-38.008" font-family="Verdana" font-size="9.00">Shader</text>
</g>
<!-- Shader&#45;&gt;Pipeline -->
<g id="edge8" class="edge"><title>Shader&#45;&gt;Pipeline</title>
<path fill="none" stroke="black" d="M408.713,-58.024C415.425,-79.636 426.788,-116.226 434.435,-140.847"/>
<polygon fill="black" stroke="black" points="431.826,-141.889 436.873,-148.699 437.174,-140.228 431.826,-141.889"/>
</g>
<!-- RasterizerState -->
<g id="node10" class="node"><title>RasterizerState</title>
<ellipse fill="lightyellow" stroke="black" cx="496.482" cy="-18.1589" rx="51.9231" ry="18"/>
<text text-anchor="middle" x="496.482" y="-15.9589" font-family="Verdana" font-size="9.00">RasterizerState</text>
</g>
<!-- RasterizerState&#45;&gt;Pipeline -->
<g id="edge9" class="edge"><title>RasterizerState&#45;&gt;Pipeline</title>
<path fill="none" stroke="black" d="M489.956,-36.0432C480.41,-62.2028 462.592,-111.032 451.677,-140.941"/>
<polygon fill="black" stroke="black" points="449.04,-140.001 448.927,-148.477 454.3,-141.921 449.04,-140.001"/>
</g>
<!-- BlendState -->
<g id="node11" class="node"><title>BlendState</title>
<ellipse fill="lightyellow" stroke="black" cx="547.242" cy="-77.2394" rx="39.0211" ry="18"/>
<text text-anchor="middle" x="547.242" y="-75.0394" font-family="Verdana" font-size="9.00">BlendState</text>
</g>
<!-- BlendState&#45;&gt;Pipeline -->
<g id="edge10" class="edge"><title>BlendState&#45;&gt;Pipeline</title>
<path fill="none" stroke="black" d="M528.494,-93.1839C511.028,-108.039 484.913,-130.249 466.023,-146.314"/>
<polygon fill="black" stroke="black" points="464.197,-144.192 459.917,-151.508 467.825,-148.458 464.197,-144.192"/>
</g>
<!-- DepthStencilState -->
<g id="node12" class="node"><title>DepthStencilState</title>
<ellipse fill="lightyellow" stroke="black" cx="436.47" cy="-119.385" rx="58.1254" ry="18"/>
<text text-anchor="middle" x="436.47" y="-117.185" font-family="Verdana" font-size="9.00">DepthStencilState</text>
</g>
<!-- DepthStencilState&#45;&gt;Pipeline -->
<g id="edge11" class="edge"><title>DepthStencilState&#45;&gt;Pipeline</title>
<path fill="none" stroke="black" d="M438.738,-137.437C438.848,-138.318 438.96,-139.209 439.073,-140.107"/>
<polygon fill="black" stroke="black" points="436.313,-140.598 440.088,-148.187 441.869,-139.9 436.313,-140.598"/>
</g>
<!-- VertexState -->
<g id="node13" class="node"><title>VertexState</title>
<ellipse fill="lightyellow" stroke="black" cx="321.579" cy="-92.0751" rx="42.2937" ry="18"/>
<text text-anchor="middle" x="321.579" y="-89.8751" font-family="Verdana" font-size="9.00">VertexState</text>
</g>
<!-- VertexState&#45;&gt;Pipeline -->
<g id="edge12" class="edge"><title>VertexState&#45;&gt;Pipeline</title>
<path fill="none" stroke="black" d="M345.734,-106.942C365.443,-119.072 393.323,-136.232 414.076,-149.005"/>
<polygon fill="black" stroke="black" points="412.814,-151.516 421.094,-153.325 415.749,-146.747 412.814,-151.516"/>
</g>
<!-- RenderTargetState -->
<g id="node14" class="node"><title>RenderTargetState</title>
<ellipse fill="lightyellow" stroke="black" cx="599.626" cy="-141.732" rx="61.5538" ry="18"/>
<text text-anchor="middle" x="599.626" y="-139.532" font-family="Verdana" font-size="9.00">RenderTargetState</text>
</g>
<!-- RenderTargetState&#45;&gt;Pipeline -->
<g id="edge13" class="edge"><title>RenderTargetState&#45;&gt;Pipeline</title>
<path fill="none" stroke="black" d="M545.07,-150.299C523.648,-153.663 499.587,-157.441 480.143,-160.494"/>
<polygon fill="black" stroke="black" points="479.583,-157.748 472.114,-161.755 480.452,-163.28 479.583,-157.748"/>
</g>
<!-- ColorTargetView -->
<g id="node15" class="node"><title>ColorTargetView</title>
<ellipse fill="lightyellow" stroke="black" cx="519.312" cy="-408.055" rx="54.697" ry="18"/>
<text text-anchor="middle" x="519.312" y="-405.855" font-family="Verdana" font-size="9.00">ColorTargetView</text>
</g>
<!-- ColorTargetView&#45;&gt;CommandBuffer -->
<g id="edge15" class="edge"><title>ColorTargetView&#45;&gt;CommandBuffer</title>
<path fill="none" stroke="black" d="M493.096,-391.985C469.522,-377.535 434.79,-356.244 409.343,-340.645"/>
<polygon fill="black" stroke="black" points="410.712,-338.201 402.428,-336.407 407.786,-342.975 410.712,-338.201"/>
</g>
<!-- DepthStencilView -->
<g id="node16" class="node"><title>DepthStencilView</title>
<ellipse fill="lightyellow" stroke="black" cx="544.373" cy="-324.24" rx="56.6608" ry="18"/>
<text text-anchor="middle" x="544.373" y="-322.04" font-family="Verdana" font-size="9.00">DepthStencilView</text>
</g>
<!-- DepthStencilView&#45;&gt;CommandBuffer -->
<g id="edge16" class="edge"><title>DepthStencilView&#45;&gt;CommandBuffer</title>
<path fill="none" stroke="black" d="M487.498,-322.953C471.529,-322.591 454.095,-322.197 437.871,-321.83"/>
<polygon fill="black" stroke="black" points="437.573,-319.023 429.511,-321.641 437.446,-324.621 437.573,-319.023"/>
</g>
<!-- ViewportScissorState -->
<g id="node17" class="node"><title>ViewportScissorState</title>
<ellipse fill="lightyellow" stroke="black" cx="344.935" cy="-364.581" rx="67.6" ry="18"/>
<text text-anchor="middle" x="344.935" y="-362.381" font-family="Verdana" font-size="9.00">ViewportScissorState</text>
</g>
<!-- ViewportScissorState&#45;&gt;CommandBuffer -->
<g id="edge17" class="edge"><title>ViewportScissorState&#45;&gt;CommandBuffer</title>
<path fill="none" stroke="black" d="M357.543,-346.881C358.056,-346.161 358.573,-345.435 359.093,-344.706"/>
<polygon fill="black" stroke="black" points="361.407,-346.283 363.768,-338.143 356.846,-343.034 361.407,-346.283"/>
</g>
<!-- SwapChain -->
<g id="node18" class="node"><title>SwapChain</title>
<ellipse fill="lightyellow" stroke="black" cx="341.604" cy="-601.681" rx="40.3292" ry="18"/>
<text text-anchor="middle" x="341.604" y="-599.481" font-family="Verdana" font-size="9.00">SwapChain</text>
</g>
<!-- SwapChain&#45;&gt;Queue -->
<g id="edge18" class="edge"><title>SwapChain&#45;&gt;Queue</title>
<path fill="none" stroke="black" d="M351.862,-584.233C362.535,-566.077 379.327,-537.514 391.267,-517.204"/>
<polygon fill="black" stroke="black" points="393.785,-518.445 395.426,-510.13 388.957,-515.607 393.785,-518.445"/>
</g>
<!-- Fence -->
<g id="node19" class="node"><title>Fence</title>
<ellipse fill="lightyellow" stroke="black" cx="424.586" cy="-604.382" rx="27" ry="18"/>
<text text-anchor="middle" x="424.586" y="-602.182" font-family="Verdana" font-size="9.00">Fence</text>
</g>
<!-- Fence&#45;&gt;Queue -->
<g id="edge19" class="edge"><title>Fence&#45;&gt;Queue</title>
<path fill="none" stroke="black" d="M421.426,-586.003C418.29,-567.77 413.456,-539.658 409.926,-519.128"/>
<polygon fill="black" stroke="black" points="412.664,-518.53 408.549,-511.12 407.145,-519.479 412.664,-518.53"/>
</g>
<!-- Semaphore -->
<g id="node20" class="node"><title>Semaphore</title>
<ellipse fill="lightyellow" stroke="black" cx="503.448" cy="-579.304" rx="40.9837" ry="18"/>
<text text-anchor="middle" x="503.448" y="-577.104" font-family="Verdana" font-size="9.00">Semaphore</text>
</g>
<!-- Semaphore&#45;&gt;Queue -->
<g id="edge20" class="edge"><title>Semaphore&#45;&gt;Queue</title>
<path fill="none" stroke="black" d="M485.015,-563.087C468.916,-548.923 445.489,-528.312 428.222,-513.12"/>
<polygon fill="black" stroke="black" points="430.019,-510.972 422.164,-507.79 426.32,-515.177 430.019,-510.972"/>
</g>
</g>
</svg>
