<?xml version="1.0" encoding="UTF-8" standalone="no"?>
<!DOCTYPE svg PUBLIC "-//W3C//DTD SVG 1.1//EN"
 "http://www.w3.org/Graphics/SVG/1.1/DTD/svg11.dtd">
<!-- Generated by graphviz version 2.38.0 (20140413.2041)
 -->
<!-- Pages: 1 -->
<svg width="1055pt" height="118pt"
 viewBox="0.00 0.00 1054.50 118.00" xmlns="http://www.w3.org/2000/svg" xmlns:xlink="http://www.w3.org/1999/xlink">
<g id="graph0" class="graph" transform="scale(1 1) rotate(0) translate(4 114)">
<polygon fill="white" stroke="none" points="-4,4 -4,-114 1050.5,-114 1050.5,4 -4,4"/>
<!-- glsl -->
<g id="node1" class="node"><title>glsl</title>
<polygon fill="lightpink" stroke="black" points="125,-38 0,-38 0,-0 125,-0 125,-38"/>
<text text-anchor="middle" x="62.5" y="-26.8" font-family="meiryo" font-size="9.00">シェーダーソース</text>
<text text-anchor="middle" x="62.5" y="-16.8" font-family="meiryo" font-size="9.00">+</text>
<text text-anchor="middle" x="62.5" y="-6.8" font-family="meiryo" font-size="9.00">シェーダーアノテーション</text>
</g>
<!-- fsc -->
<g id="node4" class="node"><title>fsc</title>
<polygon fill="#ffe1ff" stroke="black" points="290.5,-110 120.5,-110 120.5,-74 290.5,-74 290.5,-110"/>
<text text-anchor="middle" x="205.5" y="-89.8" font-family="meiryo" font-size="9.00">シェーダー設定ファイル(.fsca, .fscb)</text>
</g>
<!-- glsl&#45;&gt;fsc -->
<g id="edge1" class="edge"><title>glsl&#45;&gt;fsc</title>
<path fill="none" stroke="black" d="M98.9723,-38.1086C121.203,-49.1464 149.434,-63.1632 171.248,-73.9937"/>
</g>
<!-- glsl2 -->
<g id="node2" class="node"><title>glsl2</title>
<polygon fill="lightpink" stroke="black" points="268,-38 143,-38 143,-0 268,-0 268,-38"/>
<text text-anchor="middle" x="205.5" y="-26.8" font-family="meiryo" font-size="9.00">シェーダーソース</text>
<text text-anchor="middle" x="205.5" y="-16.8" font-family="meiryo" font-size="9.00">+</text>
<text text-anchor="middle" x="205.5" y="-6.8" font-family="meiryo" font-size="9.00">シェーダーアノテーション</text>
</g>
<!-- glsl2&#45;&gt;fsc -->
<g id="edge2" class="edge"><title>glsl2&#45;&gt;fsc</title>
<path fill="none" stroke="black" d="M205.5,-38.0196C205.5,-49.0096 205.5,-62.9782 205.5,-73.8129"/>
</g>
<!-- glsl3 -->
<g id="node3" class="node"><title>glsl3</title>
<polygon fill="lightpink" stroke="black" points="411,-38 286,-38 286,-0 411,-0 411,-38"/>
<text text-anchor="middle" x="348.5" y="-26.8" font-family="meiryo" font-size="9.00">シェーダーソース</text>
<text text-anchor="middle" x="348.5" y="-16.8" font-family="meiryo" font-size="9.00">+</text>
<text text-anchor="middle" x="348.5" y="-6.8" font-family="meiryo" font-size="9.00">シェーダーアノテーション</text>
</g>
<!-- glsl3&#45;&gt;fsc -->
<g id="edge3" class="edge"><title>glsl3&#45;&gt;fsc</title>
<path fill="none" stroke="black" d="M312.028,-38.1086C289.797,-49.1464 261.566,-63.1632 239.752,-73.9937"/>
</g>
<!-- g3dconverter1 -->
<g id="node8" class="node"><title>g3dconverter1</title>
<ellipse fill="none" stroke="black" stroke-dasharray="5,2" cx="399.5" cy="-92" rx="90.5137" ry="18"/>
<text text-anchor="middle" x="399.5" y="-90.1" font-family="meiryo" font-size="8.00">3Dシェーダーコンバーターによる変換</text>
</g>
<!-- fsc&#45;&gt;g3dconverter1 -->
<g id="edge4" class="edge"><title>fsc&#45;&gt;g3dconverter1</title>
<path fill="none" stroke="black" d="M290.754,-92C294.006,-92 297.258,-92 300.511,-92"/>
<polygon fill="black" stroke="black" points="300.595,-94.8001 308.595,-92 300.595,-89.2001 300.595,-94.8001"/>
</g>
<!-- fsd -->
<g id="node5" class="node"><title>fsd</title>
<polygon fill="#ffe1ff" stroke="black" points="652.5,-110 508.5,-110 508.5,-74 652.5,-74 652.5,-110"/>
<text text-anchor="middle" x="580.5" y="-89.8" font-family="meiryo" font-size="9.00">シェーダー定義ファイル(.fsdb)</text>
</g>
<!-- g3dconverter2 -->
<g id="node9" class="node"><title>g3dconverter2</title>
<ellipse fill="none" stroke="black" stroke-dasharray="5,2" cx="761.5" cy="-92" rx="90.5137" ry="18"/>
<text text-anchor="middle" x="761.5" y="-90.1" font-family="meiryo" font-size="8.00">3Dシェーダーコンバーターによる変換</text>
</g>
<!-- fsd&#45;&gt;g3dconverter2 -->
<g id="edge6" class="edge"><title>fsd&#45;&gt;g3dconverter2</title>
<path fill="none" stroke="black" d="M652.617,-92C655.874,-92 659.13,-92 662.386,-92"/>
<polygon fill="black" stroke="black" points="662.481,-94.8001 670.481,-92 662.481,-89.2001 662.481,-94.8001"/>
</g>
<!-- fsv -->
<g id="node6" class="node"><title>fsv</title>
<polygon fill="#ffe1ff" stroke="black" points="869.5,-37 653.5,-37 653.5,-1 869.5,-1 869.5,-37"/>
<text text-anchor="middle" x="761.5" y="-16.8" font-family="meiryo" font-size="9.00">シェーダーバリエーションファイル(.fsva, .fsvb)</text>
</g>
<!-- fsv&#45;&gt;g3dconverter2 -->
<g id="edge7" class="edge"><title>fsv&#45;&gt;g3dconverter2</title>
<path fill="none" stroke="black" d="M761.5,-37.0288C761.5,-45.6382 761.5,-56.2566 761.5,-65.791"/>
<polygon fill="black" stroke="black" points="758.7,-65.8128 761.5,-73.8129 764.3,-65.8129 758.7,-65.8128"/>
</g>
<!-- bfsha -->
<g id="node7" class="node"><title>bfsha</title>
<polygon fill="lavender" stroke="black" points="1046.5,-110 870.5,-110 870.5,-74 1046.5,-74 1046.5,-110"/>
<text text-anchor="middle" x="958.5" y="-89.8" font-family="meiryo" font-size="9.00">シェーダーアーカイブファイル(.bfsha)</text>
</g>
<!-- g3dconverter1&#45;&gt;fsd -->
<g id="edge5" class="edge"><title>g3dconverter1&#45;&gt;fsd</title>
<path fill="none" stroke="black" d="M490.354,-92C493.627,-92 496.901,-92 500.175,-92"/>
<polygon fill="black" stroke="black" points="500.312,-94.8001 508.312,-92 500.312,-89.2001 500.312,-94.8001"/>
</g>
<!-- g3dconverter2&#45;&gt;bfsha -->
<g id="edge8" class="edge"><title>g3dconverter2&#45;&gt;bfsha</title>
<path fill="none" stroke="black" d="M852.305,-92C855.556,-92 858.808,-92 862.06,-92"/>
<polygon fill="black" stroke="black" points="862.142,-94.8001 870.142,-92 862.142,-89.2001 862.142,-94.8001"/>
</g>
</g>
</svg>
