<?xml version="1.0" encoding="UTF-8" standalone="no"?>
<!DOCTYPE svg PUBLIC "-//W3C//DTD SVG 1.1//EN"
 "http://www.w3.org/Graphics/SVG/1.1/DTD/svg11.dtd">
<!-- Generated by graphviz version 2.38.0 (20140413.2041)
 -->
<!-- Pages: 1 -->
<svg width="1290pt" height="260pt"
 viewBox="0.00 0.00 1290.00 260.00" xmlns="http://www.w3.org/2000/svg" xmlns:xlink="http://www.w3.org/1999/xlink">
<g id="graph0" class="graph" transform="scale(1 1) rotate(0) translate(4 256)">
<polygon fill="white" stroke="none" points="-4,4 -4,-256 1286,-256 1286,4 -4,4"/>
<!-- ShaderArchive -->
<g id="node1" class="node"><title>ShaderArchive</title>
<polygon fill="lavender" stroke="black" points="673,-252 469,-252 469,-216 673,-216 673,-252"/>
<text text-anchor="middle" x="571" y="-236.6" font-family="Verdana" font-size="8.00">シェーダーアーカイブ</text>
<text text-anchor="middle" x="571" y="-227.6" font-family="Verdana" font-size="8.00">nn::g3d::ResShaderArchive</text>
</g>
<!-- ShadingModel0 -->
<g id="node2" class="node"><title>ShadingModel0</title>
<polygon fill="#ffe1ff" stroke="black" points="483,-180 279,-180 279,-144 483,-144 483,-180"/>
<text text-anchor="middle" x="381" y="-164.6" font-family="Verdana" font-size="8.00">シェーディングモデル</text>
<text text-anchor="middle" x="381" y="-155.6" font-family="Verdana" font-size="8.00">nn::g3d::ResShadingModel</text>
</g>
<!-- ShaderArchive&#45;&gt;ShadingModel0 -->
<g id="edge1" class="edge"><title>ShaderArchive&#45;&gt;ShadingModel0</title>
<path fill="none" stroke="black" d="M524.521,-215.876C497.508,-205.924 463.34,-193.336 435.119,-182.939"/>
<polygon fill="black" stroke="black" points="435.803,-180.207 427.328,-180.068 433.867,-185.461 435.803,-180.207"/>
</g>
<!-- ShadingModel1 -->
<g id="node3" class="node"><title>ShadingModel1</title>
<polygon fill="#ffe1ff" stroke="black" points="872,-180 668,-180 668,-144 872,-144 872,-180"/>
<text text-anchor="middle" x="770" y="-164.6" font-family="Verdana" font-size="8.00">シェーディングモデル</text>
<text text-anchor="middle" x="770" y="-155.6" font-family="Verdana" font-size="8.00">nn::g3d::ResShadingModel</text>
</g>
<!-- ShaderArchive&#45;&gt;ShadingModel1 -->
<g id="edge2" class="edge"><title>ShaderArchive&#45;&gt;ShadingModel1</title>
<path fill="none" stroke="black" d="M619.426,-215.966C647.836,-205.972 683.866,-193.298 713.558,-182.854"/>
<polygon fill="black" stroke="black" points="714.739,-185.407 721.356,-180.111 712.881,-180.124 714.739,-185.407"/>
</g>
<!-- ShaderProgram00 -->
<g id="node4" class="node"><title>ShaderProgram00</title>
<polygon fill="lightpink" stroke="black" points="242,-108 38,-108 38,-72 242,-72 242,-108"/>
<text text-anchor="middle" x="140" y="-92.6" font-family="Verdana" font-size="8.00">シェーダープログラム</text>
<text text-anchor="middle" x="140" y="-83.6" font-family="Verdana" font-size="8.00">nn::g3d::ResShaderProgram</text>
</g>
<!-- ShadingModel0&#45;&gt;ShaderProgram00 -->
<g id="edge3" class="edge"><title>ShadingModel0&#45;&gt;ShaderProgram00</title>
<path fill="none" stroke="black" d="M322.353,-143.966C287.509,-133.845 243.197,-120.974 206.981,-110.455"/>
<polygon fill="black" stroke="black" points="207.374,-107.653 198.91,-108.111 205.812,-113.031 207.374,-107.653"/>
</g>
<!-- ShaderProgram01 -->
<g id="node5" class="node"><title>ShaderProgram01</title>
<polygon fill="lightpink" stroke="black" points="483,-108 279,-108 279,-72 483,-72 483,-108"/>
<text text-anchor="middle" x="381" y="-92.6" font-family="Verdana" font-size="8.00">シェーダープログラム</text>
<text text-anchor="middle" x="381" y="-83.6" font-family="Verdana" font-size="8.00">nn::g3d::ResShaderProgram</text>
</g>
<!-- ShadingModel0&#45;&gt;ShaderProgram01 -->
<g id="edge4" class="edge"><title>ShadingModel0&#45;&gt;ShaderProgram01</title>
<path fill="none" stroke="black" d="M381,-143.697C381,-135.389 381,-125.277 381,-116.141"/>
<polygon fill="black" stroke="black" points="383.8,-116.104 381,-108.104 378.2,-116.104 383.8,-116.104"/>
</g>
<!-- ShaderProgram02 -->
<g id="node6" class="node"><title>ShaderProgram02</title>
<polygon fill="lightpink" stroke="black" points="752,-108 548,-108 548,-72 752,-72 752,-108"/>
<text text-anchor="middle" x="650" y="-92.6" font-family="Verdana" font-size="8.00">シェーダープログラム</text>
<text text-anchor="middle" x="650" y="-83.6" font-family="Verdana" font-size="8.00">nn::g3d::ResShaderProgram</text>
</g>
<!-- ShadingModel1&#45;&gt;ShaderProgram02 -->
<g id="edge5" class="edge"><title>ShadingModel1&#45;&gt;ShaderProgram02</title>
<path fill="none" stroke="black" d="M740.645,-143.876C724.374,-134.385 703.992,-122.496 686.679,-112.396"/>
<polygon fill="black" stroke="black" points="687.789,-109.802 679.468,-108.19 684.968,-114.639 687.789,-109.802"/>
</g>
<!-- ShaderProgram10 -->
<g id="node7" class="node"><title>ShaderProgram10</title>
<polygon fill="lightpink" stroke="black" points="993,-108 789,-108 789,-72 993,-72 993,-108"/>
<text text-anchor="middle" x="891" y="-92.6" font-family="Verdana" font-size="8.00">シェーダープログラム</text>
<text text-anchor="middle" x="891" y="-83.6" font-family="Verdana" font-size="8.00">nn::g3d::ResShaderProgram</text>
</g>
<!-- ShadingModel1&#45;&gt;ShaderProgram10 -->
<g id="edge6" class="edge"><title>ShadingModel1&#45;&gt;ShaderProgram10</title>
<path fill="none" stroke="black" d="M799.6,-143.876C816.007,-134.385 836.558,-122.496 854.015,-112.396"/>
<polygon fill="black" stroke="black" points="855.764,-114.619 861.286,-108.19 852.959,-109.772 855.764,-114.619"/>
</g>
<!-- ShaderProgram11 -->
<g id="node8" class="node"><title>ShaderProgram11</title>
<polygon fill="lightpink" stroke="black" points="1253,-108 1049,-108 1049,-72 1253,-72 1253,-108"/>
<text text-anchor="middle" x="1151" y="-92.6" font-family="Verdana" font-size="8.00">シェーダープログラム</text>
<text text-anchor="middle" x="1151" y="-83.6" font-family="Verdana" font-size="8.00">nn::g3d::ResShaderProgram</text>
</g>
<!-- ShadingModel1&#45;&gt;ShaderProgram11 -->
<g id="edge7" class="edge"><title>ShadingModel1&#45;&gt;ShaderProgram11</title>
<path fill="none" stroke="black" d="M862.716,-143.966C919.411,-133.549 991.961,-120.22 1050.09,-109.539"/>
<polygon fill="black" stroke="black" points="1050.84,-112.25 1058.2,-108.05 1049.82,-106.742 1050.84,-112.25"/>
</g>
<!-- ShaderVariation00 -->
<g id="node9" class="node"><title>ShaderVariation00</title>
<polygon fill="lightpink" stroke="black" points="242,-36 0,-36 0,-0 242,-0 242,-36"/>
<text text-anchor="middle" x="121" y="-20.6" font-family="Verdana" font-size="8.00">シェーダーバリエーション</text>
<text text-anchor="middle" x="121" y="-11.6" font-family="Verdana" font-size="8.00">nn::gfx::ResShaderVariation</text>
</g>
<!-- ShaderProgram00&#45;&gt;ShaderVariation00 -->
<g id="edge8" class="edge"><title>ShaderProgram00&#45;&gt;ShaderVariation00</title>
<path fill="none" stroke="black" d="M135.303,-71.6966C132.358,-60.8463 128.577,-46.9167 125.643,-36.1043"/>
</g>
<!-- ShaderVariation01 -->
<g id="node10" class="node"><title>ShaderVariation01</title>
<polygon fill="lightpink" stroke="black" points="502,-36 260,-36 260,-0 502,-0 502,-36"/>
<text text-anchor="middle" x="381" y="-20.6" font-family="Verdana" font-size="8.00">シェーダーバリエーション</text>
<text text-anchor="middle" x="381" y="-11.6" font-family="Verdana" font-size="8.00">nn::gfx::ResShaderVariation</text>
</g>
<!-- ShaderProgram01&#45;&gt;ShaderVariation01 -->
<g id="edge9" class="edge"><title>ShaderProgram01&#45;&gt;ShaderVariation01</title>
<path fill="none" stroke="black" d="M381,-71.6966C381,-60.8463 381,-46.9167 381,-36.1043"/>
</g>
<!-- ShaderVariation02 -->
<g id="node11" class="node"><title>ShaderVariation02</title>
<polygon fill="lightpink" stroke="black" points="762,-36 520,-36 520,-0 762,-0 762,-36"/>
<text text-anchor="middle" x="641" y="-20.6" font-family="Verdana" font-size="8.00">シェーダーバリエーション</text>
<text text-anchor="middle" x="641" y="-11.6" font-family="Verdana" font-size="8.00">nn::gfx::ResShaderVariation</text>
</g>
<!-- ShaderProgram02&#45;&gt;ShaderVariation02 -->
<g id="edge10" class="edge"><title>ShaderProgram02&#45;&gt;ShaderVariation02</title>
<path fill="none" stroke="black" d="M647.775,-71.6966C646.38,-60.8463 644.589,-46.9167 643.199,-36.1043"/>
</g>
<!-- ShaderVariation10 -->
<g id="node12" class="node"><title>ShaderVariation10</title>
<polygon fill="lightpink" stroke="black" points="1022,-36 780,-36 780,-0 1022,-0 1022,-36"/>
<text text-anchor="middle" x="901" y="-20.6" font-family="Verdana" font-size="8.00">シェーダーバリエーション</text>
<text text-anchor="middle" x="901" y="-11.6" font-family="Verdana" font-size="8.00">nn::gfx::ResShaderVariation</text>
</g>
<!-- ShaderProgram10&#45;&gt;ShaderVariation10 -->
<g id="edge11" class="edge"><title>ShaderProgram10&#45;&gt;ShaderVariation10</title>
<path fill="none" stroke="black" d="M893.472,-71.6966C895.022,-60.8463 897.012,-46.9167 898.557,-36.1043"/>
</g>
<!-- ShaderVariation11 -->
<g id="node13" class="node"><title>ShaderVariation11</title>
<polygon fill="lightpink" stroke="black" points="1282,-36 1040,-36 1040,-0 1282,-0 1282,-36"/>
<text text-anchor="middle" x="1161" y="-20.6" font-family="Verdana" font-size="8.00">シェーダーバリエーション</text>
<text text-anchor="middle" x="1161" y="-11.6" font-family="Verdana" font-size="8.00">nn::gfx::ResShaderVariation</text>
</g>
<!-- ShaderProgram11&#45;&gt;ShaderVariation11 -->
<g id="edge12" class="edge"><title>ShaderProgram11&#45;&gt;ShaderVariation11</title>
<path fill="none" stroke="black" d="M1153.47,-71.6966C1155.02,-60.8463 1157.01,-46.9167 1158.56,-36.1043"/>
</g>
</g>
</svg>
