<?xml version="1.0" encoding="UTF-8" standalone="no"?>
<!DOCTYPE svg PUBLIC "-//W3C//DTD SVG 1.1//EN"
 "http://www.w3.org/Graphics/SVG/1.1/DTD/svg11.dtd">
<!-- Generated by graphviz version 2.38.0 (20140413.2041)
 -->
<!-- Pages: 1 -->
<svg width="602pt" height="190pt"
 viewBox="0.00 0.00 602.00 189.54" xmlns="http://www.w3.org/2000/svg" xmlns:xlink="http://www.w3.org/1999/xlink">
<g id="graph0" class="graph" transform="scale(1 1) rotate(0) translate(4 185.539)">
<polygon fill="white" stroke="none" points="-4,4 -4,-185.539 598,-185.539 598,4 -4,4"/>
<!-- g3dEditor -->
<g id="node1" class="node"><title>g3dEditor</title>
<polygon fill="honeydew" stroke="black" points="308,-181.539 254,-181.539 254,-145.539 308,-145.539 308,-181.539"/>
<text text-anchor="middle" x="281" y="-161.339" font-family="meiryo" font-size="9.00">3DEditor</text>
</g>
<!-- editMat -->
<g id="node3" class="node"><title>editMat</title>
<ellipse fill="none" stroke="black" stroke-dasharray="5,2" cx="119" cy="-91.1543" rx="78.6897" ry="18"/>
<text text-anchor="middle" x="119" y="-89.2543" font-family="meiryo" font-size="8.00">アノテーションの UI 定義を参照</text>
</g>
<!-- g3dEditor&#45;&gt;editMat -->
<g id="edge1" class="edge"><title>g3dEditor&#45;&gt;editMat</title>
<path fill="none" stroke="black" d="M253.885,-150.758C226.503,-138.861 184.085,-120.432 154.139,-107.421"/>
</g>
<!-- editMatM -->
<g id="node4" class="node"><title>editMatM</title>
<ellipse fill="none" stroke="black" stroke-dasharray="5,2" cx="444" cy="-91.1543" rx="92.7622" ry="18.2703"/>
<text text-anchor="middle" x="444" y="-93.7543" font-family="meiryo" font-size="8.00">マテリアル編集</text>
<text text-anchor="middle" x="444" y="-84.7543" font-family="meiryo" font-size="8.00">&lt;shader_assign&gt; の値を編集</text>
</g>
<!-- g3dEditor&#45;&gt;editMatM -->
<g id="edge5" class="edge"><title>g3dEditor&#45;&gt;editMatM</title>
<path fill="none" stroke="black" d="M308.283,-150.758C335.381,-139.057 377.114,-121.036 407.147,-108.068"/>
</g>
<!-- fmdb -->
<g id="node2" class="node"><title>fmdb</title>
<polygon fill="lightyellow" stroke="black" points="594,-36.3848 432,-36.3848 432,-0.384776 594,-0.384776 594,-36.3848"/>
<text text-anchor="middle" x="513" y="-16.1848" font-family="meiryo" font-size="9.00">モデル中間ファイル(.fmda, .fmdb)</text>
</g>
<!-- fsdb -->
<g id="node6" class="node"><title>fsdb</title>
<polygon fill="#ffe1ff" stroke="black" points="102,-36.3848 0,-36.3848 0,-0.384776 102,-0.384776 102,-36.3848"/>
<text text-anchor="middle" x="51" y="-16.4848" font-family="meiryo" font-size="8.00">シェーダー定義(.fsdb)</text>
</g>
<!-- editMat&#45;&gt;fsdb -->
<g id="edge2" class="edge"><title>editMat&#45;&gt;fsdb</title>
<path fill="none" stroke="black" d="M102.885,-73.3829C94.0384,-64.1761 82.9335,-52.6189 73.2696,-42.5614"/>
<polygon fill="black" stroke="black" points="75.0336,-40.356 67.4717,-36.5274 70.9956,-44.236 75.0336,-40.356"/>
</g>
<!-- editMatM&#45;&gt;fmdb -->
<g id="edge6" class="edge"><title>editMatM&#45;&gt;fmdb</title>
<path fill="none" stroke="black" d="M460.703,-73.023C469.555,-63.9442 480.559,-52.6577 490.187,-42.7833"/>
<polygon fill="black" stroke="black" points="492.391,-44.5327 495.971,-36.85 488.382,-40.6233 492.391,-44.5327"/>
</g>
<!-- Assign -->
<g id="node5" class="node"><title>Assign</title>
<ellipse fill="none" stroke="black" stroke-dasharray="5,2" cx="267" cy="-18.3848" rx="147.156" ry="18.2703"/>
<text text-anchor="middle" x="267" y="-20.9848" font-family="meiryo" font-size="8.00">アサインユーティリティーによって</text>
<text text-anchor="middle" x="267" y="-11.9848" font-family="meiryo" font-size="8.00">モデル &lt;shader_assign&gt; にシェーダー情報を追加</text>
</g>
<!-- Assign&#45;&gt;fmdb -->
<g id="edge4" class="edge"><title>Assign&#45;&gt;fmdb</title>
<path fill="none" stroke="black" d="M414.504,-18.3848C417.57,-18.3848 420.636,-18.3848 423.702,-18.3848"/>
<polygon fill="black" stroke="black" points="423.818,-21.1849 431.818,-18.3848 423.818,-15.5849 423.818,-21.1849"/>
</g>
<!-- fsdb&#45;&gt;Assign -->
<g id="edge3" class="edge"><title>fsdb&#45;&gt;Assign</title>
<path fill="none" stroke="black" d="M102.047,-18.3848C105.277,-18.3848 108.507,-18.3848 111.737,-18.3848"/>
<polygon fill="black" stroke="black" points="111.766,-21.1849 119.766,-18.3848 111.766,-15.5849 111.766,-21.1849"/>
</g>
</g>
</svg>
