<?xml version="1.0" encoding="UTF-8" standalone="no"?>
<!DOCTYPE svg PUBLIC "-//W3C//DTD SVG 1.1//EN"
 "http://www.w3.org/Graphics/SVG/1.1/DTD/svg11.dtd">
<!-- Generated by graphviz version 2.38.0 (20140413.2041)
 -->
<!-- Pages: 1 -->
<svg width="670pt" height="488pt"
 viewBox="0.00 0.00 669.95 488.00" xmlns="http://www.w3.org/2000/svg" xmlns:xlink="http://www.w3.org/1999/xlink">
<g id="graph0" class="graph" transform="scale(1 1) rotate(0) translate(4 484)">
<polygon fill="white" stroke="none" points="-4,4 -4,-484 665.946,-484 665.946,4 -4,4"/>
<g id="clust1" class="cluster"><title>cluster_gf</title>
<path fill="none" stroke="red" d="M395.946,-8C395.946,-8 641.946,-8 641.946,-8 647.946,-8 653.946,-14 653.946,-20 653.946,-20 653.946,-352 653.946,-352 653.946,-358 647.946,-364 641.946,-364 641.946,-364 395.946,-364 395.946,-364 389.946,-364 383.946,-358 383.946,-352 383.946,-352 383.946,-20 383.946,-20 383.946,-14 389.946,-8 395.946,-8"/>
<text text-anchor="middle" x="518.946" y="-350.4" font-family="Times New Roman,serif" font-size="12.00" fill="red">マテリアルアニメーションをまとめてから</text>
<text text-anchor="middle" x="518.946" y="-337.4" font-family="Times New Roman,serif" font-size="12.00" fill="red">バイナリリソースを作る場合</text>
</g>
<g id="clust2" class="cluster"><title>cluster_gf2</title>
<path fill="none" stroke="red" d="M57.9463,-174C57.9463,-174 363.946,-174 363.946,-174 369.946,-174 375.946,-180 375.946,-186 375.946,-186 375.946,-352 375.946,-352 375.946,-358 369.946,-364 363.946,-364 363.946,-364 57.9463,-364 57.9463,-364 51.9463,-364 45.9463,-358 45.9463,-352 45.9463,-352 45.9463,-186 45.9463,-186 45.9463,-180 51.9463,-174 57.9463,-174"/>
<text text-anchor="middle" x="210.946" y="-350.4" font-family="Times New Roman,serif" font-size="12.00" fill="red">マテリアルアニメーションをまとめずに</text>
<text text-anchor="middle" x="210.946" y="-337.4" font-family="Times New Roman,serif" font-size="12.00" fill="red">バイナリリソースを作る場合</text>
</g>
<!-- G3dBinaryConvert -->
<g id="node1" class="node"><title>G3dBinaryConvert</title>
<polygon fill="lightyellow" stroke="orange" points="568.446,-146 423.446,-146 423.446,-110 568.446,-110 568.446,-146"/>
<text text-anchor="middle" x="495.946" y="-125.8" font-family="Verdana" font-size="9.00">3D バイナリコンバーター</text>
</g>
<!-- MergedMaterialAnimBfres -->
<g id="node10" class="node"><title>MergedMaterialAnimBfres</title>
<polygon fill="lightyellow" stroke="black" points="591.446,-74 400.446,-74 400.446,-16 591.446,-16 591.446,-74"/>
<text text-anchor="middle" x="495.946" y="-62.8" font-family="Verdana" font-size="9.00">Human.bfres</text>
<text text-anchor="middle" x="495.946" y="-42.8" font-family="Verdana" font-size="9.00">モデル: Human</text>
<text text-anchor="middle" x="495.946" y="-32.8" font-family="Verdana" font-size="9.00">スケルタルアニメーション: Human</text>
<text text-anchor="middle" x="495.946" y="-22.8" font-family="Verdana" font-size="9.00">マテリアルアニメーション: Human</text>
</g>
<!-- G3dBinaryConvert&#45;&gt;MergedMaterialAnimBfres -->
<g id="edge3" class="edge"><title>G3dBinaryConvert&#45;&gt;MergedMaterialAnimBfres</title>
<path fill="none" stroke="black" d="M495.946,-109.822C495.946,-101.848 495.946,-92.0449 495.946,-82.5358"/>
<polygon fill="black" stroke="black" points="498.746,-82.3085 495.946,-74.3085 493.146,-82.3086 498.746,-82.3085"/>
</g>
<!-- G3dBinaryConvertWithoutCombine -->
<g id="node2" class="node"><title>G3dBinaryConvertWithoutCombine</title>
<polygon fill="lightyellow" stroke="orange" points="325.446,-322 180.446,-322 180.446,-286 325.446,-286 325.446,-322"/>
<text text-anchor="middle" x="252.946" y="-301.8" font-family="Verdana" font-size="9.00">3D バイナリコンバーター</text>
</g>
<!-- SeparatedMaterialAnimBfres -->
<g id="node11" class="node"><title>SeparatedMaterialAnimBfres</title>
<polygon fill="lightyellow" stroke="black" points="367.946,-250 53.9463,-250 53.9463,-182 367.946,-182 367.946,-250"/>
<text text-anchor="middle" x="210.946" y="-238.8" font-family="Verdana" font-size="9.00">Human.bfres</text>
<text text-anchor="middle" x="210.946" y="-218.8" font-family="Verdana" font-size="9.00">モデル: Human</text>
<text text-anchor="middle" x="210.946" y="-208.8" font-family="Verdana" font-size="9.00">スケルタルアニメーション: Human</text>
<text text-anchor="middle" x="210.946" y="-198.8" font-family="Verdana" font-size="9.00">マテリアルアニメーション: Human</text>
<text text-anchor="middle" x="210.946" y="-188.8" font-family="Verdana" font-size="9.00">マテリアルアニメーション: Human_CreatedByUsinG3dEditor</text>
</g>
<!-- G3dBinaryConvertWithoutCombine&#45;&gt;SeparatedMaterialAnimBfres -->
<g id="edge4" class="edge"><title>G3dBinaryConvertWithoutCombine&#45;&gt;SeparatedMaterialAnimBfres</title>
<path fill="none" stroke="black" d="M244.447,-285.597C240.435,-277.382 235.466,-267.207 230.594,-257.232"/>
<polygon fill="black" stroke="black" points="233.106,-255.994 227.08,-250.035 228.074,-258.452 233.106,-255.994"/>
</g>
<!-- DccToolPlugin -->
<g id="node3" class="node"><title>DccToolPlugin</title>
<polygon fill="lightyellow" stroke="orange" points="252.446,-480 35.4463,-480 35.4463,-444 252.446,-444 252.446,-480"/>
<text text-anchor="middle" x="143.946" y="-459.8" font-family="Verdana" font-size="9.00">Maya / 3ds Max エクスポートプラグイン</text>
</g>
<!-- DccToolMaterialAnimOutput -->
<g id="node6" class="node"><title>DccToolMaterialAnimOutput</title>
<polygon fill="lightyellow" stroke="black" points="337.946,-408 261.946,-408 261.946,-372 337.946,-372 337.946,-408"/>
<text text-anchor="middle" x="299.946" y="-387.8" font-family="Verdana" font-size="9.00">Human.fmab</text>
</g>
<!-- DccToolPlugin&#45;&gt;DccToolMaterialAnimOutput -->
<g id="edge6" class="edge"><title>DccToolPlugin&#45;&gt;DccToolMaterialAnimOutput</title>
<path fill="none" stroke="black" d="M182.108,-443.876C203.908,-434.094 231.384,-421.765 254.319,-411.474"/>
<polygon fill="black" stroke="black" points="255.756,-413.898 261.908,-408.068 253.463,-408.789 255.756,-413.898"/>
</g>
<!-- DccToolOtherOutputs -->
<g id="node8" class="node"><title>DccToolOtherOutputs</title>
<polygon fill="lightyellow" stroke="black" points="243.946,-408 167.946,-408 167.946,-372 243.946,-372 243.946,-408"/>
<text text-anchor="middle" x="205.946" y="-392.8" font-family="Verdana" font-size="9.00">Human.fmdb</text>
<text text-anchor="middle" x="205.946" y="-382.8" font-family="Verdana" font-size="9.00">Human.fskb</text>
</g>
<!-- DccToolPlugin&#45;&gt;DccToolOtherOutputs -->
<g id="edge5" class="edge"><title>DccToolPlugin&#45;&gt;DccToolOtherOutputs</title>
<path fill="none" stroke="black" d="M159.272,-443.697C167.156,-434.796 176.874,-423.823 185.399,-414.199"/>
<polygon fill="black" stroke="black" points="187.589,-415.95 190.797,-408.104 183.396,-412.237 187.589,-415.95"/>
</g>
<!-- G3dEditor -->
<g id="node4" class="node"><title>G3dEditor</title>
<polygon fill="lightyellow" stroke="orange" points="452.946,-480 270.946,-480 270.946,-444 452.946,-444 452.946,-480"/>
<text text-anchor="middle" x="361.946" y="-464.8" font-family="Verdana" font-size="9.00">3dEditor</text>
<text text-anchor="middle" x="361.946" y="-454.8" font-family="Verdana" font-size="9.00">(その他中間ファイル編集ツール)</text>
</g>
<!-- G3dEditor&#45;&gt;DccToolMaterialAnimOutput -->
<g id="edge7" class="edge"><title>G3dEditor&#45;&gt;DccToolMaterialAnimOutput</title>
<path fill="none" stroke="black" d="M340.705,-443.697C331.987,-434.881 322.212,-424.032 314.324,-414.474"/>
<polygon fill="black" stroke="black" points="316.397,-412.583 309.201,-408.104 312.033,-416.093 316.397,-412.583"/>
</g>
<!-- G3dEditorMaterialAnimOutput -->
<g id="node7" class="node"><title>G3dEditorMaterialAnimOutput</title>
<polygon fill="lightyellow" stroke="black" points="553.446,-408 356.446,-408 356.446,-372 553.446,-372 553.446,-408"/>
<text text-anchor="middle" x="454.946" y="-387.8" font-family="Verdana" font-size="9.00">Human_CreatedByUsing3dEditor.fmab</text>
</g>
<!-- G3dEditor&#45;&gt;G3dEditorMaterialAnimOutput -->
<g id="edge9" class="edge"><title>G3dEditor&#45;&gt;G3dEditorMaterialAnimOutput</title>
<path fill="none" stroke="black" d="M379.019,-443.697C390.446,-434.372 405.725,-422.774 419.633,-412.834"/>
<polygon fill="black" stroke="black" points="421.409,-415.007 426.327,-408.104 418.177,-410.433 421.409,-415.007"/>
</g>
<!-- G3dEditor&#45;&gt;DccToolOtherOutputs -->
<g id="edge8" class="edge"><title>G3dEditor&#45;&gt;DccToolOtherOutputs</title>
<path fill="none" stroke="black" d="M317.887,-443.876C295.064,-434.094 267.486,-421.765 245.369,-411.474"/>
<polygon fill="black" stroke="black" points="246.526,-408.923 238.093,-408.068 244.152,-413.995 246.526,-408.923"/>
</g>
<!-- G3dOptimizer -->
<g id="node5" class="node"><title>G3dOptimizer</title>
<polygon fill="lightyellow" stroke="orange" points="645.446,-322 392.446,-322 392.446,-286 645.446,-286 645.446,-322"/>
<text text-anchor="middle" x="518.946" y="-301.8" font-family="Verdana" font-size="9.00">中間ファイルオプティマイザのコンバイン機能</text>
</g>
<!-- TmpOutputMergedMaterialAnim -->
<g id="node9" class="node"><title>TmpOutputMergedMaterialAnim</title>
<polygon fill="lightyellow" stroke="black" points="559.946,-234 461.946,-234 461.946,-198 559.946,-198 559.946,-234"/>
<text text-anchor="middle" x="510.946" y="-213.8" font-family="Verdana" font-size="9.00">tmp/Human.fmab</text>
</g>
<!-- G3dOptimizer&#45;&gt;TmpOutputMergedMaterialAnim -->
<g id="edge1" class="edge"><title>G3dOptimizer&#45;&gt;TmpOutputMergedMaterialAnim</title>
<path fill="none" stroke="black" d="M517.327,-285.597C516.17,-273.159 514.596,-256.23 513.3,-242.302"/>
<polygon fill="black" stroke="black" points="516.065,-241.79 512.536,-234.084 510.489,-242.309 516.065,-241.79"/>
</g>
<!-- DccToolMaterialAnimOutput&#45;&gt;G3dBinaryConvertWithoutCombine -->
<g id="edge18" class="edge"><title>DccToolMaterialAnimOutput&#45;&gt;G3dBinaryConvertWithoutCombine</title>
<path fill="none" stroke="black" d="M290.208,-371.595C283.357,-359.35 274.096,-342.799 266.52,-329.26"/>
<polygon fill="black" stroke="black" points="268.861,-327.709 262.511,-322.095 263.974,-330.444 268.861,-327.709"/>
</g>
<!-- DccToolMaterialAnimOutput&#45;&gt;G3dEditor -->
<g id="edge11" class="edge"><title>DccToolMaterialAnimOutput&#45;&gt;G3dEditor</title>
<path fill="none" stroke="black" d="M320.991,-408.104C329.693,-416.889 339.473,-427.732 347.39,-437.309"/>
<polygon fill="black" stroke="black" points="345.337,-439.224 352.536,-443.697 349.697,-435.71 345.337,-439.224"/>
</g>
<!-- DccToolMaterialAnimOutput&#45;&gt;G3dOptimizer -->
<g id="edge15" class="edge"><title>DccToolMaterialAnimOutput&#45;&gt;G3dOptimizer</title>
<path fill="none" stroke="black" d="M338.049,-374.824C341.047,-373.829 344.038,-372.876 346.946,-372 361.397,-367.649 365.619,-368.742 379.946,-364 412.819,-353.12 448.772,-337.761 475.877,-325.441"/>
<polygon fill="black" stroke="black" points="477.169,-327.93 483.277,-322.054 474.838,-322.838 477.169,-327.93"/>
</g>
<!-- G3dEditorMaterialAnimOutput&#45;&gt;G3dBinaryConvertWithoutCombine -->
<g id="edge16" class="edge"><title>G3dEditorMaterialAnimOutput&#45;&gt;G3dBinaryConvertWithoutCombine</title>
<path fill="none" stroke="black" d="M401.415,-371.981C394.153,-369.433 386.834,-366.738 379.946,-364 350.873,-352.444 318.937,-337.597 294.363,-325.688"/>
<polygon fill="black" stroke="black" points="295.403,-323.08 286.984,-322.093 292.95,-328.114 295.403,-323.08"/>
</g>
<!-- G3dEditorMaterialAnimOutput&#45;&gt;G3dEditor -->
<g id="edge12" class="edge"><title>G3dEditorMaterialAnimOutput&#45;&gt;G3dEditor</title>
<path fill="none" stroke="black" d="M438.012,-408.19C426.585,-417.523 411.26,-429.159 397.309,-439.131"/>
<polygon fill="black" stroke="black" points="395.512,-436.973 390.594,-443.876 398.743,-441.546 395.512,-436.973"/>
</g>
<!-- G3dEditorMaterialAnimOutput&#45;&gt;G3dOptimizer -->
<g id="edge14" class="edge"><title>G3dEditorMaterialAnimOutput&#45;&gt;G3dOptimizer</title>
<path fill="none" stroke="black" d="M468.207,-371.595C477.709,-359.123 490.616,-342.184 501.033,-328.511"/>
<polygon fill="black" stroke="black" points="503.3,-330.156 505.921,-322.095 498.846,-326.762 503.3,-330.156"/>
</g>
<!-- DccToolOtherOutputs&#45;&gt;G3dBinaryConvert -->
<g id="edge13" class="edge"><title>DccToolOtherOutputs&#45;&gt;G3dBinaryConvert</title>
<path fill="none" stroke="black" d="M167.876,-388.708C124.591,-387.472 57.8525,-382.515 41.9463,-364 -13.0821,-299.947 -14.7437,-236.587 41.9463,-174 66.4658,-146.93 291.338,-135.507 415.123,-131.237"/>
<polygon fill="black" stroke="black" points="415.227,-134.035 423.127,-130.966 415.037,-128.438 415.227,-134.035"/>
</g>
<!-- DccToolOtherOutputs&#45;&gt;G3dBinaryConvertWithoutCombine -->
<g id="edge17" class="edge"><title>DccToolOtherOutputs&#45;&gt;G3dBinaryConvertWithoutCombine</title>
<path fill="none" stroke="black" d="M215.685,-371.595C222.536,-359.35 231.797,-342.799 239.372,-329.26"/>
<polygon fill="black" stroke="black" points="241.918,-330.444 243.381,-322.095 237.031,-327.709 241.918,-330.444"/>
</g>
<!-- DccToolOtherOutputs&#45;&gt;G3dEditor -->
<g id="edge10" class="edge"><title>DccToolOtherOutputs&#45;&gt;G3dEditor</title>
<path fill="none" stroke="black" d="M244.046,-405.582C267.859,-415.688 298.367,-429.287 322.434,-440.485"/>
<polygon fill="black" stroke="black" points="321.249,-443.021 329.682,-443.876 323.622,-437.949 321.249,-443.021"/>
</g>
<!-- TmpOutputMergedMaterialAnim&#45;&gt;G3dBinaryConvert -->
<g id="edge2" class="edge"><title>TmpOutputMergedMaterialAnim&#45;&gt;G3dBinaryConvert</title>
<path fill="none" stroke="black" d="M507.911,-197.597C505.742,-185.159 502.789,-168.23 500.359,-154.302"/>
<polygon fill="black" stroke="black" points="503.059,-153.484 498.926,-146.084 497.542,-154.446 503.059,-153.484"/>
</g>
</g>
</svg>
