<?xml version="1.0" encoding="UTF-8" standalone="no"?>
<!DOCTYPE svg PUBLIC "-//W3C//DTD SVG 1.1//EN"
 "http://www.w3.org/Graphics/SVG/1.1/DTD/svg11.dtd">
<!-- Generated by graphviz version 2.38.0 (20140413.2041)
 -->
<!-- Pages: 1 -->
<svg width="610pt" height="520pt"
 viewBox="0.00 0.00 609.50 520.00" xmlns="http://www.w3.org/2000/svg" xmlns:xlink="http://www.w3.org/1999/xlink">
<g id="graph0" class="graph" transform="scale(1 1) rotate(0) translate(4 516)">
<polygon fill="white" stroke="none" points="-4,4 -4,-516 605.5,-516 605.5,4 -4,4"/>
<g id="clust1" class="cluster"><title>cluster_gf</title>
<path fill="none" stroke="red" d="M335.5,-8C335.5,-8 581.5,-8 581.5,-8 587.5,-8 593.5,-14 593.5,-20 593.5,-20 593.5,-382 593.5,-382 593.5,-388 587.5,-394 581.5,-394 581.5,-394 335.5,-394 335.5,-394 329.5,-394 323.5,-388 323.5,-382 323.5,-382 323.5,-20 323.5,-20 323.5,-14 329.5,-8 335.5,-8"/>
<text text-anchor="middle" x="458.5" y="-380.4" font-family="Times New Roman,serif" font-size="12.00" fill="red">マテリアルアニメーションをまとめてから</text>
<text text-anchor="middle" x="458.5" y="-367.4" font-family="Times New Roman,serif" font-size="12.00" fill="red">バイナリリソースを作る場合</text>
</g>
<g id="clust2" class="cluster"><title>cluster_gf2</title>
<path fill="none" stroke="red" d="M81.5,-174C81.5,-174 303.5,-174 303.5,-174 309.5,-174 315.5,-180 315.5,-186 315.5,-186 315.5,-382 315.5,-382 315.5,-388 309.5,-394 303.5,-394 303.5,-394 81.5,-394 81.5,-394 75.5,-394 69.5,-388 69.5,-382 69.5,-382 69.5,-186 69.5,-186 69.5,-180 75.5,-174 81.5,-174"/>
<text text-anchor="middle" x="192.5" y="-380.4" font-family="Times New Roman,serif" font-size="12.00" fill="red">マテリアルアニメーションをまとめずに</text>
<text text-anchor="middle" x="192.5" y="-367.4" font-family="Times New Roman,serif" font-size="12.00" fill="red">バイナリリソースを作る場合</text>
</g>
<!-- G3dBinaryConvert -->
<g id="node1" class="node"><title>G3dBinaryConvert</title>
<polygon fill="lightyellow" stroke="orange" points="508,-146 363,-146 363,-110 508,-110 508,-146"/>
<text text-anchor="middle" x="435.5" y="-125.8" font-family="Verdana" font-size="9.00">3D バイナリコンバーター</text>
</g>
<!-- MergedMaterialAnimBfres -->
<g id="node10" class="node"><title>MergedMaterialAnimBfres</title>
<polygon fill="lightyellow" stroke="black" points="531,-74 340,-74 340,-16 531,-16 531,-74"/>
<text text-anchor="middle" x="435.5" y="-62.8" font-family="Verdana" font-size="9.00">Human.bfres</text>
<text text-anchor="middle" x="435.5" y="-42.8" font-family="Verdana" font-size="9.00">モデル: Human</text>
<text text-anchor="middle" x="435.5" y="-32.8" font-family="Verdana" font-size="9.00">スケルタルアニメーション: Human</text>
<text text-anchor="middle" x="435.5" y="-22.8" font-family="Verdana" font-size="9.00">マテリアルアニメーション: Human</text>
</g>
<!-- G3dBinaryConvert&#45;&gt;MergedMaterialAnimBfres -->
<g id="edge3" class="edge"><title>G3dBinaryConvert&#45;&gt;MergedMaterialAnimBfres</title>
<path fill="none" stroke="black" d="M435.5,-109.822C435.5,-101.848 435.5,-92.0449 435.5,-82.5358"/>
<polygon fill="black" stroke="black" points="438.3,-82.3085 435.5,-74.3085 432.7,-82.3086 438.3,-82.3085"/>
</g>
<!-- G3dBinaryConvertWithoutCombine -->
<g id="node2" class="node"><title>G3dBinaryConvertWithoutCombine</title>
<polygon fill="lightyellow" stroke="orange" points="290,-352 145,-352 145,-316 290,-316 290,-352"/>
<text text-anchor="middle" x="217.5" y="-331.8" font-family="Verdana" font-size="9.00">3D バイナリコンバーター</text>
</g>
<!-- SeparatedMaterialAnimBfres -->
<g id="node11" class="node"><title>SeparatedMaterialAnimBfres</title>
<polygon fill="lightyellow" stroke="black" points="307.5,-280 93.5,-280 93.5,-182 307.5,-182 307.5,-280"/>
<text text-anchor="middle" x="200.5" y="-268.8" font-family="Verdana" font-size="9.00">Human.bfres</text>
<text text-anchor="middle" x="200.5" y="-248.8" font-family="Verdana" font-size="9.00">モデル: Human</text>
<text text-anchor="middle" x="200.5" y="-238.8" font-family="Verdana" font-size="9.00">スケルタルアニメーション: Human</text>
<text text-anchor="middle" x="200.5" y="-228.8" font-family="Verdana" font-size="9.00">マテリアルアニメーション: Human_fcl</text>
<text text-anchor="middle" x="200.5" y="-218.8" font-family="Verdana" font-size="9.00">マテリアルアニメーション: Human_fts</text>
<text text-anchor="middle" x="200.5" y="-208.8" font-family="Verdana" font-size="9.00">マテリアルアニメーション: Human_ftp</text>
<text text-anchor="middle" x="200.5" y="-198.8" font-family="Verdana" font-size="9.00">マテリアルアニメーション: Human_fsp</text>
<text text-anchor="middle" x="200.5" y="-188.8" font-family="Verdana" font-size="9.00">マテリアルアニメーション: Human_fvm</text>
</g>
<!-- G3dBinaryConvertWithoutCombine&#45;&gt;SeparatedMaterialAnimBfres -->
<g id="edge4" class="edge"><title>G3dBinaryConvertWithoutCombine&#45;&gt;SeparatedMaterialAnimBfres</title>
<path fill="none" stroke="black" d="M214.616,-315.867C213.301,-308.051 211.66,-298.305 209.968,-288.25"/>
<polygon fill="black" stroke="black" points="212.694,-287.576 208.605,-280.152 207.172,-288.506 212.694,-287.576"/>
</g>
<!-- DccToolPlugin -->
<g id="node3" class="node"><title>DccToolPlugin</title>
<polygon fill="lightyellow" stroke="orange" points="217,-512 0,-512 0,-476 217,-476 217,-512"/>
<text text-anchor="middle" x="108.5" y="-491.8" font-family="Verdana" font-size="9.00">Maya / 3ds Max エクスポートプラグイン</text>
</g>
<!-- DccToolMaterialAnimOutput -->
<g id="node6" class="node"><title>DccToolMaterialAnimOutput</title>
<polygon fill="lightyellow" stroke="black" points="317,-440 222,-440 222,-402 317,-402 317,-440"/>
<text text-anchor="middle" x="269.5" y="-428.8" font-family="Verdana" font-size="9.00">Human_fcl.fmab</text>
<text text-anchor="middle" x="269.5" y="-418.8" font-family="Verdana" font-size="9.00">Human_fts.fmab</text>
<text text-anchor="middle" x="269.5" y="-408.8" font-family="Verdana" font-size="9.00">Human_ftp.fmab</text>
</g>
<!-- DccToolPlugin&#45;&gt;DccToolMaterialAnimOutput -->
<g id="edge6" class="edge"><title>DccToolPlugin&#45;&gt;DccToolMaterialAnimOutput</title>
<path fill="none" stroke="black" d="M147.064,-475.994C169.225,-466.221 197.269,-453.854 220.924,-443.422"/>
<polygon fill="black" stroke="black" points="222.247,-445.899 228.437,-440.109 219.987,-440.775 222.247,-445.899"/>
</g>
<!-- DccToolOtherOutputs -->
<g id="node8" class="node"><title>DccToolOtherOutputs</title>
<polygon fill="lightyellow" stroke="black" points="203.5,-439 127.5,-439 127.5,-403 203.5,-403 203.5,-439"/>
<text text-anchor="middle" x="165.5" y="-423.8" font-family="Verdana" font-size="9.00">Human.fmdb</text>
<text text-anchor="middle" x="165.5" y="-413.8" font-family="Verdana" font-size="9.00">Human.fskb</text>
</g>
<!-- DccToolPlugin&#45;&gt;DccToolOtherOutputs -->
<g id="edge5" class="edge"><title>DccToolPlugin&#45;&gt;DccToolOtherOutputs</title>
<path fill="none" stroke="black" d="M122.298,-475.813C129.65,-466.656 138.798,-455.26 146.782,-445.316"/>
<polygon fill="black" stroke="black" points="149.004,-447.02 151.829,-439.029 144.637,-443.514 149.004,-447.02"/>
</g>
<!-- G3dEditor -->
<g id="node4" class="node"><title>G3dEditor</title>
<polygon fill="lightyellow" stroke="orange" points="417.5,-512 235.5,-512 235.5,-476 417.5,-476 417.5,-512"/>
<text text-anchor="middle" x="326.5" y="-496.8" font-family="Verdana" font-size="9.00">3DEditor</text>
<text text-anchor="middle" x="326.5" y="-486.8" font-family="Verdana" font-size="9.00">(その他中間ファイル編集ツール)</text>
</g>
<!-- G3dEditor&#45;&gt;DccToolMaterialAnimOutput -->
<g id="edge7" class="edge"><title>G3dEditor&#45;&gt;DccToolMaterialAnimOutput</title>
<path fill="none" stroke="black" d="M306.824,-475.813C298.912,-467.094 290.087,-456.347 282.906,-446.754"/>
<polygon fill="black" stroke="black" points="284.976,-444.84 278.004,-440.02 280.448,-448.135 284.976,-444.84"/>
</g>
<!-- G3dEditorMaterialAnimOutput -->
<g id="node7" class="node"><title>G3dEditorMaterialAnimOutput</title>
<polygon fill="lightyellow" stroke="black" points="433.5,-440 335.5,-440 335.5,-402 433.5,-402 433.5,-440"/>
<text text-anchor="middle" x="384.5" y="-428.8" font-family="Verdana" font-size="9.00">Human_fsp.fmab</text>
<text text-anchor="middle" x="384.5" y="-418.8" font-family="Verdana" font-size="9.00">Human_fvm.fmab</text>
<text text-anchor="middle" x="384.5" y="-408.8" font-family="Verdana" font-size="9.00">...</text>
</g>
<!-- G3dEditor&#45;&gt;G3dEditorMaterialAnimOutput -->
<g id="edge9" class="edge"><title>G3dEditor&#45;&gt;G3dEditorMaterialAnimOutput</title>
<path fill="none" stroke="black" d="M334.662,-475.813C340.993,-466.925 349.79,-455.928 358.297,-446.197"/>
<polygon fill="black" stroke="black" points="360.575,-447.851 363.817,-440.02 356.399,-444.119 360.575,-447.851"/>
</g>
<!-- G3dEditor&#45;&gt;DccToolOtherOutputs -->
<g id="edge8" class="edge"><title>G3dEditor&#45;&gt;DccToolOtherOutputs</title>
<path fill="none" stroke="black" d="M282.077,-475.994C258.176,-465.925 228.992,-453.102 205.757,-442.479"/>
<polygon fill="black" stroke="black" points="206.875,-439.911 198.436,-439.114 204.535,-444.999 206.875,-439.911"/>
</g>
<!-- G3dOptimizer -->
<g id="node5" class="node"><title>G3dOptimizer</title>
<polygon fill="lightyellow" stroke="orange" points="585,-352 332,-352 332,-316 585,-316 585,-352"/>
<text text-anchor="middle" x="458.5" y="-331.8" font-family="Verdana" font-size="9.00">中間ファイルオプティマイザのコンバイン機能</text>
</g>
<!-- TmpOutputMergedMaterialAnim -->
<g id="node9" class="node"><title>TmpOutputMergedMaterialAnim</title>
<polygon fill="lightyellow" stroke="black" points="499.5,-249 401.5,-249 401.5,-213 499.5,-213 499.5,-249"/>
<text text-anchor="middle" x="450.5" y="-228.8" font-family="Verdana" font-size="9.00">tmp/Human.fmab</text>
</g>
<!-- G3dOptimizer&#45;&gt;TmpOutputMergedMaterialAnim -->
<g id="edge1" class="edge"><title>G3dOptimizer&#45;&gt;TmpOutputMergedMaterialAnim</title>
<path fill="none" stroke="black" d="M457.143,-315.867C455.879,-299.906 453.977,-275.896 452.532,-257.651"/>
<polygon fill="black" stroke="black" points="455.287,-256.971 451.864,-249.217 449.704,-257.413 455.287,-256.971"/>
</g>
<!-- DccToolMaterialAnimOutput&#45;&gt;G3dBinaryConvertWithoutCombine -->
<g id="edge18" class="edge"><title>DccToolMaterialAnimOutput&#45;&gt;G3dBinaryConvertWithoutCombine</title>
<path fill="none" stroke="black" d="M258.472,-401.974C250.875,-389.556 240.692,-372.91 232.378,-359.32"/>
<polygon fill="black" stroke="black" points="234.543,-357.494 227.98,-352.131 229.766,-360.416 234.543,-357.494"/>
</g>
<!-- DccToolMaterialAnimOutput&#45;&gt;G3dEditor -->
<g id="edge11" class="edge"><title>DccToolMaterialAnimOutput&#45;&gt;G3dEditor</title>
<path fill="none" stroke="black" d="M289.929,-440.02C297.896,-448.863 306.695,-459.635 313.77,-469.151"/>
<polygon fill="black" stroke="black" points="311.627,-470.966 318.58,-475.813 316.167,-467.688 311.627,-470.966"/>
</g>
<!-- DccToolMaterialAnimOutput&#45;&gt;G3dOptimizer -->
<g id="edge15" class="edge"><title>DccToolMaterialAnimOutput&#45;&gt;G3dOptimizer</title>
<path fill="none" stroke="black" d="M309.582,-401.974C339.877,-388.349 381.492,-369.633 413.03,-355.45"/>
<polygon fill="black" stroke="black" points="414.262,-357.966 420.409,-352.131 411.965,-352.858 414.262,-357.966"/>
</g>
<!-- G3dEditorMaterialAnimOutput&#45;&gt;G3dBinaryConvertWithoutCombine -->
<g id="edge16" class="edge"><title>G3dEditorMaterialAnimOutput&#45;&gt;G3dBinaryConvertWithoutCombine</title>
<path fill="none" stroke="black" d="M336.936,-401.898C331.008,-399.372 325.075,-396.71 319.5,-394 296.231,-382.689 271.059,-368.155 251.543,-356.342"/>
<polygon fill="black" stroke="black" points="252.912,-353.897 244.623,-352.124 249.997,-358.679 252.912,-353.897"/>
</g>
<!-- G3dEditorMaterialAnimOutput&#45;&gt;G3dEditor -->
<g id="edge12" class="edge"><title>G3dEditorMaterialAnimOutput&#45;&gt;G3dEditor</title>
<path fill="none" stroke="black" d="M375.742,-440.02C369.261,-449.035 360.399,-460.054 351.913,-469.704"/>
<polygon fill="black" stroke="black" points="349.686,-467.992 346.418,-475.813 353.85,-471.737 349.686,-467.992"/>
</g>
<!-- G3dEditorMaterialAnimOutput&#45;&gt;G3dOptimizer -->
<g id="edge14" class="edge"><title>G3dEditorMaterialAnimOutput&#45;&gt;G3dOptimizer</title>
<path fill="none" stroke="black" d="M400.193,-401.974C411.304,-389.211 426.304,-371.982 438.307,-358.195"/>
<polygon fill="black" stroke="black" points="440.445,-360.003 443.586,-352.131 436.221,-356.326 440.445,-360.003"/>
</g>
<!-- DccToolOtherOutputs&#45;&gt;G3dBinaryConvert -->
<g id="edge13" class="edge"><title>DccToolOtherOutputs&#45;&gt;G3dBinaryConvert</title>
<path fill="none" stroke="black" d="M127.242,-414.941C102.368,-410.778 73.1811,-403.934 65.5,-394 5.68884,-316.649 0.66854,-247.194 65.5,-174 84.3506,-152.718 251.688,-139.449 354.76,-133.22"/>
<polygon fill="black" stroke="black" points="355.169,-136.001 362.988,-132.73 354.835,-130.411 355.169,-136.001"/>
</g>
<!-- DccToolOtherOutputs&#45;&gt;G3dBinaryConvertWithoutCombine -->
<g id="edge17" class="edge"><title>DccToolOtherOutputs&#45;&gt;G3dBinaryConvertWithoutCombine</title>
<path fill="none" stroke="black" d="M176.023,-402.799C183.706,-390.241 194.223,-373.049 202.744,-359.12"/>
<polygon fill="black" stroke="black" points="205.206,-360.461 206.993,-352.175 200.429,-357.539 205.206,-360.461"/>
</g>
<!-- DccToolOtherOutputs&#45;&gt;G3dEditor -->
<g id="edge10" class="edge"><title>DccToolOtherOutputs&#45;&gt;G3dEditor</title>
<path fill="none" stroke="black" d="M203.595,-436.354C228.599,-446.781 261.139,-461.039 286.507,-472.642"/>
<polygon fill="black" stroke="black" points="285.358,-475.195 293.796,-475.994 287.697,-470.107 285.358,-475.195"/>
</g>
<!-- TmpOutputMergedMaterialAnim&#45;&gt;G3dBinaryConvert -->
<g id="edge2" class="edge"><title>TmpOutputMergedMaterialAnim&#45;&gt;G3dBinaryConvert</title>
<path fill="none" stroke="black" d="M447.955,-212.867C445.563,-196.761 441.954,-172.459 439.236,-154.154"/>
<polygon fill="black" stroke="black" points="442.002,-153.719 438.057,-146.217 436.463,-154.542 442.002,-153.719"/>
</g>
</g>
</svg>
