<?xml version="1.0" encoding="UTF-8" standalone="no"?>
<!DOCTYPE svg PUBLIC "-//W3C//DTD SVG 1.1//EN"
 "http://www.w3.org/Graphics/SVG/1.1/DTD/svg11.dtd">
<!-- Generated by graphviz version 2.38.0 (20140413.2041)
 -->
<!-- Pages: 1 -->
<svg width="665pt" height="699pt"
 viewBox="0.00 0.00 664.97 698.77" xmlns="http://www.w3.org/2000/svg" xmlns:xlink="http://www.w3.org/1999/xlink">
<g id="graph0" class="graph" transform="scale(1 1) rotate(0) translate(4 694.77)">
<polygon fill="white" stroke="none" points="-4,4 -4,-694.77 660.975,-694.77 660.975,4 -4,4"/>
<g id="clust3" class="cluster"><title>cluster_glsl2</title>
<polygon fill="lightpink" stroke="black" points="263.975,-611.77 263.975,-682.77 395.975,-682.77 395.975,-611.77 263.975,-611.77"/>
<text text-anchor="middle" x="329.975" y="-670.77" font-family="meiryo" font-size="10.00">シェーダーソース</text>
</g>
<g id="clust1" class="cluster"><title>cluster_fmdb</title>
<polygon fill="honeydew" stroke="black" points="114.975,-8 114.975,-79 218.975,-79 218.975,-8 114.975,-8"/>
<text text-anchor="middle" x="166.975" y="-67" font-family="meiryo" font-size="10.00">モデル中間ファイル</text>
</g>
<g id="clust2" class="cluster"><title>cluster_glsl</title>
<polygon fill="lightpink" stroke="black" points="123.975,-611.77 123.975,-682.77 255.975,-682.77 255.975,-611.77 123.975,-611.77"/>
<text text-anchor="middle" x="189.975" y="-670.77" font-family="meiryo" font-size="10.00">シェーダーソース</text>
</g>
<g id="clust5" class="cluster"><title>cluster_fsca</title>
<polygon fill="#ffe1ff" stroke="black" points="251.975,-422.77 251.975,-501.77 407.975,-501.77 407.975,-422.77 251.975,-422.77"/>
<text text-anchor="middle" x="329.975" y="-489.77" font-family="meiryo" font-size="10.00">シェーダー設定(.fsca, .fscb)</text>
</g>
<g id="clust6" class="cluster"><title>cluster_fsdb</title>
<polygon fill="#ffe1ff" stroke="black" points="251.975,-224.77 251.975,-312.77 407.975,-312.77 407.975,-224.77 251.975,-224.77"/>
<text text-anchor="middle" x="329.975" y="-300.77" font-family="meiryo" font-size="10.00">シェーダー定義(.fsdb)</text>
</g>
<g id="clust7" class="cluster"><title>cluster_fsva</title>
<polygon fill="#ffe1ff" stroke="black" points="415.975,-233.27 415.975,-304.27 648.975,-304.27 648.975,-233.27 415.975,-233.27"/>
<text text-anchor="middle" x="532.475" y="-292.27" font-family="meiryo" font-size="10.00">シェーダーバリエーションファイル(.fsva, .fsvb)</text>
</g>
<g id="clust4" class="cluster"><title>cluster_glsl3</title>
<polygon fill="lightpink" stroke="black" points="403.975,-611.77 403.975,-682.77 535.975,-682.77 535.975,-611.77 403.975,-611.77"/>
<text text-anchor="middle" x="469.975" y="-670.77" font-family="meiryo" font-size="10.00">シェーダーソース</text>
</g>
<g id="clust8" class="cluster"><title>cluster_bfsha</title>
<polygon fill="lavender" stroke="black" points="312.975,-8 312.975,-79 464.975,-79 464.975,-8 312.975,-8"/>
<text text-anchor="middle" x="388.975" y="-67" font-family="meiryo" font-size="10.00">シェーダーアーカイブ(.bfsha)</text>
</g>
<!-- g3DEditor -->
<g id="node1" class="node"><title>g3DEditor</title>
<polygon fill="honeydew" stroke="black" points="56.9749,-277.27 2.97488,-277.27 2.97488,-241.27 56.9749,-241.27 56.9749,-277.27"/>
<text text-anchor="middle" x="29.9749" y="-257.07" font-family="meiryo" font-size="9.00">3DEditor</text>
</g>
<!-- editMat -->
<g id="node8" class="node"><title>editMat</title>
<ellipse fill="none" stroke="black" stroke-dasharray="5,2" cx="149.975" cy="-259.27" rx="74.9067" ry="18.2703"/>
<text text-anchor="middle" x="149.975" y="-261.87" font-family="meiryo" font-size="8.00">参照</text>
<text text-anchor="middle" x="149.975" y="-252.87" font-family="meiryo" font-size="8.00">(マテリアル編集に利用)</text>
</g>
<!-- g3DEditor&#45;&gt;editMat -->
<g id="edge5" class="edge"><title>g3DEditor&#45;&gt;editMat</title>
<path fill="none" stroke="black" d="M57.1624,-259.27C63.084,-259.27 69.0056,-259.27 74.9273,-259.27"/>
</g>
<!-- editMatM -->
<g id="node9" class="node"><title>editMatM</title>
<ellipse fill="none" stroke="black" stroke-dasharray="5,2" cx="41.9749" cy="-178.77" rx="41.9498" ry="18"/>
<text text-anchor="middle" x="41.9749" y="-176.87" font-family="meiryo" font-size="8.00">マテリアル編集</text>
</g>
<!-- g3DEditor&#45;&gt;editMatM -->
<g id="edge9" class="edge"><title>g3DEditor&#45;&gt;editMatM</title>
<path fill="none" stroke="black" d="M32.5787,-241.236C34.5915,-228.069 37.3646,-209.928 39.3761,-196.77"/>
</g>
<!-- g3d -->
<g id="node2" class="node"><title>g3d</title>
<polygon fill="honeydew" stroke="black" points="356.975,-196.77 276.975,-196.77 276.975,-160.77 356.975,-160.77 356.975,-196.77"/>
<text text-anchor="middle" x="316.975" y="-176.57" font-family="meiryo" font-size="9.00">g3d ランタイム</text>
</g>
<!-- g3dref -->
<g id="node11" class="node"><title>g3dref</title>
<ellipse fill="none" stroke="black" stroke-dasharray="5,2" cx="346.975" cy="-106.385" rx="27" ry="18"/>
<text text-anchor="middle" x="346.975" y="-104.485" font-family="meiryo" font-size="8.00">参照</text>
</g>
<!-- g3d&#45;&gt;g3dref -->
<g id="edge11" class="edge"><title>g3d&#45;&gt;g3dref</title>
<path fill="none" stroke="black" d="M324.237,-160.731C329.023,-149.502 335.257,-134.878 339.986,-123.781"/>
</g>
<!-- fmdbMember -->
<g id="node3" class="node"><title>fmdbMember</title>
<polygon fill="honeydew" stroke="black" points="190.975,-52 128.975,-52 128.975,-16 190.975,-16 190.975,-52"/>
<text text-anchor="middle" x="159.975" y="-31.8" font-family="meiryo" font-size="9.00">マテリアル</text>
</g>
<!-- glslMember -->
<g id="node4" class="node"><title>glslMember</title>
<polygon fill="lightyellow" stroke="black" points="247.475,-655.77 132.475,-655.77 132.475,-619.77 247.475,-619.77 247.475,-655.77"/>
<text text-anchor="start" x="140.475" y="-635.87" font-family="meiryo" font-size="8.00">シェーダーアノテーション</text>
</g>
<!-- includeSource -->
<g id="node7" class="node"><title>includeSource</title>
<ellipse fill="none" stroke="black" stroke-dasharray="5,2" cx="329.975" cy="-528.77" rx="37.3742" ry="18"/>
<text text-anchor="middle" x="329.975" y="-526.87" font-family="meiryo" font-size="8.00">インクルード</text>
</g>
<!-- glslMember&#45;&gt;includeSource -->
<g id="edge1" class="edge"><title>glslMember&#45;&gt;includeSource</title>
<path fill="none" stroke="black" d="M228.381,-607.416C255.085,-587.007 289.551,-560.665 310.692,-544.507"/>
<polygon fill="black" stroke="black" points="226.428,-605.385 221.772,-612.467 229.829,-609.834 226.428,-605.385"/>
</g>
<!-- glslMember2 -->
<g id="node5" class="node"><title>glslMember2</title>
<polygon fill="lightyellow" stroke="black" points="387.475,-655.77 272.475,-655.77 272.475,-619.77 387.475,-619.77 387.475,-655.77"/>
<text text-anchor="start" x="280.475" y="-635.87" font-family="meiryo" font-size="8.00">シェーダーアノテーション</text>
</g>
<!-- glslMember2&#45;&gt;includeSource -->
<g id="edge2" class="edge"><title>glslMember2&#45;&gt;includeSource</title>
<path fill="none" stroke="black" d="M329.975,-611.541C329.975,-591.625 329.975,-564.374 329.975,-546.918"/>
<polygon fill="black" stroke="black" points="327.178,-603.768 329.975,-611.77 332.778,-603.771 327.178,-603.768"/>
</g>
<!-- glslMember3 -->
<g id="node6" class="node"><title>glslMember3</title>
<polygon fill="lightyellow" stroke="black" points="527.475,-655.77 412.475,-655.77 412.475,-619.77 527.475,-619.77 527.475,-655.77"/>
<text text-anchor="start" x="420.475" y="-635.87" font-family="meiryo" font-size="8.00">シェーダーアノテーション</text>
</g>
<!-- glslMember3&#45;&gt;includeSource -->
<g id="edge3" class="edge"><title>glslMember3&#45;&gt;includeSource</title>
<path fill="none" stroke="black" d="M431.569,-607.416C404.865,-587.007 370.399,-560.665 349.258,-544.507"/>
<polygon fill="black" stroke="black" points="430.121,-609.834 438.178,-612.467 433.522,-605.385 430.121,-609.834"/>
</g>
<!-- fscaMember -->
<g id="node14" class="node"><title>fscaMember</title>
<polygon fill="lightyellow" stroke="black" points="399.975,-474.77 259.975,-474.77 259.975,-430.77 399.975,-430.77 399.975,-474.77"/>
<text text-anchor="start" x="267.975" y="-464.37" font-family="meiryo" font-size="8.00">インクルードパス</text>
<text text-anchor="start" x="267.975" y="-455.37" font-family="meiryo" font-size="8.00">シェーディングモデルの宣言</text>
<text text-anchor="start" x="267.975" y="-446.37" font-family="meiryo" font-size="8.00">バリエーションの範囲</text>
<text text-anchor="start" x="267.975" y="-437.37" font-family="meiryo" font-size="8.00">バリエーションと分岐の切り替え</text>
</g>
<!-- includeSource&#45;&gt;fscaMember -->
<g id="edge4" class="edge"><title>includeSource&#45;&gt;fscaMember</title>
<path fill="none" stroke="black" d="M329.975,-510.606C329.975,-507.771 329.975,-504.715 329.975,-501.544"/>
</g>
<!-- fsdbMember -->
<g id="node15" class="node"><title>fsdbMember</title>
<polygon fill="lightyellow" stroke="black" points="399.975,-285.77 259.975,-285.77 259.975,-232.77 399.975,-232.77 399.975,-285.77"/>
<text text-anchor="start" x="267.975" y="-275.37" font-family="meiryo" font-size="8.00">シェーディングモデルの定義</text>
<text text-anchor="start" x="267.975" y="-266.37" font-family="meiryo" font-size="8.00">シェーダーバリエーションの定義</text>
<text text-anchor="start" x="267.975" y="-257.37" font-family="meiryo" font-size="8.00">シンボル情報</text>
<text text-anchor="start" x="267.975" y="-248.37" font-family="meiryo" font-size="8.00">UI の定義</text>
<text text-anchor="start" x="267.975" y="-239.37" font-family="meiryo" font-size="8.00">シェーダーソース</text>
</g>
<!-- editMat&#45;&gt;fsdbMember -->
<g id="edge6" class="edge"><title>editMat&#45;&gt;fsdbMember</title>
<path fill="none" stroke="black" d="M225.209,-259.27C233.982,-259.27 242.755,-259.27 251.529,-259.27"/>
<polygon fill="black" stroke="black" points="243.976,-262.071 251.975,-259.27 243.974,-256.471 243.976,-262.071"/>
</g>
<!-- editMatM&#45;&gt;fmdbMember -->
<g id="edge10" class="edge"><title>editMatM&#45;&gt;fmdbMember</title>
<path fill="none" stroke="black" d="M42.4367,-160.482C43.787,-141.001 48.5792,-109.285 64.9749,-88 75.9935,-73.6956 92.032,-62.6833 107.804,-54.4994"/>
<polygon fill="black" stroke="black" points="109.082,-56.9914 115.013,-50.9366 106.6,-51.971 109.082,-56.9914"/>
</g>
<!-- Assign -->
<g id="node10" class="node"><title>Assign</title>
<ellipse fill="none" stroke="black" stroke-dasharray="5,2" cx="172.975" cy="-106.385" rx="98.9899" ry="18.2703"/>
<text text-anchor="middle" x="172.975" y="-108.985" font-family="meiryo" font-size="8.00">アサインユーティリティーによる</text>
<text text-anchor="middle" x="172.975" y="-99.9848" font-family="meiryo" font-size="8.00">シェーダーの関連付け</text>
</g>
<!-- Assign&#45;&gt;fmdbMember -->
<g id="edge8" class="edge"><title>Assign&#45;&gt;fmdbMember</title>
<path fill="none" stroke="black" d="M169.761,-87.9863C169.695,-87.6274 169.628,-87.2651 169.561,-86.8997"/>
<polygon fill="black" stroke="black" points="172.279,-86.2009 168.073,-78.8425 166.772,-87.218 172.279,-86.2009"/>
</g>
<!-- bfshaMember -->
<g id="node17" class="node"><title>bfshaMember</title>
<polygon fill="lightyellow" stroke="black" points="438.475,-52 339.475,-52 339.475,-16 438.475,-16 438.475,-52"/>
<text text-anchor="start" x="347.475" y="-32.1" font-family="meiryo" font-size="8.00">シェーダープログラム</text>
</g>
<!-- g3dref&#45;&gt;bfshaMember -->
<g id="edge12" class="edge"><title>g3dref&#45;&gt;bfshaMember</title>
<path fill="none" stroke="black" d="M356.505,-89.4134C357.25,-88.165 358.023,-86.87 358.817,-85.5387"/>
<polygon fill="black" stroke="black" points="361.248,-86.9296 362.943,-78.6249 356.439,-84.06 361.248,-86.9296"/>
</g>
<!-- g3dconverter1 -->
<g id="node12" class="node"><title>g3dconverter1</title>
<ellipse fill="none" stroke="black" stroke-dasharray="5,2" cx="329.975" cy="-376.77" rx="90.5137" ry="18"/>
<text text-anchor="middle" x="329.975" y="-374.87" font-family="meiryo" font-size="8.00">3Dシェーダーコンバーターによる変換</text>
</g>
<!-- g3dconverter1&#45;&gt;fsdbMember -->
<g id="edge14" class="edge"><title>g3dconverter1&#45;&gt;fsdbMember</title>
<path fill="none" stroke="black" d="M329.975,-358.727C329.975,-348.487 329.975,-334.772 329.975,-320.838"/>
<polygon fill="black" stroke="black" points="332.775,-320.633 329.975,-312.633 327.175,-320.633 332.775,-320.633"/>
</g>
<!-- g3dconverter2 -->
<g id="node13" class="node"><title>g3dconverter2</title>
<ellipse fill="none" stroke="black" stroke-dasharray="5,2" cx="465.975" cy="-178.77" rx="90.5137" ry="18"/>
<text text-anchor="middle" x="465.975" y="-176.87" font-family="meiryo" font-size="8.00">3Dシェーダーコンバーターによる変換</text>
</g>
<!-- g3dconverter2&#45;&gt;bfshaMember -->
<g id="edge17" class="edge"><title>g3dconverter2&#45;&gt;bfshaMember</title>
<path fill="none" stroke="black" d="M456.84,-160.831C446.936,-142.468 430.649,-112.27 416.513,-86.06"/>
<polygon fill="black" stroke="black" points="418.852,-84.4984 412.59,-78.7864 413.923,-87.1567 418.852,-84.4984"/>
</g>
<!-- fscaMember&#45;&gt;g3dconverter1 -->
<g id="edge13" class="edge"><title>fscaMember&#45;&gt;g3dconverter1</title>
<path fill="none" stroke="black" d="M329.975,-423.064C329.975,-413.619 329.975,-403.413 329.975,-395.084"/>
</g>
<!-- fsdbMember&#45;&gt;Assign -->
<g id="edge7" class="edge"><title>fsdbMember&#45;&gt;Assign</title>
<path fill="none" stroke="black" d="M295.478,-225.116C263.217,-194.112 216.311,-149.033 190.92,-124.631"/>
</g>
<!-- fsdbMember&#45;&gt;g3dconverter2 -->
<g id="edge15" class="edge"><title>fsdbMember&#45;&gt;g3dconverter2</title>
<path fill="none" stroke="black" d="M387.592,-225.013C405.044,-214.939 423.431,-204.326 438.007,-195.913"/>
</g>
<!-- fsvaMember -->
<g id="node16" class="node"><title>fsvaMember</title>
<polygon fill="lightyellow" stroke="black" points="539.475,-277.27 424.475,-277.27 424.475,-241.27 539.475,-241.27 539.475,-277.27"/>
<text text-anchor="middle" x="481.975" y="-257.37" font-family="meiryo" font-size="8.00">バリエーションの詳細指定</text>
</g>
<!-- fsvaMember&#45;&gt;g3dconverter2 -->
<g id="edge16" class="edge"><title>fsvaMember&#45;&gt;g3dconverter2</title>
<path fill="none" stroke="black" d="M476.9,-233.371C474.469,-221.441 471.619,-207.461 469.44,-196.77"/>
</g>
<!-- GroupA -->
<g id="node18" class="node"><title>GroupA</title>
</g>
<!-- GroupB -->
<g id="node19" class="node"><title>GroupB</title>
</g>
<!-- GroupA&#45;&gt;GroupB -->
<g id="edge18" class="edge"><title>GroupA&#45;&gt;GroupB</title>
<path fill="none" stroke="white" d="M601.975,-52.3703C601.975,-63.3379 601.975,-77.4431 601.975,-88.3466"/>
</g>
<!-- GroupC -->
<g id="node20" class="node"><title>GroupC</title>
</g>
<!-- GroupB&#45;&gt;GroupC -->
<g id="edge19" class="edge"><title>GroupB&#45;&gt;GroupC</title>
<path fill="none" stroke="white" d="M601.975,-124.755C601.975,-135.723 601.975,-149.828 601.975,-160.731"/>
</g>
</g>
</svg>
