<?xml version="1.0" encoding="UTF-8" standalone="no"?>
<!DOCTYPE svg PUBLIC "-//W3C//DTD SVG 1.1//EN"
 "http://www.w3.org/Graphics/SVG/1.1/DTD/svg11.dtd">
<!-- Generated by graphviz version 2.38.0 (20140413.2041)
 -->
<!-- Pages: 1 -->
<svg width="368pt" height="189pt"
 viewBox="0.00 0.00 368.48 188.77" xmlns="http://www.w3.org/2000/svg" xmlns:xlink="http://www.w3.org/1999/xlink">
<g id="graph0" class="graph" transform="scale(1 1) rotate(0) translate(4 184.77)">
<polygon fill="white" stroke="none" points="-4,4 -4,-184.77 364.476,-184.77 364.476,4 -4,4"/>
<!-- g3DEditor -->
<g id="node1" class="node"><title>g3DEditor</title>
<polygon fill="honeydew" stroke="black" points="199.845,-180.77 145.845,-180.77 145.845,-144.77 199.845,-144.77 199.845,-180.77"/>
<text text-anchor="middle" x="172.845" y="-160.57" font-family="meiryo" font-size="9.00">3DEditor</text>
</g>
<!-- editMat -->
<g id="node3" class="node"><title>editMat</title>
<ellipse fill="none" stroke="black" stroke-dasharray="5,2" cx="78.8447" cy="-90.3848" rx="78.6897" ry="18"/>
<text text-anchor="middle" x="78.8447" y="-88.4848" font-family="meiryo" font-size="8.00">アノテーションの UI 定義を参照</text>
</g>
<!-- g3DEditor&#45;&gt;editMat -->
<g id="edge1" class="edge"><title>g3DEditor&#45;&gt;editMat</title>
<path fill="none" stroke="black" d="M150.09,-144.731C135.093,-133.502 115.562,-118.878 100.743,-107.781"/>
</g>
<!-- editMatM -->
<g id="node4" class="node"><title>editMatM</title>
<ellipse fill="none" stroke="black" stroke-dasharray="5,2" cx="267.845" cy="-90.3848" rx="92.7622" ry="18.2703"/>
<text text-anchor="middle" x="267.845" y="-92.9848" font-family="meiryo" font-size="8.00">マテリアル編集</text>
<text text-anchor="middle" x="267.845" y="-83.9848" font-family="meiryo" font-size="8.00">&lt;shader_assign&gt; の値を編集</text>
</g>
<!-- g3DEditor&#45;&gt;editMatM -->
<g id="edge3" class="edge"><title>g3DEditor&#45;&gt;editMatM</title>
<path fill="none" stroke="black" d="M195.842,-144.731C210.778,-133.665 230.166,-119.301 245.06,-108.266"/>
</g>
<!-- fmdb -->
<g id="node2" class="node"><title>fmdb</title>
<polygon fill="lightyellow" stroke="black" points="335.845,-36 199.845,-36 199.845,-0 335.845,-0 335.845,-36"/>
<text text-anchor="middle" x="267.845" y="-15.8" font-family="meiryo" font-size="9.00">モデル中間ファイル(*.fmdb)</text>
</g>
<!-- fsdb -->
<g id="node5" class="node"><title>fsdb</title>
<polygon fill="#ffe1ff" stroke="black" points="129.845,-36 27.8447,-36 27.8447,-0 129.845,-0 129.845,-36"/>
<text text-anchor="middle" x="78.8447" y="-16.1" font-family="meiryo" font-size="8.00">シェーダー定義(.fsdb)</text>
</g>
<!-- editMat&#45;&gt;fsdb -->
<g id="edge2" class="edge"><title>editMat&#45;&gt;fsdb</title>
<path fill="none" stroke="black" d="M78.8447,-72.3466C78.8447,-63.9986 78.8447,-53.7738 78.8447,-44.5173"/>
<polygon fill="black" stroke="black" points="81.6448,-44.3702 78.8447,-36.3703 76.0448,-44.3703 81.6448,-44.3702"/>
</g>
<!-- editMatM&#45;&gt;fmdb -->
<g id="edge4" class="edge"><title>editMatM&#45;&gt;fmdb</title>
<path fill="none" stroke="black" d="M267.845,-71.9863C267.845,-63.6333 267.845,-53.4655 267.845,-44.2789"/>
<polygon fill="black" stroke="black" points="270.645,-44.1983 267.845,-36.1984 265.045,-44.1984 270.645,-44.1983"/>
</g>
</g>
</svg>
