<?xml version="1.0" encoding="UTF-8" standalone="no"?>
<!DOCTYPE svg PUBLIC "-//W3C//DTD SVG 1.1//EN"
 "http://www.w3.org/Graphics/SVG/1.1/DTD/svg11.dtd">
<!-- Generated by graphviz version 2.38.0 (20140413.2041)
 -->
<!-- Pages: 1 -->
<svg width="576pt" height="45pt"
 viewBox="0.00 0.00 576.00 44.77" xmlns="http://www.w3.org/2000/svg" xmlns:xlink="http://www.w3.org/1999/xlink">
<g id="graph0" class="graph" transform="scale(1 1) rotate(0) translate(4 40.7696)">
<polygon fill="white" stroke="none" points="-4,4 -4,-40.7696 572,-40.7696 572,4 -4,4"/>
<!-- fmdb -->
<g id="node1" class="node"><title>fmdb</title>
<polygon fill="lightyellow" stroke="black" points="568,-36.3848 432,-36.3848 432,-0.384776 568,-0.384776 568,-36.3848"/>
<text text-anchor="middle" x="500" y="-16.1848" font-family="meiryo" font-size="9.00">モデル中間ファイル(*.fmdb)</text>
</g>
<!-- Assign -->
<g id="node2" class="node"><title>Assign</title>
<ellipse fill="none" stroke="black" stroke-dasharray="5,2" cx="267" cy="-18.3848" rx="147.156" ry="18.2703"/>
<text text-anchor="middle" x="267" y="-20.9848" font-family="meiryo" font-size="8.00">アサインユーティリティーを使用して</text>
<text text-anchor="middle" x="267" y="-11.9848" font-family="meiryo" font-size="8.00">モデル &lt;shader_assign&gt; にシェーダー情報を追加</text>
</g>
<!-- Assign&#45;&gt;fmdb -->
<g id="edge2" class="edge"><title>Assign&#45;&gt;fmdb</title>
<path fill="none" stroke="black" d="M414.445,-18.3848C417.523,-18.3848 420.6,-18.3848 423.678,-18.3848"/>
<polygon fill="black" stroke="black" points="423.824,-21.1849 431.824,-18.3848 423.824,-15.5849 423.824,-21.1849"/>
</g>
<!-- fsdb -->
<g id="node3" class="node"><title>fsdb</title>
<polygon fill="#ffe1ff" stroke="black" points="102,-36.3848 0,-36.3848 0,-0.384776 102,-0.384776 102,-36.3848"/>
<text text-anchor="middle" x="51" y="-16.4848" font-family="meiryo" font-size="8.00">シェーダー定義(.fsdb)</text>
</g>
<!-- fsdb&#45;&gt;Assign -->
<g id="edge1" class="edge"><title>fsdb&#45;&gt;Assign</title>
<path fill="none" stroke="black" d="M102.047,-18.3848C105.277,-18.3848 108.507,-18.3848 111.737,-18.3848"/>
<polygon fill="black" stroke="black" points="111.766,-21.1849 119.766,-18.3848 111.766,-15.5849 111.766,-21.1849"/>
</g>
</g>
</svg>
