<?xml version="1.0" encoding="UTF-8" standalone="no"?>
<!DOCTYPE svg PUBLIC "-//W3C//DTD SVG 1.1//EN"
 "http://www.w3.org/Graphics/SVG/1.1/DTD/svg11.dtd">
<!-- Generated by graphviz version 2.38.0 (20140413.2041)
 -->
<!-- Pages: 1 -->
<svg width="452pt" height="260pt"
 viewBox="0.00 0.00 451.50 260.00" xmlns="http://www.w3.org/2000/svg" xmlns:xlink="http://www.w3.org/1999/xlink">
<g id="graph0" class="graph" transform="scale(1 1) rotate(0) translate(4 256)">
<polygon fill="white" stroke="none" points="-4,4 -4,-256 447.5,-256 447.5,4 -4,4"/>
<!-- Application A -->
<g id="node1" class="node"><title>Application A</title>
<polygon fill="lightyellow" stroke="black" points="213,-252 136,-252 136,-216 213,-216 213,-252"/>
<text text-anchor="middle" x="174.5" y="-231.8" font-family="Verdana" font-size="9.00">Application A</text>
</g>
<!-- GFX -->
<g id="node2" class="node"><title>GFX</title>
<polygon fill="lightyellow" stroke="black" points="248.5,-180 194.5,-180 194.5,-144 248.5,-144 248.5,-180"/>
<text text-anchor="middle" x="221.5" y="-159.8" font-family="Verdana" font-size="9.00">GFX</text>
</g>
<!-- Application A&#45;&gt;GFX -->
<g id="edge1" class="edge"><title>Application A&#45;&gt;GFX</title>
<path fill="none" stroke="black" d="M186.118,-215.697C191.98,-206.965 199.181,-196.24 205.553,-186.75"/>
<polygon fill="black" stroke="black" points="207.881,-188.307 210.016,-180.104 203.232,-185.185 207.881,-188.307"/>
</g>
<!-- Low&#45;Level Graphics API X -->
<g id="node4" class="node"><title>Low&#45;Level Graphics API X</title>
<polygon fill="lightyellow" stroke="black" points="289.5,-108 153.5,-108 153.5,-72 289.5,-72 289.5,-108"/>
<text text-anchor="middle" x="221.5" y="-87.8" font-family="Verdana" font-size="9.00">Low&#45;Level Graphics API X</text>
</g>
<!-- GFX&#45;&gt;Low&#45;Level Graphics API X -->
<g id="edge3" class="edge"><title>GFX&#45;&gt;Low&#45;Level Graphics API X</title>
<path fill="none" stroke="black" d="M221.5,-143.697C221.5,-135.389 221.5,-125.277 221.5,-116.141"/>
<polygon fill="black" stroke="black" points="224.3,-116.104 221.5,-108.104 218.7,-116.104 224.3,-116.104"/>
</g>
<!-- Low&#45;Level Graphics API Y -->
<g id="node5" class="node"><title>Low&#45;Level Graphics API Y</title>
<polygon fill="lightyellow" stroke="black" points="135,-108 0,-108 0,-72 135,-72 135,-108"/>
<text text-anchor="middle" x="67.5" y="-87.8" font-family="Verdana" font-size="9.00">Low&#45;Level Graphics API Y</text>
</g>
<!-- GFX&#45;&gt;Low&#45;Level Graphics API Y -->
<g id="edge4" class="edge"><title>GFX&#45;&gt;Low&#45;Level Graphics API Y</title>
<path fill="none" stroke="black" d="M194.322,-148.647C171.67,-138.35 138.936,-123.471 112.399,-111.409"/>
<polygon fill="black" stroke="black" points="113.533,-108.849 105.092,-108.087 111.216,-113.947 113.533,-108.849"/>
</g>
<!-- Low&#45;Level Graphics API Z -->
<g id="node6" class="node"><title>Low&#45;Level Graphics API Z</title>
<polygon fill="lightyellow" stroke="black" points="443.5,-108 307.5,-108 307.5,-72 443.5,-72 443.5,-108"/>
<text text-anchor="middle" x="375.5" y="-87.8" font-family="Verdana" font-size="9.00">Low&#45;Level Graphics API Z</text>
</g>
<!-- GFX&#45;&gt;Low&#45;Level Graphics API Z -->
<g id="edge5" class="edge"><title>GFX&#45;&gt;Low&#45;Level Graphics API Z</title>
<path fill="none" stroke="black" d="M248.678,-148.647C271.33,-138.35 304.064,-123.471 330.601,-111.409"/>
<polygon fill="black" stroke="black" points="331.784,-113.947 337.908,-108.087 329.467,-108.849 331.784,-113.947"/>
</g>
<!-- Application B -->
<g id="node3" class="node"><title>Application B</title>
<polygon fill="lightyellow" stroke="black" points="308,-252 231,-252 231,-216 308,-216 308,-252"/>
<text text-anchor="middle" x="269.5" y="-231.8" font-family="Verdana" font-size="9.00">Application B</text>
</g>
<!-- Application B&#45;&gt;GFX -->
<g id="edge2" class="edge"><title>Application B&#45;&gt;GFX</title>
<path fill="none" stroke="black" d="M257.635,-215.697C251.648,-206.965 244.293,-196.24 237.786,-186.75"/>
<polygon fill="black" stroke="black" points="240.062,-185.119 233.229,-180.104 235.444,-188.286 240.062,-185.119"/>
</g>
<!-- Platform P -->
<g id="node7" class="node"><title>Platform P</title>
<polygon fill="lightyellow" stroke="black" points="219,-36 154,-36 154,-0 219,-0 219,-36"/>
<text text-anchor="middle" x="186.5" y="-15.8" font-family="Verdana" font-size="9.00">Platform P</text>
</g>
<!-- Low&#45;Level Graphics API X&#45;&gt;Platform P -->
<g id="edge6" class="edge"><title>Low&#45;Level Graphics API X&#45;&gt;Platform P</title>
<path fill="none" stroke="black" d="M212.848,-71.6966C208.568,-63.135 203.328,-52.6562 198.652,-43.3045"/>
<polygon fill="black" stroke="black" points="201.134,-42.0075 195.052,-36.1043 196.126,-44.512 201.134,-42.0075"/>
</g>
<!-- Platform Q -->
<g id="node8" class="node"><title>Platform Q</title>
<polygon fill="lightyellow" stroke="black" points="118.5,-36 52.5,-36 52.5,-0 118.5,-0 118.5,-36"/>
<text text-anchor="middle" x="85.5" y="-15.8" font-family="Verdana" font-size="9.00">Platform Q</text>
</g>
<!-- Low&#45;Level Graphics API X&#45;&gt;Platform Q -->
<g id="edge8" class="edge"><title>Low&#45;Level Graphics API X&#45;&gt;Platform Q</title>
<path fill="none" stroke="black" d="M188.231,-71.8761C169.461,-62.2151 145.865,-50.0702 126.022,-39.857"/>
<polygon fill="black" stroke="black" points="127.292,-37.3614 118.897,-36.1898 124.729,-42.3405 127.292,-37.3614"/>
</g>
<!-- Low&#45;Level Graphics API Y&#45;&gt;Platform P -->
<g id="edge7" class="edge"><title>Low&#45;Level Graphics API Y&#45;&gt;Platform P</title>
<path fill="none" stroke="black" d="M96.6107,-71.8761C112.746,-62.3846 132.958,-50.4956 150.126,-40.3963"/>
<polygon fill="black" stroke="black" points="151.802,-42.6594 157.277,-36.1898 148.962,-37.8325 151.802,-42.6594"/>
</g>
<!-- Low&#45;Level Graphics API Y&#45;&gt;Platform Q -->
<g id="edge9" class="edge"><title>Low&#45;Level Graphics API Y&#45;&gt;Platform Q</title>
<path fill="none" stroke="black" d="M71.9494,-71.6966C74.1074,-63.3046 76.739,-53.0705 79.1071,-43.8613"/>
<polygon fill="black" stroke="black" points="81.8211,-44.5496 81.1017,-36.1043 76.3976,-43.1549 81.8211,-44.5496"/>
</g>
<!-- Platform R -->
<g id="node9" class="node"><title>Platform R</title>
<polygon fill="lightyellow" stroke="black" points="408,-36 343,-36 343,-0 408,-0 408,-36"/>
<text text-anchor="middle" x="375.5" y="-15.8" font-family="Verdana" font-size="9.00">Platform R</text>
</g>
<!-- Low&#45;Level Graphics API Z&#45;&gt;Platform R -->
<g id="edge10" class="edge"><title>Low&#45;Level Graphics API Z&#45;&gt;Platform R</title>
<path fill="none" stroke="black" d="M375.5,-71.6966C375.5,-63.3893 375.5,-53.2771 375.5,-44.1407"/>
<polygon fill="black" stroke="black" points="378.3,-44.1043 375.5,-36.1043 372.7,-44.1044 378.3,-44.1043"/>
</g>
</g>
</svg>
