<?xml version="1.0" encoding="UTF-8" standalone="no"?>
<!DOCTYPE svg PUBLIC "-//W3C//DTD SVG 1.1//EN"
 "http://www.w3.org/Graphics/SVG/1.1/DTD/svg11.dtd">
<!-- Generated by graphviz version 2.38.0 (20140413.2041)
 -->
<!-- Pages: 1 -->
<svg width="233pt" height="548pt"
 viewBox="0.00 0.00 232.80 548.00" xmlns="http://www.w3.org/2000/svg" xmlns:xlink="http://www.w3.org/1999/xlink">
<g id="graph0" class="graph" transform="scale(1 1) rotate(0) translate(4 544)">
<polygon fill="white" stroke="none" points="-4,4 -4,-544 228.8,-544 228.8,4 -4,4"/>
<!-- initialize -->
<g id="node1" class="node"><title>initialize</title>
<polygon fill="lightyellow" stroke="black" points="100,-540 46,-540 46,-504 100,-504 100,-540"/>
<text text-anchor="middle" x="73" y="-519.8" font-family="Verdana" font-size="9.00">初期化</text>
</g>
<!-- initializeGfx -->
<g id="node2" class="node"><title>initializeGfx</title>
<polygon fill="lightyellow" stroke="black" points="139,-468 7,-468 7,-432 139,-432 139,-468"/>
<text text-anchor="middle" x="73" y="-452.8" font-family="Verdana" font-size="9.00">nn::gfx オブジェクトの</text>
<text text-anchor="middle" x="73" y="-442.8" font-family="Verdana" font-size="9.00">初期化</text>
</g>
<!-- initialize&#45;&gt;initializeGfx -->
<g id="edge1" class="edge"><title>initialize&#45;&gt;initializeGfx</title>
<path fill="none" stroke="black" d="M73,-503.697C73,-495.389 73,-485.277 73,-476.141"/>
<polygon fill="black" stroke="black" points="75.8001,-476.104 73,-468.104 70.2001,-476.104 75.8001,-476.104"/>
</g>
<!-- update -->
<g id="node3" class="node"><title>update</title>
<polygon fill="lightyellow" stroke="black" points="132,-396 14,-396 14,-360 132,-360 132,-396"/>
<text text-anchor="middle" x="73" y="-380.8" font-family="Verdana" font-size="9.00">アニメーション等の</text>
<text text-anchor="middle" x="73" y="-370.8" font-family="Verdana" font-size="9.00">更新</text>
</g>
<!-- initializeGfx&#45;&gt;update -->
<g id="edge2" class="edge"><title>initializeGfx&#45;&gt;update</title>
<path fill="none" stroke="black" d="M73,-431.697C73,-423.389 73,-413.277 73,-404.141"/>
<polygon fill="black" stroke="black" points="75.8001,-404.104 73,-396.104 70.2001,-404.104 75.8001,-404.104"/>
</g>
<!-- updateGpuBuffers -->
<g id="node4" class="node"><title>updateGpuBuffers</title>
<polygon fill="lightyellow" stroke="black" points="118,-324 0,-324 0,-288 118,-288 118,-324"/>
<text text-anchor="middle" x="59" y="-308.8" font-family="Verdana" font-size="9.00">GPU から参照される</text>
<text text-anchor="middle" x="59" y="-298.8" font-family="Verdana" font-size="9.00">バッファの更新</text>
</g>
<!-- update&#45;&gt;updateGpuBuffers -->
<g id="edge3" class="edge"><title>update&#45;&gt;updateGpuBuffers</title>
<path fill="none" stroke="black" d="M69.5393,-359.697C67.8779,-351.389 65.8554,-341.277 64.0281,-332.141"/>
<polygon fill="black" stroke="black" points="66.7355,-331.4 62.4209,-324.104 61.2442,-332.498 66.7355,-331.4"/>
</g>
<!-- makeGpuCommands -->
<g id="node5" class="node"><title>makeGpuCommands</title>
<polygon fill="lightyellow" stroke="black" points="115.5,-252 8.5,-252 8.5,-216 115.5,-216 115.5,-252"/>
<text text-anchor="middle" x="62" y="-231.8" font-family="Verdana" font-size="9.00">描画コマンド作成</text>
</g>
<!-- updateGpuBuffers&#45;&gt;makeGpuCommands -->
<g id="edge4" class="edge"><title>updateGpuBuffers&#45;&gt;makeGpuCommands</title>
<path fill="none" stroke="black" d="M59.7416,-287.697C60.0976,-279.389 60.531,-269.277 60.9225,-260.141"/>
<polygon fill="black" stroke="black" points="63.7218,-260.217 61.267,-252.104 58.1269,-259.977 63.7218,-260.217"/>
</g>
<!-- executeGpuCommands -->
<g id="node6" class="node"><title>executeGpuCommands</title>
<polygon fill="lightyellow" stroke="black" points="116.5,-180 9.5,-180 9.5,-144 116.5,-144 116.5,-180"/>
<text text-anchor="middle" x="63" y="-159.8" font-family="Verdana" font-size="9.00">描画コマンド発行</text>
</g>
<!-- makeGpuCommands&#45;&gt;executeGpuCommands -->
<g id="edge5" class="edge"><title>makeGpuCommands&#45;&gt;executeGpuCommands</title>
<path fill="none" stroke="black" d="M62.2472,-215.697C62.3659,-207.389 62.5103,-197.277 62.6408,-188.141"/>
<polygon fill="black" stroke="black" points="65.441,-188.144 62.7557,-180.104 59.8416,-188.063 65.441,-188.144"/>
</g>
<!-- breakMainLoop -->
<g id="node7" class="node"><title>breakMainLoop</title>
<polygon fill="lightyellow" stroke="black" points="86,-108 50.1481,-90 86,-72 121.852,-90 86,-108"/>
<text text-anchor="middle" x="86" y="-87.8" font-family="Verdana" font-size="9.00">終了?</text>
</g>
<!-- executeGpuCommands&#45;&gt;breakMainLoop -->
<g id="edge6" class="edge"><title>executeGpuCommands&#45;&gt;breakMainLoop</title>
<path fill="none" stroke="black" d="M68.6854,-143.697C71.6785,-134.587 75.3847,-123.307 78.5993,-113.524"/>
<polygon fill="black" stroke="black" points="81.3202,-114.213 81.1574,-105.738 76,-112.465 81.3202,-114.213"/>
</g>
<!-- breakMainLoop&#45;&gt;update -->
<g id="edge8" class="edge"><title>breakMainLoop:e&#45;&gt;update:e</title>
<path fill="none" stroke="black" d="M123,-90C248.325,-90 260.593,-365.758 141.064,-377.607"/>
<polygon fill="black" stroke="black" points="140.854,-374.814 133,-378 141.127,-380.407 140.854,-374.814"/>
<text text-anchor="middle" x="132" y="-93.8" font-family="Times New Roman,serif" font-size="14.00">No</text>
</g>
<!-- finalize -->
<g id="node8" class="node"><title>finalize</title>
<polygon fill="lightyellow" stroke="black" points="117,-36 55,-36 55,-0 117,-0 117,-36"/>
<text text-anchor="middle" x="86" y="-15.8" font-family="Verdana" font-size="9.00">終了処理</text>
</g>
<!-- breakMainLoop&#45;&gt;finalize -->
<g id="edge7" class="edge"><title>breakMainLoop&#45;&gt;finalize</title>
<path fill="none" stroke="black" d="M86,-71.6966C86,-63.3893 86,-53.2771 86,-44.1407"/>
<polygon fill="black" stroke="black" points="88.8001,-44.1043 86,-36.1043 83.2001,-44.1044 88.8001,-44.1043"/>
<text text-anchor="middle" x="75" y="-60.4966" font-family="Times New Roman,serif" font-size="14.00">Yes</text>
</g>
</g>
</svg>
