<?xml version="1.0" encoding="UTF-8" standalone="no"?>
<!DOCTYPE svg PUBLIC "-//W3C//DTD SVG 1.1//EN"
 "http://www.w3.org/Graphics/SVG/1.1/DTD/svg11.dtd">
<!-- Generated by graphviz version 2.38.0 (20140413.2041)
 -->
<!-- Pages: 1 -->
<svg width="330pt" height="188pt"
 viewBox="0.00 0.00 329.50 188.00" xmlns="http://www.w3.org/2000/svg" xmlns:xlink="http://www.w3.org/1999/xlink">
<g id="graph0" class="graph" transform="scale(1 1) rotate(0) translate(4 184)">
<polygon fill="white" stroke="none" points="-4,4 -4,-184 325.5,-184 325.5,4 -4,4"/>
<!-- initFile -->
<g id="node1" class="node"><title>initFile</title>
<polygon fill="lightyellow" stroke="black" points="235,-180 140,-180 140,-144 235,-144 235,-180"/>
<text text-anchor="middle" x="187.5" y="-159.8" font-family="Verdana" font-size="9.00">ファイル初期化</text>
</g>
<!-- associateShaderAndModel -->
<g id="node2" class="node"><title>associateShaderAndModel</title>
<polygon fill="lightyellow" stroke="black" points="167,-108 38,-108 38,-72 167,-72 167,-108"/>
<text text-anchor="middle" x="102.5" y="-92.8" font-family="Verdana" font-size="9.00">シェーダーとモデルの</text>
<text text-anchor="middle" x="102.5" y="-82.8" font-family="Verdana" font-size="9.00">関連付け</text>
</g>
<!-- initFile&#45;&gt;associateShaderAndModel -->
<g id="edge1" class="edge"><title>initFile&#45;&gt;associateShaderAndModel</title>
<path fill="none" stroke="black" d="M166.489,-143.697C155.372,-134.542 141.593,-123.195 129.672,-113.377"/>
<polygon fill="black" stroke="black" points="131.225,-111.029 123.27,-108.104 127.665,-115.351 131.225,-111.029"/>
</g>
<!-- buildAnimInstance -->
<g id="node4" class="node"><title>buildAnimInstance</title>
<polygon fill="lightyellow" stroke="black" points="321.5,-36 147.5,-36 147.5,-0 321.5,-0 321.5,-36"/>
<text text-anchor="middle" x="234.5" y="-20.8" font-family="Verdana" font-size="9.00">アニメーションインスタンスの</text>
<text text-anchor="middle" x="234.5" y="-10.8" font-family="Verdana" font-size="9.00">構築</text>
</g>
<!-- initFile&#45;&gt;buildAnimInstance -->
<g id="edge3" class="edge"><title>initFile&#45;&gt;buildAnimInstance</title>
<path fill="none" stroke="black" d="M193.169,-143.871C201.391,-119.031 216.678,-72.8464 226.179,-44.1415"/>
<polygon fill="black" stroke="black" points="228.955,-44.6639 228.811,-36.1893 223.639,-42.9042 228.955,-44.6639"/>
</g>
<!-- buildModelInstance -->
<g id="node3" class="node"><title>buildModelInstance</title>
<polygon fill="lightyellow" stroke="black" points="129,-36 0,-36 0,-0 129,-0 129,-36"/>
<text text-anchor="middle" x="64.5" y="-20.8" font-family="Verdana" font-size="9.00">モデルインスタンスの</text>
<text text-anchor="middle" x="64.5" y="-10.8" font-family="Verdana" font-size="9.00">構築</text>
</g>
<!-- associateShaderAndModel&#45;&gt;buildModelInstance -->
<g id="edge2" class="edge"><title>associateShaderAndModel&#45;&gt;buildModelInstance</title>
<path fill="none" stroke="black" d="M93.1067,-71.6966C88.459,-63.135 82.7705,-52.6562 77.6939,-43.3045"/>
<polygon fill="black" stroke="black" points="80.0628,-41.7993 73.7852,-36.1043 75.1412,-44.471 80.0628,-41.7993"/>
</g>
</g>
</svg>
