<?xml version="1.0" encoding="UTF-8" standalone="no"?>
<!DOCTYPE svg PUBLIC "-//W3C//DTD SVG 1.1//EN"
 "http://www.w3.org/Graphics/SVG/1.1/DTD/svg11.dtd">
<!-- Generated by graphviz version 2.38.0 (20140413.2041)
 -->
<!-- Pages: 1 -->
<svg width="262pt" height="188pt"
 viewBox="0.00 0.00 261.50 188.00" xmlns="http://www.w3.org/2000/svg" xmlns:xlink="http://www.w3.org/1999/xlink">
<g id="graph0" class="graph" transform="scale(1 1) rotate(0) translate(4 184)">
<polygon fill="white" stroke="none" points="-4,4 -4,-184 257.5,-184 257.5,4 -4,4"/>
<!-- calcAnim -->
<g id="node1" class="node"><title>calcAnim</title>
<polygon fill="lightyellow" stroke="black" points="174.5,-180 56.5,-180 56.5,-144 174.5,-144 174.5,-180"/>
<text text-anchor="middle" x="115.5" y="-159.8" font-family="Verdana" font-size="9.00">アニメーション計算</text>
</g>
<!-- applyAnim -->
<g id="node2" class="node"><title>applyAnim</title>
<polygon fill="lightyellow" stroke="black" points="174.5,-108 56.5,-108 56.5,-72 174.5,-72 174.5,-108"/>
<text text-anchor="middle" x="115.5" y="-87.8" font-family="Verdana" font-size="9.00">アニメーション適用</text>
</g>
<!-- calcAnim&#45;&gt;applyAnim -->
<g id="edge1" class="edge"><title>calcAnim&#45;&gt;applyAnim</title>
<path fill="none" stroke="black" d="M115.5,-143.697C115.5,-135.389 115.5,-125.277 115.5,-116.141"/>
<polygon fill="black" stroke="black" points="118.3,-116.104 115.5,-108.104 112.7,-116.104 118.3,-116.104"/>
</g>
<!-- updateSkeleton -->
<g id="node3" class="node"><title>updateSkeleton</title>
<polygon fill="lightyellow" stroke="black" points="95,-36 0,-36 0,-0 95,-0 95,-36"/>
<text text-anchor="middle" x="47.5" y="-15.8" font-family="Verdana" font-size="9.00">スケルトン更新</text>
</g>
<!-- applyAnim&#45;&gt;updateSkeleton -->
<g id="edge2" class="edge"><title>applyAnim&#45;&gt;updateSkeleton</title>
<path fill="none" stroke="black" d="M98.691,-71.6966C89.9623,-62.7112 79.1822,-51.614 69.7693,-41.9243"/>
<polygon fill="black" stroke="black" points="71.6983,-39.8916 64.1156,-36.1043 67.6816,-43.7936 71.6983,-39.8916"/>
</g>
<!-- updateScene -->
<g id="node4" class="node"><title>updateScene</title>
<polygon fill="lightyellow" stroke="black" points="253.5,-36 113.5,-36 113.5,-0 253.5,-0 253.5,-36"/>
<text text-anchor="middle" x="183.5" y="-20.8" font-family="Verdana" font-size="9.00">カメラ、ライト、フォグ</text>
<text text-anchor="middle" x="183.5" y="-10.8" font-family="Verdana" font-size="9.00">更新</text>
</g>
<!-- applyAnim&#45;&gt;updateScene -->
<g id="edge3" class="edge"><title>applyAnim&#45;&gt;updateScene</title>
<path fill="none" stroke="black" d="M132.309,-71.6966C141.038,-62.7112 151.818,-51.614 161.231,-41.9243"/>
<polygon fill="black" stroke="black" points="163.318,-43.7936 166.884,-36.1043 159.302,-39.8916 163.318,-43.7936"/>
</g>
</g>
</svg>
