<?xml version="1.0" encoding="UTF-8" standalone="no"?>
<!DOCTYPE svg PUBLIC "-//W3C//DTD SVG 1.1//EN"
 "http://www.w3.org/Graphics/SVG/1.1/DTD/svg11.dtd">
<!-- Generated by graphviz version 2.38.0 (20140413.2041)
 -->
<!-- Pages: 1 -->
<svg width="347pt" height="352pt"
 viewBox="0.00 0.00 346.50 352.00" xmlns="http://www.w3.org/2000/svg" xmlns:xlink="http://www.w3.org/1999/xlink">
<g id="graph0" class="graph" transform="scale(1 1) rotate(0) translate(4 348)">
<polygon fill="white" stroke="none" points="-4,4 -4,-348 342.5,-348 342.5,4 -4,4"/>
<!-- visibility -->
<g id="node1" class="node"><title>visibility</title>
<polygon fill="lightyellow" stroke="black" points="95,-344 1.42109e-014,-316 95,-288 190,-316 95,-344"/>
<text text-anchor="middle" x="95" y="-318.8" font-family="Verdana" font-size="9.00">ビジビリティー</text>
<text text-anchor="middle" x="95" y="-308.8" font-family="Verdana" font-size="9.00">判定</text>
</g>
<!-- loadShader -->
<g id="node2" class="node"><title>loadShader</title>
<polygon fill="lightyellow" stroke="black" points="168.5,-252 61.5,-252 61.5,-216 168.5,-216 168.5,-252"/>
<text text-anchor="middle" x="115" y="-231.8" font-family="Verdana" font-size="9.00">シェーダーロード</text>
</g>
<!-- visibility&#45;&gt;loadShader -->
<g id="edge1" class="edge"><title>visibility:s&#45;&gt;loadShader</title>
<path fill="none" stroke="black" d="M95,-288C95,-278.264 97.991,-268.131 101.66,-259.366"/>
<polygon fill="black" stroke="black" points="104.221,-260.499 105,-252.059 99.1274,-258.17 104.221,-260.499"/>
<text text-anchor="middle" x="82" y="-276.8" font-family="Times New Roman,serif" font-size="14.00">可視</text>
</g>
<!-- goToNextShape -->
<g id="node3" class="node"><title>goToNextShape</title>
<polygon fill="lightyellow" stroke="black" points="338.5,-334 243.5,-334 243.5,-298 338.5,-298 338.5,-334"/>
<text text-anchor="middle" x="291" y="-313.8" font-family="Verdana" font-size="9.00">次のシェイプへ</text>
</g>
<!-- visibility&#45;&gt;goToNextShape -->
<g id="edge2" class="edge"><title>visibility:e&#45;&gt;goToNextShape</title>
<path fill="none" stroke="black" d="M190,-316C204.722,-316 220.662,-316 235.399,-316"/>
<polygon fill="black" stroke="black" points="235.447,-318.8 243.447,-316 235.447,-313.2 235.447,-318.8"/>
<text text-anchor="middle" x="209.5" y="-319.8" font-family="Times New Roman,serif" font-size="14.00">不可視</text>
</g>
<!-- sampler -->
<g id="node4" class="node"><title>sampler</title>
<polygon fill="lightyellow" stroke="black" points="212,-180 38,-180 38,-144 212,-144 212,-180"/>
<text text-anchor="middle" x="125" y="-159.8" font-family="Verdana" font-size="9.00">サンプラー、テクスチャー設定</text>
</g>
<!-- loadShader&#45;&gt;sampler -->
<g id="edge3" class="edge"><title>loadShader&#45;&gt;sampler</title>
<path fill="none" stroke="black" d="M117.472,-215.697C118.659,-207.389 120.103,-197.277 121.408,-188.141"/>
<polygon fill="black" stroke="black" points="124.197,-188.42 122.557,-180.104 118.653,-187.628 124.197,-188.42"/>
</g>
<!-- uniform -->
<g id="node6" class="node"><title>uniform</title>
<polygon fill="lightyellow" stroke="black" points="256.5,-108 3.5,-108 3.5,-72 256.5,-72 256.5,-108"/>
<text text-anchor="middle" x="130" y="-92.8" font-family="Verdana" font-size="9.00">ビュー、マテリアル、スケルトン、シェイプの</text>
<text text-anchor="middle" x="130" y="-82.8" font-family="Verdana" font-size="9.00">ユニフォームブロックロード</text>
</g>
<!-- sampler&#45;&gt;uniform -->
<g id="edge4" class="edge"><title>sampler&#45;&gt;uniform</title>
<path fill="none" stroke="black" d="M126.236,-143.697C126.829,-135.389 127.552,-125.277 128.204,-116.141"/>
<polygon fill="black" stroke="black" points="131.001,-116.284 128.778,-108.104 125.415,-115.884 131.001,-116.284"/>
</g>
<!-- draw -->
<g id="node5" class="node"><title>draw</title>
<polygon fill="lightyellow" stroke="black" points="222,-36 168,-36 168,-0 222,-0 222,-36"/>
<text text-anchor="middle" x="195" y="-15.8" font-family="Verdana" font-size="9.00">描画</text>
</g>
<!-- draw&#45;&gt;goToNextShape -->
<g id="edge6" class="edge"><title>draw:e&#45;&gt;goToNextShape</title>
<path fill="none" stroke="black" d="M223,-18C334.065,-18 308.687,-217.788 295.969,-289.642"/>
<polygon fill="black" stroke="black" points="293.171,-289.376 294.49,-297.748 298.68,-290.38 293.171,-289.376"/>
</g>
<!-- uniform&#45;&gt;draw -->
<g id="edge5" class="edge"><title>uniform&#45;&gt;draw</title>
<path fill="none" stroke="black" d="M146.067,-71.6966C154.332,-62.796 164.521,-51.8232 173.458,-42.1989"/>
<polygon fill="black" stroke="black" points="175.726,-43.872 179.117,-36.1043 171.622,-40.0614 175.726,-43.872"/>
</g>
</g>
</svg>
