<?xml version="1.0" encoding="UTF-8" standalone="no"?>
<!DOCTYPE svg PUBLIC "-//W3C//DTD SVG 1.1//EN"
 "http://www.w3.org/Graphics/SVG/1.1/DTD/svg11.dtd">
<!-- Generated by graphviz version 2.38.0 (20140413.2041)
 -->
<!-- Pages: 1 -->
<svg width="1270pt" height="707pt"
 viewBox="0.00 0.00 1270.15 707.30" xmlns="http://www.w3.org/2000/svg" xmlns:xlink="http://www.w3.org/1999/xlink">
<g id="graph0" class="graph" transform="scale(1 1) rotate(0) translate(4 703.304)">
<polygon fill="white" stroke="none" points="-4,4 -4,-703.304 1266.15,-703.304 1266.15,4 -4,4"/>
<g id="clust1" class="cluster"><title>cluster_Selector</title>
<polygon fill="moccasin" stroke="black" points="8,-137.539 8,-691.304 709,-691.304 709,-137.539 8,-137.539"/>
<text text-anchor="middle" x="358.5" y="-680.904" font-family="meiryo" font-size="8.00">ShaderSelector</text>
<text text-anchor="middle" x="358.5" y="-671.904" font-family="meiryo" font-size="8.00">type=dynamic のオプションを扱う</text>
</g>
<g id="clust2" class="cluster"><title>cluster_Class2</title>
<polygon fill="moccasin" stroke="black" points="16,-282.309 16,-657.304 194,-657.304 194,-282.309 16,-282.309"/>
</g>
<g id="clust3" class="cluster"><title>cluster_Class</title>
<polygon fill="lavender" stroke="black" points="202,-209.924 202,-505.078 559,-505.078 559,-209.924 202,-209.924"/>
<text text-anchor="middle" x="380.5" y="-494.678" font-family="meiryo" font-size="8.00">ShadingModelObj</text>
<text text-anchor="middle" x="380.5" y="-485.678" font-family="meiryo" font-size="8.00">type=static のオプションを扱う</text>
</g>
<g id="clust4" class="cluster"><title>cluster_Material</title>
<polygon fill="moccasin" stroke="black" points="776,-604.304 776,-673.304 884,-673.304 884,-604.304 776,-604.304"/>
<text text-anchor="middle" x="830" y="-662.904" font-family="meiryo" font-size="8.00">ResMateral</text>
</g>
<!-- shaderProgram -->
<g id="node1" class="node"><title>shaderProgram</title>
<polygon fill="lightyellow" stroke="black" points="619.5,-181.539 518.5,-181.539 518.5,-145.539 619.5,-145.539 619.5,-181.539"/>
<text text-anchor="middle" x="569" y="-161.339" font-family="meiryo" font-size="9.00">ResShaderProgram</text>
</g>
<!-- Load -->
<g id="node15" class="node"><title>Load</title>
<ellipse fill="none" stroke="black" stroke-dasharray="5,2" cx="602" cy="-91.1543" rx="116.845" ry="18.2703"/>
<text text-anchor="middle" x="602" y="-93.7543" font-family="meiryo" font-size="8.00">コマンドバッファにシェーダーをセット</text>
<text text-anchor="middle" x="602" y="-84.7543" font-family="meiryo" font-size="8.00">ResShaderProgram::Load()</text>
</g>
<!-- shaderProgram&#45;&gt;Load -->
<g id="edge3" class="edge"><title>shaderProgram&#45;&gt;Load</title>
<path fill="none" stroke="black" d="M576.988,-145.501C581.022,-136.897 585.991,-126.3 590.433,-116.824"/>
<polygon fill="black" stroke="black" points="592.995,-117.957 593.856,-109.525 587.925,-115.579 592.995,-117.957"/>
</g>
<!-- buffer -->
<g id="node2" class="node"><title>buffer</title>
<polygon fill="lightyellow" stroke="black" points="551,-253.924 363,-253.924 363,-217.924 551,-217.924 551,-253.924"/>
<text text-anchor="middle" x="457" y="-233.724" font-family="meiryo" font-size="9.00">オプションユニフォームブロックバッファ</text>
</g>
<!-- SetConstantBuffer -->
<g id="node18" class="node"><title>SetConstantBuffer</title>
<ellipse fill="none" stroke="black" stroke-dasharray="5,2" cx="602" cy="-18.3848" rx="120.831" ry="18.2703"/>
<text text-anchor="middle" x="602" y="-20.9848" font-family="meiryo" font-size="8.00">シェーダーにユニフォーム変数をセット</text>
<text text-anchor="middle" x="602" y="-11.9848" font-family="meiryo" font-size="8.00">CommandBuffer::SetConstantBuffer()</text>
</g>
<!-- buffer&#45;&gt;SetConstantBuffer -->
<g id="edge5" class="edge"><title>buffer&#45;&gt;SetConstantBuffer</title>
<path fill="none" stroke="black" d="M453.848,-217.751C448.99,-185.753 443.354,-116.312 476,-72.7696 488.518,-56.0727 507.281,-44.5489 526.528,-36.6138"/>
<polygon fill="black" stroke="black" points="527.757,-39.1407 534.205,-33.6398 525.734,-33.9188 527.757,-39.1407"/>
</g>
<!-- false2 -->
<g id="node3" class="node"><title>false2</title>
<polygon fill="lightyellow" stroke="black" points="185.5,-326.309 24.5,-326.309 24.5,-290.309 185.5,-290.309 185.5,-326.309"/>
<text text-anchor="middle" x="105" y="-311.109" font-family="meiryo" font-size="9.00">シェーダーキー</text>
<text text-anchor="middle" x="105" y="-301.109" font-family="meiryo" font-size="9.00">プリプロセッサー分岐のオプション</text>
</g>
<!-- last -->
<g id="node10" class="node"><title>last</title>
<ellipse fill="none" stroke="black" stroke-dasharray="5,2" cx="107" cy="-235.924" rx="86.9483" ry="18.2703"/>
<text text-anchor="middle" x="107" y="-238.524" font-family="meiryo" font-size="8.00">ResShaderProgram を更新</text>
<text text-anchor="middle" x="107" y="-229.524" font-family="meiryo" font-size="8.00">UpdateVariation()</text>
</g>
<!-- false2&#45;&gt;last -->
<g id="edge18" class="edge"><title>false2&#45;&gt;last</title>
<path fill="none" stroke="black" d="M105.484,-290.27C105.718,-282.047 106.003,-272.003 106.263,-262.856"/>
<polygon fill="black" stroke="black" points="109.064,-262.864 106.492,-254.787 103.466,-262.705 109.064,-262.864"/>
</g>
<!-- true2 -->
<g id="node4" class="node"><title>true2</title>
<polygon fill="lightyellow" stroke="black" points="185.5,-649.304 24.5,-649.304 24.5,-611.304 185.5,-611.304 185.5,-649.304"/>
<text text-anchor="middle" x="105" y="-638.104" font-family="meiryo" font-size="9.00">シェーダーキー</text>
<text text-anchor="middle" x="105" y="-628.104" font-family="meiryo" font-size="9.00">ユニフォーム変数分岐のオプション</text>
<text text-anchor="middle" x="105" y="-618.104" font-family="meiryo" font-size="9.00">デフォルト値に固定</text>
</g>
<!-- false -->
<g id="node5" class="node"><title>false</title>
<polygon fill="lightyellow" stroke="black" points="371.5,-471.078 210.5,-471.078 210.5,-435.078 371.5,-435.078 371.5,-471.078"/>
<text text-anchor="middle" x="291" y="-455.878" font-family="meiryo" font-size="9.00">シェーダーキーの書き換え</text>
<text text-anchor="middle" x="291" y="-445.878" font-family="meiryo" font-size="9.00">プリプロセッサー分岐のオプション</text>
</g>
<!-- updateShaderRange -->
<g id="node9" class="node"><title>updateShaderRange</title>
<ellipse fill="none" stroke="black" stroke-dasharray="5,2" cx="291" cy="-380.693" rx="81.135" ry="18.2703"/>
<text text-anchor="middle" x="291" y="-383.293" font-family="meiryo" font-size="8.00">バリエーション範囲の更新</text>
<text text-anchor="middle" x="291" y="-374.293" font-family="meiryo" font-size="8.00">UpdateShaderRange()</text>
</g>
<!-- false&#45;&gt;updateShaderRange -->
<g id="edge12" class="edge"><title>false&#45;&gt;updateShaderRange</title>
<path fill="none" stroke="black" d="M291,-435.04C291,-426.817 291,-416.772 291,-407.626"/>
<polygon fill="black" stroke="black" points="293.8,-407.557 291,-399.557 288.2,-407.557 293.8,-407.557"/>
</g>
<!-- true -->
<g id="node6" class="node"><title>true</title>
<polygon fill="lightyellow" stroke="black" points="550.5,-471.078 389.5,-471.078 389.5,-435.078 550.5,-435.078 550.5,-471.078"/>
<text text-anchor="middle" x="470" y="-450.878" font-family="meiryo" font-size="9.00">ユニフォーム変数分岐のオプション</text>
</g>
<!-- calculate -->
<g id="node8" class="node"><title>calculate</title>
<ellipse fill="none" stroke="black" stroke-dasharray="5,2" cx="468" cy="-380.693" rx="77.1494" ry="18.2703"/>
<text text-anchor="middle" x="468" y="-383.293" font-family="meiryo" font-size="8.00"> 値の書き込み</text>
<text text-anchor="middle" x="468" y="-374.293" font-family="meiryo" font-size="8.00">CalculateOptionBlock()</text>
</g>
<!-- true&#45;&gt;calculate -->
<g id="edge15" class="edge"><title>true&#45;&gt;calculate</title>
<path fill="none" stroke="black" d="M469.516,-435.04C469.282,-426.817 468.997,-416.772 468.737,-407.626"/>
<polygon fill="black" stroke="black" points="471.534,-407.474 468.508,-399.557 465.936,-407.633 471.534,-407.474"/>
</g>
<!-- range -->
<g id="node7" class="node"><title>range</title>
<polygon fill="lightyellow" stroke="black" points="331.5,-326.309 224.5,-326.309 224.5,-290.309 331.5,-290.309 331.5,-326.309"/>
<text text-anchor="middle" x="278" y="-311.109" font-family="meiryo" font-size="9.00">ShaderRange</text>
<text text-anchor="middle" x="278" y="-301.109" font-family="meiryo" font-size="9.00">バリエーションの範囲</text>
</g>
<!-- range&#45;&gt;last -->
<g id="edge17" class="edge"><title>range&#45;&gt;last</title>
<path fill="none" stroke="black" d="M236.606,-290.27C211.146,-279.791 178.502,-266.354 152.345,-255.588"/>
<polygon fill="black" stroke="black" points="153.265,-252.939 144.801,-252.483 151.133,-258.117 153.265,-252.939"/>
</g>
<!-- calculate&#45;&gt;buffer -->
<g id="edge16" class="edge"><title>calculate&#45;&gt;buffer</title>
<path fill="none" stroke="black" d="M466.651,-362.187C464.728,-337.22 461.184,-291.229 458.968,-262.46"/>
<polygon fill="black" stroke="black" points="461.732,-261.889 458.325,-254.127 456.148,-262.319 461.732,-261.889"/>
</g>
<!-- updateShaderRange&#45;&gt;range -->
<g id="edge13" class="edge"><title>updateShaderRange&#45;&gt;range</title>
<path fill="none" stroke="black" d="M287.787,-362.295C286.244,-353.942 284.366,-343.774 282.669,-334.588"/>
<polygon fill="black" stroke="black" points="285.383,-333.865 281.177,-326.507 279.876,-334.883 285.383,-333.865"/>
</g>
<!-- last&#45;&gt;shaderProgram -->
<g id="edge14" class="edge"><title>last&#45;&gt;shaderProgram</title>
<path fill="none" stroke="black" d="M154.388,-220.493C168.337,-216.63 183.694,-212.748 198,-209.924 307.112,-188.383 436.419,-175.342 509.971,-169.075"/>
<polygon fill="black" stroke="black" points="510.485,-171.842 518.222,-168.381 510.015,-166.262 510.485,-171.842"/>
</g>
<!-- WriteDynamicKey -->
<g id="node11" class="node"><title>WriteDynamicKey</title>
<ellipse fill="none" stroke="black" stroke-dasharray="5,2" cx="634" cy="-380.693" rx="67.3507" ry="18.2703"/>
<text text-anchor="middle" x="634" y="-383.293" font-family="meiryo" font-size="8.00">dynamic キーを変更</text>
<text text-anchor="middle" x="634" y="-374.293" font-family="meiryo" font-size="8.00">WriteDynamicKey()</text>
</g>
<!-- WriteDynamicKey&#45;&gt;false2 -->
<g id="edge11" class="edge"><title>WriteDynamicKey&#45;&gt;false2</title>
<path fill="none" stroke="black" d="M587.604,-367.333C579.446,-365.447 571.006,-363.677 563,-362.309 402.319,-334.855 359.425,-348.984 198,-326.309 196.603,-326.112 195.195,-325.91 193.779,-325.703"/>
<polygon fill="black" stroke="black" points="193.916,-322.892 185.587,-324.46 193.076,-328.428 193.916,-322.892"/>
</g>
<!-- ResShaderAssign -->
<g id="node12" class="node"><title>ResShaderAssign</title>
<polygon fill="lightyellow" stroke="black" points="875.5,-648.304 784.5,-648.304 784.5,-612.304 875.5,-612.304 875.5,-648.304"/>
<text text-anchor="middle" x="830" y="-628.104" font-family="meiryo" font-size="9.00">ResShaderAssign</text>
</g>
<!-- InitializeShaderKey -->
<g id="node16" class="node"><title>InitializeShaderKey</title>
<ellipse fill="none" stroke="black" stroke-dasharray="5,2" cx="830" cy="-544.191" rx="113.274" ry="18.2703"/>
<text text-anchor="middle" x="830" y="-546.791" font-family="meiryo" font-size="8.00">static キーを初期化(write)</text>
<text text-anchor="middle" x="830" y="-537.791" font-family="meiryo" font-size="8.00">ShaderUtility::InitializeShaderKey()</text>
</g>
<!-- ResShaderAssign&#45;&gt;InitializeShaderKey -->
<g id="edge6" class="edge"><title>ResShaderAssign&#45;&gt;InitializeShaderKey</title>
<path fill="none" stroke="black" d="M830,-612.282C830,-600.469 830,-584.512 830,-571.124"/>
<polygon fill="black" stroke="black" points="832.8,-570.766 830,-562.766 827.2,-570.766 832.8,-570.766"/>
</g>
<!-- uniform -->
<g id="node13" class="node"><title>uniform</title>
<polygon fill="lightyellow" stroke="black" points="1111.5,-471.078 950.5,-471.078 950.5,-435.078 1111.5,-435.078 1111.5,-471.078"/>
<text text-anchor="middle" x="1031" y="-450.878" font-family="meiryo" font-size="9.00">オプション以外のユニフォーム変数</text>
</g>
<!-- uniform&#45;&gt;SetConstantBuffer -->
<g id="edge2" class="edge"><title>uniform&#45;&gt;SetConstantBuffer</title>
<path fill="none" stroke="black" d="M994.062,-434.886C951.988,-412.452 889,-368.914 889,-309.309 889,-309.309 889,-309.309 889,-162.539 889,-79.7724 792.238,-44.8576 711.084,-30.1294"/>
<polygon fill="black" stroke="black" points="711.144,-27.2977 702.782,-28.6822 710.182,-32.8145 711.144,-27.2977"/>
</g>
<!-- value -->
<g id="node14" class="node"><title>value</title>
<polygon fill="lightyellow" stroke="black" points="1244.5,-648.304 1119.5,-648.304 1119.5,-612.304 1244.5,-612.304 1244.5,-648.304"/>
<text text-anchor="middle" x="1182" y="-633.104" font-family="meiryo" font-size="9.00">ダイナミックオプション名</text>
<text text-anchor="middle" x="1182" y="-623.104" font-family="meiryo" font-size="9.00">ダイナミックオプション値</text>
</g>
<!-- value&#45;&gt;uniform -->
<g id="edge1" class="edge"><title>value&#45;&gt;uniform</title>
<path fill="none" stroke="black" d="M1215.13,-612.281C1228.89,-603.306 1243.4,-590.893 1251,-575.304 1263.11,-550.442 1267.83,-535.021 1251,-513.078 1234.63,-491.74 1173.55,-476.421 1119.89,-466.749"/>
<polygon fill="black" stroke="black" points="1120.06,-463.935 1111.69,-465.304 1119.09,-469.45 1120.06,-463.935"/>
</g>
<!-- find -->
<g id="node17" class="node"><title>find</title>
<ellipse fill="none" stroke="black" stroke-dasharray="5,2" cx="1099" cy="-544.191" rx="137.772" ry="31.2258"/>
<text text-anchor="middle" x="1099" y="-555.791" font-family="meiryo" font-size="8.00">ダイナミックオプションの</text>
<text text-anchor="middle" x="1099" y="-546.791" font-family="meiryo" font-size="8.00">インデクスとチョイスインデクスを取得</text>
<text text-anchor="middle" x="1099" y="-537.791" font-family="meiryo" font-size="8.00">ShaderSelector::FindDynamicOptionIndex()</text>
<text text-anchor="middle" x="1099" y="-528.791" font-family="meiryo" font-size="8.00">ResShaderOption::FindChoiceIndex()</text>
</g>
<!-- value&#45;&gt;find -->
<g id="edge9" class="edge"><title>value&#45;&gt;find</title>
<path fill="none" stroke="black" d="M1165.2,-612.282C1156.25,-603.209 1144.89,-591.693 1134.11,-580.773"/>
<polygon fill="black" stroke="black" points="1135.82,-578.514 1128.2,-574.787 1131.83,-582.448 1135.82,-578.514"/>
</g>
<!-- Load&#45;&gt;SetConstantBuffer -->
<g id="edge4" class="edge"><title>Load&#45;&gt;SetConstantBuffer</title>
<path fill="none" stroke="black" d="M602,-72.6607C602,-64.3875 602,-54.3434 602,-45.2161"/>
<polygon fill="black" stroke="black" points="604.8,-45.1687 602,-37.1687 599.2,-45.1687 604.8,-45.1687"/>
</g>
<!-- InitializeShaderKey&#45;&gt;false -->
<g id="edge7" class="edge"><title>InitializeShaderKey&#45;&gt;false</title>
<path fill="none" stroke="black" d="M776.119,-527.965C756.376,-522.746 733.781,-517.191 713,-513.078 598.761,-490.466 465.446,-473.354 379.713,-463.528"/>
<polygon fill="black" stroke="black" points="379.833,-460.723 371.567,-462.599 379.199,-466.287 379.833,-460.723"/>
</g>
<!-- InitializeShaderKey&#45;&gt;true -->
<g id="edge8" class="edge"><title>InitializeShaderKey&#45;&gt;true</title>
<path fill="none" stroke="black" d="M772.613,-528.254C753.648,-523.362 732.432,-517.938 713,-513.078 658.343,-499.41 596.655,-484.438 549.109,-472.996"/>
<polygon fill="black" stroke="black" points="549.737,-470.267 541.304,-471.119 548.427,-475.712 549.737,-470.267"/>
</g>
<!-- find&#45;&gt;WriteDynamicKey -->
<g id="edge10" class="edge"><title>find&#45;&gt;WriteDynamicKey</title>
<path fill="none" stroke="black" d="M1025.83,-517.779C929.574,-484.348 763.108,-426.533 681.663,-398.247"/>
<polygon fill="black" stroke="black" points="682.527,-395.583 674.052,-395.604 680.69,-400.873 682.527,-395.583"/>
</g>
</g>
</svg>
