<?xml version="1.0" encoding="UTF-8" standalone="no"?>
<!DOCTYPE svg PUBLIC "-//W3C//DTD SVG 1.1//EN"
 "http://www.w3.org/Graphics/SVG/1.1/DTD/svg11.dtd">
<!-- Generated by graphviz version 2.38.0 (20140413.2041)
 -->
<!-- Pages: 1 -->
<svg width="982pt" height="756pt"
 viewBox="0.00 0.00 982.00 756.00" xmlns="http://www.w3.org/2000/svg" xmlns:xlink="http://www.w3.org/1999/xlink">
<g id="graph0" class="graph" transform="scale(1 1) rotate(0) translate(4 752)">
<polygon fill="white" stroke="none" points="-4,4 -4,-752 978,-752 978,4 -4,4"/>
<g id="clust3" class="cluster"><title>cluster_archive</title>
<polygon fill="moccasin" stroke="black" points="8,-8 8,-181 966,-181 966,-8 8,-8"/>
<text text-anchor="middle" x="487" y="-170.6" font-family="meiryo" font-size="8.00">シェーダーアーカイブファイル(.bfsha)</text>
</g>
<g id="clust1" class="cluster"><title>cluster_code</title>
<polygon fill="moccasin" stroke="black" points="332,-619 332,-740 642,-740 642,-619 332,-619"/>
<text text-anchor="middle" x="487" y="-729.6" font-family="meiryo" font-size="8.00">シェーダーコード(.glsl)</text>
</g>
<g id="clust2" class="cluster"><title>cluster_fsc</title>
<polygon fill="moccasin" stroke="black" points="408,-400 408,-611 567,-611 567,-400 408,-400"/>
<text text-anchor="middle" x="487.5" y="-600.6" font-family="meiryo" font-size="8.00">シェーダー設定ファイル(.fsca, .fscb)</text>
</g>
<!-- option -->
<g id="node1" class="node"><title>option</title>
<polygon fill="lightyellow" stroke="black" points="633.5,-715 340.5,-715 340.5,-627 633.5,-627 633.5,-715"/>
<text text-anchor="middle" x="487" y="-703.8" font-family="meiryo" font-size="9.00">#define OPTION1 ( 0 ) &#160;&#160;//@@ id=&quot;option1&quot;</text>
<text text-anchor="middle" x="487" y="-693.8" font-family="meiryo" font-size="9.00">#define OPTION2 &#160;( 0 ) &#160;//@@ id=&quot;option2&quot;</text>
<text text-anchor="middle" x="487" y="-683.8" font-family="meiryo" font-size="9.00">#define OPTION3 &#160;( 0 ) &#160;//@@ id=&quot;option3&quot;</text>
<text text-anchor="middle" x="487" y="-663.8" font-family="meiryo" font-size="9.00">layout(std140) uniform Option // @@ id=&quot;opt&quot; type=&quot;option&quot;</text>
<text text-anchor="middle" x="487" y="-653.8" font-family="meiryo" font-size="9.00">{ &#160;&#160;&#160;&#160;&#160;&#160;&#160;&#160;&#160;&#160;&#160;&#160;&#160;&#160;&#160;&#160;&#160;&#160;&#160;&#160;&#160;&#160;&#160;&#160;&#160;&#160;&#160;&#160;&#160;&#160;&#160;&#160;&#160;&#160;&#160;&#160;&#160;&#160;&#160;&#160;&#160;&#160;&#160;&#160;&#160;&#160;&#160;&#160;&#160;&#160;&#160;&#160;&#160;&#160;&#160;&#160;&#160;&#160;&#160;&#160;&#160;&#160;&#160;&#160;&#160;&#160;&#160;&#160;&#160;&#160;&#160;&#160;&#160;&#160;&#160;&#160;&#160;&#160;&#160;&#160;&#160;&#160;&#160;&#160;&#160;&#160;&#160;&#160;</text>
<text text-anchor="middle" x="487" y="-643.8" font-family="meiryo" font-size="9.00">int useVtxColor; &#160;&#160;&#160;// @@ id=&quot;option2&quot; &#160;&#160;&#160;&#160;&#160;&#160;&#160;&#160;&#160;&#160;&#160;&#160;&#160;&#160;&#160;&#160;&#160;&#160;</text>
<text text-anchor="middle" x="487" y="-633.8" font-family="meiryo" font-size="9.00">}; &#160;&#160;&#160;&#160;&#160;&#160;&#160;&#160;&#160;&#160;&#160;&#160;&#160;&#160;&#160;&#160;&#160;&#160;&#160;&#160;&#160;&#160;&#160;&#160;&#160;&#160;&#160;&#160;&#160;&#160;&#160;&#160;&#160;&#160;&#160;&#160;&#160;&#160;&#160;&#160;&#160;&#160;&#160;&#160;&#160;&#160;&#160;&#160;&#160;&#160;&#160;&#160;&#160;&#160;&#160;&#160;&#160;&#160;&#160;&#160;&#160;&#160;&#160;&#160;&#160;&#160;&#160;&#160;&#160;&#160;&#160;&#160;&#160;&#160;&#160;&#160;&#160;&#160;&#160;&#160;&#160;&#160;&#160;&#160;&#160;&#160;&#160;&#160;</text>
</g>
<!-- fsc -->
<g id="node2" class="node"><title>fsc</title>
<polygon fill="lightyellow" stroke="black" points="543,-586 431,-586 431,-408 543,-408 543,-586"/>
<text text-anchor="middle" x="487" y="-574.8" font-family="meiryo" font-size="9.00">&lt;variation index=&quot;0&quot; </text>
<text text-anchor="middle" x="487" y="-564.8" font-family="meiryo" font-size="9.00">id=&quot;option1&quot;</text>
<text text-anchor="middle" x="487" y="-554.8" font-family="meiryo" font-size="9.00">choice=&quot;[0, 2]&quot;</text>
<text text-anchor="middle" x="487" y="-544.8" font-family="meiryo" font-size="9.00">default=&quot;1&quot;</text>
<text text-anchor="middle" x="487" y="-534.8" font-family="meiryo" font-size="9.00">branch=&quot;false&quot;/&gt;</text>
<text text-anchor="middle" x="487" y="-514.8" font-family="meiryo" font-size="9.00">&lt;variation index=&quot;1&quot; </text>
<text text-anchor="middle" x="487" y="-504.8" font-family="meiryo" font-size="9.00">id=&quot;option2&quot;</text>
<text text-anchor="middle" x="487" y="-494.8" font-family="meiryo" font-size="9.00">choice=&quot;[0, 3]&quot;</text>
<text text-anchor="middle" x="487" y="-484.8" font-family="meiryo" font-size="9.00">default=&quot;0&quot;</text>
<text text-anchor="middle" x="487" y="-474.8" font-family="meiryo" font-size="9.00">branch=&quot;true&quot;/&gt;</text>
<text text-anchor="middle" x="487" y="-454.8" font-family="meiryo" font-size="9.00">&lt;variation index=&quot;2&quot; </text>
<text text-anchor="middle" x="487" y="-444.8" font-family="meiryo" font-size="9.00">id=&quot;option3&quot;</text>
<text text-anchor="middle" x="487" y="-434.8" font-family="meiryo" font-size="9.00">choice=&quot;[0, 1]&quot;</text>
<text text-anchor="middle" x="487" y="-424.8" font-family="meiryo" font-size="9.00">default=&quot;0&quot;</text>
<text text-anchor="middle" x="487" y="-414.8" font-family="meiryo" font-size="9.00">branch=&quot;false&quot;/&gt;</text>
</g>
<!-- option&#45;&gt;fsc -->
<g id="edge7" class="edge"><title>option&#45;&gt;fsc</title>
<path fill="none" stroke="black" d="M487,-626.597C487,-624.095 487,-621.528 487,-618.909"/>
<polygon fill="black" stroke="black" points="489.8,-618.908 487,-610.908 484.2,-618.908 489.8,-618.908"/>
</g>
<!-- conv -->
<g id="node11" class="node"><title>conv</title>
<ellipse fill="none" stroke="black" stroke-dasharray="5,2" cx="487" cy="-354" rx="68.7695" ry="18"/>
<text text-anchor="middle" x="487" y="-352.1" font-family="meiryo" font-size="8.00">3D シェーダーコンバーター</text>
</g>
<!-- fsc&#45;&gt;conv -->
<g id="edge8" class="edge"><title>fsc&#45;&gt;conv</title>
<path fill="none" stroke="black" d="M487,-407.904C487,-397.929 487,-388.457 487,-380.356"/>
<polygon fill="black" stroke="black" points="489.8,-380.146 487,-372.146 484.2,-380.146 489.8,-380.146"/>
</g>
<!-- fsd -->
<g id="node3" class="node"><title>fsd</title>
<polygon fill="lightyellow" stroke="black" points="559,-300 415,-300 415,-264 559,-264 559,-300"/>
<text text-anchor="middle" x="487" y="-279.8" font-family="meiryo" font-size="9.00">シェーダー定義ファイル(.fsdb)</text>
</g>
<!-- conv2 -->
<g id="node12" class="node"><title>conv2</title>
<ellipse fill="none" stroke="black" stroke-dasharray="5,2" cx="487" cy="-210" rx="68.7695" ry="18"/>
<text text-anchor="middle" x="487" y="-208.1" font-family="meiryo" font-size="8.00">3D シェーダーコンバーター</text>
</g>
<!-- fsd&#45;&gt;conv2 -->
<g id="edge10" class="edge"><title>fsd&#45;&gt;conv2</title>
<path fill="none" stroke="black" d="M487,-263.697C487,-255.389 487,-245.277 487,-236.141"/>
<polygon fill="black" stroke="black" points="489.8,-236.104 487,-228.104 484.2,-236.104 489.8,-236.104"/>
</g>
<!-- ShadingModel -->
<g id="node4" class="node"><title>ShadingModel</title>
<polygon fill="#ffe1ff" stroke="black" points="554,-156 420,-156 420,-120 554,-120 554,-156"/>
<text text-anchor="middle" x="487" y="-140.8" font-family="meiryo" font-size="9.00">シェーディングモデル</text>
<text text-anchor="middle" x="487" y="-130.8" font-family="meiryo" font-size="9.00">nn::g3d::ResShadingModel</text>
</g>
<!-- ShaderProgram00 -->
<g id="node5" class="node"><title>ShaderProgram00</title>
<polygon fill="lightpink" stroke="black" points="158,-84 16,-84 16,-16 158,-16 158,-84"/>
<text text-anchor="middle" x="87" y="-72.8" font-family="meiryo" font-size="9.00">シェーダープログラム</text>
<text text-anchor="middle" x="87" y="-62.8" font-family="meiryo" font-size="9.00">nn::g3d::ResShaderProgram</text>
<text text-anchor="middle" x="87" y="-42.8" font-family="meiryo" font-size="9.00"> &quot;OPTION1=0</text>
<text text-anchor="middle" x="87" y="-32.8" font-family="meiryo" font-size="9.00"> OPTION2=option2</text>
<text text-anchor="middle" x="87" y="-22.8" font-family="meiryo" font-size="9.00"> OPTION3=0&quot;</text>
</g>
<!-- ShadingModel&#45;&gt;ShaderProgram00 -->
<g id="edge1" class="edge"><title>ShadingModel&#45;&gt;ShaderProgram00</title>
<path fill="none" stroke="black" d="M419.838,-130.369C354.405,-122.863 252.565,-108.39 167,-84 166.639,-83.897 166.277,-83.7929 165.915,-83.6877"/>
<polygon fill="black" stroke="black" points="166.714,-81.0041 158.244,-81.3271 165.066,-86.3564 166.714,-81.0041"/>
</g>
<!-- ShaderProgram01 -->
<g id="node6" class="node"><title>ShaderProgram01</title>
<polygon fill="lightpink" stroke="black" points="318,-84 176,-84 176,-16 318,-16 318,-84"/>
<text text-anchor="middle" x="247" y="-72.8" font-family="meiryo" font-size="9.00">シェーダープログラム</text>
<text text-anchor="middle" x="247" y="-62.8" font-family="meiryo" font-size="9.00">nn::g3d::ResShaderProgram</text>
<text text-anchor="middle" x="247" y="-42.8" font-family="meiryo" font-size="9.00"> &quot;OPTION1=1</text>
<text text-anchor="middle" x="247" y="-32.8" font-family="meiryo" font-size="9.00"> OPTION2=option2</text>
<text text-anchor="middle" x="247" y="-22.8" font-family="meiryo" font-size="9.00"> OPTION3=0&quot;</text>
</g>
<!-- ShadingModel&#45;&gt;ShaderProgram01 -->
<g id="edge2" class="edge"><title>ShadingModel&#45;&gt;ShaderProgram01</title>
<path fill="none" stroke="black" d="M432.233,-119.926C401.176,-109.978 361.701,-96.8859 327,-84 326.648,-83.8692 326.295,-83.7379 325.941,-83.606"/>
<polygon fill="black" stroke="black" points="326.903,-80.976 318.43,-80.7604 324.919,-86.2129 326.903,-80.976"/>
</g>
<!-- ShaderProgram02 -->
<g id="node7" class="node"><title>ShaderProgram02</title>
<polygon fill="lightpink" stroke="black" points="478,-84 336,-84 336,-16 478,-16 478,-84"/>
<text text-anchor="middle" x="407" y="-72.8" font-family="meiryo" font-size="9.00">シェーダープログラム</text>
<text text-anchor="middle" x="407" y="-62.8" font-family="meiryo" font-size="9.00">nn::g3d::ResShaderProgram</text>
<text text-anchor="middle" x="407" y="-42.8" font-family="meiryo" font-size="9.00"> &quot;OPTION1=2</text>
<text text-anchor="middle" x="407" y="-32.8" font-family="meiryo" font-size="9.00"> OPTION2=option2</text>
<text text-anchor="middle" x="407" y="-22.8" font-family="meiryo" font-size="9.00"> OPTION3=0&quot;</text>
</g>
<!-- ShadingModel&#45;&gt;ShaderProgram02 -->
<g id="edge3" class="edge"><title>ShadingModel&#45;&gt;ShaderProgram02</title>
<path fill="none" stroke="black" d="M470.811,-119.597C462.872,-111.063 452.966,-100.414 443.345,-90.0708"/>
<polygon fill="black" stroke="black" points="445.229,-87.985 437.73,-84.0346 441.129,-91.7992 445.229,-87.985"/>
</g>
<!-- ShaderProgram10 -->
<g id="node8" class="node"><title>ShaderProgram10</title>
<polygon fill="lightpink" stroke="black" points="638,-84 496,-84 496,-16 638,-16 638,-84"/>
<text text-anchor="middle" x="567" y="-72.8" font-family="meiryo" font-size="9.00">シェーダープログラム</text>
<text text-anchor="middle" x="567" y="-62.8" font-family="meiryo" font-size="9.00">nn::g3d::ResShaderProgram</text>
<text text-anchor="middle" x="567" y="-42.8" font-family="meiryo" font-size="9.00"> &quot;OPTION1=0</text>
<text text-anchor="middle" x="567" y="-32.8" font-family="meiryo" font-size="9.00"> OPTION2=option2</text>
<text text-anchor="middle" x="567" y="-22.8" font-family="meiryo" font-size="9.00"> OPTION3=1&quot;</text>
</g>
<!-- ShadingModel&#45;&gt;ShaderProgram10 -->
<g id="edge4" class="edge"><title>ShadingModel&#45;&gt;ShaderProgram10</title>
<path fill="none" stroke="black" d="M503.189,-119.597C511.128,-111.063 521.034,-100.414 530.655,-90.0708"/>
<polygon fill="black" stroke="black" points="532.871,-91.7992 536.27,-84.0346 528.771,-87.985 532.871,-91.7992"/>
</g>
<!-- ShaderProgram11 -->
<g id="node9" class="node"><title>ShaderProgram11</title>
<polygon fill="lightpink" stroke="black" points="798,-84 656,-84 656,-16 798,-16 798,-84"/>
<text text-anchor="middle" x="727" y="-72.8" font-family="meiryo" font-size="9.00">シェーダープログラム</text>
<text text-anchor="middle" x="727" y="-62.8" font-family="meiryo" font-size="9.00">nn::g3d::ResShaderProgram</text>
<text text-anchor="middle" x="727" y="-42.8" font-family="meiryo" font-size="9.00"> &quot;OPTION1=1</text>
<text text-anchor="middle" x="727" y="-32.8" font-family="meiryo" font-size="9.00"> OPTION2=option2</text>
<text text-anchor="middle" x="727" y="-22.8" font-family="meiryo" font-size="9.00"> OPTION3=1&quot;</text>
</g>
<!-- ShadingModel&#45;&gt;ShaderProgram11 -->
<g id="edge5" class="edge"><title>ShadingModel&#45;&gt;ShaderProgram11</title>
<path fill="none" stroke="black" d="M541.767,-119.926C572.824,-109.978 612.299,-96.8859 647,-84 647.352,-83.8692 647.705,-83.7379 648.059,-83.606"/>
<polygon fill="black" stroke="black" points="649.081,-86.2129 655.57,-80.7604 647.097,-80.976 649.081,-86.2129"/>
</g>
<!-- ShaderProgram12 -->
<g id="node10" class="node"><title>ShaderProgram12</title>
<polygon fill="lightpink" stroke="black" points="958,-84 816,-84 816,-16 958,-16 958,-84"/>
<text text-anchor="middle" x="887" y="-72.8" font-family="meiryo" font-size="9.00">シェーダープログラム</text>
<text text-anchor="middle" x="887" y="-62.8" font-family="meiryo" font-size="9.00">nn::g3d::ResShaderProgram</text>
<text text-anchor="middle" x="887" y="-42.8" font-family="meiryo" font-size="9.00"> &quot;OPTION1=2</text>
<text text-anchor="middle" x="887" y="-32.8" font-family="meiryo" font-size="9.00"> OPTION2=option2</text>
<text text-anchor="middle" x="887" y="-22.8" font-family="meiryo" font-size="9.00"> OPTION3=1&quot;</text>
</g>
<!-- ShadingModel&#45;&gt;ShaderProgram12 -->
<g id="edge6" class="edge"><title>ShadingModel&#45;&gt;ShaderProgram12</title>
<path fill="none" stroke="black" d="M554.162,-130.369C619.595,-122.863 721.435,-108.39 807,-84 807.361,-83.897 807.723,-83.7929 808.085,-83.6877"/>
<polygon fill="black" stroke="black" points="808.934,-86.3564 815.756,-81.3271 807.286,-81.0041 808.934,-86.3564"/>
</g>
<!-- conv&#45;&gt;fsd -->
<g id="edge9" class="edge"><title>conv&#45;&gt;fsd</title>
<path fill="none" stroke="black" d="M487,-335.697C487,-327.389 487,-317.277 487,-308.141"/>
<polygon fill="black" stroke="black" points="489.8,-308.104 487,-300.104 484.2,-308.104 489.8,-308.104"/>
</g>
<!-- conv2&#45;&gt;ShadingModel -->
<g id="edge11" class="edge"><title>conv2&#45;&gt;ShadingModel</title>
<path fill="none" stroke="black" d="M487,-191.697C487,-190.853 487,-189.991 487,-189.113"/>
<polygon fill="black" stroke="black" points="489.8,-188.865 487,-180.865 484.2,-188.865 489.8,-188.865"/>
</g>
</g>
</svg>
