<?xml version="1.0" encoding="UTF-8" standalone="no"?>
<!DOCTYPE svg PUBLIC "-//W3C//DTD SVG 1.1//EN"
 "http://www.w3.org/Graphics/SVG/1.1/DTD/svg11.dtd">
<!-- Generated by graphviz version 2.38.0 (20140413.2041)
 -->
<!-- Pages: 1 -->
<svg width="520pt" height="883pt"
 viewBox="0.00 0.00 520.00 883.00" xmlns="http://www.w3.org/2000/svg" xmlns:xlink="http://www.w3.org/1999/xlink">
<g id="graph0" class="graph" transform="scale(1 1) rotate(0) translate(4 879)">
<polygon fill="white" stroke="none" points="-4,4 -4,-879 516,-879 516,4 -4,4"/>
<g id="clust1" class="cluster"><title>cluster_gf3</title>
<path fill="none" stroke="red" d="M20,-442C20,-442 206,-442 206,-442 212,-442 218,-448 218,-454 218,-454 218,-790 218,-790 218,-796 212,-802 206,-802 206,-802 20,-802 20,-802 14,-802 8,-796 8,-790 8,-790 8,-454 8,-454 8,-448 14,-442 20,-442"/>
<text text-anchor="middle" x="113" y="-788.4" font-family="Times New Roman,serif" font-size="12.00" fill="red">マテリアル参照の設定</text>
</g>
<g id="clust2" class="cluster"><title>cluster_gf</title>
<path fill="none" stroke="red" d="M238,-359C238,-359 434,-359 434,-359 440,-359 446,-365 446,-371 446,-371 446,-503 446,-503 446,-509 440,-515 434,-515 434,-515 238,-515 238,-515 232,-515 226,-509 226,-503 226,-503 226,-371 226,-371 226,-365 232,-359 238,-359"/>
<text text-anchor="middle" x="336" y="-501.4" font-family="Times New Roman,serif" font-size="12.00" fill="red">子マテリアルの編集</text>
</g>
<g id="clust3" class="cluster"><title>cluster_gf4</title>
<path fill="none" stroke="red" d="M313,-544C313,-544 465,-544 465,-544 471,-544 477,-550 477,-556 477,-556 477,-688 477,-688 477,-694 471,-700 465,-700 465,-700 313,-700 313,-700 307,-700 301,-694 301,-688 301,-688 301,-556 301,-556 301,-550 307,-544 313,-544"/>
<text text-anchor="middle" x="389" y="-686.4" font-family="Times New Roman,serif" font-size="12.00" fill="red">親マテリアルの作成</text>
</g>
<g id="clust4" class="cluster"><title>cluster_gf2</title>
<path fill="none" stroke="red" d="M228,-8C228,-8 492,-8 492,-8 498,-8 504,-14 504,-20 504,-20 504,-318 504,-318 504,-324 498,-330 492,-330 492,-330 228,-330 228,-330 222,-330 216,-324 216,-318 216,-318 216,-20 216,-20 216,-14 222,-8 228,-8"/>
<text text-anchor="middle" x="360" y="-316.4" font-family="Times New Roman,serif" font-size="12.00" fill="red">バイナリーリソースへの変換</text>
</g>
<!-- BaseModel -->
<g id="node1" class="node"><title>BaseModel</title>
<polygon fill="lightyellow" stroke="black" points="462.5,-588 309.5,-588 309.5,-552 468.5,-552 468.5,-582 462.5,-588"/>
<polyline fill="none" stroke="black" points="462.5,-588 462.5,-582 "/>
<polyline fill="none" stroke="black" points="468.5,-582 462.5,-582 "/>
<text text-anchor="middle" x="389" y="-572.8" font-family="Verdana" font-size="9.00">EnemyBase.fmdb</text>
<text text-anchor="middle" x="389" y="-562.8" font-family="Verdana" font-size="9.00">(親マテリアルを持つモデル)</text>
</g>
<!-- AssignUtilityAssignParentMaterial -->
<g id="node8" class="node"><title>AssignUtilityAssignParentMaterial</title>
<path fill="none" stroke="black" d="M198,-486C198,-486 70,-486 70,-486 64,-486 58,-480 58,-474 58,-474 58,-462 58,-462 58,-456 64,-450 70,-450 70,-450 198,-450 198,-450 204,-450 210,-456 210,-462 210,-462 210,-474 210,-474 210,-480 204,-486 198,-486"/>
<text text-anchor="middle" x="134" y="-470.8" font-family="Verdana" font-size="9.00">アサインユーティリティー</text>
<text text-anchor="middle" x="134" y="-460.8" font-family="Verdana" font-size="9.00">親マテリアル割り当て機能</text>
</g>
<!-- BaseModel&#45;&gt;AssignUtilityAssignParentMaterial -->
<g id="edge3" class="edge"><title>BaseModel&#45;&gt;AssignUtilityAssignParentMaterial</title>
<path fill="none" stroke="black" d="M327.81,-551.923C295.815,-542.319 256.281,-529.381 222,-515 204.786,-507.779 186.391,-498.437 170.893,-490.06"/>
<polygon fill="none" stroke="black" points="171.898,-487.418 163.535,-486.039 169.212,-492.332 171.898,-487.418"/>
<text text-anchor="middle" x="283.5" y="-526" font-family="Times New Roman,serif" font-size="10.00">入力</text>
</g>
<!-- AssignUtilityApplyParentMaterial -->
<g id="node9" class="node"><title>AssignUtilityApplyParentMaterial</title>
<path fill="none" stroke="black" d="M424,-301C424,-301 296,-301 296,-301 290,-301 284,-295 284,-289 284,-289 284,-277 284,-277 284,-271 290,-265 296,-265 296,-265 424,-265 424,-265 430,-265 436,-271 436,-277 436,-277 436,-289 436,-289 436,-295 430,-301 424,-301"/>
<text text-anchor="middle" x="360" y="-285.8" font-family="Verdana" font-size="9.00">アサインユーティリティー</text>
<text text-anchor="middle" x="360" y="-275.8" font-family="Verdana" font-size="9.00">親マテリアル適用機能</text>
</g>
<!-- BaseModel&#45;&gt;AssignUtilityApplyParentMaterial -->
<g id="edge10" class="edge"><title>BaseModel&#45;&gt;AssignUtilityApplyParentMaterial</title>
<path fill="none" stroke="black" d="M417.413,-551.873C429.88,-542.665 443.206,-530.089 450,-515 478.467,-451.78 479.408,-421.788 450,-359 439.474,-336.526 418.536,-318.438 399.503,-305.66"/>
<polygon fill="none" stroke="black" points="400.838,-303.188 392.6,-301.194 397.796,-307.89 400.838,-303.188"/>
<text text-anchor="middle" x="483.5" y="-424" font-family="Times New Roman,serif" font-size="10.00">入力</text>
</g>
<!-- ExportedModel -->
<g id="node2" class="node"><title>ExportedModel</title>
<polygon fill="lightyellow" stroke="black" points="181,-773 39,-773 39,-737 187,-737 187,-767 181,-773"/>
<polyline fill="none" stroke="black" points="181,-773 181,-767 "/>
<polyline fill="none" stroke="black" points="187,-767 181,-767 "/>
<text text-anchor="middle" x="113" y="-757.8" font-family="Verdana" font-size="9.00">Enemy.fmdb</text>
<text text-anchor="middle" x="113" y="-747.8" font-family="Verdana" font-size="9.00">(エクスポート直後の状態)</text>
</g>
<!-- AssignUtilityAssignShader -->
<g id="node7" class="node"><title>AssignUtilityAssignShader</title>
<path fill="none" stroke="black" d="M177,-671C177,-671 49,-671 49,-671 43,-671 37,-665 37,-659 37,-659 37,-647 37,-647 37,-641 43,-635 49,-635 49,-635 177,-635 177,-635 183,-635 189,-641 189,-647 189,-647 189,-659 189,-659 189,-665 183,-671 177,-671"/>
<text text-anchor="middle" x="113" y="-655.8" font-family="Verdana" font-size="9.00">アサインユーティリティー</text>
<text text-anchor="middle" x="113" y="-645.8" font-family="Verdana" font-size="9.00">シェーダー割り当て機能</text>
</g>
<!-- ExportedModel&#45;&gt;AssignUtilityAssignShader -->
<g id="edge1" class="edge"><title>ExportedModel&#45;&gt;AssignUtilityAssignShader</title>
<path fill="none" stroke="black" d="M113,-736.581C113,-720.808 113,-697.373 113,-679.492"/>
<polygon fill="none" stroke="black" points="115.8,-679.219 113,-671.219 110.2,-679.219 115.8,-679.219"/>
<text text-anchor="middle" x="124.5" y="-711" font-family="Times New Roman,serif" font-size="10.00">入力</text>
</g>
<!-- ShaderAssignedModel -->
<g id="node3" class="node"><title>ShaderAssignedModel</title>
<polygon fill="lightyellow" stroke="black" points="203.5,-588 16.5,-588 16.5,-552 209.5,-552 209.5,-582 203.5,-588"/>
<polyline fill="none" stroke="black" points="203.5,-588 203.5,-582 "/>
<polyline fill="none" stroke="black" points="209.5,-582 203.5,-582 "/>
<text text-anchor="middle" x="113" y="-572.8" font-family="Verdana" font-size="9.00">Enemy.fmdb</text>
<text text-anchor="middle" x="113" y="-562.8" font-family="Verdana" font-size="9.00">(シェーダーが割り当てられた状態)</text>
</g>
<!-- ShaderAssignedModel&#45;&gt;AssignUtilityAssignParentMaterial -->
<g id="edge2" class="edge"><title>ShaderAssignedModel&#45;&gt;AssignUtilityAssignParentMaterial</title>
<path fill="none" stroke="black" d="M116.658,-551.581C119.97,-535.808 124.892,-512.373 128.647,-494.492"/>
<polygon fill="none" stroke="black" points="131.48,-494.624 130.384,-486.219 126,-493.473 131.48,-494.624"/>
<text text-anchor="middle" x="134.5" y="-526" font-family="Times New Roman,serif" font-size="10.00">入力</text>
</g>
<!-- Model -->
<g id="node4" class="node"><title>Model</title>
<polygon fill="lightyellow" stroke="black" points="432,-403 234,-403 234,-367 438,-367 438,-397 432,-403"/>
<polyline fill="none" stroke="black" points="432,-403 432,-397 "/>
<polyline fill="none" stroke="black" points="438,-397 432,-397 "/>
<text text-anchor="middle" x="336" y="-387.8" font-family="Verdana" font-size="9.00">Enemy.fmdb</text>
<text text-anchor="middle" x="336" y="-377.8" font-family="Verdana" font-size="9.00">(親マテリアルが割り当てられた状態)</text>
</g>
<!-- Model&#45;&gt;BaseModel -->
<g id="edge7" class="edge"><title>Model&#45;&gt;BaseModel</title>
<path fill="none" stroke="black" stroke-dasharray="5,2" d="M348.474,-403.15C351.991,-408.635 355.527,-414.877 358,-421 374.552,-461.987 382.742,-513.083 386.408,-543.259"/>
<polygon fill="black" stroke="black" points="383.667,-543.928 387.366,-551.554 389.23,-543.286 383.667,-543.928"/>
<text text-anchor="middle" x="394.5" y="-465.5" font-family="Times New Roman,serif" font-size="10.00">参照</text>
</g>
<!-- Model&#45;&gt;AssignUtilityApplyParentMaterial -->
<g id="edge11" class="edge"><title>Model&#45;&gt;AssignUtilityApplyParentMaterial</title>
<path fill="none" stroke="black" d="M340.18,-366.581C344,-350.665 349.693,-326.946 353.999,-309.006"/>
<polygon fill="none" stroke="black" points="356.723,-309.652 355.867,-301.219 351.278,-308.345 356.723,-309.652"/>
<text text-anchor="middle" x="358.5" y="-341" font-family="Times New Roman,serif" font-size="10.00">入力</text>
</g>
<!-- AppliedModel -->
<g id="node5" class="node"><title>AppliedModel</title>
<polygon fill="lightyellow" stroke="black" points="490,-218 224,-218 224,-182 496,-182 496,-212 490,-218"/>
<polyline fill="none" stroke="black" points="490,-218 490,-212 "/>
<polyline fill="none" stroke="black" points="496,-212 490,-212 "/>
<text text-anchor="middle" x="360" y="-202.8" font-family="Verdana" font-size="9.00">tmp/Enemy.fmdb</text>
<text text-anchor="middle" x="360" y="-192.8" font-family="Verdana" font-size="9.00">(親マテリアルのマテリアル設定が反映された状態)</text>
</g>
<!-- BinaryConverter -->
<g id="node10" class="node"><title>BinaryConverter</title>
<path fill="none" stroke="black" d="M426,-135C426,-135 294,-135 294,-135 288,-135 282,-129 282,-123 282,-123 282,-111 282,-111 282,-105 288,-99 294,-99 294,-99 426,-99 426,-99 432,-99 438,-105 438,-111 438,-111 438,-123 438,-123 438,-129 432,-135 426,-135"/>
<text text-anchor="middle" x="360" y="-114.8" font-family="Verdana" font-size="9.00">3D バイナリーコンバーター</text>
</g>
<!-- AppliedModel&#45;&gt;BinaryConverter -->
<g id="edge12" class="edge"><title>AppliedModel&#45;&gt;BinaryConverter</title>
<path fill="none" stroke="black" d="M360,-181.822C360,-170.653 360,-155.895 360,-143.384"/>
<polygon fill="none" stroke="black" points="362.8,-143.153 360,-135.153 357.2,-143.153 362.8,-143.153"/>
<text text-anchor="middle" x="371.5" y="-156" font-family="Times New Roman,serif" font-size="10.00">入力</text>
</g>
<!-- BinaryResource -->
<g id="node6" class="node"><title>BinaryResource</title>
<polygon fill="lightyellow" stroke="black" points="391.5,-52 322.5,-52 322.5,-16 397.5,-16 397.5,-46 391.5,-52"/>
<polyline fill="none" stroke="black" points="391.5,-52 391.5,-46 "/>
<polyline fill="none" stroke="black" points="397.5,-46 391.5,-46 "/>
<text text-anchor="middle" x="360" y="-31.8" font-family="Verdana" font-size="9.00">Enemy.bfres</text>
</g>
<!-- AssignUtilityAssignShader&#45;&gt;ShaderAssignedModel -->
<g id="edge5" class="edge"><title>AssignUtilityAssignShader&#45;&gt;ShaderAssignedModel</title>
<path fill="none" stroke="black" d="M113,-634.822C113,-623.653 113,-608.895 113,-596.384"/>
<polygon fill="black" stroke="black" points="115.8,-596.153 113,-588.153 110.2,-596.153 115.8,-596.153"/>
<text text-anchor="middle" x="124.5" y="-609" font-family="Times New Roman,serif" font-size="10.00">出力</text>
</g>
<!-- AssignUtilityAssignParentMaterial&#45;&gt;Model -->
<g id="edge6" class="edge"><title>AssignUtilityAssignParentMaterial&#45;&gt;Model</title>
<path fill="none" stroke="black" d="M176.839,-449.822C208.816,-436.999 252.593,-419.445 286.143,-405.992"/>
<polygon fill="black" stroke="black" points="287.186,-408.591 293.57,-403.014 285.102,-403.393 287.186,-408.591"/>
<text text-anchor="middle" x="259.5" y="-424" font-family="Times New Roman,serif" font-size="10.00">出力</text>
</g>
<!-- AssignUtilityApplyParentMaterial&#45;&gt;AppliedModel -->
<g id="edge13" class="edge"><title>AssignUtilityApplyParentMaterial&#45;&gt;AppliedModel</title>
<path fill="none" stroke="black" d="M360,-264.822C360,-253.653 360,-238.895 360,-226.384"/>
<polygon fill="black" stroke="black" points="362.8,-226.153 360,-218.153 357.2,-226.153 362.8,-226.153"/>
<text text-anchor="middle" x="371.5" y="-239" font-family="Times New Roman,serif" font-size="10.00">出力</text>
</g>
<!-- BinaryConverter&#45;&gt;BinaryResource -->
<g id="edge14" class="edge"><title>BinaryConverter&#45;&gt;BinaryResource</title>
<path fill="none" stroke="black" d="M360,-98.822C360,-87.6534 360,-72.8953 360,-60.3841"/>
<polygon fill="black" stroke="black" points="362.8,-60.1532 360,-52.1533 357.2,-60.1533 362.8,-60.1532"/>
<text text-anchor="middle" x="371.5" y="-73" font-family="Times New Roman,serif" font-size="10.00">出力</text>
</g>
<!-- G3dEditor -->
<g id="node11" class="node"><title>G3dEditor</title>
<path fill="none" stroke="black" d="M340.5,-486C340.5,-486 307.5,-486 307.5,-486 301.5,-486 295.5,-480 295.5,-474 295.5,-474 295.5,-462 295.5,-462 295.5,-456 301.5,-450 307.5,-450 307.5,-450 340.5,-450 340.5,-450 346.5,-450 352.5,-456 352.5,-462 352.5,-462 352.5,-474 352.5,-474 352.5,-480 346.5,-486 340.5,-486"/>
<text text-anchor="middle" x="324" y="-465.8" font-family="Verdana" font-size="9.00">3DEditor</text>
</g>
<!-- G3dEditor&#45;&gt;Model -->
<g id="edge8" class="edge"><title>G3dEditor&#45;&gt;Model</title>
<path fill="none" stroke="black" d="M327.765,-441.588C329.199,-431.909 330.831,-420.888 332.263,-411.226"/>
<polygon fill="black" stroke="black" points="324.948,-441.498 326.545,-449.822 330.487,-442.319 324.948,-441.498"/>
<polygon fill="black" stroke="black" points="335.056,-411.477 333.459,-403.153 329.517,-410.657 335.056,-411.477"/>
<text text-anchor="middle" x="342.5" y="-424" font-family="Times New Roman,serif" font-size="10.00">編集</text>
</g>
<!-- G3dEditor2 -->
<g id="node12" class="node"><title>G3dEditor2</title>
<path fill="none" stroke="black" d="M405.5,-671C405.5,-671 372.5,-671 372.5,-671 366.5,-671 360.5,-665 360.5,-659 360.5,-659 360.5,-647 360.5,-647 360.5,-641 366.5,-635 372.5,-635 372.5,-635 405.5,-635 405.5,-635 411.5,-635 417.5,-641 417.5,-647 417.5,-647 417.5,-659 417.5,-659 417.5,-665 411.5,-671 405.5,-671"/>
<text text-anchor="middle" x="389" y="-650.8" font-family="Verdana" font-size="9.00">3DEditor</text>
</g>
<!-- G3dEditor2&#45;&gt;BaseModel -->
<g id="edge9" class="edge"><title>G3dEditor2&#45;&gt;BaseModel</title>
<path fill="none" stroke="black" d="M389,-626.588C389,-616.909 389,-605.888 389,-596.226"/>
<polygon fill="black" stroke="black" points="386.2,-626.822 389,-634.822 391.8,-626.822 386.2,-626.822"/>
<polygon fill="black" stroke="black" points="391.8,-596.153 389,-588.153 386.2,-596.153 391.8,-596.153"/>
<text text-anchor="middle" x="400.5" y="-609" font-family="Times New Roman,serif" font-size="10.00">編集</text>
</g>
<!-- DccTool -->
<g id="node13" class="node"><title>DccTool</title>
<path fill="none" stroke="black" d="M138,-875C138,-875 88,-875 88,-875 82,-875 76,-869 76,-863 76,-863 76,-851 76,-851 76,-845 82,-839 88,-839 88,-839 138,-839 138,-839 144,-839 150,-845 150,-851 150,-851 150,-863 150,-863 150,-869 144,-875 138,-875"/>
<text text-anchor="middle" x="113" y="-854.8" font-family="Verdana" font-size="9.00">DCC ツール</text>
</g>
<!-- DccTool&#45;&gt;ExportedModel -->
<g id="edge4" class="edge"><title>DccTool&#45;&gt;ExportedModel</title>
<path fill="none" stroke="black" d="M113,-838.581C113,-822.808 113,-799.373 113,-781.492"/>
<polygon fill="black" stroke="black" points="115.8,-781.219 113,-773.219 110.2,-781.219 115.8,-781.219"/>
<text text-anchor="middle" x="147" y="-813" font-family="Times New Roman,serif" font-size="10.00">エクスポート</text>
</g>
</g>
</svg>
