<?xml version="1.0" encoding="UTF-8" standalone="no"?>
<!DOCTYPE svg PUBLIC "-//W3C//DTD SVG 1.1//EN"
 "http://www.w3.org/Graphics/SVG/1.1/DTD/svg11.dtd">
<!-- Generated by graphviz version 2.38.0 (20140413.2041)
 -->
<!-- Pages: 1 -->
<svg width="419pt" height="314pt"
 viewBox="0.00 0.00 419.00 314.00" xmlns="http://www.w3.org/2000/svg" xmlns:xlink="http://www.w3.org/1999/xlink">
<g id="graph0" class="graph" transform="scale(1 1) rotate(0) translate(4 310)">
<polygon fill="white" stroke="none" points="-4,4 -4,-310 415,-310 415,4 -4,4"/>
<!-- BaseMatA -->
<g id="node1" class="node"><title>BaseMatA</title>
<polygon fill="lightyellow" stroke="black" points="405,-306 331,-306 331,-270 411,-270 411,-300 405,-306"/>
<polyline fill="none" stroke="black" points="405,-306 405,-300 "/>
<polyline fill="none" stroke="black" points="411,-300 405,-300 "/>
<text text-anchor="middle" x="371" y="-285.8" font-family="Verdana" font-size="9.00">[9] BaseMatA</text>
</g>
<!-- BaseMatB -->
<g id="node2" class="node"><title>BaseMatB</title>
<polygon fill="lightyellow" stroke="black" points="405,-252 331,-252 331,-216 411,-216 411,-246 405,-252"/>
<polyline fill="none" stroke="black" points="405,-252 405,-246 "/>
<polyline fill="none" stroke="black" points="411,-246 405,-246 "/>
<text text-anchor="middle" x="371" y="-231.8" font-family="Verdana" font-size="9.00">[8] BaseMatB</text>
</g>
<!-- BaseMatX1 -->
<g id="node3" class="node"><title>BaseMatX1</title>
<polygon fill="lightyellow" stroke="black" points="405,-198 331,-198 331,-162 411,-162 411,-192 405,-198"/>
<polyline fill="none" stroke="black" points="405,-198 405,-192 "/>
<polyline fill="none" stroke="black" points="411,-192 405,-192 "/>
<text text-anchor="middle" x="371" y="-177.8" font-family="Verdana" font-size="9.00">[7] BaseMatX</text>
</g>
<!-- BaseMatC -->
<g id="node4" class="node"><title>BaseMatC</title>
<polygon fill="lightyellow" stroke="black" points="405,-144 331,-144 331,-108 411,-108 411,-138 405,-144"/>
<polyline fill="none" stroke="black" points="405,-144 405,-138 "/>
<polyline fill="none" stroke="black" points="411,-138 405,-138 "/>
<text text-anchor="middle" x="371" y="-123.8" font-family="Verdana" font-size="9.00">[5] BaseMatC</text>
</g>
<!-- BaseMatD -->
<g id="node5" class="node"><title>BaseMatD</title>
<polygon fill="lightyellow" stroke="black" points="405,-90 331,-90 331,-54 411,-54 411,-84 405,-90"/>
<polyline fill="none" stroke="black" points="405,-90 405,-84 "/>
<polyline fill="none" stroke="black" points="411,-84 405,-84 "/>
<text text-anchor="middle" x="371" y="-69.8" font-family="Verdana" font-size="9.00">[4] BaseMatD</text>
</g>
<!-- BaseMatX2 -->
<g id="node6" class="node"><title>BaseMatX2</title>
<polygon fill="lightyellow" stroke="black" points="405,-36 331,-36 331,-0 411,-0 411,-30 405,-36"/>
<polyline fill="none" stroke="black" points="405,-36 405,-30 "/>
<polyline fill="none" stroke="black" points="411,-30 405,-30 "/>
<text text-anchor="middle" x="371" y="-15.8" font-family="Verdana" font-size="9.00">[3] BaseMatX</text>
</g>
<!-- EnemyBaseMatA -->
<g id="node7" class="node"><title>EnemyBaseMatA</title>
<polygon fill="lightyellow" stroke="black" points="259,-225 154,-225 154,-189 265,-189 265,-219 259,-225"/>
<polyline fill="none" stroke="black" points="259,-225 259,-219 "/>
<polyline fill="none" stroke="black" points="265,-219 259,-219 "/>
<text text-anchor="middle" x="209.5" y="-204.8" font-family="Verdana" font-size="9.00">[6] EnemyBaseMatA</text>
</g>
<!-- EnemyBaseMatA&#45;&gt;BaseMatA -->
<g id="edge1" class="edge"><title>EnemyBaseMatA&#45;&gt;BaseMatA</title>
<path fill="none" stroke="black" d="M246.295,-225.178C270.203,-237.32 301.776,-253.353 327.041,-266.184"/>
<polygon fill="black" stroke="black" points="325.924,-268.757 334.325,-269.883 328.459,-263.764 325.924,-268.757"/>
<text text-anchor="middle" x="298" y="-260" font-family="Times New Roman,serif" font-size="10.00">参照 1</text>
</g>
<!-- EnemyBaseMatA&#45;&gt;BaseMatB -->
<g id="edge2" class="edge"><title>EnemyBaseMatA&#45;&gt;BaseMatB</title>
<path fill="none" stroke="black" d="M265.391,-216.292C283.989,-219.44 304.592,-222.928 322.561,-225.97"/>
<polygon fill="black" stroke="black" points="322.259,-228.758 330.615,-227.333 323.194,-223.237 322.259,-228.758"/>
<text text-anchor="middle" x="298" y="-226" font-family="Times New Roman,serif" font-size="10.00">参照 2</text>
</g>
<!-- EnemyBaseMatA&#45;&gt;BaseMatX1 -->
<g id="edge3" class="edge"><title>EnemyBaseMatA&#45;&gt;BaseMatX1</title>
<path fill="none" stroke="black" d="M265.391,-197.708C283.989,-194.56 304.592,-191.072 322.561,-188.03"/>
<polygon fill="black" stroke="black" points="323.194,-190.763 330.615,-186.667 322.259,-185.242 323.194,-190.763"/>
<text text-anchor="middle" x="298" y="-197" font-family="Times New Roman,serif" font-size="10.00">参照 3</text>
</g>
<!-- EnemyBaseMatB -->
<g id="node8" class="node"><title>EnemyBaseMatB</title>
<polygon fill="lightyellow" stroke="black" points="259,-103 154,-103 154,-67 265,-67 265,-97 259,-103"/>
<polyline fill="none" stroke="black" points="259,-103 259,-97 "/>
<polyline fill="none" stroke="black" points="265,-97 259,-97 "/>
<text text-anchor="middle" x="209.5" y="-82.8" font-family="Verdana" font-size="9.00">[2] EnemyBaseMatB</text>
</g>
<!-- EnemyBaseMatB&#45;&gt;BaseMatC -->
<g id="edge4" class="edge"><title>EnemyBaseMatB&#45;&gt;BaseMatC</title>
<path fill="none" stroke="black" d="M265.391,-99.1099C283.989,-103.891 304.592,-109.187 322.561,-113.806"/>
<polygon fill="black" stroke="black" points="322.169,-116.596 330.615,-115.876 323.564,-111.172 322.169,-116.596"/>
<text text-anchor="middle" x="298" y="-113" font-family="Times New Roman,serif" font-size="10.00">参照 1</text>
</g>
<!-- EnemyBaseMatB&#45;&gt;BaseMatD -->
<g id="edge5" class="edge"><title>EnemyBaseMatB&#45;&gt;BaseMatD</title>
<path fill="none" stroke="black" d="M265.391,-80.5261C283.989,-79.0103 304.592,-77.3311 322.561,-75.8665"/>
<polygon fill="black" stroke="black" points="322.869,-78.6508 330.615,-75.2101 322.414,-73.0693 322.869,-78.6508"/>
<text text-anchor="middle" x="298" y="-81" font-family="Times New Roman,serif" font-size="10.00">参照 2</text>
</g>
<!-- EnemyBaseMatB&#45;&gt;BaseMatX2 -->
<g id="edge6" class="edge"><title>EnemyBaseMatB&#45;&gt;BaseMatX2</title>
<path fill="none" stroke="black" d="M253.663,-66.8688C275.203,-57.8207 301.289,-46.8628 323.297,-37.6184"/>
<polygon fill="black" stroke="black" points="324.605,-40.1057 330.897,-34.4259 322.436,-34.9427 324.605,-40.1057"/>
<text text-anchor="middle" x="298" y="-56" font-family="Times New Roman,serif" font-size="10.00">参照 3</text>
</g>
<!-- EnemyA -->
<g id="node9" class="node"><title>EnemyA</title>
<polygon fill="lightyellow" stroke="black" points="82,-182 0,-182 0,-146 88,-146 88,-176 82,-182"/>
<polyline fill="none" stroke="black" points="82,-182 82,-176 "/>
<polyline fill="none" stroke="black" points="88,-176 82,-176 "/>
<text text-anchor="middle" x="44" y="-161.8" font-family="Verdana" font-size="9.00">[1] EnemyMatA</text>
</g>
<!-- EnemyA&#45;&gt;EnemyBaseMatA -->
<g id="edge7" class="edge"><title>EnemyA&#45;&gt;EnemyBaseMatA</title>
<path fill="none" stroke="black" d="M88.3857,-175.41C106.013,-180.046 126.719,-185.492 145.927,-190.543"/>
<polygon fill="black" stroke="black" points="145.32,-193.279 153.769,-192.606 146.744,-187.863 145.32,-193.279"/>
<text text-anchor="middle" x="121" y="-189" font-family="Times New Roman,serif" font-size="10.00">参照 1</text>
</g>
<!-- EnemyA&#45;&gt;EnemyBaseMatB -->
<g id="edge8" class="edge"><title>EnemyA&#45;&gt;EnemyBaseMatB</title>
<path fill="none" stroke="black" d="M82.5102,-145.876C106.708,-134.184 138.307,-118.916 163.805,-106.596"/>
<polygon fill="black" stroke="black" points="165.179,-109.042 171.164,-103.04 162.743,-103.999 165.179,-109.042"/>
<text text-anchor="middle" x="121" y="-136" font-family="Times New Roman,serif" font-size="10.00">参照 2</text>
</g>
</g>
</svg>
