<?xml version="1.0" encoding="UTF-8" standalone="no"?>
<!DOCTYPE svg PUBLIC "-//W3C//DTD SVG 1.1//EN"
 "http://www.w3.org/Graphics/SVG/1.1/DTD/svg11.dtd">
<!-- Generated by graphviz version 2.38.0 (20140413.2041)
 -->
<!-- Pages: 1 -->
<svg width="552pt" height="291pt"
 viewBox="0.00 0.00 552.00 291.00" xmlns="http://www.w3.org/2000/svg" xmlns:xlink="http://www.w3.org/1999/xlink">
<g id="graph0" class="graph" transform="scale(1 1) rotate(0) translate(4 287)">
<polygon fill="white" stroke="none" points="-4,4 -4,-287 548,-287 548,4 -4,4"/>
<!-- find -->
<g id="node1" class="node"><title>find</title>
<polygon fill="lightyellow" stroke="black" points="270,-283 40,-283 40,-247 270,-247 270,-283"/>
<text text-anchor="middle" x="155" y="-267.8" font-family="Verdana" font-size="9.00">設定された親マテリアルの順番と逆方向で</text>
<text text-anchor="middle" x="155" y="-257.8" font-family="Verdana" font-size="9.00">「なし」以外の設定を持つ親を探索</text>
</g>
<!-- ifForceRefer -->
<g id="node2" class="node"><title>ifForceRefer</title>
<polygon fill="lightyellow" stroke="black" points="259,-210 51,-210 51,-174 259,-174 259,-210"/>
<text text-anchor="middle" x="155" y="-194.8" font-family="Verdana" font-size="9.00">最初に見つかった設定が</text>
<text text-anchor="middle" x="155" y="-184.8" font-family="Verdana" font-size="9.00">「親マテリアルの値で固定する」か？</text>
</g>
<!-- find&#45;&gt;ifForceRefer -->
<g id="edge1" class="edge"><title>find&#45;&gt;ifForceRefer</title>
<path fill="none" stroke="black" d="M155,-246.813C155,-238.179 155,-227.555 155,-218.034"/>
<polygon fill="black" stroke="black" points="157.8,-218.029 155,-210.029 152.2,-218.029 157.8,-218.029"/>
</g>
<!-- applyForceRefer -->
<g id="node3" class="node"><title>applyForceRefer</title>
<polygon fill="lightyellow" stroke="black" points="174,-123 0,-123 0,-87 174,-87 174,-123"/>
<text text-anchor="middle" x="87" y="-102.8" font-family="Verdana" font-size="9.00">その親のパラメーター値を採用</text>
</g>
<!-- ifForceRefer&#45;&gt;applyForceRefer -->
<g id="edge2" class="edge"><title>ifForceRefer&#45;&gt;applyForceRefer</title>
<path fill="none" stroke="black" d="M141.239,-173.799C131.101,-161.126 117.187,-143.734 105.99,-129.738"/>
<polygon fill="black" stroke="black" points="107.924,-127.673 100.74,-123.175 103.552,-131.172 107.924,-127.673"/>
<text text-anchor="middle" x="139" y="-144.8" font-family="Times New Roman,serif" font-size="14.00">はい</text>
</g>
<!-- ifForceOverride -->
<g id="node4" class="node"><title>ifForceOverride</title>
<polygon fill="lightyellow" stroke="black" points="434,-123 192,-123 192,-87 434,-87 434,-123"/>
<text text-anchor="middle" x="313" y="-107.8" font-family="Verdana" font-size="9.00">最初に見つかった設定が</text>
<text text-anchor="middle" x="313" y="-97.8" font-family="Verdana" font-size="9.00">「必ず子マテリアルで値を設定させる」か？</text>
</g>
<!-- ifForceRefer&#45;&gt;ifForceOverride -->
<g id="edge3" class="edge"><title>ifForceRefer&#45;&gt;ifForceOverride</title>
<path fill="none" stroke="black" d="M186.974,-173.799C212.113,-160.275 247.24,-141.377 274.026,-126.967"/>
<polygon fill="black" stroke="black" points="275.625,-129.286 281.344,-123.03 272.972,-124.355 275.625,-129.286"/>
<text text-anchor="middle" x="262.5" y="-144.8" font-family="Times New Roman,serif" font-size="14.00">いいえ</text>
</g>
<!-- applyForceOverride -->
<g id="node5" class="node"><title>applyForceOverride</title>
<polygon fill="lightyellow" stroke="black" points="261.5,-36 166.5,-36 166.5,-0 261.5,-0 261.5,-36"/>
<text text-anchor="middle" x="214" y="-15.8" font-family="Verdana" font-size="9.00">自身の値を採用</text>
</g>
<!-- ifForceOverride&#45;&gt;applyForceOverride -->
<g id="edge4" class="edge"><title>ifForceOverride&#45;&gt;applyForceOverride</title>
<path fill="none" stroke="black" d="M292.966,-86.799C277.803,-73.78 256.839,-55.7813 240.323,-41.6003"/>
<polygon fill="black" stroke="black" points="241.898,-39.2624 234.004,-36.1754 238.25,-43.5113 241.898,-39.2624"/>
<text text-anchor="middle" x="282" y="-57.8" font-family="Times New Roman,serif" font-size="14.00">はい</text>
</g>
<!-- allNone -->
<g id="node6" class="node"><title>allNone</title>
<polygon fill="lightyellow" stroke="black" points="544,-36 280,-36 280,-0 544,-0 544,-36"/>
<text text-anchor="middle" x="412" y="-20.8" font-family="Verdana" font-size="9.00">すべての親の設定が「なし」なので</text>
<text text-anchor="middle" x="412" y="-10.8" font-family="Verdana" font-size="9.00">「値」の解決の手順に従いパラメーター値を決定</text>
</g>
<!-- ifForceOverride&#45;&gt;allNone -->
<g id="edge5" class="edge"><title>ifForceOverride&#45;&gt;allNone</title>
<path fill="none" stroke="black" d="M333.034,-86.799C348.197,-73.78 369.161,-55.7813 385.677,-41.6003"/>
<polygon fill="black" stroke="black" points="387.75,-43.5113 391.996,-36.1754 384.102,-39.2624 387.75,-43.5113"/>
<text text-anchor="middle" x="387.5" y="-57.8" font-family="Times New Roman,serif" font-size="14.00">いいえ</text>
</g>
</g>
</svg>
