<?xml version="1.0" encoding="UTF-8" standalone="no"?>
<!DOCTYPE svg PUBLIC "-//W3C//DTD SVG 1.1//EN"
 "http://www.w3.org/Graphics/SVG/1.1/DTD/svg11.dtd">
<!-- Generated by graphviz version 2.38.0 (20140413.2041)
 -->
<!-- Pages: 1 -->
<svg width="228pt" height="642pt"
 viewBox="0.00 0.00 228.00 642.00" xmlns="http://www.w3.org/2000/svg" xmlns:xlink="http://www.w3.org/1999/xlink">
<g id="graph0" class="graph" transform="scale(1 1) rotate(0) translate(4 638)">
<polygon fill="white" stroke="none" points="-4,4 -4,-638 224,-638 224,4 -4,4"/>
<!-- initializeShader -->
<g id="node1" class="node"><title>initializeShader</title>
<polygon fill="lightyellow" stroke="black" points="168.5,-634 5.5,-634 5.5,-598 168.5,-598 168.5,-634"/>
<text text-anchor="middle" x="87" y="-613.8" font-family="Verdana" font-size="9.00">シェーダーアーカイブ初期化</text>
</g>
<!-- initializeModel -->
<g id="node2" class="node"><title>initializeModel</title>
<polygon fill="lightyellow" stroke="black" points="129,-561 45,-561 45,-525 129,-525 129,-561"/>
<text text-anchor="middle" x="87" y="-540.8" font-family="Verdana" font-size="9.00">モデル初期化</text>
</g>
<!-- initializeShader&#45;&gt;initializeModel -->
<g id="edge1" class="edge"><title>initializeShader&#45;&gt;initializeModel</title>
<path fill="none" stroke="black" d="M87,-597.813C87,-589.179 87,-578.555 87,-569.034"/>
<polygon fill="black" stroke="black" points="89.8001,-569.029 87,-561.029 84.2001,-569.029 89.8001,-569.029"/>
</g>
<!-- initializeGfx -->
<g id="node3" class="node"><title>initializeGfx</title>
<polygon fill="lightyellow" stroke="black" points="170,-488 4,-488 4,-452 170,-452 170,-488"/>
<text text-anchor="middle" x="87" y="-467.8" font-family="Verdana" font-size="9.00">nn::gfx オブジェクトの初期化</text>
</g>
<!-- initializeModel&#45;&gt;initializeGfx -->
<g id="edge2" class="edge"><title>initializeModel&#45;&gt;initializeGfx</title>
<path fill="none" stroke="black" d="M87,-524.813C87,-516.179 87,-505.555 87,-496.034"/>
<polygon fill="black" stroke="black" points="89.8001,-496.029 87,-488.029 84.2001,-496.029 89.8001,-496.029"/>
</g>
<!-- update -->
<g id="node4" class="node"><title>update</title>
<polygon fill="lightyellow" stroke="black" points="157,-415 17,-415 17,-379 157,-379 157,-415"/>
<text text-anchor="middle" x="87" y="-394.8" font-family="Verdana" font-size="9.00">アニメーション等の更新</text>
</g>
<!-- initializeGfx&#45;&gt;update -->
<g id="edge3" class="edge"><title>initializeGfx&#45;&gt;update</title>
<path fill="none" stroke="black" d="M87,-451.813C87,-443.179 87,-432.555 87,-423.034"/>
<polygon fill="black" stroke="black" points="89.8001,-423.029 87,-415.029 84.2001,-423.029 89.8001,-423.029"/>
</g>
<!-- updateGpuBuffers -->
<g id="node5" class="node"><title>updateGpuBuffers</title>
<polygon fill="lightyellow" stroke="black" points="174,-342 0,-342 0,-306 174,-306 174,-342"/>
<text text-anchor="middle" x="87" y="-321.8" font-family="Verdana" font-size="9.00">GPU が参照するバッファの更新</text>
</g>
<!-- update&#45;&gt;updateGpuBuffers -->
<g id="edge4" class="edge"><title>update&#45;&gt;updateGpuBuffers</title>
<path fill="none" stroke="black" d="M87,-378.813C87,-370.179 87,-359.555 87,-350.034"/>
<polygon fill="black" stroke="black" points="89.8001,-350.029 87,-342.029 84.2001,-350.029 89.8001,-350.029"/>
</g>
<!-- makeGpuCommands -->
<g id="node6" class="node"><title>makeGpuCommands</title>
<polygon fill="lightyellow" stroke="black" points="140.5,-269 33.5,-269 33.5,-233 140.5,-233 140.5,-269"/>
<text text-anchor="middle" x="87" y="-248.8" font-family="Verdana" font-size="9.00">描画コマンド作成</text>
</g>
<!-- updateGpuBuffers&#45;&gt;makeGpuCommands -->
<g id="edge5" class="edge"><title>updateGpuBuffers&#45;&gt;makeGpuCommands</title>
<path fill="none" stroke="black" d="M87,-305.813C87,-297.179 87,-286.555 87,-277.034"/>
<polygon fill="black" stroke="black" points="89.8001,-277.029 87,-269.029 84.2001,-277.029 89.8001,-277.029"/>
</g>
<!-- executeGpuCommands -->
<g id="node7" class="node"><title>executeGpuCommands</title>
<polygon fill="lightyellow" stroke="black" points="140.5,-196 33.5,-196 33.5,-160 140.5,-160 140.5,-196"/>
<text text-anchor="middle" x="87" y="-175.8" font-family="Verdana" font-size="9.00">描画コマンド発行</text>
</g>
<!-- makeGpuCommands&#45;&gt;executeGpuCommands -->
<g id="edge6" class="edge"><title>makeGpuCommands&#45;&gt;executeGpuCommands</title>
<path fill="none" stroke="black" d="M87,-232.813C87,-224.179 87,-213.555 87,-204.034"/>
<polygon fill="black" stroke="black" points="89.8001,-204.029 87,-196.029 84.2001,-204.029 89.8001,-204.029"/>
</g>
<!-- breakMainLoop -->
<g id="node8" class="node"><title>breakMainLoop</title>
<polygon fill="lightyellow" stroke="black" points="146,-123 110.148,-105 146,-87 181.852,-105 146,-123"/>
<text text-anchor="middle" x="146" y="-102.8" font-family="Verdana" font-size="9.00">終了?</text>
</g>
<!-- executeGpuCommands&#45;&gt;breakMainLoop -->
<g id="edge7" class="edge"><title>executeGpuCommands:s&#45;&gt;breakMainLoop:n</title>
<path fill="none" stroke="black" d="M87,-160C87,-132.192 134.624,-149.47 144.298,-130.819"/>
<polygon fill="black" stroke="black" points="147.034,-131.413 146,-123 141.562,-130.221 147.034,-131.413"/>
</g>
<!-- breakMainLoop&#45;&gt;update -->
<g id="edge9" class="edge"><title>breakMainLoop:e&#45;&gt;update:e</title>
<path fill="none" stroke="black" d="M183,-105C216.095,-105 202,-143.905 202,-177 202,-325 202,-325 202,-325 202,-359.572 196.478,-391.591 166.234,-396.383"/>
<polygon fill="black" stroke="black" points="165.769,-393.61 158,-397 166.187,-399.195 165.769,-393.61"/>
<text text-anchor="middle" x="211" y="-247.3" font-family="Times New Roman,serif" font-size="14.00">No</text>
</g>
<!-- finalize -->
<g id="node9" class="node"><title>finalize</title>
<polygon fill="lightyellow" stroke="black" points="177,-36 115,-36 115,-0 177,-0 177,-36"/>
<text text-anchor="middle" x="146" y="-15.8" font-family="Verdana" font-size="9.00">終了処理</text>
</g>
<!-- breakMainLoop&#45;&gt;finalize -->
<g id="edge8" class="edge"><title>breakMainLoop&#45;&gt;finalize</title>
<path fill="none" stroke="black" d="M146,-86.799C146,-74.5865 146,-57.9921 146,-44.2776"/>
<polygon fill="black" stroke="black" points="148.8,-44.1754 146,-36.1754 143.2,-44.1755 148.8,-44.1754"/>
<text text-anchor="middle" x="157" y="-57.8" font-family="Times New Roman,serif" font-size="14.00">Yes</text>
</g>
</g>
</svg>
