<?xml version="1.0" encoding="UTF-8" standalone="no"?>
<!DOCTYPE svg PUBLIC "-//W3C//DTD SVG 1.1//EN"
 "http://www.w3.org/Graphics/SVG/1.1/DTD/svg11.dtd">
<!-- Generated by graphviz version 2.38.0 (20140413.2041)
 -->
<!-- Pages: 1 -->
<svg width="416pt" height="332pt"
 viewBox="0.00 0.00 415.50 332.00" xmlns="http://www.w3.org/2000/svg" xmlns:xlink="http://www.w3.org/1999/xlink">
<g id="graph0" class="graph" transform="scale(1 1) rotate(0) translate(4 328)">
<polygon fill="white" stroke="none" points="-4,4 -4,-328 411.5,-328 411.5,4 -4,4"/>
<!-- initLoad -->
<g id="node1" class="node"><title>initLoad</title>
<polygon fill="lightyellow" stroke="black" points="275.5,-324 180.5,-324 180.5,-288 275.5,-288 275.5,-324"/>
<text text-anchor="middle" x="228" y="-303.8" font-family="Verdana" font-size="9.00">ファイルロード</text>
</g>
<!-- modelFileInitialize -->
<g id="node2" class="node"><title>modelFileInitialize</title>
<polygon fill="lightyellow" stroke="black" points="292.5,-252 163.5,-252 163.5,-216 292.5,-216 292.5,-252"/>
<text text-anchor="middle" x="228" y="-231.8" font-family="Verdana" font-size="9.00">モデルリソース初期化</text>
</g>
<!-- initLoad&#45;&gt;modelFileInitialize -->
<g id="edge1" class="edge"><title>initLoad&#45;&gt;modelFileInitialize</title>
<path fill="none" stroke="black" d="M228,-287.697C228,-279.389 228,-269.277 228,-260.141"/>
<polygon fill="black" stroke="black" points="230.8,-260.104 228,-252.104 225.2,-260.104 230.8,-260.104"/>
</g>
<!-- associateShaderAndModel -->
<g id="node3" class="node"><title>associateShaderAndModel</title>
<polygon fill="lightyellow" stroke="black" points="264,-180 0,-180 0,-144 264,-144 264,-180"/>
<text text-anchor="middle" x="132" y="-159.8" font-family="Verdana" font-size="9.00">マテリアルにシェーダーパラメーター情報を反映</text>
</g>
<!-- modelFileInitialize&#45;&gt;associateShaderAndModel -->
<g id="edge2" class="edge"><title>modelFileInitialize&#45;&gt;associateShaderAndModel</title>
<path fill="none" stroke="black" d="M204.27,-215.697C191.482,-206.372 175.575,-194.774 161.943,-184.834"/>
<polygon fill="black" stroke="black" points="163.571,-182.555 155.457,-180.104 160.272,-187.08 163.571,-182.555"/>
</g>
<!-- buildAnimInstance -->
<g id="node6" class="node"><title>buildAnimInstance</title>
<polygon fill="lightyellow" stroke="black" points="407.5,-108 210.5,-108 210.5,-72 407.5,-72 407.5,-108"/>
<text text-anchor="middle" x="309" y="-87.8" font-family="Verdana" font-size="9.00">アニメーションインスタンスの作成</text>
</g>
<!-- modelFileInitialize&#45;&gt;buildAnimInstance -->
<g id="edge5" class="edge"><title>modelFileInitialize&#45;&gt;buildAnimInstance</title>
<path fill="none" stroke="black" d="M244.936,-215.946C254.102,-206.055 265.126,-193.012 273,-180 285.272,-159.719 295.019,-134.504 301.26,-116.097"/>
<polygon fill="black" stroke="black" points="304.03,-116.635 303.876,-108.16 298.712,-114.881 304.03,-116.635"/>
</g>
<!-- buildModelInstance -->
<g id="node4" class="node"><title>buildModelInstance</title>
<polygon fill="lightyellow" stroke="black" points="192,-108 40,-108 40,-72 192,-72 192,-108"/>
<text text-anchor="middle" x="116" y="-87.8" font-family="Verdana" font-size="9.00">モデルインスタンスの作成</text>
</g>
<!-- associateShaderAndModel&#45;&gt;buildModelInstance -->
<g id="edge3" class="edge"><title>associateShaderAndModel&#45;&gt;buildModelInstance</title>
<path fill="none" stroke="black" d="M128.045,-143.697C126.146,-135.389 123.835,-125.277 121.746,-116.141"/>
<polygon fill="black" stroke="black" points="124.422,-115.279 119.91,-108.104 118.963,-116.527 124.422,-115.279"/>
</g>
<!-- buildShaderSelector -->
<g id="node5" class="node"><title>buildShaderSelector</title>
<polygon fill="lightyellow" stroke="black" points="197.5,-36 34.5,-36 34.5,-0 197.5,-0 197.5,-36"/>
<text text-anchor="middle" x="116" y="-15.8" font-family="Verdana" font-size="9.00">シェーダーセレクターの作成</text>
</g>
<!-- buildModelInstance&#45;&gt;buildShaderSelector -->
<g id="edge4" class="edge"><title>buildModelInstance&#45;&gt;buildShaderSelector</title>
<path fill="none" stroke="black" d="M116,-71.6966C116,-63.3893 116,-53.2771 116,-44.1407"/>
<polygon fill="black" stroke="black" points="118.8,-44.1043 116,-36.1043 113.2,-44.1044 118.8,-44.1043"/>
</g>
</g>
</svg>
