<?xml version="1.0" encoding="UTF-8" standalone="no"?>
<!DOCTYPE svg PUBLIC "-//W3C//DTD SVG 1.1//EN"
 "http://www.w3.org/Graphics/SVG/1.1/DTD/svg11.dtd">
<!-- Generated by graphviz version 2.38.0 (20140413.2041)
 -->
<!-- Pages: 1 -->
<svg width="182pt" height="332pt"
 viewBox="0.00 0.00 182.00 332.00" xmlns="http://www.w3.org/2000/svg" xmlns:xlink="http://www.w3.org/1999/xlink">
<g id="graph0" class="graph" transform="scale(1 1) rotate(0) translate(4 328)">
<polygon fill="white" stroke="none" points="-4,4 -4,-328 178,-328 178,4 -4,4"/>
<!-- FinalizeShader -->
<g id="node1" class="node"><title>FinalizeShader</title>
<polygon fill="lightyellow" stroke="black" points="174,-36 0,-36 0,-0 174,-0 174,-36"/>
<text text-anchor="middle" x="87" y="-15.8" font-family="Verdana" font-size="9.00">シェーダーアーカイブ終了処理</text>
</g>
<!-- FinalizeModel -->
<g id="node2" class="node"><title>FinalizeModel</title>
<polygon fill="lightyellow" stroke="black" points="157,-108 17,-108 17,-72 157,-72 157,-108"/>
<text text-anchor="middle" x="87" y="-87.8" font-family="Verdana" font-size="9.00">モデルリソース終了処理</text>
</g>
<!-- FinalizeModel&#45;&gt;FinalizeShader -->
<g id="edge4" class="edge"><title>FinalizeModel&#45;&gt;FinalizeShader</title>
<path fill="none" stroke="black" d="M87,-71.6966C87,-63.3893 87,-53.2771 87,-44.1407"/>
<polygon fill="black" stroke="black" points="89.8001,-44.1043 87,-36.1043 84.2001,-44.1044 89.8001,-44.1043"/>
</g>
<!-- DestroyModel -->
<g id="node3" class="node"><title>DestroyModel</title>
<polygon fill="lightyellow" stroke="black" points="157,-180 17,-180 17,-144 157,-144 157,-180"/>
<text text-anchor="middle" x="87" y="-159.8" font-family="Verdana" font-size="9.00">モデルインスタンス破棄</text>
</g>
<!-- DestroyModel&#45;&gt;FinalizeModel -->
<g id="edge3" class="edge"><title>DestroyModel&#45;&gt;FinalizeModel</title>
<path fill="none" stroke="black" d="M87,-143.697C87,-135.389 87,-125.277 87,-116.141"/>
<polygon fill="black" stroke="black" points="89.8001,-116.104 87,-108.104 84.2001,-116.104 89.8001,-116.104"/>
</g>
<!-- DestroyAnimation -->
<g id="node4" class="node"><title>DestroyAnimation</title>
<polygon fill="lightyellow" stroke="black" points="146,-252 28,-252 28,-216 146,-216 146,-252"/>
<text text-anchor="middle" x="87" y="-231.8" font-family="Verdana" font-size="9.00">アニメーション破棄</text>
</g>
<!-- DestroyAnimation&#45;&gt;DestroyModel -->
<g id="edge2" class="edge"><title>DestroyAnimation&#45;&gt;DestroyModel</title>
<path fill="none" stroke="black" d="M87,-215.697C87,-207.389 87,-197.277 87,-188.141"/>
<polygon fill="black" stroke="black" points="89.8001,-188.104 87,-180.104 84.2001,-188.104 89.8001,-188.104"/>
</g>
<!-- DestoryShaderSelector -->
<g id="node5" class="node"><title>DestoryShaderSelector</title>
<polygon fill="lightyellow" stroke="black" points="163,-324 11,-324 11,-288 163,-288 163,-324"/>
<text text-anchor="middle" x="87" y="-303.8" font-family="Verdana" font-size="9.00">シェーダーセレクター破棄</text>
</g>
<!-- DestoryShaderSelector&#45;&gt;DestroyAnimation -->
<g id="edge1" class="edge"><title>DestoryShaderSelector&#45;&gt;DestroyAnimation</title>
<path fill="none" stroke="black" d="M87,-287.697C87,-279.389 87,-269.277 87,-260.141"/>
<polygon fill="black" stroke="black" points="89.8001,-260.104 87,-252.104 84.2001,-260.104 89.8001,-260.104"/>
</g>
</g>
</svg>
