<?xml version="1.0" encoding="UTF-8" standalone="no"?>
<!DOCTYPE svg PUBLIC "-//W3C//DTD SVG 1.1//EN"
 "http://www.w3.org/Graphics/SVG/1.1/DTD/svg11.dtd">
<!-- Generated by graphviz version 2.38.0 (20140413.2041)
 -->
<!-- Pages: 1 -->
<svg width="351pt" height="516pt"
 viewBox="0.00 0.00 350.50 516.00" xmlns="http://www.w3.org/2000/svg" xmlns:xlink="http://www.w3.org/1999/xlink">
<g id="graph0" class="graph" transform="scale(1 1) rotate(0) translate(4 512)">
<polygon fill="white" stroke="none" points="-4,4 -4,-512 346.5,-512 346.5,4 -4,4"/>
<!-- visibility -->
<g id="node1" class="node"><title>visibility</title>
<polygon fill="lightyellow" stroke="black" points="137.5,-508 42.5,-480 137.5,-452 232.5,-480 137.5,-508"/>
<text text-anchor="middle" x="137.5" y="-482.8" font-family="Verdana" font-size="9.00">ビジビリティー</text>
<text text-anchor="middle" x="137.5" y="-472.8" font-family="Verdana" font-size="9.00">判定</text>
</g>
<!-- renderState -->
<g id="node2" class="node"><title>renderState</title>
<polygon fill="lightyellow" stroke="black" points="202,-401 73,-401 73,-365 202,-365 202,-401"/>
<text text-anchor="middle" x="137.5" y="-380.8" font-family="Verdana" font-size="9.00">レンダーステート設定</text>
</g>
<!-- visibility&#45;&gt;renderState -->
<g id="edge1" class="edge"><title>visibility:s&#45;&gt;renderState</title>
<path fill="none" stroke="black" d="M137.5,-452C137.5,-437.9 137.5,-422.155 137.5,-409.369"/>
<polygon fill="black" stroke="black" points="140.3,-409.047 137.5,-401.047 134.7,-409.047 140.3,-409.047"/>
<text text-anchor="middle" x="150.5" y="-422.8" font-family="Times New Roman,serif" font-size="14.00">可視</text>
</g>
<!-- end -->
<g id="node7" class="node"><title>end</title>
<polygon fill="lightyellow" stroke="black" points="282.5,-36 228.5,-36 228.5,-0 282.5,-0 282.5,-36"/>
<text text-anchor="middle" x="255.5" y="-15.8" font-family="Verdana" font-size="9.00">終了</text>
</g>
<!-- visibility&#45;&gt;end -->
<g id="edge2" class="edge"><title>visibility:e&#45;&gt;end</title>
<path fill="none" stroke="black" d="M233.5,-480C286.305,-480 303.5,-436.805 303.5,-384 303.5,-384 303.5,-384 303.5,-90 303.5,-71.843 292.593,-54.8631 281.177,-42.0639"/>
<polygon fill="black" stroke="black" points="283.105,-40.0268 275.578,-36.1297 279.032,-43.87 283.105,-40.0268"/>
<text text-anchor="middle" x="323" y="-233.3" font-family="Times New Roman,serif" font-size="14.00">不可視</text>
</g>
<!-- loadShader -->
<g id="node3" class="node"><title>loadShader</title>
<polygon fill="lightyellow" stroke="black" points="191,-328 84,-328 84,-292 191,-292 191,-328"/>
<text text-anchor="middle" x="137.5" y="-307.8" font-family="Verdana" font-size="9.00">シェーダーロード</text>
</g>
<!-- renderState&#45;&gt;loadShader -->
<g id="edge3" class="edge"><title>renderState&#45;&gt;loadShader</title>
<path fill="none" stroke="black" d="M137.5,-364.813C137.5,-356.179 137.5,-345.555 137.5,-336.034"/>
<polygon fill="black" stroke="black" points="140.3,-336.029 137.5,-328.029 134.7,-336.029 140.3,-336.029"/>
</g>
<!-- sampler -->
<g id="node5" class="node"><title>sampler</title>
<polygon fill="lightyellow" stroke="black" points="224.5,-255 50.5,-255 50.5,-219 224.5,-219 224.5,-255"/>
<text text-anchor="middle" x="137.5" y="-234.8" font-family="Verdana" font-size="9.00">サンプラー、テクスチャー設定</text>
</g>
<!-- loadShader&#45;&gt;sampler -->
<g id="edge4" class="edge"><title>loadShader&#45;&gt;sampler</title>
<path fill="none" stroke="black" d="M137.5,-291.813C137.5,-283.179 137.5,-272.555 137.5,-263.034"/>
<polygon fill="black" stroke="black" points="140.3,-263.029 137.5,-255.029 134.7,-263.029 140.3,-263.029"/>
</g>
<!-- uniform -->
<g id="node4" class="node"><title>uniform</title>
<polygon fill="lightyellow" stroke="black" points="275,-182 0,-182 0,-146 275,-146 275,-182"/>
<text text-anchor="middle" x="137.5" y="-166.8" font-family="Verdana" font-size="9.00">マテリアル、スケルトン、シェイプ、オプションの</text>
<text text-anchor="middle" x="137.5" y="-156.8" font-family="Verdana" font-size="9.00">ユニフォームブロックロード</text>
</g>
<!-- draw -->
<g id="node6" class="node"><title>draw</title>
<polygon fill="lightyellow" stroke="black" points="164.5,-109 110.5,-109 110.5,-73 164.5,-73 164.5,-109"/>
<text text-anchor="middle" x="137.5" y="-88.8" font-family="Verdana" font-size="9.00">描画</text>
</g>
<!-- uniform&#45;&gt;draw -->
<g id="edge6" class="edge"><title>uniform&#45;&gt;draw</title>
<path fill="none" stroke="black" d="M137.5,-145.813C137.5,-137.179 137.5,-126.555 137.5,-117.034"/>
<polygon fill="black" stroke="black" points="140.3,-117.029 137.5,-109.029 134.7,-117.029 140.3,-117.029"/>
</g>
<!-- sampler&#45;&gt;uniform -->
<g id="edge5" class="edge"><title>sampler&#45;&gt;uniform</title>
<path fill="none" stroke="black" d="M137.5,-218.813C137.5,-210.179 137.5,-199.555 137.5,-190.034"/>
<polygon fill="black" stroke="black" points="140.3,-190.029 137.5,-182.029 134.7,-190.029 140.3,-190.029"/>
</g>
<!-- draw&#45;&gt;end -->
<g id="edge7" class="edge"><title>draw&#45;&gt;end</title>
<path fill="none" stroke="black" d="M164.572,-73.7112C181.391,-63.5911 203.164,-50.4905 221.187,-39.646"/>
<polygon fill="black" stroke="black" points="222.735,-41.9826 228.146,-35.4589 219.847,-37.1843 222.735,-41.9826"/>
</g>
</g>
</svg>
