<?xml version="1.0" encoding="UTF-8" standalone="no"?>
<!DOCTYPE svg PUBLIC "-//W3C//DTD SVG 1.1//EN"
 "http://www.w3.org/Graphics/SVG/1.1/DTD/svg11.dtd">
<!-- Generated by graphviz version 2.38.0 (20140413.2041)
 -->
<!-- Pages: 1 -->
<svg width="538pt" height="582pt"
 viewBox="0.00 0.00 537.89 582.00" xmlns="http://www.w3.org/2000/svg" xmlns:xlink="http://www.w3.org/1999/xlink">
<g id="graph0" class="graph" transform="scale(1 1) rotate(0) translate(4 578)">
<polygon fill="white" stroke="none" points="-4,4 -4,-578 533.888,-578 533.888,4 -4,4"/>
<g id="clust1" class="cluster"><title>cluster_dccTool</title>
<polygon fill="honeydew" stroke="black" stroke-width="0.3" points="188,-363 188,-566 400,-566 400,-363 188,-363"/>
<text text-anchor="middle" x="294" y="-550.8" font-family="Times New Roman,serif" font-size="14.00">DCC ツール</text>
<text text-anchor="middle" x="294" y="-535.8" font-family="Times New Roman,serif" font-size="14.00">(Maya、3ds Max、Photoshop)</text>
</g>
<g id="clust2" class="cluster"><title>cluster_viewer</title>
<polygon fill="bisque" stroke="black" stroke-width="0.3" points="8,-8 8,-83 500,-83 500,-8 8,-8"/>
<text text-anchor="middle" x="254" y="-15.8" font-family="Times New Roman,serif" font-size="14.00">ゲームアプリケーション</text>
</g>
<!-- ifFromDccPlugin -->
<g id="node1" class="node"><title>ifFromDccPlugin</title>
<polygon fill="lightyellow" stroke="black" stroke-width="0.5" points="365.213,-324 251.929,-324 222.787,-288 336.071,-288 365.213,-324"/>
<text text-anchor="middle" x="294" y="-303.8" font-family="Verdana" font-size="9.00">中間ファイル</text>
</g>
<!-- g3dEditor -->
<g id="node5" class="node"><title>g3dEditor</title>
<polygon fill="white" stroke="black" stroke-width="0.5" points="278.5,-241 221.5,-241 221.5,-205 278.5,-205 278.5,-241"/>
<text text-anchor="middle" x="250" y="-220.8" font-family="Verdana" font-size="9.00">3DEditor</text>
</g>
<!-- ifFromDccPlugin&#45;&gt;g3dEditor -->
<g id="edge3" class="edge"><title>ifFromDccPlugin&#45;&gt;g3dEditor</title>
<path fill="none" stroke="black" d="M280.781,-280.665C275.214,-270.416 268.748,-258.514 263.184,-248.271"/>
<polygon fill="black" stroke="black" points="278.39,-282.129 284.669,-287.822 283.31,-279.456 278.39,-282.129"/>
<polygon fill="black" stroke="black" points="265.597,-246.847 259.318,-241.153 260.676,-249.52 265.597,-246.847"/>
<text text-anchor="middle" x="285.5" y="-262" font-family="Times New Roman,serif" font-size="10.00">編集</text>
</g>
<!-- binaryConverter -->
<g id="node9" class="node"><title>binaryConverter</title>
<polygon fill="white" stroke="black" stroke-width="0.5" points="496.5,-241 329.5,-241 329.5,-205 496.5,-205 496.5,-241"/>
<text text-anchor="middle" x="413" y="-225.8" font-family="Verdana" font-size="9.00">3D バイナリーコンバーター</text>
<text text-anchor="middle" x="413" y="-215.8" font-family="Verdana" font-size="9.00">3D テクスチャーコンバーター</text>
</g>
<!-- ifFromDccPlugin&#45;&gt;binaryConverter -->
<g id="edge5" class="edge"><title>ifFromDccPlugin&#45;&gt;binaryConverter</title>
<path fill="none" stroke="black" d="M319.237,-287.822C337.302,-275.526 361.758,-258.879 381.165,-245.669"/>
<polygon fill="black" stroke="black" points="382.762,-247.969 387.8,-241.153 379.611,-243.34 382.762,-247.969"/>
<text text-anchor="middle" x="371.5" y="-262" font-family="Times New Roman,serif" font-size="10.00">入力</text>
</g>
<!-- binaryFile -->
<g id="node2" class="node"><title>binaryFile</title>
<polygon fill="lightyellow" stroke="black" stroke-width="0.5" points="529.775,-158 371.055,-158 330.225,-122 488.945,-122 529.775,-158"/>
<text text-anchor="middle" x="430" y="-137.8" font-family="Verdana" font-size="9.00">バイナリーリソース</text>
</g>
<!-- g3dRead -->
<g id="node7" class="node"><title>g3dRead</title>
<polygon fill="white" stroke="black" stroke-width="0.5" points="492,-75 336,-75 336,-39 492,-39 492,-75"/>
<text text-anchor="middle" x="414" y="-54.8" font-family="Verdana" font-size="9.00">3D ランタイムライブラリー</text>
</g>
<!-- binaryFile&#45;&gt;g3dRead -->
<g id="edge7" class="edge"><title>binaryFile&#45;&gt;g3dRead</title>
<path fill="none" stroke="black" d="M426.607,-121.822C424.379,-110.546 421.429,-95.6111 418.943,-83.0239"/>
<polygon fill="black" stroke="black" points="421.686,-82.459 417.388,-75.1533 416.192,-83.5442 421.686,-82.459"/>
<text text-anchor="middle" x="445" y="-96" font-family="Times New Roman,serif" font-size="10.00">読み込み</text>
</g>
<!-- dccData -->
<g id="node3" class="node"><title>dccData</title>
<polygon fill="lightyellow" stroke="black" stroke-width="0.5" points="392.483,-520 235.819,-520 195.517,-444 352.181,-444 392.483,-520"/>
<text text-anchor="middle" x="294" y="-489.8" font-family="Verdana" font-size="9.00">3D モデル</text>
<text text-anchor="middle" x="294" y="-479.8" font-family="Verdana" font-size="9.00">テクスチャー</text>
<text text-anchor="middle" x="294" y="-469.8" font-family="Verdana" font-size="9.00">アニメーション</text>
</g>
<!-- dccPlugin -->
<g id="node4" class="node"><title>dccPlugin</title>
<polygon fill="white" stroke="black" stroke-width="0.5" points="342,-407 246,-407 246,-371 342,-371 342,-407"/>
<text text-anchor="middle" x="294" y="-386.8" font-family="Verdana" font-size="9.00">DCC プラグイン</text>
</g>
<!-- dccData&#45;&gt;dccPlugin -->
<g id="edge1" class="edge"><title>dccData&#45;&gt;dccPlugin</title>
<path fill="none" stroke="black" d="M294,-443.987C294,-434.292 294,-424.063 294,-415.148"/>
<polygon fill="black" stroke="black" points="296.8,-415.063 294,-407.063 291.2,-415.063 296.8,-415.063"/>
</g>
<!-- dccPlugin&#45;&gt;ifFromDccPlugin -->
<g id="edge2" class="edge"><title>dccPlugin&#45;&gt;ifFromDccPlugin</title>
<path fill="none" stroke="black" d="M294,-370.822C294,-359.653 294,-344.895 294,-332.384"/>
<polygon fill="black" stroke="black" points="296.8,-332.153 294,-324.153 291.2,-332.153 296.8,-332.153"/>
<text text-anchor="middle" x="328" y="-345" font-family="Times New Roman,serif" font-size="10.00">エクスポート</text>
</g>
<!-- preview -->
<g id="node6" class="node"><title>preview</title>
<polygon fill="white" stroke="black" stroke-width="0.5" points="318,-75 178,-75 178,-39 318,-39 318,-75"/>
<text text-anchor="middle" x="248" y="-54.8" font-family="Verdana" font-size="9.00">ビューアーライブラリー</text>
</g>
<!-- g3dEditor&#45;&gt;preview -->
<g id="edge4" class="edge"><title>g3dEditor&#45;&gt;preview</title>
<path fill="none" stroke="black" d="M246.124,-196.86C244.498,-185.09 242.801,-170.86 242,-158 240.421,-132.635 242.599,-103.645 244.76,-83.433"/>
<polygon fill="black" stroke="black" points="243.375,-197.419 247.281,-204.941 248.919,-196.625 243.375,-197.419"/>
<polygon fill="black" stroke="black" points="247.558,-83.6081 245.674,-75.3443 241.994,-82.9793 247.558,-83.6081"/>
<text text-anchor="middle" x="281.5" y="-137.5" font-family="Times New Roman,serif" font-size="10.00">インゲーム編集</text>
</g>
<!-- miiHelper -->
<g id="node8" class="node"><title>miiHelper</title>
<polygon fill="white" stroke="black" stroke-width="0.5" points="160,-75 16,-75 16,-39 160,-39 160,-75"/>
<text text-anchor="middle" x="88" y="-54.8" font-family="Verdana" font-size="9.00">Mii ヘルパーライブラリー</text>
</g>
<!-- binaryConverter&#45;&gt;binaryFile -->
<g id="edge6" class="edge"><title>binaryConverter&#45;&gt;binaryFile</title>
<path fill="none" stroke="black" d="M416.605,-204.822C418.972,-193.546 422.106,-178.611 424.748,-166.024"/>
<polygon fill="black" stroke="black" points="427.497,-166.558 426.4,-158.153 422.016,-165.408 427.497,-166.558"/>
<text text-anchor="middle" x="433.5" y="-179" font-family="Times New Roman,serif" font-size="10.00">変換</text>
</g>
</g>
</svg>
