<?xml version="1.0" encoding="UTF-8" standalone="no"?>
<!DOCTYPE svg PUBLIC "-//W3C//DTD SVG 1.1//EN"
 "http://www.w3.org/Graphics/SVG/1.1/DTD/svg11.dtd">
<!-- Generated by graphviz version 2.38.0 (20140413.2041)
 -->
<!-- Pages: 1 -->
<svg width="1637pt" height="295pt"
 viewBox="0.00 0.00 1637.00 295.00" xmlns="http://www.w3.org/2000/svg" xmlns:xlink="http://www.w3.org/1999/xlink">
<g id="graph0" class="graph" transform="scale(1 1) rotate(0) translate(4 291)">
<polygon fill="white" stroke="none" points="-4,4 -4,-291 1633,-291 1633,4 -4,4"/>
<g id="clust1" class="cluster"><title>cluster_problems</title>
<path fill="none" stroke="orange" d="M20,-168C20,-168 1220,-168 1220,-168 1226,-168 1232,-174 1232,-180 1232,-180 1232,-229 1232,-229 1232,-235 1226,-241 1220,-241 1220,-241 20,-241 20,-241 14,-241 8,-235 8,-229 8,-229 8,-180 8,-180 8,-174 14,-168 20,-168"/>
<text text-anchor="middle" x="620" y="-227.4" font-family="Times New Roman,serif" font-size="12.00">デフォルトパラメーターによって見つかった問題点</text>
</g>
<g id="clust2" class="cluster"><title>cluster_try</title>
<path fill="none" stroke="red" d="M297,-8C297,-8 695,-8 695,-8 701,-8 707,-14 707,-20 707,-20 707,-82 707,-82 707,-88 701,-94 695,-94 695,-94 297,-94 297,-94 291,-94 285,-88 285,-82 285,-82 285,-20 285,-20 285,-14 291,-8 297,-8"/>
<text text-anchor="middle" x="496" y="-80.4" font-family="Times New Roman,serif" font-size="12.00">特に影響が大きくて</text>
<text text-anchor="middle" x="496" y="-67.4" font-family="Times New Roman,serif" font-size="12.00">調整の必要なパラメーター</text>
</g>
<!-- ExecuteDefaultParameter -->
<g id="node1" class="node"><title>ExecuteDefaultParameter</title>
<polygon fill="lightyellow" stroke="blue" points="719.5,-287 468.5,-287 468.5,-249 719.5,-249 719.5,-287"/>
<text text-anchor="middle" x="594" y="-275.8" font-family="Verdana" font-size="9.00">ステップ1 デフォルトパラメーターを実行する</text>
<text text-anchor="middle" x="594" y="-255.8" font-family="Verdana" font-size="9.00">パラメーター名：デフォルトパラメーター</text>
</g>
<!-- FindHoles -->
<g id="node2" class="node"><title>FindHoles</title>
<polygon fill="lightyellow" stroke="orange" points="210,-212 16,-212 16,-176 210,-176 210,-212"/>
<text text-anchor="middle" x="113" y="-191.8" font-family="Verdana" font-size="9.00">ステップ3 穴があいてしまった場合</text>
</g>
<!-- ExecuteDefaultParameter&#45;&gt;FindHoles -->
<g id="edge1" class="edge"><title>ExecuteDefaultParameter&#45;&gt;FindHoles</title>
<path fill="none" stroke="black" d="M468.154,-262.841C377.987,-258.996 264.727,-252.158 219,-241 195.843,-235.35 171.347,-225.035 151.743,-215.602"/>
<polygon fill="black" stroke="black" points="152.899,-213.05 144.483,-212.042 150.433,-218.078 152.899,-213.05"/>
</g>
<!-- IrregularUV -->
<g id="node3" class="node"><title>IrregularUV</title>
<polygon fill="lightyellow" stroke="orange" points="707.5,-212 480.5,-212 480.5,-176 707.5,-176 707.5,-212"/>
<text text-anchor="middle" x="594" y="-191.8" font-family="Verdana" font-size="9.00">ステップ4、ステップ6 UV が歪んで見える</text>
</g>
<!-- ExecuteDefaultParameter&#45;&gt;IrregularUV -->
<g id="edge3" class="edge"><title>ExecuteDefaultParameter&#45;&gt;IrregularUV</title>
<path fill="none" stroke="black" d="M594,-248.831C594,-240.283 594,-229.941 594,-220.616"/>
<polygon fill="black" stroke="black" points="596.8,-220.418 594,-212.418 591.2,-220.418 596.8,-220.418"/>
</g>
<!-- LostFeature -->
<g id="node4" class="node"><title>LostFeature</title>
<polygon fill="lightyellow" stroke="orange" points="932,-212 726,-212 726,-176 932,-176 932,-212"/>
<text text-anchor="middle" x="829" y="-191.8" font-family="Verdana" font-size="9.00">ステップ5 角など特徴的形状が消える</text>
</g>
<!-- ExecuteDefaultParameter&#45;&gt;LostFeature -->
<g id="edge6" class="edge"><title>ExecuteDefaultParameter&#45;&gt;LostFeature</title>
<path fill="none" stroke="black" d="M687.032,-248.964C696.875,-246.524 706.685,-243.864 716,-241 739.08,-233.904 764.013,-224.006 784.571,-215.208"/>
<polygon fill="black" stroke="black" points="785.704,-217.769 791.936,-212.024 783.482,-212.629 785.704,-217.769"/>
</g>
<!-- IrregularPoly -->
<g id="node5" class="node"><title>IrregularPoly</title>
<polygon fill="lightyellow" stroke="orange" points="1223.5,-212 950.5,-212 950.5,-176 1223.5,-176 1223.5,-212"/>
<text text-anchor="middle" x="1087" y="-196.8" font-family="Verdana" font-size="9.00">ステップ5 出力結果のポリゴン形状が望ましくない</text>
<text text-anchor="middle" x="1087" y="-186.8" font-family="Verdana" font-size="9.00">異常な位置に頂点が出来る</text>
</g>
<!-- ExecuteDefaultParameter&#45;&gt;IrregularPoly -->
<g id="edge14" class="edge"><title>ExecuteDefaultParameter&#45;&gt;IrregularPoly</title>
<path fill="none" stroke="black" d="M719.793,-264.547C786.087,-261.504 868.476,-254.948 941,-241 972.727,-234.898 1007.25,-224.218 1034.75,-214.684"/>
<polygon fill="black" stroke="black" points="1035.69,-217.321 1042.31,-212.03 1033.84,-212.037 1035.69,-217.321"/>
</g>
<!-- LostOpenEdge -->
<g id="node6" class="node"><title>LostOpenEdge</title>
<polygon fill="lightyellow" stroke="orange" points="462,-212 228,-212 228,-176 462,-176 462,-212"/>
<text text-anchor="middle" x="345" y="-196.8" font-family="Verdana" font-size="9.00">ステップ5、ステップ6 開放端が壊れている</text>
<text text-anchor="middle" x="345" y="-186.8" font-family="Verdana" font-size="9.00">小さなポリゴンが消えてしまう</text>
</g>
<!-- ExecuteDefaultParameter&#45;&gt;LostOpenEdge -->
<g id="edge11" class="edge"><title>ExecuteDefaultParameter&#45;&gt;LostOpenEdge</title>
<path fill="none" stroke="black" d="M501.633,-248.96C491.247,-246.492 480.861,-243.827 471,-241 445.458,-233.678 417.654,-223.745 394.678,-214.982"/>
<polygon fill="black" stroke="black" points="395.554,-212.319 387.082,-212.061 393.543,-217.546 395.554,-212.319"/>
</g>
<!-- ProtectOpenEdge -->
<g id="node9" class="node"><title>ProtectOpenEdge</title>
<polygon fill="lightyellow" stroke="green" points="206.5,-140 19.5,-140 19.5,-102 206.5,-102 206.5,-140"/>
<text text-anchor="middle" x="113" y="-128.8" font-family="Verdana" font-size="9.00">開放端保護角を入れる</text>
<text text-anchor="middle" x="113" y="-108.8" font-family="Verdana" font-size="9.00">パラメーター名：パラメーターC4</text>
</g>
<!-- FindHoles&#45;&gt;ProtectOpenEdge -->
<g id="edge2" class="edge"><title>FindHoles&#45;&gt;ProtectOpenEdge</title>
<path fill="none" stroke="black" stroke-dasharray="1,5" d="M113,-175.813C113,-167.518 113,-157.385 113,-148.159"/>
<polygon fill="black" stroke="black" points="115.8,-148.02 113,-140.02 110.2,-148.02 115.8,-148.02"/>
</g>
<!-- AdoptUVCoard -->
<g id="node7" class="node"><title>AdoptUVCoard</title>
<polygon fill="lightyellow" stroke="green" points="620,-140 430,-140 430,-102 620,-102 620,-140"/>
<text text-anchor="middle" x="525" y="-128.8" font-family="Verdana" font-size="9.00">UV 座標値をリダクションに用いる</text>
<text text-anchor="middle" x="525" y="-108.8" font-family="Verdana" font-size="9.00">パラメーター名：パラメーターB</text>
</g>
<!-- IrregularUV&#45;&gt;AdoptUVCoard -->
<g id="edge4" class="edge"><title>IrregularUV&#45;&gt;AdoptUVCoard</title>
<path fill="none" stroke="red" d="M577.297,-175.813C568.577,-166.84 557.769,-155.719 548.245,-145.919"/>
<polygon fill="red" stroke="red" points="550.095,-143.805 542.512,-140.02 546.079,-147.708 550.095,-143.805"/>
</g>
<!-- ProtectHardEdge -->
<g id="node10" class="node"><title>ProtectHardEdge</title>
<polygon fill="lightyellow" stroke="green" points="411.5,-140 224.5,-140 224.5,-102 411.5,-102 411.5,-140"/>
<text text-anchor="middle" x="318" y="-128.8" font-family="Verdana" font-size="9.00">ハードエッジ保護角を入れる</text>
<text text-anchor="middle" x="318" y="-108.8" font-family="Verdana" font-size="9.00">パラメーター名：パラメーターC5</text>
</g>
<!-- IrregularUV&#45;&gt;ProtectHardEdge -->
<g id="edge5" class="edge"><title>IrregularUV&#45;&gt;ProtectHardEdge</title>
<path fill="none" stroke="red" d="M527.891,-175.994C488.338,-165.819 437.854,-152.832 396.31,-142.145"/>
<polygon fill="red" stroke="red" points="396.839,-139.39 388.394,-140.109 395.444,-144.813 396.839,-139.39"/>
</g>
<!-- ProtectFeature -->
<g id="node8" class="node"><title>ProtectFeature</title>
<polygon fill="lightyellow" stroke="green" points="1154.5,-140 957.5,-140 957.5,-102 1154.5,-102 1154.5,-140"/>
<text text-anchor="middle" x="1056" y="-128.8" font-family="Verdana" font-size="9.00">頂点法線をリダクションに利用する</text>
<text text-anchor="middle" x="1056" y="-108.8" font-family="Verdana" font-size="9.00">パラメーター名：パラメーターC3</text>
</g>
<!-- LostFeature&#45;&gt;ProtectFeature -->
<g id="edge7" class="edge"><title>LostFeature&#45;&gt;ProtectFeature</title>
<path fill="none" stroke="red" d="M883.372,-175.994C915.429,-165.967 956.218,-153.209 990.097,-142.613"/>
<polygon fill="red" stroke="red" points="991.304,-145.169 998.103,-140.109 989.632,-139.824 991.304,-145.169"/>
</g>
<!-- ChangePosOption -->
<g id="node11" class="node"><title>ChangePosOption</title>
<polygon fill="lightyellow" stroke="green" points="1403,-140 1173,-140 1173,-102 1403,-102 1403,-140"/>
<text text-anchor="middle" x="1288" y="-128.8" font-family="Verdana" font-size="9.00">リダクション後の位置計算方法を変更する</text>
<text text-anchor="middle" x="1288" y="-108.8" font-family="Verdana" font-size="9.00">パラメーター名：パラメーターC2</text>
</g>
<!-- LostFeature&#45;&gt;ChangePosOption -->
<g id="edge8" class="edge"><title>LostFeature&#45;&gt;ChangePosOption</title>
<path fill="none" stroke="black" stroke-dasharray="1,5" d="M900.497,-175.982C913.91,-173.091 927.849,-170.288 941,-168 1039.41,-150.878 1065.01,-153.398 1164,-140 1164.27,-139.963 1164.55,-139.926 1164.82,-139.889"/>
<polygon fill="black" stroke="black" points="1165.28,-142.652 1172.83,-138.795 1164.53,-137.103 1165.28,-142.652"/>
</g>
<!-- Smoothing -->
<g id="node13" class="node"><title>Smoothing</title>
<polygon fill="lightyellow" stroke="blue" points="722,-139 638,-139 638,-103 722,-103 722,-139"/>
<text text-anchor="middle" x="680" y="-123.8" font-family="Verdana" font-size="9.00">平滑化を行う</text>
<text text-anchor="middle" x="680" y="-113.8" font-family="Verdana" font-size="9.00">&#45;&#45;smoothing</text>
</g>
<!-- LostFeature&#45;&gt;Smoothing -->
<g id="edge9" class="edge"><title>LostFeature&#45;&gt;Smoothing</title>
<path fill="none" stroke="blue" d="M793.311,-175.994C772.271,-165.968 745.503,-153.213 723.267,-142.617"/>
<polygon fill="blue" stroke="blue" points="724.341,-140.027 715.914,-139.114 721.932,-145.083 724.341,-140.027"/>
</g>
<!-- FeatureAngle -->
<g id="node14" class="node"><title>FeatureAngle</title>
<polygon fill="lightyellow" stroke="blue" points="939.5,-139 740.5,-139 740.5,-103 939.5,-103 939.5,-139"/>
<text text-anchor="middle" x="840" y="-123.8" font-family="Verdana" font-size="9.00">特徴的な頂点に重みづけする</text>
<text text-anchor="middle" x="840" y="-113.8" font-family="Verdana" font-size="9.00">パラメーター名：パラメーターC4_1</text>
</g>
<!-- LostFeature&#45;&gt;FeatureAngle -->
<g id="edge10" class="edge"><title>LostFeature&#45;&gt;FeatureAngle</title>
<path fill="none" stroke="blue" d="M831.663,-175.813C833,-167.179 834.646,-156.555 836.121,-147.034"/>
<polygon fill="blue" stroke="blue" points="838.904,-147.363 837.362,-139.029 833.37,-146.506 838.904,-147.363"/>
</g>
<!-- IrregularPoly&#45;&gt;ChangePosOption -->
<g id="edge15" class="edge"><title>IrregularPoly&#45;&gt;ChangePosOption</title>
<path fill="none" stroke="black" d="M1135.14,-175.994C1163.29,-166.052 1199.04,-153.425 1228.88,-142.882"/>
<polygon fill="black" stroke="black" points="1230.12,-145.413 1236.73,-140.109 1228.26,-140.133 1230.12,-145.413"/>
</g>
<!-- ChangePolyWeight -->
<g id="node12" class="node"><title>ChangePolyWeight</title>
<polygon fill="lightyellow" stroke="blue" points="1629,-139 1421,-139 1421,-103 1629,-103 1629,-139"/>
<text text-anchor="middle" x="1525" y="-123.8" font-family="Verdana" font-size="9.00">リダクション時の形状重みを変更する</text>
<text text-anchor="middle" x="1525" y="-113.8" font-family="Verdana" font-size="9.00">&#45;&#45;policy=&lt;value&gt;</text>
</g>
<!-- IrregularPoly&#45;&gt;ChangePolyWeight -->
<g id="edge16" class="edge"><title>IrregularPoly&#45;&gt;ChangePolyWeight</title>
<path fill="none" stroke="blue" d="M1191.91,-175.994C1258.55,-165.192 1344.74,-151.221 1412.74,-140.197"/>
<polygon fill="blue" stroke="blue" points="1413.5,-142.912 1420.94,-138.868 1412.6,-137.384 1413.5,-142.912"/>
</g>
<!-- LostOpenEdge&#45;&gt;ProtectOpenEdge -->
<g id="edge12" class="edge"><title>LostOpenEdge&#45;&gt;ProtectOpenEdge</title>
<path fill="none" stroke="red" d="M289.43,-175.994C256.529,-165.925 214.628,-153.102 179.917,-142.479"/>
<polygon fill="red" stroke="red" points="180.641,-139.772 172.172,-140.109 179.002,-145.127 180.641,-139.772"/>
</g>
<!-- LostOpenEdge&#45;&gt;ProtectHardEdge -->
<g id="edge13" class="edge"><title>LostOpenEdge&#45;&gt;ProtectHardEdge</title>
<path fill="none" stroke="black" stroke-dasharray="1,5" d="M338.464,-175.813C335.245,-167.348 331.299,-156.971 327.733,-147.595"/>
<polygon fill="black" stroke="black" points="330.313,-146.502 324.853,-140.02 325.079,-148.492 330.313,-146.502"/>
</g>
<!-- OptUVWeight -->
<g id="node15" class="node"><title>OptUVWeight</title>
<polygon fill="lightyellow" stroke="red" points="551,-52 429,-52 429,-16 551,-16 551,-52"/>
<text text-anchor="middle" x="490" y="-31.8" font-family="Verdana" font-size="9.00">UV 重みの調整を行う</text>
</g>
<!-- AdoptUVCoard&#45;&gt;OptUVWeight -->
<g id="edge17" class="edge"><title>AdoptUVCoard&#45;&gt;OptUVWeight</title>
<path fill="none" stroke="red" d="M517.577,-101.974C512.512,-89.671 505.737,-73.2179 500.17,-59.6983"/>
<polygon fill="red" stroke="red" points="502.689,-58.462 497.054,-52.1307 497.511,-60.5943 502.689,-58.462"/>
</g>
<!-- OptNmlWeight -->
<g id="node16" class="node"><title>OptNmlWeight</title>
<polygon fill="lightyellow" stroke="red" points="698.5,-52 569.5,-52 569.5,-16 698.5,-16 698.5,-52"/>
<text text-anchor="middle" x="634" y="-31.8" font-family="Verdana" font-size="9.00">法線重みの調整を行う</text>
</g>
<!-- ProtectFeature&#45;&gt;OptNmlWeight -->
<g id="edge18" class="edge"><title>ProtectFeature&#45;&gt;OptNmlWeight</title>
<path fill="none" stroke="black" d="M966.505,-101.974C889.161,-86.3949 778.775,-64.1609 706.761,-49.6556"/>
<polygon fill="black" stroke="black" points="707.005,-46.8486 698.61,-48.0138 705.899,-52.3384 707.005,-46.8486"/>
</g>
<!-- OptLockEdgeAngle -->
<g id="node17" class="node"><title>OptLockEdgeAngle</title>
<polygon fill="lightyellow" stroke="red" points="411,-52 293,-52 293,-16 411,-16 411,-52"/>
<text text-anchor="middle" x="352" y="-31.8" font-family="Verdana" font-size="9.00">保護角の調整を行う</text>
</g>
<!-- ProtectOpenEdge&#45;&gt;OptLockEdgeAngle -->
<g id="edge20" class="edge"><title>ProtectOpenEdge&#45;&gt;OptLockEdgeAngle</title>
<path fill="none" stroke="black" d="M163.686,-101.974C202.481,-88.1763 255.954,-69.1587 296.009,-54.9132"/>
<polygon fill="black" stroke="black" points="297.233,-57.4496 303.833,-52.1307 295.357,-52.1733 297.233,-57.4496"/>
</g>
<!-- ProtectHardEdge&#45;&gt;OptLockEdgeAngle -->
<g id="edge19" class="edge"><title>ProtectHardEdge&#45;&gt;OptLockEdgeAngle</title>
<path fill="none" stroke="black" d="M325.211,-101.974C330.132,-89.671 336.713,-73.2179 342.121,-59.6983"/>
<polygon fill="black" stroke="black" points="344.776,-60.5984 345.148,-52.1307 339.577,-58.5186 344.776,-60.5984"/>
</g>
</g>
</svg>
