<?xml version="1.0" encoding="UTF-8" standalone="no"?>
<!DOCTYPE svg PUBLIC "-//W3C//DTD SVG 1.1//EN"
 "http://www.w3.org/Graphics/SVG/1.1/DTD/svg11.dtd">
<!-- Generated by graphviz version 2.38.0 (20140413.2041)
 -->
<!-- Pages: 1 -->
<svg width="1448pt" height="481pt"
 viewBox="0.00 0.00 1447.71 480.98" xmlns="http://www.w3.org/2000/svg" xmlns:xlink="http://www.w3.org/1999/xlink">
<g id="graph0" class="graph" transform="scale(1 1) rotate(0) translate(4 476.983)">
<polygon fill="white" stroke="none" points="-4,4 -4,-476.983 1443.71,-476.983 1443.71,4 -4,4"/>
<!-- compile1 -->
<g id="node1" class="node"><title>compile1</title>
<polygon fill="mistyrose" stroke="black" points="339,-379 0,-379 0,-308 339,-308 339,-379"/>
<text text-anchor="start" x="138.5" y="-363.3" font-family="Verdana" font-size="9.00">コンパイル1</text>
<text text-anchor="start" x="12.5" y="-348.1" font-family="Verdana" font-size="8.00">&#45;&#45;shader&#45;cache&#45;directory=&quot;シェーダーキャッシュ1&quot;</text>
<text text-anchor="start" x="139.5" y="-333.1" font-family="Verdana" font-size="8.00">&#45;&#45;skip&#45;convert</text>
<text text-anchor="start" x="88" y="-318.1" font-family="Verdana" font-size="8.00">バリエーション: 0 &#45; 24</text>
</g>
<!-- cache1 -->
<g id="node7" class="node"><title>cache1</title>
<ellipse fill="lightyellow" stroke="black" cx="306.5" cy="-254" rx="77.8846" ry="18"/>
<text text-anchor="middle" x="306.5" y="-251.8" font-family="Verdana" font-size="9.00">シェーダーキャッシュ1</text>
</g>
<!-- compile1&#45;&gt;cache1 -->
<g id="edge5" class="edge"><title>compile1&#45;&gt;cache1</title>
<path fill="none" stroke="black" d="M223.646,-307.918C240.743,-296.998 259.089,-285.28 274.161,-275.654"/>
<polygon fill="black" stroke="black" points="276.042,-277.775 281.277,-271.109 273.028,-273.056 276.042,-277.775"/>
</g>
<!-- compile2 -->
<g id="node2" class="node"><title>compile2</title>
<polygon fill="mistyrose" stroke="black" points="696,-379 357,-379 357,-308 696,-308 696,-379"/>
<text text-anchor="start" x="495.5" y="-363.3" font-family="Verdana" font-size="9.00">コンパイル2</text>
<text text-anchor="start" x="369.5" y="-348.1" font-family="Verdana" font-size="8.00">&#45;&#45;shader&#45;cache&#45;directory=&quot;シェーダーキャッシュ2&quot;</text>
<text text-anchor="start" x="496.5" y="-333.1" font-family="Verdana" font-size="8.00">&#45;&#45;skip&#45;convert</text>
<text text-anchor="start" x="442.5" y="-318.1" font-family="Verdana" font-size="8.00">バリエーション: 25 &#45; 49</text>
</g>
<!-- cache2 -->
<g id="node8" class="node"><title>cache2</title>
<ellipse fill="lightyellow" stroke="black" cx="618.5" cy="-254" rx="77.8846" ry="18"/>
<text text-anchor="middle" x="618.5" y="-251.8" font-family="Verdana" font-size="9.00">シェーダーキャッシュ2</text>
</g>
<!-- compile2&#45;&gt;cache2 -->
<g id="edge6" class="edge"><title>compile2&#45;&gt;cache2</title>
<path fill="none" stroke="black" d="M562.861,-307.918C573.675,-297.632 585.233,-286.639 594.998,-277.353"/>
<polygon fill="black" stroke="black" points="596.956,-279.355 600.823,-271.813 593.096,-275.297 596.956,-279.355"/>
</g>
<!-- compile3 -->
<g id="node3" class="node"><title>compile3</title>
<polygon fill="mistyrose" stroke="black" points="1053,-379 714,-379 714,-308 1053,-308 1053,-379"/>
<text text-anchor="start" x="852.5" y="-363.3" font-family="Verdana" font-size="9.00">コンパイル3</text>
<text text-anchor="start" x="726.5" y="-348.1" font-family="Verdana" font-size="8.00">&#45;&#45;shader&#45;cache&#45;directory=&quot;シェーダーキャッシュ3&quot;</text>
<text text-anchor="start" x="853.5" y="-333.1" font-family="Verdana" font-size="8.00">&#45;&#45;skip&#45;convert</text>
<text text-anchor="start" x="799.5" y="-318.1" font-family="Verdana" font-size="8.00">バリエーション: 50 &#45; 74</text>
</g>
<!-- cache3 -->
<g id="node9" class="node"><title>cache3</title>
<ellipse fill="lightyellow" stroke="black" cx="883.5" cy="-254" rx="77.8846" ry="18"/>
<text text-anchor="middle" x="883.5" y="-251.8" font-family="Verdana" font-size="9.00">シェーダーキャッシュ3</text>
</g>
<!-- compile3&#45;&gt;cache3 -->
<g id="edge7" class="edge"><title>compile3&#45;&gt;cache3</title>
<path fill="none" stroke="black" d="M883.5,-307.918C883.5,-298.746 883.5,-289.012 883.5,-280.426"/>
<polygon fill="black" stroke="black" points="886.3,-280.287 883.5,-272.287 880.7,-280.287 886.3,-280.287"/>
</g>
<!-- compile4 -->
<g id="node4" class="node"><title>compile4</title>
<polygon fill="mistyrose" stroke="black" points="1410,-379 1071,-379 1071,-308 1410,-308 1410,-379"/>
<text text-anchor="start" x="1209.5" y="-363.3" font-family="Verdana" font-size="9.00">コンパイル4</text>
<text text-anchor="start" x="1083.5" y="-348.1" font-family="Verdana" font-size="8.00">&#45;&#45;shader&#45;cache&#45;directory=&quot;シェーダーキャッシュ4&quot;</text>
<text text-anchor="start" x="1210.5" y="-333.1" font-family="Verdana" font-size="8.00">&#45;&#45;skip&#45;convert</text>
<text text-anchor="start" x="1156.5" y="-318.1" font-family="Verdana" font-size="8.00">バリエーション: 75 &#45; 99</text>
</g>
<!-- cache4 -->
<g id="node10" class="node"><title>cache4</title>
<ellipse fill="lightyellow" stroke="black" cx="1149.5" cy="-254" rx="77.8846" ry="18"/>
<text text-anchor="middle" x="1149.5" y="-251.8" font-family="Verdana" font-size="9.00">シェーダーキャッシュ4</text>
</g>
<!-- compile4&#45;&gt;cache4 -->
<g id="edge8" class="edge"><title>compile4&#45;&gt;cache4</title>
<path fill="none" stroke="black" d="M1204.53,-307.918C1193.94,-297.729 1182.62,-286.847 1173.02,-277.616"/>
<polygon fill="black" stroke="black" points="1174.69,-275.339 1166.99,-271.813 1170.81,-279.376 1174.69,-275.339"/>
</g>
<!-- convert -->
<g id="node5" class="node"><title>convert</title>
<polygon fill="mistyrose" stroke="black" points="1327.5,-128 993.5,-128 993.5,-72 1327.5,-72 1327.5,-128"/>
<text text-anchor="start" x="1132" y="-112.8" font-family="Verdana" font-size="9.00">コンバート</text>
<text text-anchor="start" x="1005.5" y="-97.6" font-family="Verdana" font-size="8.00">&#45;&#45;shader&#45;cache&#45;directory=&quot;シェーダーキャッシュ&quot;</text>
<text text-anchor="start" x="1078.5" y="-82.6" font-family="Verdana" font-size="8.00">バリエーション: 0 &#45; 99</text>
</g>
<!-- binary -->
<g id="node12" class="node"><title>binary</title>
<ellipse fill="lightyellow" stroke="black" cx="1160.5" cy="-18" rx="42.2937" ry="18"/>
<text text-anchor="middle" x="1160.5" y="-15.8" font-family="Verdana" font-size="9.00">バイナリー</text>
</g>
<!-- convert&#45;&gt;binary -->
<g id="edge15" class="edge"><title>convert&#45;&gt;binary</title>
<path fill="none" stroke="black" d="M1160.5,-71.9156C1160.5,-62.9844 1160.5,-53.0907 1160.5,-44.298"/>
<polygon fill="black" stroke="black" points="1163.3,-44.2726 1160.5,-36.2726 1157.7,-44.2727 1163.3,-44.2726"/>
</g>
<!-- source -->
<g id="node6" class="node"><title>source</title>
<ellipse fill="lightyellow" stroke="black" cx="883.5" cy="-443.991" rx="123.988" ry="28.9828"/>
<text text-anchor="start" x="867" y="-448.791" font-family="Verdana" font-size="9.00">ソース</text>
<text text-anchor="start" x="808.5" y="-433.591" font-family="Verdana" font-size="8.00">100 バリエーション</text>
</g>
<!-- source&#45;&gt;compile1 -->
<g id="edge1" class="edge"><title>source&#45;&gt;compile1</title>
<path fill="none" stroke="black" d="M770.758,-431.937C662.067,-420.712 493.099,-401.771 347.5,-379 347.325,-378.973 347.15,-378.945 346.975,-378.918"/>
<polygon fill="black" stroke="black" points="347.38,-376.147 339.039,-377.653 346.498,-381.677 347.38,-376.147"/>
</g>
<!-- source&#45;&gt;compile2 -->
<g id="edge2" class="edge"><title>source&#45;&gt;compile2</title>
<path fill="none" stroke="black" d="M805.155,-421.377C762.487,-409.606 708.532,-394.72 659.488,-381.189"/>
<polygon fill="black" stroke="black" points="660.118,-378.459 651.661,-379.03 658.628,-383.857 660.118,-378.459"/>
</g>
<!-- source&#45;&gt;compile3 -->
<g id="edge3" class="edge"><title>source&#45;&gt;compile3</title>
<path fill="none" stroke="black" d="M883.5,-414.768C883.5,-406.151 883.5,-396.476 883.5,-387.126"/>
<polygon fill="black" stroke="black" points="886.3,-387.027 883.5,-379.027 880.7,-387.028 886.3,-387.027"/>
</g>
<!-- source&#45;&gt;compile4 -->
<g id="edge4" class="edge"><title>source&#45;&gt;compile4</title>
<path fill="none" stroke="black" d="M961.845,-421.377C1004.51,-409.606 1058.47,-394.72 1107.51,-381.189"/>
<polygon fill="black" stroke="black" points="1108.37,-383.857 1115.34,-379.03 1106.88,-378.459 1108.37,-383.857"/>
</g>
<!-- source&#45;&gt;convert -->
<g id="edge14" class="edge"><title>source&#45;&gt;convert</title>
<path fill="none" stroke="black" d="M1003.73,-436.925C1153.02,-428.139 1391.43,-409.5 1418.5,-379 1499.62,-287.594 1327.5,-182.599 1226.7,-131.767"/>
<polygon fill="black" stroke="black" points="1227.68,-129.126 1219.27,-128.053 1225.17,-134.135 1227.68,-129.126"/>
</g>
<!-- cache -->
<g id="node11" class="node"><title>cache</title>
<ellipse fill="lightyellow" stroke="black" cx="883.5" cy="-182" rx="74.4564" ry="18"/>
<text text-anchor="middle" x="883.5" y="-179.8" font-family="Verdana" font-size="9.00">シェーダーキャッシュ</text>
</g>
<!-- cache1&#45;&gt;cache -->
<g id="edge9" class="edge"><title>cache1&#45;&gt;cache</title>
<path fill="none" stroke="black" d="M373.818,-244.833C482.866,-231.604 697.277,-205.592 810.104,-191.904"/>
<polygon fill="black" stroke="black" points="810.775,-194.643 818.38,-190.9 810.101,-189.084 810.775,-194.643"/>
</g>
<!-- cache2&#45;&gt;cache -->
<g id="edge10" class="edge"><title>cache2&#45;&gt;cache</title>
<path fill="none" stroke="black" d="M667.723,-239.998C712.86,-228.075 779.679,-210.424 826.982,-197.929"/>
<polygon fill="black" stroke="black" points="827.968,-200.565 834.988,-195.815 826.538,-195.151 827.968,-200.565"/>
</g>
<!-- cache3&#45;&gt;cache -->
<g id="edge11" class="edge"><title>cache3&#45;&gt;cache</title>
<path fill="none" stroke="black" d="M883.5,-235.697C883.5,-227.389 883.5,-217.277 883.5,-208.141"/>
<polygon fill="black" stroke="black" points="886.3,-208.104 883.5,-200.104 880.7,-208.104 886.3,-208.104"/>
</g>
<!-- cache4&#45;&gt;cache -->
<g id="edge12" class="edge"><title>cache4&#45;&gt;cache</title>
<path fill="none" stroke="black" d="M1100.09,-239.998C1054.69,-228.05 987.436,-210.351 939.937,-197.852"/>
<polygon fill="black" stroke="black" points="940.645,-195.143 932.195,-195.815 939.219,-200.558 940.645,-195.143"/>
</g>
<!-- cache&#45;&gt;convert -->
<g id="edge13" class="edge"><title>cache&#45;&gt;convert</title>
<path fill="none" stroke="black" d="M929.241,-167.79C964.466,-157.616 1014.51,-143.164 1059.04,-130.304"/>
<polygon fill="black" stroke="black" points="1060.08,-132.916 1066.99,-128.006 1058.53,-127.536 1060.08,-132.916"/>
</g>
</g>
</svg>
