<?xml version="1.0" encoding="UTF-8" standalone="no"?>
<!DOCTYPE svg PUBLIC "-//W3C//DTD SVG 1.1//EN"
 "http://www.w3.org/Graphics/SVG/1.1/DTD/svg11.dtd">
<!-- Generated by graphviz version 2.38.0 (20140413.2041)
 -->
<!-- Pages: 1 -->
<svg width="1529pt" height="551pt"
 viewBox="0.00 0.00 1528.50 551.18" xmlns="http://www.w3.org/2000/svg" xmlns:xlink="http://www.w3.org/1999/xlink">
<g id="graph0" class="graph" transform="scale(1 1) rotate(0) translate(4 547.179)">
<polygon fill="white" stroke="none" points="-4,4 -4,-547.179 1524.5,-547.179 1524.5,4 -4,4"/>
<!-- compile1 -->
<g id="node1" class="node"><title>compile1</title>
<polygon fill="mistyrose" stroke="black" points="339,-334 0,-334 0,-293 339,-293 339,-334"/>
<text text-anchor="start" x="138.5" y="-318.3" font-family="Verdana" font-size="9.00">コンパイル1</text>
<text text-anchor="start" x="12.5" y="-303.1" font-family="Verdana" font-size="8.00">&#45;&#45;shader&#45;cache&#45;directory=&quot;シェーダーキャッシュ1&quot;</text>
</g>
<!-- cache1 -->
<g id="node7" class="node"><title>cache1</title>
<ellipse fill="lightyellow" stroke="black" cx="261.5" cy="-239" rx="77.8846" ry="18"/>
<text text-anchor="middle" x="261.5" y="-236.8" font-family="Verdana" font-size="9.00">シェーダーキャッシュ1</text>
</g>
<!-- compile1&#45;&gt;cache1 -->
<g id="edge10" class="edge"><title>compile1&#45;&gt;cache1</title>
<path fill="none" stroke="black" d="M194.639,-292.689C206.962,-282.978 221.819,-271.27 234.396,-261.359"/>
<polygon fill="black" stroke="black" points="236.188,-263.512 240.739,-256.361 232.722,-259.113 236.188,-263.512"/>
</g>
<!-- compile2 -->
<g id="node2" class="node"><title>compile2</title>
<polygon fill="mistyrose" stroke="black" points="696,-334 357,-334 357,-293 696,-293 696,-334"/>
<text text-anchor="start" x="495.5" y="-318.3" font-family="Verdana" font-size="9.00">コンパイル2</text>
<text text-anchor="start" x="369.5" y="-303.1" font-family="Verdana" font-size="8.00">&#45;&#45;shader&#45;cache&#45;directory=&quot;シェーダーキャッシュ2&quot;</text>
</g>
<!-- cache2 -->
<g id="node8" class="node"><title>cache2</title>
<ellipse fill="lightyellow" stroke="black" cx="618.5" cy="-239" rx="77.8846" ry="18"/>
<text text-anchor="middle" x="618.5" y="-236.8" font-family="Verdana" font-size="9.00">シェーダーキャッシュ2</text>
</g>
<!-- compile2&#45;&gt;cache2 -->
<g id="edge11" class="edge"><title>compile2&#45;&gt;cache2</title>
<path fill="none" stroke="black" d="M551.639,-292.689C563.962,-282.978 578.819,-271.27 591.396,-261.359"/>
<polygon fill="black" stroke="black" points="593.188,-263.512 597.739,-256.361 589.722,-259.113 593.188,-263.512"/>
</g>
<!-- compile3 -->
<g id="node3" class="node"><title>compile3</title>
<polygon fill="mistyrose" stroke="black" points="1053,-334 714,-334 714,-293 1053,-293 1053,-334"/>
<text text-anchor="start" x="852.5" y="-318.3" font-family="Verdana" font-size="9.00">コンパイル3</text>
<text text-anchor="start" x="726.5" y="-303.1" font-family="Verdana" font-size="8.00">&#45;&#45;shader&#45;cache&#45;directory=&quot;シェーダーキャッシュ3&quot;</text>
</g>
<!-- cache3 -->
<g id="node9" class="node"><title>cache3</title>
<ellipse fill="lightyellow" stroke="black" cx="883.5" cy="-239" rx="77.8846" ry="18"/>
<text text-anchor="middle" x="883.5" y="-236.8" font-family="Verdana" font-size="9.00">シェーダーキャッシュ3</text>
</g>
<!-- compile3&#45;&gt;cache3 -->
<g id="edge12" class="edge"><title>compile3&#45;&gt;cache3</title>
<path fill="none" stroke="black" d="M883.5,-292.689C883.5,-284.301 883.5,-274.424 883.5,-265.501"/>
<polygon fill="black" stroke="black" points="886.3,-265.319 883.5,-257.319 880.7,-265.32 886.3,-265.319"/>
</g>
<!-- compile4 -->
<g id="node4" class="node"><title>compile4</title>
<polygon fill="mistyrose" stroke="black" points="1410,-334 1071,-334 1071,-293 1410,-293 1410,-334"/>
<text text-anchor="start" x="1209.5" y="-318.3" font-family="Verdana" font-size="9.00">コンパイル4</text>
<text text-anchor="start" x="1083.5" y="-303.1" font-family="Verdana" font-size="8.00">&#45;&#45;shader&#45;cache&#45;directory=&quot;シェーダーキャッシュ4&quot;</text>
</g>
<!-- cache4 -->
<g id="node10" class="node"><title>cache4</title>
<ellipse fill="lightyellow" stroke="black" cx="1149.5" cy="-239" rx="77.8846" ry="18"/>
<text text-anchor="middle" x="1149.5" y="-236.8" font-family="Verdana" font-size="9.00">シェーダーキャッシュ4</text>
</g>
<!-- compile4&#45;&gt;cache4 -->
<g id="edge13" class="edge"><title>compile4&#45;&gt;cache4</title>
<path fill="none" stroke="black" d="M1215.63,-292.689C1203.65,-283.138 1189.23,-271.655 1176.93,-261.85"/>
<polygon fill="black" stroke="black" points="1178.34,-259.394 1170.33,-256.599 1174.85,-263.774 1178.34,-259.394"/>
</g>
<!-- convert -->
<g id="node5" class="node"><title>convert</title>
<polygon fill="mistyrose" stroke="black" points="1327.5,-113 993.5,-113 993.5,-72 1327.5,-72 1327.5,-113"/>
<text text-anchor="start" x="1132" y="-97.3" font-family="Verdana" font-size="9.00">コンバート</text>
<text text-anchor="start" x="1005.5" y="-82.1" font-family="Verdana" font-size="8.00">&#45;&#45;shader&#45;cache&#45;directory=&quot;シェーダーキャッシュ&quot;</text>
</g>
<!-- binary -->
<g id="node12" class="node"><title>binary</title>
<ellipse fill="lightyellow" stroke="black" cx="1160.5" cy="-18" rx="42.2937" ry="18"/>
<text text-anchor="middle" x="1160.5" y="-15.8" font-family="Verdana" font-size="9.00">バイナリー</text>
</g>
<!-- convert&#45;&gt;binary -->
<g id="edge20" class="edge"><title>convert&#45;&gt;binary</title>
<path fill="none" stroke="black" d="M1160.5,-71.6891C1160.5,-63.3013 1160.5,-53.4238 1160.5,-44.5014"/>
<polygon fill="black" stroke="black" points="1163.3,-44.3194 1160.5,-36.3195 1157.7,-44.3195 1163.3,-44.3194"/>
</g>
<!-- source -->
<g id="node6" class="node"><title>source</title>
<ellipse fill="lightyellow" stroke="black" cx="782.5" cy="-514.187" rx="123.988" ry="28.9828"/>
<text text-anchor="start" x="766" y="-518.987" font-family="Verdana" font-size="9.00">ソース</text>
<text text-anchor="start" x="707.5" y="-503.787" font-family="Verdana" font-size="8.00">100 バリエーション</text>
</g>
<!-- source&#45;&gt;compile1 -->
<g id="edge2" class="edge"><title>source&#45;&gt;compile1</title>
<path fill="none" stroke="black" d="M660.358,-509.447C486.507,-502.845 184.907,-486.162 151.5,-449.196 125.105,-419.989 140.765,-371.632 154.872,-341.497"/>
<polygon fill="black" stroke="black" points="157.415,-342.67 158.398,-334.251 152.38,-340.219 157.415,-342.67"/>
</g>
<!-- source&#45;&gt;compile2 -->
<g id="edge4" class="edge"><title>source&#45;&gt;compile2</title>
<path fill="none" stroke="black" d="M666.218,-504.182C589.146,-495.518 497.885,-479.148 473.5,-449.196 451.278,-421.9 460.406,-402.672 473.5,-370 478.051,-358.646 486.154,-348.297 494.677,-339.693"/>
<polygon fill="black" stroke="black" points="496.759,-341.577 500.606,-334.024 492.889,-337.529 496.759,-341.577"/>
</g>
<!-- source&#45;&gt;compile3 -->
<g id="edge6" class="edge"><title>source&#45;&gt;compile3</title>
<path fill="none" stroke="black" d="M779.746,-485.112C778.135,-454.502 779.737,-405.191 801.5,-370 809.358,-357.294 821.331,-346.819 833.719,-338.524"/>
<polygon fill="black" stroke="black" points="835.369,-340.793 840.621,-334.14 832.366,-336.066 835.369,-340.793"/>
</g>
<!-- source&#45;&gt;compile4 -->
<g id="edge8" class="edge"><title>source&#45;&gt;compile4</title>
<path fill="none" stroke="black" d="M892.729,-500.787C968.495,-490.349 1060.76,-473.246 1091.5,-449.196 1122.25,-425.142 1102.12,-397.829 1129.5,-370 1142.6,-356.681 1159.57,-346.018 1176.27,-337.738"/>
<polygon fill="black" stroke="black" points="1177.89,-340.067 1183.91,-334.101 1175.49,-335.011 1177.89,-340.067"/>
</g>
<!-- source&#45;&gt;convert -->
<g id="edge19" class="edge"><title>source&#45;&gt;convert</title>
<path fill="none" stroke="black" d="M904.425,-508.931C1078.98,-501.65 1383.18,-484.089 1419.5,-449.196 1463.1,-407.31 1438.5,-374.958 1438.5,-314.5 1438.5,-314.5 1438.5,-314.5 1438.5,-238 1438.5,-170.435 1373.05,-134.417 1305.67,-115.239"/>
<polygon fill="black" stroke="black" points="1306.33,-112.517 1297.87,-113.096 1304.84,-117.916 1306.33,-112.517"/>
</g>
<!-- cache -->
<g id="node11" class="node"><title>cache</title>
<ellipse fill="lightyellow" stroke="black" cx="883.5" cy="-167" rx="74.4564" ry="18"/>
<text text-anchor="middle" x="883.5" y="-164.8" font-family="Verdana" font-size="9.00">シェーダーキャッシュ</text>
</g>
<!-- cache1&#45;&gt;cache -->
<g id="edge14" class="edge"><title>cache1&#45;&gt;cache</title>
<path fill="none" stroke="black" d="M329.844,-230.309C447.535,-217.064 687.514,-190.056 809.197,-176.362"/>
<polygon fill="black" stroke="black" points="809.758,-179.117 817.395,-175.439 809.132,-173.552 809.758,-179.117"/>
</g>
<!-- cache2&#45;&gt;cache -->
<g id="edge15" class="edge"><title>cache2&#45;&gt;cache</title>
<path fill="none" stroke="black" d="M667.723,-224.998C712.86,-213.075 779.679,-195.424 826.982,-182.929"/>
<polygon fill="black" stroke="black" points="827.968,-185.565 834.988,-180.815 826.538,-180.151 827.968,-185.565"/>
</g>
<!-- cache3&#45;&gt;cache -->
<g id="edge16" class="edge"><title>cache3&#45;&gt;cache</title>
<path fill="none" stroke="black" d="M883.5,-220.697C883.5,-212.389 883.5,-202.277 883.5,-193.141"/>
<polygon fill="black" stroke="black" points="886.3,-193.104 883.5,-185.104 880.7,-193.104 886.3,-193.104"/>
</g>
<!-- cache4&#45;&gt;cache -->
<g id="edge17" class="edge"><title>cache4&#45;&gt;cache</title>
<path fill="none" stroke="black" d="M1100.09,-224.998C1054.69,-213.05 987.436,-195.351 939.937,-182.852"/>
<polygon fill="black" stroke="black" points="940.645,-180.143 932.195,-180.815 939.219,-185.558 940.645,-180.143"/>
</g>
<!-- cache&#45;&gt;convert -->
<g id="edge18" class="edge"><title>cache&#45;&gt;convert</title>
<path fill="none" stroke="black" d="M932.067,-153.289C972.339,-142.748 1030.48,-127.53 1078.03,-115.085"/>
<polygon fill="black" stroke="black" points="1078.84,-117.768 1085.87,-113.033 1077.42,-112.35 1078.84,-117.768"/>
</g>
<!-- R1 -->
<!-- R2 -->
<!-- R1&#45;&gt;R2 -->
<!-- variation1 -->
<g id="node15" class="node"><title>variation1</title>
<ellipse fill="lightyellow" stroke="black" cx="293.5" cy="-409.598" rx="132.872" ry="39.6962"/>
<text text-anchor="start" x="228.5" y="-422.398" font-family="Verdana" font-size="9.00">バリエーションファイル1</text>
<text text-anchor="start" x="268.5" y="-407.198" font-family="Verdana" font-size="8.00">length = 25</text>
<text text-anchor="start" x="211.5" y="-392.198" font-family="Verdana" font-size="8.00">バリエーション: 0 &#45; 24</text>
</g>
<!-- variation1&#45;&gt;compile1 -->
<g id="edge3" class="edge"><title>variation1&#45;&gt;compile1</title>
<path fill="none" stroke="black" d="M245.913,-372.486C231.122,-361.262 215.173,-349.159 201.691,-338.928"/>
<polygon fill="black" stroke="black" points="203.352,-336.674 195.287,-334.069 199.967,-341.135 203.352,-336.674"/>
</g>
<!-- variation2 -->
<g id="node16" class="node"><title>variation2</title>
<ellipse fill="lightyellow" stroke="black" cx="618.5" cy="-409.598" rx="136.443" ry="39.6962"/>
<text text-anchor="start" x="554" y="-422.398" font-family="Verdana" font-size="9.00">バリエーションファイル2</text>
<text text-anchor="start" x="594" y="-407.198" font-family="Verdana" font-size="8.00">length = 25</text>
<text text-anchor="start" x="534.5" y="-392.198" font-family="Verdana" font-size="8.00">バリエーション: 25 &#45; 49</text>
</g>
<!-- variation2&#45;&gt;compile2 -->
<g id="edge5" class="edge"><title>variation2&#45;&gt;compile2</title>
<path fill="none" stroke="black" d="M582.139,-371.408C571.824,-360.858 560.832,-349.615 551.366,-339.933"/>
<polygon fill="black" stroke="black" points="553.283,-337.889 545.688,-334.126 549.279,-341.804 553.283,-337.889"/>
</g>
<!-- variation3 -->
<g id="node17" class="node"><title>variation3</title>
<ellipse fill="lightyellow" stroke="black" cx="946.5" cy="-409.598" rx="136.443" ry="39.6962"/>
<text text-anchor="start" x="882" y="-422.398" font-family="Verdana" font-size="9.00">バリエーションファイル3</text>
<text text-anchor="start" x="922" y="-407.198" font-family="Verdana" font-size="8.00">length = 25</text>
<text text-anchor="start" x="862.5" y="-392.198" font-family="Verdana" font-size="8.00">バリエーション: 50 &#45; 74</text>
</g>
<!-- variation3&#45;&gt;compile3 -->
<g id="edge7" class="edge"><title>variation3&#45;&gt;compile3</title>
<path fill="none" stroke="black" d="M921.057,-370.596C914.363,-360.597 907.289,-350.031 901.108,-340.799"/>
<polygon fill="black" stroke="black" points="903.353,-339.12 896.576,-334.03 898.7,-342.236 903.353,-339.12"/>
</g>
<!-- variation4 -->
<g id="node18" class="node"><title>variation4</title>
<ellipse fill="lightyellow" stroke="black" cx="1274.5" cy="-409.598" rx="136.443" ry="39.6962"/>
<text text-anchor="start" x="1210" y="-422.398" font-family="Verdana" font-size="9.00">バリエーションファイル4</text>
<text text-anchor="start" x="1250" y="-407.198" font-family="Verdana" font-size="8.00">length = 25</text>
<text text-anchor="start" x="1190.5" y="-392.198" font-family="Verdana" font-size="8.00">バリエーション: 75 &#45; 99</text>
</g>
<!-- variation4&#45;&gt;compile4 -->
<g id="edge9" class="edge"><title>variation4&#45;&gt;compile4</title>
<path fill="none" stroke="black" d="M1260.57,-370.053C1257.15,-360.572 1253.55,-350.613 1250.36,-341.789"/>
<polygon fill="black" stroke="black" points="1252.92,-340.621 1247.56,-334.049 1247.65,-342.524 1252.92,-340.621"/>
</g>
</g>
</svg>
