<?xml version="1.0" encoding="UTF-8" standalone="no"?>
<!DOCTYPE svg PUBLIC "-//W3C//DTD SVG 1.1//EN"
 "http://www.w3.org/Graphics/SVG/1.1/DTD/svg11.dtd">
<!-- Generated by graphviz version 2.38.0 (20140413.2041)
 -->
<!-- Pages: 1 -->
<svg width="1448pt" height="481pt"
 viewBox="0.00 0.00 1448.33 480.98" xmlns="http://www.w3.org/2000/svg" xmlns:xlink="http://www.w3.org/1999/xlink">
<g id="graph0" class="graph" transform="scale(1 1) rotate(0) translate(4 476.983)">
<polygon fill="white" stroke="none" points="-4,4 -4,-476.983 1444.33,-476.983 1444.33,4 -4,4"/>
<!-- compile1 -->
<g id="node1" class="node"><title>compile1</title>
<polygon fill="mistyrose" stroke="black" points="339,-379 0,-379 0,-293 339,-293 339,-379"/>
<text text-anchor="start" x="138.5" y="-363.8" font-family="Verdana" font-size="9.00">コンパイル1</text>
<text text-anchor="start" x="12.5" y="-348.6" font-family="Verdana" font-size="8.00">&#45;&#45;shader&#45;cache&#45;directory=&quot;シェーダーキャッシュ1&quot;</text>
<text text-anchor="start" x="139.5" y="-333.6" font-family="Verdana" font-size="8.00">&#45;&#45;skip&#45;convert</text>
<text text-anchor="start" x="108" y="-318.6" font-family="Verdana" font-size="8.00">&#45;&#45;variation&#45;begin&#45;ratio=&quot;0.0&quot;</text>
<text text-anchor="start" x="109.5" y="-303.6" font-family="Verdana" font-size="8.00">&#45;&#45;variation&#45;end&#45;ratio=&quot;0.25&quot;</text>
</g>
<!-- cache1 -->
<g id="node7" class="node"><title>cache1</title>
<ellipse fill="lightyellow" stroke="black" cx="306.5" cy="-239" rx="77.8846" ry="18"/>
<text text-anchor="middle" x="306.5" y="-236.8" font-family="Verdana" font-size="9.00">シェーダーキャッシュ1</text>
</g>
<!-- compile1&#45;&gt;cache1 -->
<g id="edge5" class="edge"><title>compile1&#45;&gt;cache1</title>
<path fill="none" stroke="black" d="M230.388,-292.778C246.332,-281.722 262.833,-270.28 276.379,-260.887"/>
<polygon fill="black" stroke="black" points="278.195,-263.035 283.174,-256.175 275.004,-258.433 278.195,-263.035"/>
</g>
<!-- compile2 -->
<g id="node2" class="node"><title>compile2</title>
<polygon fill="mistyrose" stroke="black" points="696,-379 357,-379 357,-293 696,-293 696,-379"/>
<text text-anchor="start" x="495.5" y="-363.8" font-family="Verdana" font-size="9.00">コンパイル2</text>
<text text-anchor="start" x="369.5" y="-348.6" font-family="Verdana" font-size="8.00">&#45;&#45;shader&#45;cache&#45;directory=&quot;シェーダーキャッシュ2&quot;</text>
<text text-anchor="start" x="496.5" y="-333.6" font-family="Verdana" font-size="8.00">&#45;&#45;skip&#45;convert</text>
<text text-anchor="start" x="462.5" y="-318.6" font-family="Verdana" font-size="8.00">&#45;&#45;variation&#45;begin&#45;ratio=&quot;0.25&quot;</text>
<text text-anchor="start" x="469" y="-303.6" font-family="Verdana" font-size="8.00">&#45;&#45;variation&#45;end&#45;ratio=&quot;0.5&quot;</text>
</g>
<!-- cache2 -->
<g id="node8" class="node"><title>cache2</title>
<ellipse fill="lightyellow" stroke="black" cx="618.5" cy="-239" rx="77.8846" ry="18"/>
<text text-anchor="middle" x="618.5" y="-236.8" font-family="Verdana" font-size="9.00">シェーダーキャッシュ2</text>
</g>
<!-- compile2&#45;&gt;cache2 -->
<g id="edge6" class="edge"><title>compile2&#45;&gt;cache2</title>
<path fill="none" stroke="black" d="M567.388,-292.778C577.37,-282.471 587.677,-271.828 596.398,-262.823"/>
<polygon fill="black" stroke="black" points="598.604,-264.569 602.158,-256.875 594.581,-260.674 598.604,-264.569"/>
</g>
<!-- compile3 -->
<g id="node3" class="node"><title>compile3</title>
<polygon fill="mistyrose" stroke="black" points="1053,-379 714,-379 714,-293 1053,-293 1053,-379"/>
<text text-anchor="start" x="852.5" y="-363.8" font-family="Verdana" font-size="9.00">コンパイル3</text>
<text text-anchor="start" x="726.5" y="-348.6" font-family="Verdana" font-size="8.00">&#45;&#45;shader&#45;cache&#45;directory=&quot;シェーダーキャッシュ3&quot;</text>
<text text-anchor="start" x="853.5" y="-333.6" font-family="Verdana" font-size="8.00">&#45;&#45;skip&#45;convert</text>
<text text-anchor="start" x="822" y="-318.6" font-family="Verdana" font-size="8.00">&#45;&#45;variation&#45;begin&#45;ratio=&quot;0.5&quot;</text>
<text text-anchor="start" x="823.5" y="-303.6" font-family="Verdana" font-size="8.00">&#45;&#45;variation&#45;end&#45;ratio=&quot;0.75&quot;</text>
</g>
<!-- cache3 -->
<g id="node9" class="node"><title>cache3</title>
<ellipse fill="lightyellow" stroke="black" cx="883.5" cy="-239" rx="77.8846" ry="18"/>
<text text-anchor="middle" x="883.5" y="-236.8" font-family="Verdana" font-size="9.00">シェーダーキャッシュ3</text>
</g>
<!-- compile3&#45;&gt;cache3 -->
<g id="edge7" class="edge"><title>compile3&#45;&gt;cache3</title>
<path fill="none" stroke="black" d="M883.5,-292.778C883.5,-283.51 883.5,-273.97 883.5,-265.594"/>
<polygon fill="black" stroke="black" points="886.3,-265.347 883.5,-257.347 880.7,-265.347 886.3,-265.347"/>
</g>
<!-- compile4 -->
<g id="node4" class="node"><title>compile4</title>
<polygon fill="mistyrose" stroke="black" points="1410,-379 1071,-379 1071,-293 1410,-293 1410,-379"/>
<text text-anchor="start" x="1209.5" y="-363.8" font-family="Verdana" font-size="9.00">コンパイル4</text>
<text text-anchor="start" x="1083.5" y="-348.6" font-family="Verdana" font-size="8.00">&#45;&#45;shader&#45;cache&#45;directory=&quot;シェーダーキャッシュ4&quot;</text>
<text text-anchor="start" x="1210.5" y="-333.6" font-family="Verdana" font-size="8.00">&#45;&#45;skip&#45;convert</text>
<text text-anchor="start" x="1176.5" y="-318.6" font-family="Verdana" font-size="8.00">&#45;&#45;variation&#45;begin&#45;ratio=&quot;0.75&quot;</text>
<text text-anchor="start" x="1183" y="-303.6" font-family="Verdana" font-size="8.00">&#45;&#45;variation&#45;end&#45;ratio=&quot;1.0&quot;</text>
</g>
<!-- cache4 -->
<g id="node10" class="node"><title>cache4</title>
<ellipse fill="lightyellow" stroke="black" cx="1149.5" cy="-239" rx="77.8846" ry="18"/>
<text text-anchor="middle" x="1149.5" y="-236.8" font-family="Verdana" font-size="9.00">シェーダーキャッシュ4</text>
</g>
<!-- compile4&#45;&gt;cache4 -->
<g id="edge8" class="edge"><title>compile4&#45;&gt;cache4</title>
<path fill="none" stroke="black" d="M1200.06,-292.778C1190.18,-282.471 1179.99,-271.828 1171.36,-262.823"/>
<polygon fill="black" stroke="black" points="1173.22,-260.715 1165.66,-256.875 1169.18,-264.589 1173.22,-260.715"/>
</g>
<!-- convert -->
<g id="node5" class="node"><title>convert</title>
<polygon fill="mistyrose" stroke="black" points="1327.5,-113 993.5,-113 993.5,-72 1327.5,-72 1327.5,-113"/>
<text text-anchor="start" x="1132" y="-97.3" font-family="Verdana" font-size="9.00">コンバート</text>
<text text-anchor="start" x="1005.5" y="-82.1" font-family="Verdana" font-size="8.00">&#45;&#45;shader&#45;cache&#45;directory=&quot;シェーダーキャッシュ&quot;</text>
</g>
<!-- binary -->
<g id="node12" class="node"><title>binary</title>
<ellipse fill="lightyellow" stroke="black" cx="1160.5" cy="-18" rx="42.2937" ry="18"/>
<text text-anchor="middle" x="1160.5" y="-15.8" font-family="Verdana" font-size="9.00">バイナリー</text>
</g>
<!-- convert&#45;&gt;binary -->
<g id="edge15" class="edge"><title>convert&#45;&gt;binary</title>
<path fill="none" stroke="black" d="M1160.5,-71.6891C1160.5,-63.3013 1160.5,-53.4238 1160.5,-44.5014"/>
<polygon fill="black" stroke="black" points="1163.3,-44.3194 1160.5,-36.3195 1157.7,-44.3195 1163.3,-44.3194"/>
</g>
<!-- source -->
<g id="node6" class="node"><title>source</title>
<ellipse fill="lightyellow" stroke="black" cx="883.5" cy="-443.991" rx="123.988" ry="28.9828"/>
<text text-anchor="start" x="867" y="-448.791" font-family="Verdana" font-size="9.00">ソース</text>
<text text-anchor="start" x="808.5" y="-433.591" font-family="Verdana" font-size="8.00">100 バリエーション</text>
</g>
<!-- source&#45;&gt;compile1 -->
<g id="edge1" class="edge"><title>source&#45;&gt;compile1</title>
<path fill="none" stroke="black" d="M768.718,-433.071C659.81,-422.766 491.804,-404.554 347.5,-379 347.334,-378.971 347.168,-378.941 347.001,-378.912"/>
<polygon fill="black" stroke="black" points="347.844,-376.219 339.472,-377.545 346.843,-381.729 347.844,-376.219"/>
</g>
<!-- source&#45;&gt;compile2 -->
<g id="edge2" class="edge"><title>source&#45;&gt;compile2</title>
<path fill="none" stroke="black" d="M808.661,-420.772C770.199,-409.353 721.909,-395.016 676.206,-381.447"/>
<polygon fill="black" stroke="black" points="676.769,-378.693 668.303,-379.101 675.175,-384.062 676.769,-378.693"/>
</g>
<!-- source&#45;&gt;compile3 -->
<g id="edge3" class="edge"><title>source&#45;&gt;compile3</title>
<path fill="none" stroke="black" d="M883.5,-414.866C883.5,-406.423 883.5,-396.89 883.5,-387.465"/>
<polygon fill="black" stroke="black" points="886.3,-387.239 883.5,-379.239 880.7,-387.239 886.3,-387.239"/>
</g>
<!-- source&#45;&gt;compile4 -->
<g id="edge4" class="edge"><title>source&#45;&gt;compile4</title>
<path fill="none" stroke="black" d="M958.339,-420.772C996.801,-409.353 1045.09,-395.016 1090.79,-381.447"/>
<polygon fill="black" stroke="black" points="1091.82,-384.062 1098.7,-379.101 1090.23,-378.693 1091.82,-384.062"/>
</g>
<!-- source&#45;&gt;convert -->
<g id="edge14" class="edge"><title>source&#45;&gt;convert</title>
<path fill="none" stroke="black" d="M1003.73,-436.925C1153.02,-428.139 1391.43,-409.5 1418.5,-379 1505.59,-280.876 1307.23,-165.287 1210.13,-116.774"/>
<polygon fill="black" stroke="black" points="1211.16,-114.162 1202.75,-113.12 1208.68,-119.18 1211.16,-114.162"/>
</g>
<!-- cache -->
<g id="node11" class="node"><title>cache</title>
<ellipse fill="lightyellow" stroke="black" cx="883.5" cy="-167" rx="74.4564" ry="18"/>
<text text-anchor="middle" x="883.5" y="-164.8" font-family="Verdana" font-size="9.00">シェーダーキャッシュ</text>
</g>
<!-- cache1&#45;&gt;cache -->
<g id="edge9" class="edge"><title>cache1&#45;&gt;cache</title>
<path fill="none" stroke="black" d="M373.818,-229.833C482.866,-216.604 697.277,-190.592 810.104,-176.904"/>
<polygon fill="black" stroke="black" points="810.775,-179.643 818.38,-175.9 810.101,-174.084 810.775,-179.643"/>
</g>
<!-- cache2&#45;&gt;cache -->
<g id="edge10" class="edge"><title>cache2&#45;&gt;cache</title>
<path fill="none" stroke="black" d="M667.723,-224.998C712.86,-213.075 779.679,-195.424 826.982,-182.929"/>
<polygon fill="black" stroke="black" points="827.968,-185.565 834.988,-180.815 826.538,-180.151 827.968,-185.565"/>
</g>
<!-- cache3&#45;&gt;cache -->
<g id="edge11" class="edge"><title>cache3&#45;&gt;cache</title>
<path fill="none" stroke="black" d="M883.5,-220.697C883.5,-212.389 883.5,-202.277 883.5,-193.141"/>
<polygon fill="black" stroke="black" points="886.3,-193.104 883.5,-185.104 880.7,-193.104 886.3,-193.104"/>
</g>
<!-- cache4&#45;&gt;cache -->
<g id="edge12" class="edge"><title>cache4&#45;&gt;cache</title>
<path fill="none" stroke="black" d="M1100.09,-224.998C1054.69,-213.05 987.436,-195.351 939.937,-182.852"/>
<polygon fill="black" stroke="black" points="940.645,-180.143 932.195,-180.815 939.219,-185.558 940.645,-180.143"/>
</g>
<!-- cache&#45;&gt;convert -->
<g id="edge13" class="edge"><title>cache&#45;&gt;convert</title>
<path fill="none" stroke="black" d="M932.067,-153.289C972.339,-142.748 1030.48,-127.53 1078.03,-115.085"/>
<polygon fill="black" stroke="black" points="1078.84,-117.768 1085.87,-113.033 1077.42,-112.35 1078.84,-117.768"/>
</g>
</g>
</svg>
