<?xml version="1.0" encoding="UTF-8" standalone="no"?>
<!DOCTYPE svg PUBLIC "-//W3C//DTD SVG 1.1//EN"
 "http://www.w3.org/Graphics/SVG/1.1/DTD/svg11.dtd">
<!-- Generated by graphviz version 2.38.0 (20140413.2041)
 -->
<!-- Pages: 1 -->
<svg width="1447pt" height="466pt"
 viewBox="0.00 0.00 1447.36 465.98" xmlns="http://www.w3.org/2000/svg" xmlns:xlink="http://www.w3.org/1999/xlink">
<g id="graph0" class="graph" transform="scale(1 1) rotate(0) translate(4 461.983)">
<polygon fill="white" stroke="none" points="-4,4 -4,-461.983 1443.36,-461.983 1443.36,4 -4,4"/>
<!-- compile1 -->
<g id="node1" class="node"><title>compile1</title>
<polygon fill="mistyrose" stroke="black" points="339,-364 0,-364 0,-293 339,-293 339,-364"/>
<text text-anchor="start" x="138.5" y="-348.3" font-family="Verdana" font-size="9.00">コンパイル1</text>
<text text-anchor="start" x="12.5" y="-333.1" font-family="Verdana" font-size="8.00">&#45;&#45;shader&#45;cache&#45;directory=&quot;シェーダーキャッシュ1&quot;</text>
<text text-anchor="start" x="126.5" y="-318.1" font-family="Verdana" font-size="8.00">variationCount = 25</text>
<text text-anchor="start" x="88" y="-303.1" font-family="Verdana" font-size="8.00">バリエーション: 0 &#45; 24</text>
</g>
<!-- cache1 -->
<g id="node7" class="node"><title>cache1</title>
<ellipse fill="lightyellow" stroke="black" cx="306.5" cy="-239" rx="77.8846" ry="18"/>
<text text-anchor="middle" x="306.5" y="-236.8" font-family="Verdana" font-size="9.00">シェーダーキャッシュ1</text>
</g>
<!-- compile1&#45;&gt;cache1 -->
<g id="edge5" class="edge"><title>compile1&#45;&gt;cache1</title>
<path fill="none" stroke="black" d="M223.646,-292.918C240.743,-281.998 259.089,-270.28 274.161,-260.654"/>
<polygon fill="black" stroke="black" points="276.042,-262.775 281.277,-256.109 273.028,-258.056 276.042,-262.775"/>
</g>
<!-- compile2 -->
<g id="node2" class="node"><title>compile2</title>
<polygon fill="mistyrose" stroke="black" points="696,-364 357,-364 357,-293 696,-293 696,-364"/>
<text text-anchor="start" x="495.5" y="-348.3" font-family="Verdana" font-size="9.00">コンパイル2</text>
<text text-anchor="start" x="369.5" y="-333.1" font-family="Verdana" font-size="8.00">&#45;&#45;shader&#45;cache&#45;directory=&quot;シェーダーキャッシュ2&quot;</text>
<text text-anchor="start" x="483.5" y="-318.1" font-family="Verdana" font-size="8.00">variationCount = 25</text>
<text text-anchor="start" x="442.5" y="-303.1" font-family="Verdana" font-size="8.00">バリエーション: 25 &#45; 49</text>
</g>
<!-- cache2 -->
<g id="node8" class="node"><title>cache2</title>
<ellipse fill="lightyellow" stroke="black" cx="618.5" cy="-239" rx="77.8846" ry="18"/>
<text text-anchor="middle" x="618.5" y="-236.8" font-family="Verdana" font-size="9.00">シェーダーキャッシュ2</text>
</g>
<!-- compile2&#45;&gt;cache2 -->
<g id="edge6" class="edge"><title>compile2&#45;&gt;cache2</title>
<path fill="none" stroke="black" d="M562.861,-292.918C573.675,-282.632 585.233,-271.639 594.998,-262.353"/>
<polygon fill="black" stroke="black" points="596.956,-264.355 600.823,-256.813 593.096,-260.297 596.956,-264.355"/>
</g>
<!-- compile3 -->
<g id="node3" class="node"><title>compile3</title>
<polygon fill="mistyrose" stroke="black" points="1053,-364 714,-364 714,-293 1053,-293 1053,-364"/>
<text text-anchor="start" x="852.5" y="-348.3" font-family="Verdana" font-size="9.00">コンパイル3</text>
<text text-anchor="start" x="726.5" y="-333.1" font-family="Verdana" font-size="8.00">&#45;&#45;shader&#45;cache&#45;directory=&quot;シェーダーキャッシュ3&quot;</text>
<text text-anchor="start" x="840.5" y="-318.1" font-family="Verdana" font-size="8.00">variationCount = 25</text>
<text text-anchor="start" x="799.5" y="-303.1" font-family="Verdana" font-size="8.00">バリエーション: 50 &#45; 74</text>
</g>
<!-- cache3 -->
<g id="node9" class="node"><title>cache3</title>
<ellipse fill="lightyellow" stroke="black" cx="883.5" cy="-239" rx="77.8846" ry="18"/>
<text text-anchor="middle" x="883.5" y="-236.8" font-family="Verdana" font-size="9.00">シェーダーキャッシュ3</text>
</g>
<!-- compile3&#45;&gt;cache3 -->
<g id="edge7" class="edge"><title>compile3&#45;&gt;cache3</title>
<path fill="none" stroke="black" d="M883.5,-292.918C883.5,-283.746 883.5,-274.012 883.5,-265.426"/>
<polygon fill="black" stroke="black" points="886.3,-265.287 883.5,-257.287 880.7,-265.287 886.3,-265.287"/>
</g>
<!-- compile4 -->
<g id="node4" class="node"><title>compile4</title>
<polygon fill="mistyrose" stroke="black" points="1410,-364 1071,-364 1071,-293 1410,-293 1410,-364"/>
<text text-anchor="start" x="1209.5" y="-348.3" font-family="Verdana" font-size="9.00">コンパイル4</text>
<text text-anchor="start" x="1083.5" y="-333.1" font-family="Verdana" font-size="8.00">&#45;&#45;shader&#45;cache&#45;directory=&quot;シェーダーキャッシュ4&quot;</text>
<text text-anchor="start" x="1197.5" y="-318.1" font-family="Verdana" font-size="8.00">variationCount = 25</text>
<text text-anchor="start" x="1156.5" y="-303.1" font-family="Verdana" font-size="8.00">バリエーション: 75 &#45; 99</text>
</g>
<!-- cache4 -->
<g id="node10" class="node"><title>cache4</title>
<ellipse fill="lightyellow" stroke="black" cx="1149.5" cy="-239" rx="77.8846" ry="18"/>
<text text-anchor="middle" x="1149.5" y="-236.8" font-family="Verdana" font-size="9.00">シェーダーキャッシュ4</text>
</g>
<!-- compile4&#45;&gt;cache4 -->
<g id="edge8" class="edge"><title>compile4&#45;&gt;cache4</title>
<path fill="none" stroke="black" d="M1204.53,-292.918C1193.94,-282.729 1182.62,-271.847 1173.02,-262.616"/>
<polygon fill="black" stroke="black" points="1174.69,-260.339 1166.99,-256.813 1170.81,-264.376 1174.69,-260.339"/>
</g>
<!-- convert -->
<g id="node5" class="node"><title>convert</title>
<polygon fill="mistyrose" stroke="black" points="1327.5,-113 993.5,-113 993.5,-72 1327.5,-72 1327.5,-113"/>
<text text-anchor="start" x="1132" y="-97.3" font-family="Verdana" font-size="9.00">コンバート</text>
<text text-anchor="start" x="1005.5" y="-82.1" font-family="Verdana" font-size="8.00">&#45;&#45;shader&#45;cache&#45;directory=&quot;シェーダーキャッシュ&quot;</text>
</g>
<!-- binary -->
<g id="node12" class="node"><title>binary</title>
<ellipse fill="lightyellow" stroke="black" cx="1160.5" cy="-18" rx="42.2937" ry="18"/>
<text text-anchor="middle" x="1160.5" y="-15.8" font-family="Verdana" font-size="9.00">バイナリー</text>
</g>
<!-- convert&#45;&gt;binary -->
<g id="edge15" class="edge"><title>convert&#45;&gt;binary</title>
<path fill="none" stroke="black" d="M1160.5,-71.6891C1160.5,-63.3013 1160.5,-53.4238 1160.5,-44.5014"/>
<polygon fill="black" stroke="black" points="1163.3,-44.3194 1160.5,-36.3195 1157.7,-44.3195 1163.3,-44.3194"/>
</g>
<!-- source -->
<g id="node6" class="node"><title>source</title>
<ellipse fill="lightyellow" stroke="black" cx="883.5" cy="-428.991" rx="123.988" ry="28.9828"/>
<text text-anchor="start" x="867" y="-433.791" font-family="Verdana" font-size="9.00">ソース</text>
<text text-anchor="start" x="808.5" y="-418.591" font-family="Verdana" font-size="8.00">100 バリエーション</text>
</g>
<!-- source&#45;&gt;compile1 -->
<g id="edge1" class="edge"><title>source&#45;&gt;compile1</title>
<path fill="none" stroke="black" d="M770.758,-416.937C662.067,-405.712 493.099,-386.771 347.5,-364 347.325,-363.973 347.15,-363.945 346.975,-363.918"/>
<polygon fill="black" stroke="black" points="347.38,-361.147 339.039,-362.653 346.498,-366.677 347.38,-361.147"/>
</g>
<!-- source&#45;&gt;compile2 -->
<g id="edge2" class="edge"><title>source&#45;&gt;compile2</title>
<path fill="none" stroke="black" d="M805.155,-406.377C762.487,-394.606 708.532,-379.72 659.488,-366.189"/>
<polygon fill="black" stroke="black" points="660.118,-363.459 651.661,-364.03 658.628,-368.857 660.118,-363.459"/>
</g>
<!-- source&#45;&gt;compile3 -->
<g id="edge3" class="edge"><title>source&#45;&gt;compile3</title>
<path fill="none" stroke="black" d="M883.5,-399.768C883.5,-391.151 883.5,-381.476 883.5,-372.126"/>
<polygon fill="black" stroke="black" points="886.3,-372.027 883.5,-364.027 880.7,-372.028 886.3,-372.027"/>
</g>
<!-- source&#45;&gt;compile4 -->
<g id="edge4" class="edge"><title>source&#45;&gt;compile4</title>
<path fill="none" stroke="black" d="M961.845,-406.377C1004.51,-394.606 1058.47,-379.72 1107.51,-366.189"/>
<polygon fill="black" stroke="black" points="1108.37,-368.857 1115.34,-364.03 1106.88,-363.459 1108.37,-368.857"/>
</g>
<!-- source&#45;&gt;convert -->
<g id="edge14" class="edge"><title>source&#45;&gt;convert</title>
<path fill="none" stroke="black" d="M1003.73,-421.925C1153.02,-413.139 1391.43,-394.5 1418.5,-364 1502.26,-269.625 1309.96,-162.568 1212.62,-116.534"/>
<polygon fill="black" stroke="black" points="1213.64,-113.922 1205.21,-113.062 1211.27,-118.993 1213.64,-113.922"/>
</g>
<!-- cache -->
<g id="node11" class="node"><title>cache</title>
<ellipse fill="lightyellow" stroke="black" cx="883.5" cy="-167" rx="74.4564" ry="18"/>
<text text-anchor="middle" x="883.5" y="-164.8" font-family="Verdana" font-size="9.00">シェーダーキャッシュ</text>
</g>
<!-- cache1&#45;&gt;cache -->
<g id="edge9" class="edge"><title>cache1&#45;&gt;cache</title>
<path fill="none" stroke="black" d="M373.818,-229.833C482.866,-216.604 697.277,-190.592 810.104,-176.904"/>
<polygon fill="black" stroke="black" points="810.775,-179.643 818.38,-175.9 810.101,-174.084 810.775,-179.643"/>
</g>
<!-- cache2&#45;&gt;cache -->
<g id="edge10" class="edge"><title>cache2&#45;&gt;cache</title>
<path fill="none" stroke="black" d="M667.723,-224.998C712.86,-213.075 779.679,-195.424 826.982,-182.929"/>
<polygon fill="black" stroke="black" points="827.968,-185.565 834.988,-180.815 826.538,-180.151 827.968,-185.565"/>
</g>
<!-- cache3&#45;&gt;cache -->
<g id="edge11" class="edge"><title>cache3&#45;&gt;cache</title>
<path fill="none" stroke="black" d="M883.5,-220.697C883.5,-212.389 883.5,-202.277 883.5,-193.141"/>
<polygon fill="black" stroke="black" points="886.3,-193.104 883.5,-185.104 880.7,-193.104 886.3,-193.104"/>
</g>
<!-- cache4&#45;&gt;cache -->
<g id="edge12" class="edge"><title>cache4&#45;&gt;cache</title>
<path fill="none" stroke="black" d="M1100.09,-224.998C1054.69,-213.05 987.436,-195.351 939.937,-182.852"/>
<polygon fill="black" stroke="black" points="940.645,-180.143 932.195,-180.815 939.219,-185.558 940.645,-180.143"/>
</g>
<!-- cache&#45;&gt;convert -->
<g id="edge13" class="edge"><title>cache&#45;&gt;convert</title>
<path fill="none" stroke="black" d="M932.067,-153.289C972.339,-142.748 1030.48,-127.53 1078.03,-115.085"/>
<polygon fill="black" stroke="black" points="1078.84,-117.768 1085.87,-113.033 1077.42,-112.35 1078.84,-117.768"/>
</g>
</g>
</svg>
