<?xml version="1.0" encoding="UTF-8" standalone="no"?>
<!DOCTYPE svg PUBLIC "-//W3C//DTD SVG 1.1//EN"
 "http://www.w3.org/Graphics/SVG/1.1/DTD/svg11.dtd">
<!-- Generated by graphviz version 2.38.0 (20140413.2041)
 -->
<!-- Pages: 1 -->
<svg width="686pt" height="812pt"
 viewBox="0.00 0.00 686.00 812.00" xmlns="http://www.w3.org/2000/svg" xmlns:xlink="http://www.w3.org/1999/xlink">
<g id="graph0" class="graph" transform="scale(1 1) rotate(0) translate(4 808)">
<polygon fill="white" stroke="none" points="-4,4 -4,-808 682,-808 682,4 -4,4"/>
<!-- MemoryPool -->
<g id="node1" class="node"><title>MemoryPool</title>
<ellipse fill="lightyellow" stroke="blue" cx="324.401" cy="-422.233" rx="42.949" ry="18"/>
<text text-anchor="middle" x="324.401" y="-420.033" font-family="Verdana" font-size="9.00">MemoryPool</text>
</g>
<!-- DescriptorPool -->
<g id="node2" class="node"><title>DescriptorPool</title>
<ellipse fill="lightyellow" stroke="blue" cx="265.105" cy="-609.734" rx="49.1497" ry="18"/>
<text text-anchor="middle" x="265.105" y="-607.534" font-family="Verdana" font-size="9.00">DescriptorPool</text>
</g>
<!-- MemoryPool&#45;&gt;DescriptorPool -->
<g id="edge22" class="edge"><title>MemoryPool&#45;&gt;DescriptorPool</title>
<path fill="none" stroke="black" d="M318.715,-440.212C308.134,-473.671 285.39,-545.59 273.205,-584.121"/>
<polygon fill="black" stroke="black" points="270.516,-583.338 270.773,-591.81 275.855,-585.027 270.516,-583.338"/>
</g>
<!-- Buffer -->
<g id="node20" class="node"><title>Buffer</title>
<ellipse fill="lightyellow" stroke="black" cx="178.374" cy="-515.035" rx="27" ry="18"/>
<text text-anchor="middle" x="178.374" y="-512.835" font-family="Verdana" font-size="9.00">Buffer</text>
</g>
<!-- MemoryPool&#45;&gt;Buffer -->
<g id="edge23" class="edge"><title>MemoryPool&#45;&gt;Buffer</title>
<path fill="none" stroke="black" d="M300.614,-437.35C274.352,-454.04 232.184,-480.838 204.881,-498.19"/>
<polygon fill="black" stroke="black" points="203.189,-495.947 197.939,-502.601 206.193,-500.674 203.189,-495.947"/>
</g>
<!-- Texture -->
<g id="node21" class="node"><title>Texture</title>
<ellipse fill="lightyellow" stroke="black" cx="453.819" cy="-583.622" rx="30.6995" ry="18"/>
<text text-anchor="middle" x="453.819" y="-581.422" font-family="Verdana" font-size="9.00">Texture</text>
</g>
<!-- MemoryPool&#45;&gt;Texture -->
<g id="edge24" class="edge"><title>MemoryPool&#45;&gt;Texture</title>
<path fill="none" stroke="black" d="M338.251,-439.505C361.628,-468.657 408.928,-527.641 435.188,-560.389"/>
<polygon fill="black" stroke="black" points="433.267,-562.469 440.456,-566.958 437.636,-558.965 433.267,-562.469"/>
</g>
<!-- DescriptorSlot -->
<g id="node3" class="node"><title>DescriptorSlot</title>
<ellipse fill="lightyellow" stroke="blue" cx="199.21" cy="-785.92" rx="47.8403" ry="18"/>
<text text-anchor="middle" x="199.21" y="-783.72" font-family="Verdana" font-size="9.00">DescriptorSlot</text>
</g>
<!-- DescriptorPool&#45;&gt;DescriptorSlot -->
<g id="edge25" class="edge"><title>DescriptorPool&#45;&gt;DescriptorSlot</title>
<path fill="none" stroke="black" d="M258.424,-627.597C246.682,-658.992 222.311,-724.155 208.782,-760.327"/>
<polygon fill="black" stroke="black" points="206.089,-759.535 205.909,-768.009 211.334,-761.497 206.089,-759.535"/>
</g>
<!-- Pipeline -->
<g id="node4" class="node"><title>Pipeline</title>
<ellipse fill="lightyellow" stroke="blue" cx="397.555" cy="-120.924" rx="30.6995" ry="18"/>
<text text-anchor="middle" x="397.555" y="-118.724" font-family="Verdana" font-size="9.00">Pipeline</text>
</g>
<!-- nn::vi::Layer -->
<g id="node5" class="node"><title>nn::vi::Layer</title>
<ellipse fill="lightyellow" stroke="black" cx="500.564" cy="-417.373" rx="44.412" ry="18"/>
<text text-anchor="middle" x="500.564" y="-415.173" font-family="Verdana" font-size="9.00">nn::vi::Layer</text>
</g>
<!-- SwapChain -->
<g id="node6" class="node"><title>SwapChain</title>
<ellipse fill="lightyellow" stroke="black" cx="537.034" cy="-463.926" rx="40.3292" ry="18"/>
<text text-anchor="middle" x="537.034" y="-461.726" font-family="Verdana" font-size="9.00">SwapChain</text>
</g>
<!-- nn::vi::Layer&#45;&gt;SwapChain -->
<g id="edge1" class="edge"><title>nn::vi::Layer&#45;&gt;SwapChain</title>
<path fill="none" stroke="black" d="M514.144,-434.707C515.587,-436.549 517.072,-438.444 518.558,-440.342"/>
<polygon fill="black" stroke="black" points="516.426,-442.161 523.564,-446.732 520.835,-438.707 516.426,-442.161"/>
</g>
<!-- Device -->
<g id="node7" class="node"><title>Device</title>
<ellipse fill="lightyellow" stroke="black" cx="323.361" cy="-178.729" rx="27.2716" ry="18"/>
<text text-anchor="middle" x="323.361" y="-176.529" font-family="Verdana" font-size="9.00">Device</text>
</g>
<!-- Device&#45;&gt;MemoryPool -->
<g id="edge6" class="edge"><title>Device&#45;&gt;MemoryPool</title>
<path fill="none" stroke="black" d="M323.439,-197.032C323.622,-239.795 324.077,-346.393 324.289,-396.031"/>
<polygon fill="black" stroke="black" points="321.489,-396.063 324.323,-404.051 327.089,-396.039 321.489,-396.063"/>
</g>
<!-- Queue -->
<g id="node8" class="node"><title>Queue</title>
<ellipse fill="lightyellow" stroke="black" cx="232.323" cy="-279.173" rx="27.9273" ry="18"/>
<text text-anchor="middle" x="232.323" y="-276.973" font-family="Verdana" font-size="9.00">Queue</text>
</g>
<!-- Device&#45;&gt;Queue -->
<g id="edge2" class="edge"><title>Device&#45;&gt;Queue</title>
<path fill="none" stroke="black" d="M309.136,-194.424C293.77,-211.377 269.183,-238.505 251.976,-257.489"/>
<polygon fill="black" stroke="black" points="249.745,-255.781 246.447,-263.589 253.895,-259.542 249.745,-255.781"/>
</g>
<!-- Fence -->
<g id="node9" class="node"><title>Fence</title>
<ellipse fill="lightyellow" stroke="black" cx="303.985" cy="-17.7008" rx="27" ry="18"/>
<text text-anchor="middle" x="303.985" y="-15.5008" font-family="Verdana" font-size="9.00">Fence</text>
</g>
<!-- Device&#45;&gt;Fence -->
<g id="edge3" class="edge"><title>Device&#45;&gt;Fence</title>
<path fill="none" stroke="black" d="M321.176,-160.57C317.76,-132.181 311.137,-77.1399 307.183,-44.2827"/>
<polygon fill="black" stroke="black" points="309.927,-43.6486 306.191,-36.0405 304.367,-44.3177 309.927,-43.6486"/>
</g>
<!-- Semaphore -->
<g id="node10" class="node"><title>Semaphore</title>
<ellipse fill="lightyellow" stroke="black" cx="189.428" cy="-58.5974" rx="40.9837" ry="18"/>
<text text-anchor="middle" x="189.428" y="-56.3974" font-family="Verdana" font-size="9.00">Semaphore</text>
</g>
<!-- Device&#45;&gt;Semaphore -->
<g id="edge4" class="edge"><title>Device&#45;&gt;Semaphore</title>
<path fill="none" stroke="black" d="M307.206,-164.239C284.018,-143.44 241.113,-104.956 213.985,-80.6239"/>
<polygon fill="black" stroke="black" points="215.609,-78.3185 207.784,-75.0611 211.869,-82.4872 215.609,-78.3185"/>
</g>
<!-- CommandBuffer -->
<g id="node11" class="node"><title>CommandBuffer</title>
<ellipse fill="lightyellow" stroke="black" cx="145.034" cy="-215.521" rx="53.2327" ry="18"/>
<text text-anchor="middle" x="145.034" y="-213.321" font-family="Verdana" font-size="9.00">CommandBuffer</text>
</g>
<!-- Device&#45;&gt;CommandBuffer -->
<g id="edge5" class="edge"><title>Device&#45;&gt;CommandBuffer</title>
<path fill="none" stroke="black" d="M297.431,-184.079C271.695,-189.389 231.478,-197.686 198.82,-204.424"/>
<polygon fill="black" stroke="black" points="197.962,-201.742 190.693,-206.101 199.094,-207.227 197.962,-201.742"/>
</g>
<!-- Sampler -->
<g id="node12" class="node"><title>Sampler</title>
<ellipse fill="lightyellow" stroke="black" cx="170.466" cy="-140.038" rx="31.5104" ry="18"/>
<text text-anchor="middle" x="170.466" y="-137.838" font-family="Verdana" font-size="9.00">Sampler</text>
</g>
<!-- Device&#45;&gt;Sampler -->
<g id="edge7" class="edge"><title>Device&#45;&gt;Sampler</title>
<path fill="none" stroke="black" d="M297.77,-172.253C273.088,-166.007 235.462,-156.486 207.509,-149.412"/>
<polygon fill="black" stroke="black" points="207.978,-146.643 199.536,-147.395 206.604,-152.072 207.978,-146.643"/>
</g>
<!-- Shader -->
<g id="node13" class="node"><title>Shader</title>
<ellipse fill="lightyellow" stroke="black" cx="384.986" cy="-19.8742" rx="28.7356" ry="18"/>
<text text-anchor="middle" x="384.986" y="-17.6742" font-family="Verdana" font-size="9.00">Shader</text>
</g>
<!-- Device&#45;&gt;Shader -->
<g id="edge8" class="edge"><title>Device&#45;&gt;Shader</title>
<path fill="none" stroke="black" d="M330.191,-161.122C341.112,-132.972 362.549,-77.7114 375.129,-45.2826"/>
<polygon fill="black" stroke="black" points="377.842,-46.0315 378.125,-37.5603 372.621,-44.0061 377.842,-46.0315"/>
</g>
<!-- RasterizerState -->
<g id="node14" class="node"><title>RasterizerState</title>
<ellipse fill="lightyellow" stroke="black" cx="293.21" cy="-67.2461" rx="51.9231" ry="18"/>
<text text-anchor="middle" x="293.21" y="-65.0461" font-family="Verdana" font-size="9.00">RasterizerState</text>
</g>
<!-- Device&#45;&gt;RasterizerState -->
<g id="edge9" class="edge"><title>Device&#45;&gt;RasterizerState</title>
<path fill="none" stroke="black" d="M318.517,-160.818C313.579,-142.56 305.869,-114.051 300.255,-93.2967"/>
<polygon fill="black" stroke="black" points="302.934,-92.4753 298.142,-85.4838 297.528,-93.9374 302.934,-92.4753"/>
</g>
<!-- BlendState -->
<g id="node15" class="node"><title>BlendState</title>
<ellipse fill="lightyellow" stroke="black" cx="253.839" cy="-117.783" rx="39.0211" ry="18"/>
<text text-anchor="middle" x="253.839" y="-115.583" font-family="Verdana" font-size="9.00">BlendState</text>
</g>
<!-- Device&#45;&gt;BlendState -->
<g id="edge10" class="edge"><title>Device&#45;&gt;BlendState</title>
<path fill="none" stroke="black" d="M306.885,-164.286C298.321,-156.778 287.687,-147.456 278.194,-139.134"/>
<polygon fill="black" stroke="black" points="280.015,-137.006 272.153,-133.838 276.323,-141.217 280.015,-137.006"/>
</g>
<!-- DepthStencilState -->
<g id="node16" class="node"><title>DepthStencilState</title>
<ellipse fill="lightyellow" stroke="black" cx="475.395" cy="-64.4063" rx="58.1254" ry="18"/>
<text text-anchor="middle" x="475.395" y="-62.2063" font-family="Verdana" font-size="9.00">DepthStencilState</text>
</g>
<!-- Device&#45;&gt;DepthStencilState -->
<g id="edge11" class="edge"><title>Device&#45;&gt;DepthStencilState</title>
<path fill="none" stroke="black" d="M341.398,-165.166C367.358,-145.645 415.528,-109.424 446.488,-86.143"/>
<polygon fill="black" stroke="black" points="448.489,-88.1418 453.2,-81.0958 445.123,-83.666 448.489,-88.1418"/>
</g>
<!-- VertexState -->
<g id="node17" class="node"><title>VertexState</title>
<ellipse fill="lightyellow" stroke="black" cx="473.619" cy="-195.253" rx="42.2937" ry="18"/>
<text text-anchor="middle" x="473.619" y="-193.053" font-family="Verdana" font-size="9.00">VertexState</text>
</g>
<!-- Device&#45;&gt;VertexState -->
<g id="edge12" class="edge"><title>Device&#45;&gt;VertexState</title>
<path fill="none" stroke="black" d="M350.224,-181.683C370.777,-183.944 399.686,-187.123 424.357,-189.836"/>
<polygon fill="black" stroke="black" points="424.285,-192.644 432.543,-190.736 424.897,-187.078 424.285,-192.644"/>
</g>
<!-- RenderTargetState -->
<g id="node18" class="node"><title>RenderTargetState</title>
<ellipse fill="lightyellow" stroke="black" cx="462.721" cy="-262.908" rx="61.5538" ry="18"/>
<text text-anchor="middle" x="462.721" y="-260.708" font-family="Verdana" font-size="9.00">RenderTargetState</text>
</g>
<!-- Device&#45;&gt;RenderTargetState -->
<g id="edge13" class="edge"><title>Device&#45;&gt;RenderTargetState</title>
<path fill="none" stroke="black" d="M343.625,-190.97C365.939,-204.448 402.183,-226.341 428.835,-242.44"/>
<polygon fill="black" stroke="black" points="427.438,-244.867 435.734,-246.607 430.334,-240.074 427.438,-244.867"/>
</g>
<!-- ViewportScissorState -->
<g id="node19" class="node"><title>ViewportScissorState</title>
<ellipse fill="lightyellow" stroke="black" cx="515.214" cy="-128.131" rx="67.6" ry="18"/>
<text text-anchor="middle" x="515.214" y="-125.931" font-family="Verdana" font-size="9.00">ViewportScissorState</text>
</g>
<!-- Device&#45;&gt;ViewportScissorState -->
<g id="edge14" class="edge"><title>Device&#45;&gt;ViewportScissorState</title>
<path fill="none" stroke="black" d="M348.838,-172.01C376.793,-164.638 422.538,-152.573 458.993,-142.959"/>
<polygon fill="black" stroke="black" points="460.071,-145.57 467.093,-140.823 458.643,-140.155 460.071,-145.57"/>
</g>
<!-- Shader&#45;&gt;Pipeline -->
<g id="edge15" class="edge"><title>Shader&#45;&gt;Pipeline</title>
<path fill="none" stroke="black" d="M387.233,-37.9399C389.187,-53.6487 392.044,-76.6173 394.257,-94.4096"/>
<polygon fill="black" stroke="black" points="391.519,-95.0806 395.285,-102.674 397.076,-94.3893 391.519,-95.0806"/>
</g>
<!-- RasterizerState&#45;&gt;Pipeline -->
<g id="edge16" class="edge"><title>RasterizerState&#45;&gt;Pipeline</title>
<path fill="none" stroke="black" d="M322.276,-82.1983C336.243,-89.3836 352.98,-97.9932 367.122,-105.268"/>
<polygon fill="black" stroke="black" points="365.857,-107.766 374.252,-108.936 368.419,-102.786 365.857,-107.766"/>
</g>
<!-- BlendState&#45;&gt;Pipeline -->
<g id="edge17" class="edge"><title>BlendState&#45;&gt;Pipeline</title>
<path fill="none" stroke="black" d="M293.11,-118.641C313.417,-119.085 338.128,-119.625 358.415,-120.068"/>
<polygon fill="black" stroke="black" points="358.466,-122.87 366.526,-120.246 358.589,-117.271 358.466,-122.87"/>
</g>
<!-- DepthStencilState&#45;&gt;Pipeline -->
<g id="edge18" class="edge"><title>DepthStencilState&#45;&gt;Pipeline</title>
<path fill="none" stroke="black" d="M452.461,-81.0577C443.368,-87.6605 432.865,-95.2865 423.495,-102.09"/>
<polygon fill="black" stroke="black" points="421.737,-99.9053 416.909,-106.871 425.028,-104.437 421.737,-99.9053"/>
</g>
<!-- VertexState&#45;&gt;Pipeline -->
<g id="edge19" class="edge"><title>VertexState&#45;&gt;Pipeline</title>
<path fill="none" stroke="black" d="M456.738,-178.757C445.706,-167.976 431.192,-153.793 419.299,-142.171"/>
<polygon fill="black" stroke="black" points="421.029,-139.947 413.35,-136.359 417.115,-143.952 421.029,-139.947"/>
</g>
<!-- RenderTargetState&#45;&gt;Pipeline -->
<g id="edge20" class="edge"><title>RenderTargetState&#45;&gt;Pipeline</title>
<path fill="none" stroke="black" d="M454.468,-244.926C442.947,-219.825 421.999,-174.183 408.984,-145.825"/>
<polygon fill="black" stroke="black" points="411.419,-144.419 405.538,-138.316 406.33,-146.755 411.419,-144.419"/>
</g>
<!-- ViewportScissorState&#45;&gt;Pipeline -->
<g id="edge21" class="edge"><title>ViewportScissorState&#45;&gt;Pipeline</title>
<path fill="none" stroke="black" d="M449.162,-124.085C444.808,-123.818 440.507,-123.555 436.357,-123.301"/>
<polygon fill="black" stroke="black" points="436.239,-120.488 428.083,-122.794 435.896,-126.078 436.239,-120.488"/>
</g>
<!-- GpuAddress -->
<g id="node22" class="node"><title>GpuAddress</title>
<ellipse fill="lightyellow" stroke="black" cx="42.9249" cy="-600.532" rx="42.949" ry="18"/>
<text text-anchor="middle" x="42.9249" y="-598.332" font-family="Verdana" font-size="9.00">GpuAddress</text>
</g>
<!-- Buffer&#45;&gt;GpuAddress -->
<g id="edge26" class="edge"><title>Buffer&#45;&gt;GpuAddress</title>
<path fill="none" stroke="black" d="M158.679,-527.467C136.413,-541.522 99.8761,-564.584 73.8079,-581.039"/>
<polygon fill="black" stroke="black" points="72.024,-578.853 66.7535,-585.491 75.0131,-583.589 72.024,-578.853"/>
</g>
<!-- TextureView -->
<g id="node23" class="node"><title>TextureView</title>
<ellipse fill="lightyellow" stroke="black" cx="554.245" cy="-711.949" rx="43.1034" ry="18"/>
<text text-anchor="middle" x="554.245" y="-709.749" font-family="Verdana" font-size="9.00">TextureView</text>
</g>
<!-- Texture&#45;&gt;TextureView -->
<g id="edge27" class="edge"><title>Texture&#45;&gt;TextureView</title>
<path fill="none" stroke="black" d="M466.742,-600.136C484.249,-622.506 515.61,-662.581 535.648,-688.185"/>
<polygon fill="black" stroke="black" points="533.595,-690.106 540.731,-694.68 538.005,-686.654 533.595,-690.106"/>
</g>
<!-- ColorTargetView -->
<g id="node24" class="node"><title>ColorTargetView</title>
<ellipse fill="lightyellow" stroke="black" cx="471.502" cy="-759.525" rx="54.697" ry="18"/>
<text text-anchor="middle" x="471.502" y="-757.325" font-family="Verdana" font-size="9.00">ColorTargetView</text>
</g>
<!-- Texture&#45;&gt;ColorTargetView -->
<g id="edge28" class="edge"><title>Texture&#45;&gt;ColorTargetView</title>
<path fill="none" stroke="black" d="M455.645,-601.784C458.79,-633.071 465.24,-697.242 468.87,-733.35"/>
<polygon fill="black" stroke="black" points="466.1,-733.782 469.686,-741.462 471.671,-733.222 466.1,-733.782"/>
</g>
<!-- DepthStencilView -->
<g id="node25" class="node"><title>DepthStencilView</title>
<ellipse fill="lightyellow" stroke="black" cx="621.649" cy="-643.042" rx="56.6608" ry="18"/>
<text text-anchor="middle" x="621.649" y="-640.842" font-family="Verdana" font-size="9.00">DepthStencilView</text>
</g>
<!-- Texture&#45;&gt;DepthStencilView -->
<g id="edge29" class="edge"><title>Texture&#45;&gt;DepthStencilView</title>
<path fill="none" stroke="black" d="M480.042,-592.906C505.709,-601.993 545.333,-616.022 576.145,-626.931"/>
<polygon fill="black" stroke="black" points="575.3,-629.602 583.776,-629.633 577.169,-624.323 575.3,-629.602"/>
</g>
</g>
</svg>
