<?xml version="1.0" encoding="UTF-8" standalone="no"?>
<!DOCTYPE svg PUBLIC "-//W3C//DTD SVG 1.1//EN"
 "http://www.w3.org/Graphics/SVG/1.1/DTD/svg11.dtd">
<!-- Generated by graphviz version 2.38.0 (20140413.2041)
 -->
<!-- Pages: 1 -->
<svg width="845pt" height="260pt"
 viewBox="0.00 0.00 845.00 260.00" xmlns="http://www.w3.org/2000/svg" xmlns:xlink="http://www.w3.org/1999/xlink">
<g id="graph0" class="graph" transform="scale(1 1) rotate(0) translate(4 256)">
<polygon fill="white" stroke="none" points="-4,4 -4,-256 841,-256 841,4 -4,4"/>
<!-- model -->
<g id="node1" class="node"><title>model</title>
<polygon fill="lightyellow" stroke="black" points="355,-252 293,-252 293,-216 355,-216 355,-252"/>
<text text-anchor="middle" x="324" y="-231.8" font-family="Verdana" font-size="9.00">ResModel</text>
</g>
<!-- vertex -->
<g id="node2" class="node"><title>vertex</title>
<polygon fill="lightyellow" stroke="black" points="82.5,-108 17.5,-108 17.5,-72 82.5,-72 82.5,-108"/>
<text text-anchor="middle" x="50" y="-87.8" font-family="Verdana" font-size="9.00">ResVertex</text>
</g>
<!-- model&#45;&gt;vertex -->
<g id="edge1" class="edge"><title>model&#45;&gt;vertex</title>
<path fill="none" stroke="#4d4d4d" d="M292.836,-229.639C253.228,-224.233 183.895,-210.888 133,-180 105.413,-163.258 81.2,-134.813 66.1543,-114.589"/>
<polygon fill="#4d4d4d" stroke="#4d4d4d" points="68.3839,-112.894 61.4117,-108.075 63.8565,-116.19 68.3839,-112.894"/>
<text text-anchor="middle" x="50.4117" y="-111.875" font-family="Times New Roman,serif" font-size="14.00" fill="orange">0..*</text>
<text text-anchor="middle" x="289.336" y="-233.439" font-family="Times New Roman,serif" font-size="14.00" fill="orange">1</text>
</g>
<!-- shape -->
<g id="node3" class="node"><title>shape</title>
<polygon fill="lightyellow" stroke="black" points="206,-180 142,-180 142,-144 206,-144 206,-180"/>
<text text-anchor="middle" x="174" y="-159.8" font-family="Verdana" font-size="9.00">ResShape</text>
</g>
<!-- model&#45;&gt;shape -->
<g id="edge2" class="edge"><title>model&#45;&gt;shape</title>
<path fill="none" stroke="#4d4d4d" d="M292.92,-218.496C269.901,-207.754 238.359,-193.034 213.544,-181.454"/>
<polygon fill="#4d4d4d" stroke="#4d4d4d" points="214.509,-178.814 206.075,-177.968 212.141,-183.889 214.509,-178.814"/>
<text text-anchor="middle" x="217.075" y="-181.768" font-family="Times New Roman,serif" font-size="14.00" fill="orange">0..*</text>
<text text-anchor="middle" x="289.42" y="-207.296" font-family="Times New Roman,serif" font-size="14.00" fill="orange">1</text>
</g>
<!-- material -->
<g id="node4" class="node"><title>material</title>
<polygon fill="lightyellow" stroke="black" points="523.5,-180 452.5,-180 452.5,-144 523.5,-144 523.5,-180"/>
<text text-anchor="middle" x="488" y="-159.8" font-family="Verdana" font-size="9.00">ResMaterial</text>
</g>
<!-- model&#45;&gt;material -->
<g id="edge3" class="edge"><title>model&#45;&gt;material</title>
<path fill="none" stroke="#4d4d4d" d="M355.233,-219.669C380.548,-208.864 416.505,-193.516 444.616,-181.518"/>
<polygon fill="#4d4d4d" stroke="#4d4d4d" points="446.063,-183.945 452.321,-178.229 443.864,-178.794 446.063,-183.945"/>
<text text-anchor="middle" x="441.321" y="-182.029" font-family="Times New Roman,serif" font-size="14.00" fill="orange">0..*</text>
<text text-anchor="middle" x="358.733" y="-223.469" font-family="Times New Roman,serif" font-size="14.00" fill="orange">1</text>
</g>
<!-- skeleton -->
<g id="node7" class="node"><title>skeleton</title>
<polygon fill="lightyellow" stroke="black" points="759.5,-180 684.5,-180 684.5,-144 759.5,-144 759.5,-180"/>
<text text-anchor="middle" x="722" y="-159.8" font-family="Verdana" font-size="9.00">ResSkeleton</text>
</g>
<!-- model&#45;&gt;skeleton -->
<g id="edge15" class="edge"><title>model&#45;&gt;skeleton</title>
<path fill="none" stroke="#4d4d4d" d="M355.23,-227.507C425.123,-215.215 594.411,-185.44 676.226,-171.051"/>
<polygon fill="#4d4d4d" stroke="#4d4d4d" points="676.945,-173.767 684.339,-169.624 675.975,-168.252 676.945,-173.767"/>
<text text-anchor="middle" x="680.839" y="-173.424" font-family="Times New Roman,serif" font-size="14.00" fill="orange">1</text>
<text text-anchor="middle" x="358.73" y="-231.307" font-family="Times New Roman,serif" font-size="14.00" fill="orange">1</text>
</g>
<!-- vertexAttr -->
<g id="node9" class="node"><title>vertexAttr</title>
<polygon fill="lightyellow" stroke="black" points="82,-36 0,-36 0,-0 82,-0 82,-36"/>
<text text-anchor="middle" x="41" y="-15.8" font-family="Verdana" font-size="9.00">ResVertexAttr</text>
</g>
<!-- vertex&#45;&gt;vertexAttr -->
<g id="edge9" class="edge"><title>vertex&#45;&gt;vertexAttr</title>
<path fill="none" stroke="#4d4d4d" d="M47.7753,-71.6966C46.7072,-63.3893 45.407,-53.2771 44.2324,-44.1407"/>
<polygon fill="#4d4d4d" stroke="#4d4d4d" points="46.9965,-43.6819 43.1991,-36.1043 41.4422,-44.3961 46.9965,-43.6819"/>
<text text-anchor="middle" x="32.1991" y="-39.9043" font-family="Times New Roman,serif" font-size="14.00" fill="orange">1..*</text>
<text text-anchor="middle" x="44.2753" y="-60.4966" font-family="Times New Roman,serif" font-size="14.00" fill="orange">1</text>
</g>
<!-- shape&#45;&gt;vertex -->
<g id="edge14" class="edge"><title>shape&#45;&gt;vertex</title>
<path fill="none" stroke="#4d4d4d" d="M143.666,-143.876C126.703,-134.3 105.416,-122.283 87.4235,-112.126"/>
<polygon fill="#4d4d4d" stroke="#4d4d4d" points="88.7935,-109.684 80.4504,-108.19 86.0405,-114.561 88.7935,-109.684"/>
<text text-anchor="middle" x="76.9504" y="-111.99" font-family="Times New Roman,serif" font-size="14.00" fill="orange">1</text>
<text text-anchor="middle" x="140.166" y="-132.676" font-family="Times New Roman,serif" font-size="14.00" fill="orange">1</text>
</g>
<!-- mesh -->
<g id="node5" class="node"><title>mesh</title>
<polygon fill="lightyellow" stroke="black" points="159.5,-108 100.5,-108 100.5,-72 159.5,-72 159.5,-108"/>
<text text-anchor="middle" x="130" y="-87.8" font-family="Verdana" font-size="9.00">ResMesh</text>
</g>
<!-- shape&#45;&gt;mesh -->
<g id="edge10" class="edge"><title>shape&#45;&gt;mesh</title>
<path fill="none" stroke="#4d4d4d" d="M163.124,-143.697C157.689,-135.05 151.025,-124.449 145.103,-115.027"/>
<polygon fill="#4d4d4d" stroke="#4d4d4d" points="147.379,-113.387 140.751,-108.104 142.638,-116.368 147.379,-113.387"/>
<text text-anchor="middle" x="129.751" y="-111.904" font-family="Times New Roman,serif" font-size="14.00" fill="orange">1..*</text>
<text text-anchor="middle" x="159.624" y="-132.497" font-family="Times New Roman,serif" font-size="14.00" fill="orange">1</text>
</g>
<!-- keyShape -->
<g id="node10" class="node"><title>keyShape</title>
<polygon fill="lightyellow" stroke="black" points="258.5,-108 177.5,-108 177.5,-72 258.5,-72 258.5,-108"/>
<text text-anchor="middle" x="218" y="-87.8" font-family="Verdana" font-size="9.00">ResKeyShape</text>
</g>
<!-- shape&#45;&gt;keyShape -->
<g id="edge4" class="edge"><title>shape&#45;&gt;keyShape</title>
<path fill="none" stroke="#4d4d4d" d="M184.876,-143.697C190.311,-135.05 196.975,-124.449 202.897,-115.027"/>
<polygon fill="#4d4d4d" stroke="#4d4d4d" points="205.362,-116.368 207.249,-108.104 200.621,-113.387 205.362,-116.368"/>
<text text-anchor="middle" x="196.249" y="-111.904" font-family="Times New Roman,serif" font-size="14.00" fill="orange">0..*</text>
<text text-anchor="middle" x="181.376" y="-132.497" font-family="Times New Roman,serif" font-size="14.00" fill="orange">1</text>
</g>
<!-- renderInfo -->
<g id="node11" class="node"><title>renderInfo</title>
<polygon fill="lightyellow" stroke="black" points="363,-108 277,-108 277,-72 363,-72 363,-108"/>
<text text-anchor="middle" x="320" y="-87.8" font-family="Verdana" font-size="9.00">ResRenderInfo</text>
</g>
<!-- material&#45;&gt;renderInfo -->
<g id="edge5" class="edge"><title>material&#45;&gt;renderInfo</title>
<path fill="none" stroke="#4d4d4d" d="M452.372,-146.155C427.896,-135.957 395.11,-122.296 368.29,-111.121"/>
<polygon fill="#4d4d4d" stroke="#4d4d4d" points="369.358,-108.532 360.896,-108.04 367.204,-113.702 369.358,-108.532"/>
<text text-anchor="middle" x="349.896" y="-111.84" font-family="Times New Roman,serif" font-size="14.00" fill="orange">0..*</text>
<text text-anchor="middle" x="448.872" y="-149.955" font-family="Times New Roman,serif" font-size="14.00" fill="orange">1</text>
</g>
<!-- shaderAssign -->
<g id="node12" class="node"><title>shaderAssign</title>
<polygon fill="lightyellow" stroke="black" points="479,-108 381,-108 381,-72 479,-72 479,-108"/>
<text text-anchor="middle" x="430" y="-87.8" font-family="Verdana" font-size="9.00">ResShaderAssign</text>
</g>
<!-- material&#45;&gt;shaderAssign -->
<g id="edge13" class="edge"><title>material&#45;&gt;shaderAssign</title>
<path fill="none" stroke="#4d4d4d" d="M473.663,-143.697C466.358,-134.881 457.369,-124.032 449.45,-114.474"/>
<polygon fill="#4d4d4d" stroke="#4d4d4d" points="451.432,-112.478 444.172,-108.104 447.12,-116.051 451.432,-112.478"/>
<text text-anchor="middle" x="433.172" y="-111.904" font-family="Times New Roman,serif" font-size="14.00" fill="orange">1..*</text>
<text text-anchor="middle" x="470.163" y="-132.497" font-family="Times New Roman,serif" font-size="14.00" fill="orange">1</text>
</g>
<!-- shaderParam -->
<g id="node13" class="node"><title>shaderParam</title>
<polygon fill="lightyellow" stroke="black" points="595,-108 497,-108 497,-72 595,-72 595,-108"/>
<text text-anchor="middle" x="546" y="-87.8" font-family="Verdana" font-size="9.00">ResShaderParam</text>
</g>
<!-- material&#45;&gt;shaderParam -->
<g id="edge6" class="edge"><title>material&#45;&gt;shaderParam</title>
<path fill="none" stroke="#4d4d4d" d="M502.337,-143.697C509.642,-134.881 518.631,-124.032 526.55,-114.474"/>
<polygon fill="#4d4d4d" stroke="#4d4d4d" points="528.88,-116.051 531.828,-108.104 524.568,-112.478 528.88,-116.051"/>
<text text-anchor="middle" x="520.828" y="-111.904" font-family="Times New Roman,serif" font-size="14.00" fill="orange">0..*</text>
<text text-anchor="middle" x="498.837" y="-132.497" font-family="Times New Roman,serif" font-size="14.00" fill="orange">1</text>
</g>
<!-- sampler -->
<g id="node14" class="node"><title>sampler</title>
<polygon fill="lightyellow" stroke="black" points="668.5,-108 613.5,-108 613.5,-72 668.5,-72 668.5,-108"/>
<text text-anchor="middle" x="641" y="-87.8" font-family="Verdana" font-size="9.00">Sampler</text>
</g>
<!-- material&#45;&gt;sampler -->
<g id="edge8" class="edge"><title>material&#45;&gt;sampler</title>
<path fill="none" stroke="#4d4d4d" d="M523.547,-144.782C546.509,-134.3 577.027,-120.358 604,-108 604.554,-107.746 605.113,-107.49 605.676,-107.232"/>
<polygon fill="#4d4d4d" stroke="#4d4d4d" points="607.018,-109.697 613.123,-103.816 604.684,-104.607 607.018,-109.697"/>
<text text-anchor="middle" x="602.123" y="-107.616" font-family="Times New Roman,serif" font-size="14.00" fill="orange">0..*</text>
<text text-anchor="middle" x="520.047" y="-133.582" font-family="Times New Roman,serif" font-size="14.00" fill="orange">1</text>
</g>
<!-- samplerInfo -->
<g id="node15" class="node"><title>samplerInfo</title>
<polygon fill="lightyellow" stroke="black" points="761,-108 687,-108 687,-72 761,-72 761,-108"/>
<text text-anchor="middle" x="724" y="-87.8" font-family="Verdana" font-size="9.00">SamplerInfo</text>
</g>
<!-- material&#45;&gt;samplerInfo -->
<g id="edge7" class="edge"><title>material&#45;&gt;samplerInfo</title>
<path fill="none" stroke="#4d4d4d" d="M523.764,-151.812C561.945,-141.807 624.104,-124.957 677,-108 677.705,-107.774 678.415,-107.544 679.129,-107.311"/>
<polygon fill="#4d4d4d" stroke="#4d4d4d" points="680.192,-109.908 686.886,-104.71 678.411,-104.599 680.192,-109.908"/>
<text text-anchor="middle" x="675.886" y="-108.51" font-family="Times New Roman,serif" font-size="14.00" fill="orange">0..*</text>
<text text-anchor="middle" x="527.264" y="-155.612" font-family="Times New Roman,serif" font-size="14.00" fill="orange">1</text>
</g>
<!-- submesh -->
<g id="node6" class="node"><title>submesh</title>
<polygon fill="lightyellow" stroke="black" points="177.5,-36 100.5,-36 100.5,-0 177.5,-0 177.5,-36"/>
<text text-anchor="middle" x="139" y="-15.8" font-family="Verdana" font-size="9.00">ResSubmesh</text>
</g>
<!-- mesh&#45;&gt;submesh -->
<g id="edge11" class="edge"><title>mesh&#45;&gt;submesh</title>
<path fill="none" stroke="#4d4d4d" d="M132.225,-71.6966C133.293,-63.3893 134.593,-53.2771 135.768,-44.1407"/>
<polygon fill="#4d4d4d" stroke="#4d4d4d" points="138.558,-44.3961 136.801,-36.1043 133.003,-43.6819 138.558,-44.3961"/>
<text text-anchor="middle" x="125.801" y="-39.9043" font-family="Times New Roman,serif" font-size="14.00" fill="orange">1..*</text>
<text text-anchor="middle" x="128.725" y="-60.4966" font-family="Times New Roman,serif" font-size="14.00" fill="orange">1</text>
</g>
<!-- bone -->
<g id="node8" class="node"><title>bone</title>
<polygon fill="lightyellow" stroke="black" points="837,-108 779,-108 779,-72 837,-72 837,-108"/>
<text text-anchor="middle" x="808" y="-87.8" font-family="Verdana" font-size="9.00">ResBone</text>
</g>
<!-- skeleton&#45;&gt;bone -->
<g id="edge12" class="edge"><title>skeleton&#45;&gt;bone</title>
<path fill="none" stroke="#4d4d4d" d="M743.258,-143.697C754.506,-134.542 768.447,-123.195 780.508,-113.377"/>
<polygon fill="#4d4d4d" stroke="#4d4d4d" points="782.549,-115.326 786.986,-108.104 779.014,-110.983 782.549,-115.326"/>
<text text-anchor="middle" x="775.986" y="-111.904" font-family="Times New Roman,serif" font-size="14.00" fill="orange">1..*</text>
<text text-anchor="middle" x="739.758" y="-132.497" font-family="Times New Roman,serif" font-size="14.00" fill="orange">1</text>
</g>
</g>
</svg>
