<?xml version="1.0" encoding="UTF-8" standalone="no"?>
<!DOCTYPE svg PUBLIC "-//W3C//DTD SVG 1.1//EN"
 "http://www.w3.org/Graphics/SVG/1.1/DTD/svg11.dtd">
<!-- Generated by graphviz version 2.38.0 (20140413.2041)
 -->
<!-- Pages: 1 -->
<svg width="838pt" height="354pt"
 viewBox="0.00 0.00 838.00 354.00" xmlns="http://www.w3.org/2000/svg" xmlns:xlink="http://www.w3.org/1999/xlink">
<g id="graph0" class="graph" transform="scale(1 1) rotate(0) translate(4 350)">
<polygon fill="white" stroke="none" points="-4,4 -4,-350 834,-350 834,4 -4,4"/>
<g id="clust1" class="cluster"><title>cluster_shape</title>
<polygon fill="none" stroke="orange" stroke-dasharray="5,2" points="348,-228 348,-302 486,-302 486,-228 348,-228"/>
<text text-anchor="middle" x="417" y="-288.4" font-family="Times New Roman,serif" font-size="12.00" fill="orange">形状を表す層</text>
</g>
<g id="clust3" class="cluster"><title>cluster_submesh</title>
<polygon fill="none" stroke="dodgerblue" stroke-dasharray="5,2" points="8,-64 8,-138 822,-138 822,-64 8,-64"/>
<text text-anchor="middle" x="415" y="-124.4" font-family="Times New Roman,serif" font-size="12.00" fill="dodgerblue">描画の最小単位</text>
</g>
<g id="clust2" class="cluster"><title>cluster_mesh</title>
<polygon fill="none" stroke="forestgreen" stroke-dasharray="5,2" points="257,-146 257,-220 575,-220 575,-146 257,-146"/>
<text text-anchor="middle" x="416" y="-206.4" font-family="Times New Roman,serif" font-size="12.00" fill="forestgreen">LOD モデルを表す層</text>
</g>
<!-- Model -->
<g id="node1" class="node"><title>Model</title>
<polygon fill="aliceblue" stroke="#c1cdcd" points="444,-346 390,-346 390,-310 444,-310 444,-346"/>
<text text-anchor="middle" x="417" y="-325.8" font-family="Verdana" font-size="9.00">モデル</text>
</g>
<!-- Shape0 -->
<g id="node2" class="node"><title>Shape0</title>
<polygon fill="lightyellow" stroke="orange" points="356,-236.5 356,-272.5 478,-272.5 478,-236.5 356,-236.5"/>
<text text-anchor="middle" x="385" y="-252.3" font-family="hiragino" font-size="9.00">シェイプ0</text>
<polyline fill="none" stroke="orange" points="414,-236.5 414,-272.5 "/>
<text text-anchor="middle" x="446" y="-252.3" font-family="hiragino" font-size="9.00">シェイプ1..</text>
</g>
<!-- Model&#45;&gt;Shape0 -->
<g id="edge1" class="edge"><title>Model&#45;&gt;Shape0</title>
<path fill="none" stroke="black" d="M417,-309.692C417,-298.45 417,-283.858 417,-272.649"/>
<text text-anchor="middle" x="406" y="-276.449" font-family="Times New Roman,serif" font-size="14.00" fill="orange">0..*</text>
<text text-anchor="middle" x="413.5" y="-298.492" font-family="Times New Roman,serif" font-size="14.00" fill="orange">1</text>
</g>
<!-- Mesh0 -->
<g id="node3" class="node"><title>Mesh0</title>
<polygon fill="#c1ffc1" stroke="forestgreen" points="425,-154.5 425,-190.5 567,-190.5 567,-154.5 425,-154.5"/>
<text text-anchor="middle" x="459" y="-170.3" font-family="Verdana" font-size="9.00">メッシュ0</text>
<polyline fill="none" stroke="forestgreen" points="493,-154.5 493,-190.5 "/>
<text text-anchor="middle" x="530" y="-170.3" font-family="Verdana" font-size="9.00">メッシュ1..</text>
</g>
<!-- Shape0&#45;&gt;Mesh0 -->
<g id="edge2" class="edge"><title>Shape0:portR&#45;&gt;Mesh0</title>
<path fill="none" stroke="black" d="M446,-235.5C446,-217.524 458.894,-201.816 471.586,-190.709"/>
<text text-anchor="middle" x="482.586" y="-194.509" font-family="Times New Roman,serif" font-size="14.00" fill="orange">1..*</text>
<text text-anchor="middle" x="442.5" y="-224.3" font-family="Times New Roman,serif" font-size="14.00" fill="orange">1</text>
</g>
<!-- Mesh1 -->
<g id="node4" class="node"><title>Mesh1</title>
<polygon fill="#c1ffc1" stroke="forestgreen" points="265,-154.5 265,-190.5 407,-190.5 407,-154.5 265,-154.5"/>
<text text-anchor="middle" x="299" y="-170.3" font-family="Verdana" font-size="9.00">メッシュ0</text>
<polyline fill="none" stroke="forestgreen" points="333,-154.5 333,-190.5 "/>
<text text-anchor="middle" x="370" y="-170.3" font-family="Verdana" font-size="9.00">メッシュ1..</text>
</g>
<!-- Shape0&#45;&gt;Mesh1 -->
<g id="edge3" class="edge"><title>Shape0:portL&#45;&gt;Mesh1</title>
<path fill="none" stroke="black" d="M385,-235.5C385,-217.527 372.169,-201.713 359.639,-190.555"/>
<text text-anchor="middle" x="348.639" y="-194.355" font-family="Times New Roman,serif" font-size="14.00" fill="orange">1..*</text>
<text text-anchor="middle" x="381.5" y="-224.3" font-family="Times New Roman,serif" font-size="14.00" fill="orange">1</text>
</g>
<!-- Submesh0 -->
<g id="node5" class="node"><title>Submesh0</title>
<polygon fill="#cae1ff" stroke="dodgerblue" points="628,-72.5 628,-108.5 814,-108.5 814,-72.5 628,-72.5"/>
<text text-anchor="middle" x="673" y="-88.3" font-family="Verdana" font-size="9.00">サブメッシュ0</text>
<polyline fill="none" stroke="dodgerblue" points="718,-72.5 718,-108.5 "/>
<text text-anchor="middle" x="766" y="-88.3" font-family="Verdana" font-size="9.00">サブメッシュ1..</text>
</g>
<!-- Mesh0&#45;&gt;Submesh0 -->
<g id="edge4" class="edge"><title>Mesh0:portR&#45;&gt;Submesh0</title>
<path fill="none" stroke="black" d="M568,-172.5C622.1,-172.5 675.762,-132.455 702.857,-108.678"/>
<text text-anchor="middle" x="691.857" y="-112.478" font-family="Times New Roman,serif" font-size="14.00" fill="orange">1..*</text>
<text text-anchor="middle" x="571.5" y="-176.3" font-family="Times New Roman,serif" font-size="14.00" fill="orange">1</text>
</g>
<!-- Submesh1 -->
<g id="node6" class="node"><title>Submesh1</title>
<polygon fill="#cae1ff" stroke="dodgerblue" points="424,-72.5 424,-108.5 610,-108.5 610,-72.5 424,-72.5"/>
<text text-anchor="middle" x="469" y="-88.3" font-family="Verdana" font-size="9.00">サブメッシュ0</text>
<polyline fill="none" stroke="dodgerblue" points="514,-72.5 514,-108.5 "/>
<text text-anchor="middle" x="562" y="-88.3" font-family="Verdana" font-size="9.00">サブメッシュ1..</text>
</g>
<!-- Mesh0&#45;&gt;Submesh1 -->
<g id="edge5" class="edge"><title>Mesh0:portL&#45;&gt;Submesh1</title>
<path fill="none" stroke="black" d="M459,-153.5C459,-134.781 473.274,-119.376 487.66,-108.604"/>
<text text-anchor="middle" x="476.66" y="-112.404" font-family="Times New Roman,serif" font-size="14.00" fill="orange">1..*</text>
<text text-anchor="middle" x="455.5" y="-142.3" font-family="Times New Roman,serif" font-size="14.00" fill="orange">1</text>
</g>
<!-- Submesh2 -->
<g id="node7" class="node"><title>Submesh2</title>
<polygon fill="#cae1ff" stroke="dodgerblue" points="220,-72.5 220,-108.5 406,-108.5 406,-72.5 220,-72.5"/>
<text text-anchor="middle" x="265" y="-88.3" font-family="Verdana" font-size="9.00">サブメッシュ0</text>
<polyline fill="none" stroke="dodgerblue" points="310,-72.5 310,-108.5 "/>
<text text-anchor="middle" x="358" y="-88.3" font-family="Verdana" font-size="9.00">サブメッシュ1..</text>
</g>
<!-- Mesh1&#45;&gt;Submesh2 -->
<g id="edge6" class="edge"><title>Mesh1:portR&#45;&gt;Submesh2</title>
<path fill="none" stroke="black" d="M370,-153.5C370,-134.931 355.972,-119.527 341.834,-108.718"/>
<text text-anchor="middle" x="330.834" y="-112.518" font-family="Times New Roman,serif" font-size="14.00" fill="orange">1..*</text>
<text text-anchor="middle" x="366.5" y="-142.3" font-family="Times New Roman,serif" font-size="14.00" fill="orange">1</text>
</g>
<!-- Submesh3 -->
<g id="node8" class="node"><title>Submesh3</title>
<polygon fill="#cae1ff" stroke="dodgerblue" points="16,-72.5 16,-108.5 202,-108.5 202,-72.5 16,-72.5"/>
<text text-anchor="middle" x="61" y="-88.3" font-family="Verdana" font-size="9.00">サブメッシュ0</text>
<polyline fill="none" stroke="dodgerblue" points="106,-72.5 106,-108.5 "/>
<text text-anchor="middle" x="154" y="-88.3" font-family="Verdana" font-size="9.00">サブメッシュ1..</text>
</g>
<!-- Mesh1&#45;&gt;Submesh3 -->
<g id="edge7" class="edge"><title>Mesh1:portL&#45;&gt;Submesh3</title>
<path fill="none" stroke="black" d="M264,-172.5C209.347,-172.5 154.92,-132.455 127.421,-108.678"/>
<text text-anchor="middle" x="116.421" y="-112.478" font-family="Times New Roman,serif" font-size="14.00" fill="orange">1..*</text>
<text text-anchor="middle" x="260.5" y="-176.3" font-family="Times New Roman,serif" font-size="14.00" fill="orange">1</text>
</g>
<!-- Draw0 -->
<g id="node9" class="node"><title>Draw0</title>
<ellipse fill="lightyellow" stroke="black" cx="766" cy="-18" rx="27" ry="18"/>
<text text-anchor="middle" x="766" y="-15.8" font-family="Verdana" font-size="9.00">描画</text>
</g>
<!-- Submesh0&#45;&gt;Draw0 -->
<g id="edge8" class="edge"><title>Submesh0:portR&#45;&gt;Draw0</title>
<path fill="none" stroke="black" d="M766,-71.5C766,-62.6133 766,-52.8804 766,-44.235"/>
<polygon fill="black" stroke="black" points="768.8,-44.0236 766,-36.0236 763.2,-44.0237 768.8,-44.0236"/>
</g>
<!-- Draw1 -->
<g id="node10" class="node"><title>Draw1</title>
<ellipse fill="lightyellow" stroke="black" cx="673" cy="-18" rx="27" ry="18"/>
<text text-anchor="middle" x="673" y="-15.8" font-family="Verdana" font-size="9.00">描画</text>
</g>
<!-- Submesh0&#45;&gt;Draw1 -->
<g id="edge9" class="edge"><title>Submesh0:portL&#45;&gt;Draw1</title>
<path fill="none" stroke="black" d="M673,-71.5C673,-62.6133 673,-52.8804 673,-44.235"/>
<polygon fill="black" stroke="black" points="675.8,-44.0236 673,-36.0236 670.2,-44.0237 675.8,-44.0236"/>
</g>
<!-- Draw2 -->
<g id="node11" class="node"><title>Draw2</title>
<ellipse fill="lightyellow" stroke="black" cx="562" cy="-18" rx="27" ry="18"/>
<text text-anchor="middle" x="562" y="-15.8" font-family="Verdana" font-size="9.00">描画</text>
</g>
<!-- Submesh1&#45;&gt;Draw2 -->
<g id="edge10" class="edge"><title>Submesh1:portR&#45;&gt;Draw2</title>
<path fill="none" stroke="black" d="M562,-71.5C562,-62.6133 562,-52.8804 562,-44.235"/>
<polygon fill="black" stroke="black" points="564.8,-44.0236 562,-36.0236 559.2,-44.0237 564.8,-44.0236"/>
</g>
<!-- Draw3 -->
<g id="node12" class="node"><title>Draw3</title>
<ellipse fill="lightyellow" stroke="black" cx="469" cy="-18" rx="27" ry="18"/>
<text text-anchor="middle" x="469" y="-15.8" font-family="Verdana" font-size="9.00">描画</text>
</g>
<!-- Submesh1&#45;&gt;Draw3 -->
<g id="edge11" class="edge"><title>Submesh1:portL&#45;&gt;Draw3</title>
<path fill="none" stroke="black" d="M469,-71.5C469,-62.6133 469,-52.8804 469,-44.235"/>
<polygon fill="black" stroke="black" points="471.8,-44.0236 469,-36.0236 466.2,-44.0237 471.8,-44.0236"/>
</g>
<!-- Draw4 -->
<g id="node13" class="node"><title>Draw4</title>
<ellipse fill="lightyellow" stroke="black" cx="358" cy="-18" rx="27" ry="18"/>
<text text-anchor="middle" x="358" y="-15.8" font-family="Verdana" font-size="9.00">描画</text>
</g>
<!-- Submesh2&#45;&gt;Draw4 -->
<g id="edge12" class="edge"><title>Submesh2:portR&#45;&gt;Draw4</title>
<path fill="none" stroke="black" d="M358,-71.5C358,-62.6133 358,-52.8804 358,-44.235"/>
<polygon fill="black" stroke="black" points="360.8,-44.0236 358,-36.0236 355.2,-44.0237 360.8,-44.0236"/>
</g>
<!-- Draw5 -->
<g id="node14" class="node"><title>Draw5</title>
<ellipse fill="lightyellow" stroke="black" cx="265" cy="-18" rx="27" ry="18"/>
<text text-anchor="middle" x="265" y="-15.8" font-family="Verdana" font-size="9.00">描画</text>
</g>
<!-- Submesh2&#45;&gt;Draw5 -->
<g id="edge13" class="edge"><title>Submesh2:portL&#45;&gt;Draw5</title>
<path fill="none" stroke="black" d="M265,-71.5C265,-62.6133 265,-52.8804 265,-44.235"/>
<polygon fill="black" stroke="black" points="267.8,-44.0236 265,-36.0236 262.2,-44.0237 267.8,-44.0236"/>
</g>
<!-- Draw6 -->
<g id="node15" class="node"><title>Draw6</title>
<ellipse fill="lightyellow" stroke="black" cx="154" cy="-18" rx="27" ry="18"/>
<text text-anchor="middle" x="154" y="-15.8" font-family="Verdana" font-size="9.00">描画</text>
</g>
<!-- Submesh3&#45;&gt;Draw6 -->
<g id="edge14" class="edge"><title>Submesh3:portR&#45;&gt;Draw6</title>
<path fill="none" stroke="black" d="M154,-71.5C154,-62.6133 154,-52.8804 154,-44.235"/>
<polygon fill="black" stroke="black" points="156.8,-44.0236 154,-36.0236 151.2,-44.0237 156.8,-44.0236"/>
</g>
<!-- Draw7 -->
<g id="node16" class="node"><title>Draw7</title>
<ellipse fill="lightyellow" stroke="black" cx="61" cy="-18" rx="27" ry="18"/>
<text text-anchor="middle" x="61" y="-15.8" font-family="Verdana" font-size="9.00">描画</text>
</g>
<!-- Submesh3&#45;&gt;Draw7 -->
<g id="edge15" class="edge"><title>Submesh3:portL&#45;&gt;Draw7</title>
<path fill="none" stroke="black" d="M61,-71.5C61,-62.6133 61,-52.8804 61,-44.235"/>
<polygon fill="black" stroke="black" points="63.8001,-44.0236 61,-36.0236 58.2001,-44.0237 63.8001,-44.0236"/>
</g>
</g>
</svg>
