<?xml version="1.0" encoding="UTF-8" standalone="no"?>
<!DOCTYPE svg PUBLIC "-//W3C//DTD SVG 1.1//EN"
 "http://www.w3.org/Graphics/SVG/1.1/DTD/svg11.dtd">
<!-- Generated by graphviz version 2.38.0 (20140413.2041)
 -->
<!-- Pages: 1 -->
<svg width="864pt" height="144pt"
 viewBox="0.00 0.00 864.00 144.45" xmlns="http://www.w3.org/2000/svg" xmlns:xlink="http://www.w3.org/1999/xlink">
<g id="graph0" class="graph" transform="scale(0.697802 0.697802) rotate(0) translate(4 203)">
<polygon fill="white" stroke="none" points="-4,4 -4,-203 1234.17,-203 1234.17,4 -4,4"/>
<g id="clust1" class="cluster"><title>cluster_dccTool</title>
<polygon fill="#eed2ee" stroke="black" stroke-width="0.3" points="8,-116 8,-191 176,-191 176,-116 8,-116"/>
<text text-anchor="middle" x="92" y="-175.8" font-family="Times New Roman,serif" font-size="14.00">DCC ツール</text>
</g>
<g id="clust2" class="cluster"><title>cluster_3dEditor</title>
<polygon fill="azure" stroke="black" stroke-width="0.3" points="374.213,-8 374.213,-191 519.213,-191 519.213,-8 374.213,-8"/>
<text text-anchor="middle" x="446.713" y="-175.8" font-family="Times New Roman,serif" font-size="14.00">3DEditor</text>
</g>
<g id="clust4" class="cluster"><title>cluster_binaryConvert</title>
<polygon fill="floralwhite" stroke="black" stroke-width="0.3" points="749.213,-8 749.213,-83 926.213,-83 926.213,-8 749.213,-8"/>
<text text-anchor="middle" x="837.713" y="-67.8" font-family="Times New Roman,serif" font-size="14.00">3D バイナリーコンバーター</text>
</g>
<g id="clust3" class="cluster"><title>cluster_viewer</title>
<polygon fill="bisque" stroke="black" stroke-width="0.3" points="539.213,-62 539.213,-137 729.213,-137 729.213,-62 539.213,-62"/>
<text text-anchor="middle" x="634.213" y="-121.8" font-family="Times New Roman,serif" font-size="14.00">ビューア</text>
</g>
<!-- dccPlugin -->
<g id="node1" class="node"><title>dccPlugin</title>
<polygon fill="lightyellow" stroke="black" stroke-width="0.5" points="168,-160 16,-160 16,-124 168,-124 168,-160"/>
<text text-anchor="middle" x="92" y="-144.8" font-family="Verdana" font-size="9.00">DCC プラグインによる</text>
<text text-anchor="middle" x="92" y="-134.8" font-family="Verdana" font-size="9.00">中間ファイルエクスポート</text>
</g>
<!-- ifFromDccPlugin -->
<g id="node2" class="node"><title>ifFromDccPlugin</title>
<polygon fill="lightyellow" stroke="black" stroke-width="0.5" points="346.32,-160 233.035,-160 203.893,-124 317.177,-124 346.32,-160"/>
<text text-anchor="middle" x="275.106" y="-139.8" font-family="Verdana" font-size="9.00">中間ファイル</text>
</g>
<!-- dccPlugin&#45;&gt;ifFromDccPlugin -->
<g id="edge1" class="edge"><title>dccPlugin&#45;&gt;ifFromDccPlugin</title>
<path fill="none" stroke="black" d="M168.232,-142C182.155,-142 196.576,-142 210.126,-142"/>
<polygon fill="black" stroke="black" points="210.438,-144.8 218.438,-142 210.438,-139.2 210.438,-144.8"/>
</g>
<!-- readIf -->
<g id="node5" class="node"><title>readIf</title>
<polygon fill="lightyellow" stroke="black" stroke-width="0.5" points="511.213,-160 382.213,-160 382.213,-124 511.213,-124 511.213,-160"/>
<text text-anchor="middle" x="446.713" y="-139.8" font-family="Verdana" font-size="9.00">中間ファイル読み込み</text>
</g>
<!-- ifFromDccPlugin&#45;&gt;readIf -->
<g id="edge2" class="edge"><title>ifFromDccPlugin&#45;&gt;readIf</title>
<path fill="none" stroke="black" d="M332.112,-142C345.501,-142 359.978,-142 373.968,-142"/>
<polygon fill="black" stroke="black" points="374.137,-144.8 382.137,-142 374.137,-139.2 374.137,-144.8"/>
</g>
<!-- ifFileFrom3dEditor -->
<g id="node3" class="node"><title>ifFileFrom3dEditor</title>
<polygon fill="lightyellow" stroke="black" stroke-width="0.5" points="705.426,-52 592.142,-52 563,-16 676.284,-16 705.426,-52"/>
<text text-anchor="middle" x="634.213" y="-31.8" font-family="Verdana" font-size="9.00">中間ファイル</text>
</g>
<!-- binaryConvert -->
<g id="node9" class="node"><title>binaryConvert</title>
<polygon fill="lightyellow" stroke="black" stroke-width="0.5" points="907.213,-52 767.213,-52 767.213,-16 907.213,-16 907.213,-52"/>
<text text-anchor="middle" x="837.213" y="-31.8" font-family="Verdana" font-size="9.00">バイナリーリソース変換</text>
</g>
<!-- ifFileFrom3dEditor&#45;&gt;binaryConvert -->
<g id="edge5" class="edge"><title>ifFileFrom3dEditor&#45;&gt;binaryConvert</title>
<path fill="none" stroke="black" d="M690.936,-34C711.941,-34 736.227,-34 758.857,-34"/>
<polygon fill="black" stroke="black" points="759.11,-36.8001 767.11,-34 759.11,-31.2001 759.11,-36.8001"/>
</g>
<!-- binaryFile -->
<g id="node4" class="node"><title>binaryFile</title>
<polygon fill="lightyellow" stroke="black" stroke-width="0.5" points="1230.15,-52 1010.69,-52 954.233,-16 1173.7,-16 1230.15,-52"/>
<text text-anchor="middle" x="1092.19" y="-31.8" font-family="Verdana" font-size="9.00">バイナリーリソースファイル</text>
</g>
<!-- editIf -->
<g id="node6" class="node"><title>editIf</title>
<polygon fill="lightyellow" stroke="black" stroke-width="0.5" points="505.713,-106 387.713,-106 387.713,-70 505.713,-70 505.713,-106"/>
<text text-anchor="middle" x="446.713" y="-90.8" font-family="Verdana" font-size="9.00">中間ファイル編集</text>
<text text-anchor="middle" x="446.713" y="-80.8" font-family="Verdana" font-size="9.00">アニメーション作成</text>
</g>
<!-- preview -->
<g id="node8" class="node"><title>preview</title>
<polygon fill="lightyellow" stroke="black" stroke-width="0.5" points="721.213,-106 547.213,-106 547.213,-70 721.213,-70 721.213,-106"/>
<text text-anchor="middle" x="634.213" y="-90.8" font-family="Verdana" font-size="9.00">ビューアライブラリを使用した</text>
<text text-anchor="middle" x="634.213" y="-80.8" font-family="Verdana" font-size="9.00">リアルタイム編集</text>
</g>
<!-- editIf&#45;&gt;preview -->
<g id="edge3" class="edge"><title>editIf&#45;&gt;preview</title>
<path fill="none" stroke="black" d="M513.983,-88C522.106,-88 530.524,-88 538.959,-88"/>
<polygon fill="black" stroke="black" points="513.897,-85.2001 505.897,-88 513.897,-90.8001 513.897,-85.2001"/>
<polygon fill="black" stroke="black" points="539.042,-90.8001 547.042,-88 539.042,-85.2001 539.042,-90.8001"/>
</g>
<!-- saveIf -->
<g id="node7" class="node"><title>saveIf</title>
<polygon fill="lightyellow" stroke="black" stroke-width="0.5" points="500.213,-52 393.213,-52 393.213,-16 500.213,-16 500.213,-52"/>
<text text-anchor="middle" x="446.713" y="-31.8" font-family="Verdana" font-size="9.00">編集ファイル保存</text>
</g>
<!-- saveIf&#45;&gt;ifFileFrom3dEditor -->
<g id="edge4" class="edge"><title>saveIf&#45;&gt;ifFileFrom3dEditor</title>
<path fill="none" stroke="black" d="M500.374,-34C521.838,-34 546.85,-34 569.344,-34"/>
<polygon fill="black" stroke="black" points="569.506,-36.8001 577.506,-34 569.506,-31.2001 569.506,-36.8001"/>
</g>
<!-- binaryConvert&#45;&gt;binaryFile -->
<g id="edge6" class="edge"><title>binaryConvert&#45;&gt;binaryFile</title>
<path fill="none" stroke="black" d="M907.341,-34C928.018,-34 951.289,-34 974.146,-34"/>
<polygon fill="black" stroke="black" points="974.209,-36.8001 982.209,-34 974.209,-31.2001 974.209,-36.8001"/>
</g>
</g>
</svg>
