<?xml version="1.0" encoding="UTF-8" standalone="no"?>
<!DOCTYPE svg PUBLIC "-//W3C//DTD SVG 1.1//EN"
 "http://www.w3.org/Graphics/SVG/1.1/DTD/svg11.dtd">
<!-- Generated by graphviz version 2.38.0 (20140413.2041)
 -->
<!-- Pages: 1 -->
<svg width="222pt" height="117pt"
 viewBox="0.00 0.00 222.04 117.00" xmlns="http://www.w3.org/2000/svg" xmlns:xlink="http://www.w3.org/1999/xlink">
<g id="graph0" class="graph" transform="scale(1 1) rotate(0) translate(4 113)">
<polygon fill="white" stroke="none" points="-4,4 -4,-113 218.044,-113 218.044,4 -4,4"/>
<!-- boneRoot -->
<g id="node1" class="node"><title>boneRoot</title>
<polygon fill="lightyellow" stroke="black" points="76.0222,-72.5 76.0222,-108.5 138.022,-108.5 138.022,-72.5 76.0222,-72.5"/>
<text text-anchor="middle" x="107.022" y="-88.3" font-family="Verdana" font-size="9.00">boneRoot</text>
</g>
<!-- shapeX -->
<g id="node2" class="node"><title>shapeX</title>
<ellipse fill="moccasin" stroke="black" cx="30.0222" cy="-18" rx="30.0444" ry="18"/>
<text text-anchor="middle" x="30.0222" y="-15.8" font-family="Verdana" font-size="9.00">shapeX</text>
</g>
<!-- boneRoot&#45;&gt;shapeX -->
<g id="edge1" class="edge"><title>boneRoot&#45;&gt;shapeX</title>
<path fill="none" stroke="black" d="M88.3827,-72.4339C77.4169,-62.3938 63.491,-49.6435 51.9929,-39.116"/>
<polygon fill="black" stroke="black" points="53.6804,-36.8647 45.8891,-33.5275 49.8987,-40.995 53.6804,-36.8647"/>
</g>
<!-- shapeY -->
<g id="node3" class="node"><title>shapeY</title>
<ellipse fill="moccasin" stroke="black" cx="107.022" cy="-18" rx="29.3898" ry="18"/>
<text text-anchor="middle" x="107.022" y="-15.8" font-family="Verdana" font-size="9.00">shapeY</text>
</g>
<!-- boneRoot&#45;&gt;shapeY -->
<g id="edge2" class="edge"><title>boneRoot&#45;&gt;shapeY</title>
<path fill="none" stroke="black" d="M107.022,-72.4339C107.022,-64.0723 107.022,-53.8308 107.022,-44.5591"/>
<polygon fill="black" stroke="black" points="109.822,-44.3987 107.022,-36.3987 104.222,-44.3987 109.822,-44.3987"/>
</g>
<!-- shapeZ -->
<g id="node4" class="node"><title>shapeZ</title>
<ellipse fill="moccasin" stroke="black" cx="184.022" cy="-18" rx="30.0444" ry="18"/>
<text text-anchor="middle" x="184.022" y="-15.8" font-family="Verdana" font-size="9.00">shapeZ</text>
</g>
<!-- boneRoot&#45;&gt;shapeZ -->
<g id="edge3" class="edge"><title>boneRoot&#45;&gt;shapeZ</title>
<path fill="none" stroke="black" d="M125.662,-72.4339C136.628,-62.3938 150.553,-49.6435 162.052,-39.116"/>
<polygon fill="black" stroke="black" points="164.146,-40.995 168.155,-33.5275 160.364,-36.8647 164.146,-40.995"/>
</g>
</g>
</svg>
