<?xml version="1.0" encoding="UTF-8" standalone="no"?>
<!DOCTYPE svg PUBLIC "-//W3C//DTD SVG 1.1//EN"
 "http://www.w3.org/Graphics/SVG/1.1/DTD/svg11.dtd">
<!-- Generated by graphviz version 2.38.0 (20140413.2041)
 -->
<!-- Pages: 1 -->
<svg width="484pt" height="290pt"
 viewBox="0.00 0.00 484.00 290.00" xmlns="http://www.w3.org/2000/svg" xmlns:xlink="http://www.w3.org/1999/xlink">
<g id="graph0" class="graph" transform="scale(1 1) rotate(0) translate(4 286)">
<polygon fill="white" stroke="none" points="-4,4 -4,-286 480,-286 480,4 -4,4"/>
<!-- setCompressBoneManually -->
<g id="node1" class="node"><title>setCompressBoneManually</title>
<path fill="none" stroke="black" d="M464,-282C464,-282 269,-282 269,-282 263,-282 257,-276 257,-270 257,-270 257,-258 257,-258 257,-252 263,-246 269,-246 269,-246 464,-246 464,-246 470,-246 476,-252 476,-258 476,-258 476,-270 476,-270 476,-276 470,-282 464,-282"/>
<text text-anchor="middle" x="366.5" y="-266.8" font-family="Verdana" font-size="9.00">ボーン個別の手動設定を行ってでも</text>
<text text-anchor="middle" x="366.5" y="-256.8" font-family="Verdana" font-size="9.00">可能な限り不要なボーンを圧縮したい？</text>
</g>
<!-- useSkinning -->
<g id="node2" class="node"><title>useSkinning</title>
<path fill="none" stroke="black" d="M320.5,-200.5C320.5,-200.5 226.5,-200.5 226.5,-200.5 220.5,-200.5 214.5,-194.5 214.5,-188.5 214.5,-188.5 214.5,-176.5 214.5,-176.5 214.5,-170.5 220.5,-164.5 226.5,-164.5 226.5,-164.5 320.5,-164.5 320.5,-164.5 326.5,-164.5 332.5,-170.5 332.5,-176.5 332.5,-176.5 332.5,-188.5 332.5,-188.5 332.5,-194.5 326.5,-200.5 320.5,-200.5"/>
<text text-anchor="middle" x="273.5" y="-180.3" font-family="Verdana" font-size="9.00">スキニングを使う？</text>
</g>
<!-- setCompressBoneManually&#45;&gt;useSkinning -->
<g id="edge1" class="edge"><title>setCompressBoneManually&#45;&gt;useSkinning</title>
<path fill="none" stroke="black" d="M346.32,-245.75C332.671,-234.082 314.51,-218.557 299.74,-205.931"/>
<polygon fill="black" stroke="black" points="301.541,-203.787 293.64,-200.717 297.902,-208.043 301.541,-203.787"/>
<text text-anchor="middle" x="342.5" y="-221.6" font-family="Times New Roman,serif" font-size="8.00">はい</text>
</g>
<!-- cull -->
<g id="node4" class="node"><title>cull</title>
<polygon fill="lightyellow" stroke="black" points="351,-164.5 351,-200.5 444,-200.5 444,-164.5 351,-164.5"/>
<text text-anchor="middle" x="397.5" y="-180.3" font-family="Verdana" font-size="9.00">Cull ボーン圧縮</text>
</g>
<!-- setCompressBoneManually&#45;&gt;cull -->
<g id="edge2" class="edge"><title>setCompressBoneManually&#45;&gt;cull</title>
<path fill="none" stroke="black" d="M373.227,-245.75C377.492,-234.811 383.079,-220.483 387.818,-208.331"/>
<polygon fill="black" stroke="black" points="390.489,-209.187 390.787,-200.717 385.271,-207.153 390.489,-209.187"/>
<text text-anchor="middle" x="412" y="-221.6" font-family="Times New Roman,serif" font-size="8.00">いいえ</text>
</g>
<!-- containsAnimation -->
<g id="node3" class="node"><title>containsAnimation</title>
<path fill="none" stroke="black" d="M241,-118.5C241,-118.5 12,-118.5 12,-118.5 6,-118.5 0,-112.5 0,-106.5 0,-106.5 0,-94.5 0,-94.5 0,-88.5 6,-82.5 12,-82.5 12,-82.5 241,-82.5 241,-82.5 247,-82.5 253,-88.5 253,-94.5 253,-94.5 253,-106.5 253,-106.5 253,-112.5 247,-118.5 241,-118.5"/>
<text text-anchor="middle" x="126.5" y="-103.3" font-family="Verdana" font-size="9.00">スケルタルアニメーションや</text>
<text text-anchor="middle" x="126.5" y="-93.3" font-family="Verdana" font-size="9.00">ボーンビジビリティーアニメーションを使う？</text>
</g>
<!-- useSkinning&#45;&gt;containsAnimation -->
<g id="edge4" class="edge"><title>useSkinning&#45;&gt;containsAnimation</title>
<path fill="none" stroke="black" d="M241.965,-164.338C219.488,-152.105 189.136,-135.588 165.192,-122.557"/>
<polygon fill="black" stroke="black" points="166.348,-119.998 157.983,-118.634 163.671,-124.917 166.348,-119.998"/>
<text text-anchor="middle" x="233" y="-139.6" font-family="Times New Roman,serif" font-size="8.00">いいえ</text>
</g>
<!-- merge -->
<g id="node5" class="node"><title>merge</title>
<polygon fill="lightyellow" stroke="black" points="271,-82.5 271,-118.5 376,-118.5 376,-82.5 271,-82.5"/>
<text text-anchor="middle" x="323.5" y="-98.3" font-family="Verdana" font-size="9.00">Merge ボーン圧縮</text>
</g>
<!-- useSkinning&#45;&gt;merge -->
<g id="edge3" class="edge"><title>useSkinning&#45;&gt;merge</title>
<path fill="none" stroke="black" d="M284.349,-164.141C291.408,-152.847 300.711,-137.962 308.477,-125.536"/>
<polygon fill="black" stroke="black" points="310.978,-126.818 312.844,-118.55 306.229,-123.85 310.978,-126.818"/>
<text text-anchor="middle" x="319.5" y="-139.6" font-family="Times New Roman,serif" font-size="8.00">はい</text>
</g>
<!-- unite -->
<g id="node6" class="node"><title>unite</title>
<polygon fill="lightyellow" stroke="black" points="13,-0.5 13,-36.5 114,-36.5 114,-0.5 13,-0.5"/>
<text text-anchor="middle" x="63.5" y="-16.3" font-family="Verdana" font-size="9.00">Unite ボーン圧縮</text>
</g>
<!-- containsAnimation&#45;&gt;unite -->
<g id="edge5" class="edge"><title>containsAnimation&#45;&gt;unite</title>
<path fill="none" stroke="black" d="M112.83,-82.1412C103.77,-70.6361 91.775,-55.4048 81.8821,-42.8423"/>
<polygon fill="black" stroke="black" points="84.0763,-41.1029 76.927,-36.5501 79.6767,-44.5676 84.0763,-41.1029"/>
<text text-anchor="middle" x="116.5" y="-57.6" font-family="Times New Roman,serif" font-size="8.00">はい</text>
</g>
<!-- uniteAll -->
<g id="node7" class="node"><title>uniteAll</title>
<polygon fill="lightyellow" stroke="black" points="132.5,-0.5 132.5,-36.5 246.5,-36.5 246.5,-0.5 132.5,-0.5"/>
<text text-anchor="middle" x="189.5" y="-16.3" font-family="Verdana" font-size="9.00">Unite All ボーン圧縮</text>
</g>
<!-- containsAnimation&#45;&gt;uniteAll -->
<g id="edge6" class="edge"><title>containsAnimation&#45;&gt;uniteAll</title>
<path fill="none" stroke="black" d="M140.17,-82.1412C149.23,-70.6361 161.225,-55.4048 171.118,-42.8423"/>
<polygon fill="black" stroke="black" points="173.323,-44.5676 176.073,-36.5501 168.924,-41.1029 173.323,-44.5676"/>
<text text-anchor="middle" x="189" y="-57.6" font-family="Times New Roman,serif" font-size="8.00">いいえ</text>
</g>
</g>
</svg>
