<?xml version="1.0" encoding="UTF-8" standalone="no"?>
<!DOCTYPE svg PUBLIC "-//W3C//DTD SVG 1.1//EN"
 "http://www.w3.org/Graphics/SVG/1.1/DTD/svg11.dtd">
<!-- Generated by graphviz version 2.38.0 (20140413.2041)
 -->
<!-- Pages: 1 -->
<svg width="468pt" height="340pt"
 viewBox="0.00 0.00 467.83 339.60" xmlns="http://www.w3.org/2000/svg" xmlns:xlink="http://www.w3.org/1999/xlink">
<g id="graph0" class="graph" transform="scale(1 1) rotate(0) translate(4 335.598)">
<polygon fill="white" stroke="none" points="-4,4 -4,-335.598 463.832,-335.598 463.832,4 -4,4"/>
<!-- boneRoot -->
<g id="node1" class="node"><title>boneRoot</title>
<polygon fill="lightyellow" stroke="black" points="303.832,-295.098 303.832,-331.098 365.832,-331.098 365.832,-295.098 303.832,-295.098"/>
<text text-anchor="middle" x="334.832" y="-310.898" font-family="Verdana" font-size="9.00">boneRoot</text>
</g>
<!-- boneA -->
<g id="node2" class="node"><title>boneA</title>
<polygon fill="lightyellow" stroke="black" points="215.332,-222.098 215.332,-258.098 310.332,-258.098 310.332,-222.098 215.332,-222.098"/>
<text text-anchor="middle" x="262.832" y="-246.898" font-family="Verdana" font-size="9.00">boneA</text>
<polyline fill="none" stroke="black" points="215.332,-240.098 310.332,-240.098 "/>
<text text-anchor="start" x="223.332" y="-228.898" font-family="Verdana" font-size="9.00">圧縮不可に設定</text>
</g>
<!-- boneRoot&#45;&gt;boneA -->
<g id="edge1" class="edge"><title>boneRoot&#45;&gt;boneA</title>
<path fill="none" stroke="black" d="M317.403,-294.911C307.94,-285.579 296.119,-273.923 285.902,-263.847"/>
<polygon fill="black" stroke="black" points="287.763,-261.75 280.101,-258.127 283.831,-265.738 287.763,-261.75"/>
</g>
<!-- boneF -->
<g id="node3" class="node"><title>boneF</title>
<polygon fill="lightyellow" stroke="black" points="379.832,-222.098 379.832,-258.098 433.832,-258.098 433.832,-222.098 379.832,-222.098"/>
<text text-anchor="middle" x="406.832" y="-246.898" font-family="Verdana" font-size="9.00">boneF</text>
<polyline fill="none" stroke="black" points="379.832,-240.098 433.832,-240.098 "/>
<text text-anchor="middle" x="406.832" y="-228.898" font-family="Verdana" font-size="9.00"> </text>
</g>
<!-- boneRoot&#45;&gt;boneF -->
<g id="edge6" class="edge"><title>boneRoot&#45;&gt;boneF</title>
<path fill="none" stroke="black" d="M352.261,-294.911C361.724,-285.579 373.545,-273.923 383.762,-263.847"/>
<polygon fill="black" stroke="black" points="385.833,-265.738 389.563,-258.127 381.901,-261.75 385.833,-265.738"/>
</g>
<!-- shapeX -->
<g id="node7" class="node"><title>shapeX</title>
<ellipse fill="moccasin" stroke="black" cx="72.832" cy="-165.799" rx="72.6644" ry="19.6"/>
<text text-anchor="middle" x="72.832" y="-168.599" font-family="Verdana" font-size="9.00">shapeX</text>
<text text-anchor="middle" x="72.832" y="-158.599" font-family="Verdana" font-size="9.00">(スキニングあり)</text>
</g>
<!-- boneA&#45;&gt;shapeX -->
<g id="edge2" class="edge"><title>boneA&#45;&gt;shapeX</title>
<path fill="none" stroke="black" d="M217.805,-221.964C188.793,-210.925 151.089,-196.577 121.404,-185.282"/>
<polygon fill="black" stroke="black" points="122.123,-182.559 113.65,-182.331 120.131,-187.793 122.123,-182.559"/>
</g>
<!-- shapeY -->
<g id="node8" class="node"><title>shapeY</title>
<ellipse fill="moccasin" stroke="black" cx="236.832" cy="-165.799" rx="72.6644" ry="19.6"/>
<text text-anchor="middle" x="236.832" y="-168.599" font-family="Verdana" font-size="9.00">shapeY</text>
<text text-anchor="middle" x="236.832" y="-158.599" font-family="Verdana" font-size="9.00">(スキニングあり)</text>
</g>
<!-- boneA&#45;&gt;shapeY -->
<g id="edge3" class="edge"><title>boneA&#45;&gt;shapeY</title>
<path fill="none" stroke="black" d="M256.67,-221.964C253.597,-213.417 249.81,-202.887 246.371,-193.326"/>
<polygon fill="black" stroke="black" points="248.931,-192.167 243.588,-185.587 243.661,-194.062 248.931,-192.167"/>
</g>
<!-- shapeZ -->
<g id="node9" class="node"><title>shapeZ</title>
<ellipse fill="moccasin" stroke="black" cx="357.832" cy="-165.799" rx="30.0444" ry="18"/>
<text text-anchor="middle" x="357.832" y="-163.599" font-family="Verdana" font-size="9.00">shapeZ</text>
</g>
<!-- boneA&#45;&gt;shapeZ -->
<g id="edge4" class="edge"><title>boneA&#45;&gt;shapeZ</title>
<path fill="none" stroke="black" d="M285.346,-221.964C299.81,-210.956 318.597,-196.659 333.42,-185.378"/>
<polygon fill="black" stroke="black" points="335.251,-187.503 339.921,-180.43 331.86,-183.046 335.251,-187.503"/>
</g>
<!-- boneJ -->
<g id="node6" class="node"><title>boneJ</title>
<polygon fill="lightyellow" stroke="black" points="405.832,-147.799 405.832,-183.799 459.832,-183.799 459.832,-147.799 405.832,-147.799"/>
<text text-anchor="middle" x="432.832" y="-163.599" font-family="Verdana" font-size="9.00">boneJ</text>
</g>
<!-- boneF&#45;&gt;boneJ -->
<g id="edge7" class="edge"><title>boneF&#45;&gt;boneJ</title>
<path fill="none" stroke="black" d="M412.994,-221.964C416.264,-212.87 420.342,-201.532 423.948,-191.503"/>
<polygon fill="black" stroke="black" points="426.642,-192.285 426.715,-183.81 421.373,-190.39 426.642,-192.285"/>
</g>
<!-- boneG -->
<g id="node4" class="node"><title>boneG</title>
<polygon fill="lightyellow" stroke="black" points="405.832,-73.5 405.832,-109.5 459.832,-109.5 459.832,-73.5 405.832,-73.5"/>
<text text-anchor="middle" x="432.832" y="-98.3" font-family="Verdana" font-size="9.00">boneG</text>
<polyline fill="none" stroke="black" points="405.832,-91.5 459.832,-91.5 "/>
<text text-anchor="middle" x="432.832" y="-80.3" font-family="Verdana" font-size="9.00"> </text>
</g>
<!-- boneH -->
<g id="node5" class="node"><title>boneH</title>
<polygon fill="lightyellow" stroke="black" points="405.832,-0.5 405.832,-36.5 459.832,-36.5 459.832,-0.5 405.832,-0.5"/>
<text text-anchor="middle" x="432.832" y="-16.3" font-family="Verdana" font-size="9.00">boneH</text>
</g>
<!-- boneG&#45;&gt;boneH -->
<g id="edge5" class="edge"><title>boneG&#45;&gt;boneH</title>
<path fill="none" stroke="black" d="M432.832,-73.3129C432.832,-64.679 432.832,-54.0551 432.832,-44.5341"/>
<polygon fill="black" stroke="black" points="435.632,-44.5288 432.832,-36.5288 430.032,-44.5289 435.632,-44.5288"/>
</g>
<!-- boneJ&#45;&gt;boneG -->
<g id="edge8" class="edge"><title>boneJ&#45;&gt;boneG</title>
<path fill="none" stroke="black" d="M432.832,-147.665C432.832,-138.751 432.832,-127.681 432.832,-117.802"/>
<polygon fill="black" stroke="black" points="435.632,-117.511 432.832,-109.511 430.032,-117.511 435.632,-117.511"/>
</g>
</g>
</svg>
