<?xml version="1.0" encoding="UTF-8" standalone="no"?>
<!DOCTYPE svg PUBLIC "-//W3C//DTD SVG 1.1//EN"
 "http://www.w3.org/Graphics/SVG/1.1/DTD/svg11.dtd">
<!-- Generated by graphviz version 2.38.0 (20140413.2041)
 -->
<!-- Pages: 1 -->
<svg width="468pt" height="267pt"
 viewBox="0.00 0.00 467.83 266.60" xmlns="http://www.w3.org/2000/svg" xmlns:xlink="http://www.w3.org/1999/xlink">
<g id="graph0" class="graph" transform="scale(1 1) rotate(0) translate(4 262.598)">
<polygon fill="white" stroke="none" points="-4,4 -4,-262.598 463.832,-262.598 463.832,4 -4,4"/>
<!-- boneRoot -->
<g id="node1" class="node"><title>boneRoot</title>
<polygon fill="lightyellow" stroke="black" points="303.832,-222.098 303.832,-258.098 365.832,-258.098 365.832,-222.098 303.832,-222.098"/>
<text text-anchor="middle" x="334.832" y="-237.898" font-family="Verdana" font-size="9.00">boneRoot</text>
</g>
<!-- boneA -->
<g id="node2" class="node"><title>boneA</title>
<polygon fill="lightyellow" stroke="black" points="215.332,-149.098 215.332,-185.098 310.332,-185.098 310.332,-149.098 215.332,-149.098"/>
<text text-anchor="middle" x="262.832" y="-173.898" font-family="Verdana" font-size="9.00">boneA</text>
<polyline fill="none" stroke="black" points="215.332,-167.098 310.332,-167.098 "/>
<text text-anchor="start" x="223.332" y="-155.898" font-family="Verdana" font-size="9.00">圧縮不可に設定</text>
</g>
<!-- boneRoot&#45;&gt;boneA -->
<g id="edge1" class="edge"><title>boneRoot&#45;&gt;boneA</title>
<path fill="none" stroke="black" d="M317.403,-221.911C307.94,-212.579 296.119,-200.923 285.902,-190.847"/>
<polygon fill="black" stroke="black" points="287.763,-188.75 280.101,-185.127 283.831,-192.738 287.763,-188.75"/>
</g>
<!-- boneF -->
<g id="node3" class="node"><title>boneF</title>
<polygon fill="lightyellow" stroke="black" points="379.832,-149.098 379.832,-185.098 433.832,-185.098 433.832,-149.098 379.832,-149.098"/>
<text text-anchor="middle" x="406.832" y="-173.898" font-family="Verdana" font-size="9.00">boneF</text>
<polyline fill="none" stroke="black" points="379.832,-167.098 433.832,-167.098 "/>
<text text-anchor="middle" x="406.832" y="-155.898" font-family="Verdana" font-size="9.00"> </text>
</g>
<!-- boneRoot&#45;&gt;boneF -->
<g id="edge5" class="edge"><title>boneRoot&#45;&gt;boneF</title>
<path fill="none" stroke="black" d="M352.261,-221.911C361.724,-212.579 373.545,-200.923 383.762,-190.847"/>
<polygon fill="black" stroke="black" points="385.833,-192.738 389.563,-185.127 381.901,-188.75 385.833,-192.738"/>
</g>
<!-- shapeX -->
<g id="node6" class="node"><title>shapeX</title>
<ellipse fill="moccasin" stroke="black" cx="72.832" cy="-92.799" rx="72.6644" ry="19.6"/>
<text text-anchor="middle" x="72.832" y="-95.599" font-family="Verdana" font-size="9.00">shapeX</text>
<text text-anchor="middle" x="72.832" y="-85.599" font-family="Verdana" font-size="9.00">(スキニングあり)</text>
</g>
<!-- boneA&#45;&gt;shapeX -->
<g id="edge2" class="edge"><title>boneA&#45;&gt;shapeX</title>
<path fill="none" stroke="black" d="M217.805,-148.964C188.793,-137.925 151.089,-123.577 121.404,-112.282"/>
<polygon fill="black" stroke="black" points="122.123,-109.559 113.65,-109.331 120.131,-114.793 122.123,-109.559"/>
</g>
<!-- shapeY -->
<g id="node7" class="node"><title>shapeY</title>
<ellipse fill="moccasin" stroke="black" cx="236.832" cy="-92.799" rx="72.6644" ry="19.6"/>
<text text-anchor="middle" x="236.832" y="-95.599" font-family="Verdana" font-size="9.00">shapeY</text>
<text text-anchor="middle" x="236.832" y="-85.599" font-family="Verdana" font-size="9.00">(スキニングあり)</text>
</g>
<!-- boneA&#45;&gt;shapeY -->
<g id="edge3" class="edge"><title>boneA&#45;&gt;shapeY</title>
<path fill="none" stroke="black" d="M256.67,-148.964C253.597,-140.417 249.81,-129.887 246.371,-120.326"/>
<polygon fill="black" stroke="black" points="248.931,-119.167 243.588,-112.587 243.661,-121.062 248.931,-119.167"/>
</g>
<!-- shapeZ -->
<g id="node8" class="node"><title>shapeZ</title>
<ellipse fill="moccasin" stroke="black" cx="357.832" cy="-92.799" rx="30.0444" ry="18"/>
<text text-anchor="middle" x="357.832" y="-90.599" font-family="Verdana" font-size="9.00">shapeZ</text>
</g>
<!-- boneA&#45;&gt;shapeZ -->
<g id="edge4" class="edge"><title>boneA&#45;&gt;shapeZ</title>
<path fill="none" stroke="black" d="M285.346,-148.964C299.81,-137.956 318.597,-123.659 333.42,-112.378"/>
<polygon fill="black" stroke="black" points="335.251,-114.503 339.921,-107.43 331.86,-110.046 335.251,-114.503"/>
</g>
<!-- boneJ -->
<g id="node5" class="node"><title>boneJ</title>
<polygon fill="lightyellow" stroke="black" points="405.832,-74.799 405.832,-110.799 459.832,-110.799 459.832,-74.799 405.832,-74.799"/>
<text text-anchor="middle" x="432.832" y="-90.599" font-family="Verdana" font-size="9.00">boneJ</text>
</g>
<!-- boneF&#45;&gt;boneJ -->
<g id="edge6" class="edge"><title>boneF&#45;&gt;boneJ</title>
<path fill="none" stroke="black" d="M412.994,-148.964C416.264,-139.87 420.342,-128.532 423.948,-118.503"/>
<polygon fill="black" stroke="black" points="426.642,-119.285 426.715,-110.81 421.373,-117.39 426.642,-119.285"/>
</g>
<!-- boneG -->
<g id="node4" class="node"><title>boneG</title>
<polygon fill="lightyellow" stroke="black" points="405.832,-0.5 405.832,-36.5 459.832,-36.5 459.832,-0.5 405.832,-0.5"/>
<text text-anchor="middle" x="432.832" y="-25.3" font-family="Verdana" font-size="9.00">boneG</text>
<polyline fill="none" stroke="black" points="405.832,-18.5 459.832,-18.5 "/>
<text text-anchor="middle" x="432.832" y="-7.3" font-family="Verdana" font-size="9.00"> </text>
</g>
<!-- boneJ&#45;&gt;boneG -->
<g id="edge7" class="edge"><title>boneJ&#45;&gt;boneG</title>
<path fill="none" stroke="black" d="M432.832,-74.6651C432.832,-65.7512 432.832,-54.6809 432.832,-44.8017"/>
<polygon fill="black" stroke="black" points="435.632,-44.5108 432.832,-36.5109 430.032,-44.5109 435.632,-44.5108"/>
</g>
</g>
</svg>
