<?xml version="1.0" encoding="UTF-8" standalone="no"?>
<!DOCTYPE svg PUBLIC "-//W3C//DTD SVG 1.1//EN"
 "http://www.w3.org/Graphics/SVG/1.1/DTD/svg11.dtd">
<!-- Generated by graphviz version 2.38.0 (20140413.2041)
 -->
<!-- Pages: 1 -->
<svg width="511pt" height="339pt"
 viewBox="0.00 0.00 511.00 338.60" xmlns="http://www.w3.org/2000/svg" xmlns:xlink="http://www.w3.org/1999/xlink">
<g id="graph0" class="graph" transform="scale(1 1) rotate(0) translate(4 334.598)">
<polygon fill="white" stroke="none" points="-4,4 -4,-334.598 507,-334.598 507,4 -4,4"/>
<!-- boneRoot -->
<g id="node1" class="node"><title>boneRoot</title>
<polygon fill="lightyellow" stroke="black" points="303,-294.098 303,-330.098 365,-330.098 365,-294.098 303,-294.098"/>
<text text-anchor="middle" x="334" y="-309.898" font-family="Verdana" font-size="9.00">boneRoot</text>
</g>
<!-- boneA -->
<g id="node2" class="node"><title>boneA</title>
<polygon fill="lightyellow" stroke="black" points="193.5,-221.098 193.5,-257.098 288.5,-257.098 288.5,-221.098 193.5,-221.098"/>
<text text-anchor="middle" x="241" y="-245.898" font-family="Verdana" font-size="9.00">boneA</text>
<polyline fill="none" stroke="black" points="193.5,-239.098 288.5,-239.098 "/>
<text text-anchor="start" x="201.5" y="-227.898" font-family="Verdana" font-size="9.00">圧縮不可に設定</text>
</g>
<!-- boneRoot&#45;&gt;boneA -->
<g id="edge1" class="edge"><title>boneRoot&#45;&gt;boneA</title>
<path fill="none" stroke="black" d="M311.487,-293.911C298.922,-284.318 283.138,-272.268 269.693,-262.004"/>
<polygon fill="black" stroke="black" points="271.363,-259.756 263.305,-257.127 267.965,-264.207 271.363,-259.756"/>
</g>
<!-- boneF -->
<g id="node5" class="node"><title>boneF</title>
<polygon fill="lightyellow" stroke="black" points="401,-221.098 401,-257.098 455,-257.098 455,-221.098 401,-221.098"/>
<text text-anchor="middle" x="428" y="-245.898" font-family="Verdana" font-size="9.00">boneF</text>
<polyline fill="none" stroke="black" points="401,-239.098 455,-239.098 "/>
<text text-anchor="middle" x="428" y="-227.898" font-family="Verdana" font-size="9.00"> </text>
</g>
<!-- boneRoot&#45;&gt;boneF -->
<g id="edge7" class="edge"><title>boneRoot&#45;&gt;boneF</title>
<path fill="none" stroke="black" d="M356.755,-293.911C369.456,-284.318 385.409,-272.268 398.998,-262.004"/>
<polygon fill="black" stroke="black" points="400.759,-264.183 405.455,-257.127 397.383,-259.714 400.759,-264.183"/>
</g>
<!-- boneC -->
<g id="node3" class="node"><title>boneC</title>
<polygon fill="lightyellow" stroke="black" points="49,-146.799 49,-182.799 103,-182.799 103,-146.799 49,-146.799"/>
<text text-anchor="middle" x="76" y="-162.599" font-family="Verdana" font-size="9.00">boneC</text>
</g>
<!-- boneA&#45;&gt;boneC -->
<g id="edge2" class="edge"><title>boneA&#45;&gt;boneC</title>
<path fill="none" stroke="black" d="M197.291,-221.084C172.113,-211.008 140.005,-197.686 112,-184.598 111.561,-184.393 111.119,-184.185 110.676,-183.975"/>
<polygon fill="black" stroke="black" points="111.81,-181.413 103.393,-180.42 109.354,-186.446 111.81,-181.413"/>
</g>
<!-- shapeX -->
<g id="node8" class="node"><title>shapeX</title>
<ellipse fill="moccasin" stroke="black" cx="194" cy="-164.799" rx="72.6644" ry="19.6"/>
<text text-anchor="middle" x="194" y="-167.599" font-family="Verdana" font-size="9.00">shapeX</text>
<text text-anchor="middle" x="194" y="-157.599" font-family="Verdana" font-size="9.00">(スキニングあり)</text>
</g>
<!-- boneA&#45;&gt;shapeX -->
<g id="edge3" class="edge"><title>boneA&#45;&gt;shapeX</title>
<path fill="none" stroke="black" d="M229.862,-220.964C224.095,-212.093 216.94,-201.087 210.541,-191.244"/>
<polygon fill="black" stroke="black" points="212.754,-189.511 206.046,-184.33 208.059,-192.563 212.754,-189.511"/>
</g>
<!-- shapeY -->
<g id="node9" class="node"><title>shapeY</title>
<ellipse fill="moccasin" stroke="black" cx="358" cy="-164.799" rx="72.6644" ry="19.6"/>
<text text-anchor="middle" x="358" y="-167.599" font-family="Verdana" font-size="9.00">shapeY</text>
<text text-anchor="middle" x="358" y="-157.599" font-family="Verdana" font-size="9.00">(スキニングあり)</text>
</g>
<!-- boneA&#45;&gt;shapeY -->
<g id="edge4" class="edge"><title>boneA&#45;&gt;shapeY</title>
<path fill="none" stroke="black" d="M268.727,-220.964C284.81,-211.026 305.231,-198.407 322.482,-187.747"/>
<polygon fill="black" stroke="black" points="324.325,-189.899 329.659,-183.312 321.381,-185.136 324.325,-189.899"/>
</g>
<!-- boneI -->
<g id="node4" class="node"><title>boneI</title>
<polygon fill="lightyellow" stroke="black" points="0,-72.5 0,-108.5 152,-108.5 152,-72.5 0,-72.5"/>
<text text-anchor="middle" x="76" y="-97.3" font-family="Verdana" font-size="9.00">boneI</text>
<polyline fill="none" stroke="black" points="0,-90.5 152,-90.5 "/>
<text text-anchor="middle" x="76" y="-79.3" font-family="Verdana" font-size="9.00">リジッドボディ描画に使用</text>
</g>
<!-- boneC&#45;&gt;boneI -->
<g id="edge5" class="edge"><title>boneC&#45;&gt;boneI</title>
<path fill="none" stroke="black" d="M76,-146.665C76,-137.751 76,-126.681 76,-116.802"/>
<polygon fill="black" stroke="black" points="78.8001,-116.511 76,-108.511 73.2001,-116.511 78.8001,-116.511"/>
</g>
<!-- shapeZ -->
<g id="node10" class="node"><title>shapeZ</title>
<ellipse fill="moccasin" stroke="black" cx="76" cy="-18" rx="30.0444" ry="18"/>
<text text-anchor="middle" x="76" y="-15.8" font-family="Verdana" font-size="9.00">shapeZ</text>
</g>
<!-- boneI&#45;&gt;shapeZ -->
<g id="edge6" class="edge"><title>boneI&#45;&gt;shapeZ</title>
<path fill="none" stroke="black" d="M76,-72.4339C76,-64.0723 76,-53.8308 76,-44.5591"/>
<polygon fill="black" stroke="black" points="78.8001,-44.3987 76,-36.3987 73.2001,-44.3987 78.8001,-44.3987"/>
</g>
<!-- boneJ -->
<g id="node7" class="node"><title>boneJ</title>
<polygon fill="lightyellow" stroke="black" points="449,-146.799 449,-182.799 503,-182.799 503,-146.799 449,-146.799"/>
<text text-anchor="middle" x="476" y="-162.599" font-family="Verdana" font-size="9.00">boneJ</text>
</g>
<!-- boneF&#45;&gt;boneJ -->
<g id="edge8" class="edge"><title>boneF&#45;&gt;boneJ</title>
<path fill="none" stroke="black" d="M439.375,-220.964C445.592,-211.6 453.389,-199.856 460.189,-189.613"/>
<polygon fill="black" stroke="black" points="462.614,-191.023 464.706,-182.81 457.949,-187.926 462.614,-191.023"/>
</g>
<!-- boneG -->
<g id="node6" class="node"><title>boneG</title>
<polygon fill="lightyellow" stroke="black" points="449,-72.5 449,-108.5 503,-108.5 503,-72.5 449,-72.5"/>
<text text-anchor="middle" x="476" y="-97.3" font-family="Verdana" font-size="9.00">boneG</text>
<polyline fill="none" stroke="black" points="449,-90.5 503,-90.5 "/>
<text text-anchor="middle" x="476" y="-79.3" font-family="Verdana" font-size="9.00"> </text>
</g>
<!-- boneJ&#45;&gt;boneG -->
<g id="edge9" class="edge"><title>boneJ&#45;&gt;boneG</title>
<path fill="none" stroke="black" d="M476,-146.665C476,-137.751 476,-126.681 476,-116.802"/>
<polygon fill="black" stroke="black" points="478.8,-116.511 476,-108.511 473.2,-116.511 478.8,-116.511"/>
</g>
</g>
</svg>
