<?xml version="1.0" encoding="UTF-8" standalone="no"?>
<!DOCTYPE svg PUBLIC "-//W3C//DTD SVG 1.1//EN"
 "http://www.w3.org/Graphics/SVG/1.1/DTD/svg11.dtd">
<!-- Generated by graphviz version 2.38.0 (20140413.2041)
 -->
<!-- Pages: 1 -->
<svg width="505pt" height="340pt"
 viewBox="0.00 0.00 505.00 339.60" xmlns="http://www.w3.org/2000/svg" xmlns:xlink="http://www.w3.org/1999/xlink">
<g id="graph0" class="graph" transform="scale(1 1) rotate(0) translate(4 335.598)">
<polygon fill="white" stroke="none" points="-4,4 -4,-335.598 501,-335.598 501,4 -4,4"/>
<!-- boneRoot -->
<g id="node1" class="node"><title>boneRoot</title>
<polygon fill="lightyellow" stroke="black" points="295,-295.098 295,-331.098 357,-331.098 357,-295.098 295,-295.098"/>
<text text-anchor="middle" x="326" y="-310.898" font-family="Verdana" font-size="9.00">boneRoot</text>
</g>
<!-- boneA -->
<g id="node2" class="node"><title>boneA</title>
<polygon fill="lightyellow" stroke="black" points="219.5,-222.098 219.5,-258.098 314.5,-258.098 314.5,-222.098 219.5,-222.098"/>
<text text-anchor="middle" x="267" y="-246.898" font-family="Verdana" font-size="9.00">boneA</text>
<polyline fill="none" stroke="black" points="219.5,-240.098 314.5,-240.098 "/>
<text text-anchor="start" x="227.5" y="-228.898" font-family="Verdana" font-size="9.00">圧縮不可に設定</text>
</g>
<!-- boneRoot&#45;&gt;boneA -->
<g id="edge1" class="edge"><title>boneRoot&#45;&gt;boneA</title>
<path fill="none" stroke="black" d="M311.718,-294.911C304.108,-285.754 294.639,-274.358 286.375,-264.414"/>
<polygon fill="black" stroke="black" points="288.417,-262.49 281.151,-258.127 284.11,-266.069 288.417,-262.49"/>
</g>
<!-- boneF -->
<g id="node3" class="node"><title>boneF</title>
<polygon fill="lightyellow" stroke="black" points="358,-222.098 358,-258.098 412,-258.098 412,-222.098 358,-222.098"/>
<text text-anchor="middle" x="385" y="-246.898" font-family="Verdana" font-size="9.00">boneF</text>
<polyline fill="none" stroke="black" points="358,-240.098 412,-240.098 "/>
<text text-anchor="middle" x="385" y="-228.898" font-family="Verdana" font-size="9.00"> </text>
</g>
<!-- boneRoot&#45;&gt;boneF -->
<g id="edge10" class="edge"><title>boneRoot&#45;&gt;boneF</title>
<path fill="none" stroke="black" d="M340.282,-294.911C347.892,-285.754 357.361,-274.358 365.625,-264.414"/>
<polygon fill="black" stroke="black" points="367.89,-266.069 370.849,-258.127 363.583,-262.49 367.89,-266.069"/>
</g>
<!-- boneC -->
<g id="node6" class="node"><title>boneC</title>
<polygon fill="#ff6a6a" stroke="black" points="135,-149.098 135,-185.098 189,-185.098 189,-149.098 135,-149.098"/>
<text text-anchor="middle" x="162" y="-164.898" font-family="Verdana" font-size="9.00">boneC</text>
</g>
<!-- boneA&#45;&gt;boneC -->
<g id="edge2" class="edge"><title>boneA&#45;&gt;boneC</title>
<path fill="none" stroke="black" d="M241.85,-222.092C227.539,-212.415 209.467,-200.195 194.136,-189.828"/>
<polygon fill="black" stroke="black" points="195.504,-187.373 187.309,-185.212 192.368,-192.012 195.504,-187.373"/>
</g>
<!-- boneB -->
<g id="node7" class="node"><title>boneB</title>
<polygon fill="#ff6a6a" stroke="black" points="240,-149.098 240,-185.098 294,-185.098 294,-149.098 240,-149.098"/>
<text text-anchor="middle" x="267" y="-164.898" font-family="Verdana" font-size="9.00">boneB</text>
</g>
<!-- boneA&#45;&gt;boneB -->
<g id="edge3" class="edge"><title>boneA&#45;&gt;boneB</title>
<path fill="none" stroke="black" d="M267,-221.911C267,-213.277 267,-202.653 267,-193.132"/>
<polygon fill="black" stroke="black" points="269.8,-193.127 267,-185.127 264.2,-193.127 269.8,-193.127"/>
</g>
<!-- boneJ -->
<g id="node5" class="node"><title>boneJ</title>
<polygon fill="lightyellow" stroke="black" points="408,-149.098 408,-185.098 462,-185.098 462,-149.098 408,-149.098"/>
<text text-anchor="middle" x="435" y="-164.898" font-family="Verdana" font-size="9.00">boneJ</text>
</g>
<!-- boneF&#45;&gt;boneJ -->
<g id="edge11" class="edge"><title>boneF&#45;&gt;boneJ</title>
<path fill="none" stroke="black" d="M397.104,-221.911C403.491,-212.841 411.425,-201.575 418.38,-191.698"/>
<polygon fill="black" stroke="black" points="420.691,-193.28 423.008,-185.127 416.112,-190.055 420.691,-193.28"/>
</g>
<!-- boneG -->
<g id="node4" class="node"><title>boneG</title>
<polygon fill="lightyellow" stroke="black" points="434,-76.098 434,-112.098 488,-112.098 488,-76.098 434,-76.098"/>
<text text-anchor="middle" x="461" y="-100.898" font-family="Verdana" font-size="9.00">boneG</text>
<polyline fill="none" stroke="black" points="434,-94.098 488,-94.098 "/>
<text text-anchor="middle" x="461" y="-82.898" font-family="Verdana" font-size="9.00"> </text>
</g>
<!-- boneH -->
<g id="node11" class="node"><title>boneH</title>
<polygon fill="#ff6a6a" stroke="black" points="443,-1.79899 443,-37.799 497,-37.799 497,-1.79899 443,-1.79899"/>
<text text-anchor="middle" x="470" y="-17.599" font-family="Verdana" font-size="9.00">boneH</text>
</g>
<!-- boneG&#45;&gt;boneH -->
<g id="edge13" class="edge"><title>boneG&#45;&gt;boneH</title>
<path fill="none" stroke="black" d="M463.133,-75.9641C464.254,-66.9602 465.648,-55.756 466.888,-45.8017"/>
<polygon fill="black" stroke="black" points="469.673,-46.0945 467.882,-37.8099 464.116,-45.4027 469.673,-46.0945"/>
</g>
<!-- boneJ&#45;&gt;boneG -->
<g id="edge12" class="edge"><title>boneJ&#45;&gt;boneG</title>
<path fill="none" stroke="black" d="M441.294,-148.911C444.488,-140.19 448.425,-129.438 451.938,-119.844"/>
<polygon fill="black" stroke="black" points="454.642,-120.602 454.764,-112.127 449.384,-118.676 454.642,-120.602"/>
</g>
<!-- boneI -->
<g id="node10" class="node"><title>boneI</title>
<polygon fill="#ff6a6a" stroke="black" points="0,-76.098 0,-112.098 152,-112.098 152,-76.098 0,-76.098"/>
<text text-anchor="middle" x="76" y="-100.898" font-family="Verdana" font-size="9.00">boneI</text>
<polyline fill="none" stroke="black" points="0,-94.098 152,-94.098 "/>
<text text-anchor="middle" x="76" y="-82.898" font-family="Verdana" font-size="9.00">リジッドボディ描画に使用</text>
</g>
<!-- boneC&#45;&gt;boneI -->
<g id="edge4" class="edge"><title>boneC&#45;&gt;boneI</title>
<path fill="none" stroke="black" d="M141.182,-148.911C129.668,-139.405 115.231,-127.486 102.873,-117.284"/>
<polygon fill="black" stroke="black" points="104.578,-115.061 96.6265,-112.127 101.013,-119.379 104.578,-115.061"/>
</g>
<!-- boneD -->
<g id="node8" class="node"><title>boneD</title>
<polygon fill="#ff6a6a" stroke="black" points="187,-76.098 187,-112.098 241,-112.098 241,-76.098 187,-76.098"/>
<text text-anchor="middle" x="214" y="-91.898" font-family="Verdana" font-size="9.00">boneD</text>
</g>
<!-- boneB&#45;&gt;boneD -->
<g id="edge5" class="edge"><title>boneB&#45;&gt;boneD</title>
<path fill="none" stroke="black" d="M254.17,-148.911C247.4,-139.841 238.99,-128.575 231.617,-118.698"/>
<polygon fill="black" stroke="black" points="233.741,-116.863 226.712,-112.127 229.253,-120.213 233.741,-116.863"/>
</g>
<!-- boneE -->
<g id="node9" class="node"><title>boneE</title>
<polygon fill="#ff6a6a" stroke="black" points="293,-76.098 293,-112.098 347,-112.098 347,-76.098 293,-76.098"/>
<text text-anchor="middle" x="320" y="-91.898" font-family="Verdana" font-size="9.00">boneE</text>
</g>
<!-- boneB&#45;&gt;boneE -->
<g id="edge6" class="edge"><title>boneB&#45;&gt;boneE</title>
<path fill="none" stroke="black" d="M279.83,-148.911C286.6,-139.841 295.01,-128.575 302.383,-118.698"/>
<polygon fill="black" stroke="black" points="304.747,-120.213 307.288,-112.127 300.259,-116.863 304.747,-120.213"/>
</g>
<!-- shapeX -->
<g id="node12" class="node"><title>shapeX</title>
<ellipse fill="moccasin" stroke="black" cx="188" cy="-19.799" rx="72.6644" ry="19.6"/>
<text text-anchor="middle" x="188" y="-22.599" font-family="Verdana" font-size="9.00">shapeX</text>
<text text-anchor="middle" x="188" y="-12.599" font-family="Verdana" font-size="9.00">(スキニングあり)</text>
</g>
<!-- boneD&#45;&gt;shapeX -->
<g id="edge7" class="edge"><title>boneD&#45;&gt;shapeX</title>
<path fill="none" stroke="black" d="M207.838,-75.9641C204.765,-67.4169 200.978,-56.887 197.539,-47.3257"/>
<polygon fill="black" stroke="black" points="200.099,-46.1673 194.756,-39.5868 194.829,-48.0624 200.099,-46.1673"/>
</g>
<!-- shapeY -->
<g id="node13" class="node"><title>shapeY</title>
<ellipse fill="moccasin" stroke="black" cx="352" cy="-19.799" rx="72.6644" ry="19.6"/>
<text text-anchor="middle" x="352" y="-22.599" font-family="Verdana" font-size="9.00">shapeY</text>
<text text-anchor="middle" x="352" y="-12.599" font-family="Verdana" font-size="9.00">(スキニングあり)</text>
</g>
<!-- boneE&#45;&gt;shapeY -->
<g id="edge8" class="edge"><title>boneE&#45;&gt;shapeY</title>
<path fill="none" stroke="black" d="M327.584,-75.9641C331.404,-67.3314 336.121,-56.6762 340.386,-47.0391"/>
<polygon fill="black" stroke="black" points="343.007,-48.0356 343.684,-39.5868 337.886,-45.769 343.007,-48.0356"/>
</g>
<!-- shapeZ -->
<g id="node14" class="node"><title>shapeZ</title>
<ellipse fill="moccasin" stroke="black" cx="67" cy="-19.799" rx="30.0444" ry="18"/>
<text text-anchor="middle" x="67" y="-17.599" font-family="Verdana" font-size="9.00">shapeZ</text>
</g>
<!-- boneI&#45;&gt;shapeZ -->
<g id="edge9" class="edge"><title>boneI&#45;&gt;shapeZ</title>
<path fill="none" stroke="black" d="M73.8671,-75.9641C72.7463,-66.9602 71.3516,-55.756 70.1124,-45.8017"/>
<polygon fill="black" stroke="black" points="72.8844,-45.4027 69.1176,-37.8099 67.3273,-46.0945 72.8844,-45.4027"/>
</g>
</g>
</svg>
