<?xml version="1.0" encoding="UTF-8" standalone="no"?>
<!DOCTYPE svg PUBLIC "-//W3C//DTD SVG 1.1//EN"
 "http://www.w3.org/Graphics/SVG/1.1/DTD/svg11.dtd">
<!-- Generated by graphviz version 2.38.0 (20140413.2041)
 -->
<!-- Pages: 1 -->
<svg width="560pt" height="266pt"
 viewBox="0.00 0.00 560.00 265.60" xmlns="http://www.w3.org/2000/svg" xmlns:xlink="http://www.w3.org/1999/xlink">
<g id="graph0" class="graph" transform="scale(1 1) rotate(0) translate(4 261.598)">
<polygon fill="white" stroke="none" points="-4,4 -4,-261.598 556,-261.598 556,4 -4,4"/>
<!-- boneRoot -->
<g id="node1" class="node"><title>boneRoot</title>
<polygon fill="lightyellow" stroke="black" points="352,-221.098 352,-257.098 414,-257.098 414,-221.098 352,-221.098"/>
<text text-anchor="middle" x="383" y="-236.898" font-family="Verdana" font-size="9.00">boneRoot</text>
</g>
<!-- boneA -->
<g id="node2" class="node"><title>boneA</title>
<polygon fill="lightyellow" stroke="black" points="242.5,-148.098 242.5,-184.098 337.5,-184.098 337.5,-148.098 242.5,-148.098"/>
<text text-anchor="middle" x="290" y="-172.898" font-family="Verdana" font-size="9.00">boneA</text>
<polyline fill="none" stroke="black" points="242.5,-166.098 337.5,-166.098 "/>
<text text-anchor="start" x="250.5" y="-154.898" font-family="Verdana" font-size="9.00">圧縮不可に設定</text>
</g>
<!-- boneRoot&#45;&gt;boneA -->
<g id="edge1" class="edge"><title>boneRoot&#45;&gt;boneA</title>
<path fill="none" stroke="black" d="M360.487,-220.911C347.922,-211.318 332.138,-199.268 318.693,-189.004"/>
<polygon fill="black" stroke="black" points="320.363,-186.756 312.305,-184.127 316.965,-191.207 320.363,-186.756"/>
</g>
<!-- boneF -->
<g id="node4" class="node"><title>boneF</title>
<polygon fill="lightyellow" stroke="black" points="450,-148.098 450,-184.098 504,-184.098 504,-148.098 450,-148.098"/>
<text text-anchor="middle" x="477" y="-172.898" font-family="Verdana" font-size="9.00">boneF</text>
<polyline fill="none" stroke="black" points="450,-166.098 504,-166.098 "/>
<text text-anchor="middle" x="477" y="-154.898" font-family="Verdana" font-size="9.00"> </text>
</g>
<!-- boneRoot&#45;&gt;boneF -->
<g id="edge6" class="edge"><title>boneRoot&#45;&gt;boneF</title>
<path fill="none" stroke="black" d="M405.755,-220.911C418.456,-211.318 434.409,-199.268 447.998,-189.004"/>
<polygon fill="black" stroke="black" points="449.759,-191.183 454.455,-184.127 446.383,-186.714 449.759,-191.183"/>
</g>
<!-- boneI -->
<g id="node3" class="node"><title>boneI</title>
<polygon fill="lightyellow" stroke="black" points="0,-73.799 0,-109.799 152,-109.799 152,-73.799 0,-73.799"/>
<text text-anchor="middle" x="76" y="-98.599" font-family="Verdana" font-size="9.00">boneI</text>
<polyline fill="none" stroke="black" points="0,-91.799 152,-91.799 "/>
<text text-anchor="middle" x="76" y="-80.599" font-family="Verdana" font-size="9.00">リジッドボディ描画に使用</text>
</g>
<!-- boneA&#45;&gt;boneI -->
<g id="edge2" class="edge"><title>boneA&#45;&gt;boneI</title>
<path fill="none" stroke="black" d="M242.241,-148.963C210.423,-138.213 168.4,-124.016 134.566,-112.585"/>
<polygon fill="black" stroke="black" points="135.071,-109.801 126.596,-109.893 133.279,-115.106 135.071,-109.801"/>
</g>
<!-- shapeX -->
<g id="node6" class="node"><title>shapeX</title>
<ellipse fill="moccasin" stroke="black" cx="243" cy="-91.799" rx="72.6644" ry="19.6"/>
<text text-anchor="middle" x="243" y="-94.599" font-family="Verdana" font-size="9.00">shapeX</text>
<text text-anchor="middle" x="243" y="-84.599" font-family="Verdana" font-size="9.00">(スキニングあり)</text>
</g>
<!-- boneA&#45;&gt;shapeX -->
<g id="edge3" class="edge"><title>boneA&#45;&gt;shapeX</title>
<path fill="none" stroke="black" d="M278.862,-147.964C273.095,-139.093 265.94,-128.087 259.541,-118.244"/>
<polygon fill="black" stroke="black" points="261.754,-116.511 255.046,-111.33 257.059,-119.563 261.754,-116.511"/>
</g>
<!-- shapeY -->
<g id="node7" class="node"><title>shapeY</title>
<ellipse fill="moccasin" stroke="black" cx="407" cy="-91.799" rx="72.6644" ry="19.6"/>
<text text-anchor="middle" x="407" y="-94.599" font-family="Verdana" font-size="9.00">shapeY</text>
<text text-anchor="middle" x="407" y="-84.599" font-family="Verdana" font-size="9.00">(スキニングあり)</text>
</g>
<!-- boneA&#45;&gt;shapeY -->
<g id="edge4" class="edge"><title>boneA&#45;&gt;shapeY</title>
<path fill="none" stroke="black" d="M317.727,-147.964C333.81,-138.026 354.231,-125.407 371.482,-114.747"/>
<polygon fill="black" stroke="black" points="373.325,-116.899 378.659,-110.312 370.381,-112.136 373.325,-116.899"/>
</g>
<!-- shapeZ -->
<g id="node8" class="node"><title>shapeZ</title>
<ellipse fill="moccasin" stroke="black" cx="76" cy="-18" rx="30.0444" ry="18"/>
<text text-anchor="middle" x="76" y="-15.8" font-family="Verdana" font-size="9.00">shapeZ</text>
</g>
<!-- boneI&#45;&gt;shapeZ -->
<g id="edge5" class="edge"><title>boneI&#45;&gt;shapeZ</title>
<path fill="none" stroke="black" d="M76,-73.7836C76,-65.0597 76,-54.2558 76,-44.554"/>
<polygon fill="black" stroke="black" points="78.8001,-44.3919 76,-36.392 73.2001,-44.392 78.8001,-44.3919"/>
</g>
<!-- boneG -->
<g id="node5" class="node"><title>boneG</title>
<polygon fill="lightyellow" stroke="black" points="498,-73.799 498,-109.799 552,-109.799 552,-73.799 498,-73.799"/>
<text text-anchor="middle" x="525" y="-98.599" font-family="Verdana" font-size="9.00">boneG</text>
<polyline fill="none" stroke="black" points="498,-91.799 552,-91.799 "/>
<text text-anchor="middle" x="525" y="-80.599" font-family="Verdana" font-size="9.00"> </text>
</g>
<!-- boneF&#45;&gt;boneG -->
<g id="edge7" class="edge"><title>boneF&#45;&gt;boneG</title>
<path fill="none" stroke="black" d="M488.375,-147.964C494.592,-138.6 502.389,-126.856 509.189,-116.613"/>
<polygon fill="black" stroke="black" points="511.614,-118.023 513.706,-109.81 506.949,-114.926 511.614,-118.023"/>
</g>
</g>
</svg>
