<?xml version="1.0" encoding="UTF-8" standalone="no"?>
<!DOCTYPE svg PUBLIC "-//W3C//DTD SVG 1.1//EN"
 "http://www.w3.org/Graphics/SVG/1.1/DTD/svg11.dtd">
<!-- Generated by graphviz version 2.38.0 (20140413.2041)
 -->
<!-- Pages: 1 -->
<svg width="468pt" height="194pt"
 viewBox="0.00 0.00 467.83 193.60" xmlns="http://www.w3.org/2000/svg" xmlns:xlink="http://www.w3.org/1999/xlink">
<g id="graph0" class="graph" transform="scale(1 1) rotate(0) translate(4 189.598)">
<polygon fill="white" stroke="none" points="-4,4 -4,-189.598 463.832,-189.598 463.832,4 -4,4"/>
<!-- boneRoot -->
<g id="node1" class="node"><title>boneRoot</title>
<polygon fill="lightyellow" stroke="black" points="303.832,-149.098 303.832,-185.098 365.832,-185.098 365.832,-149.098 303.832,-149.098"/>
<text text-anchor="middle" x="334.832" y="-164.898" font-family="Verdana" font-size="9.00">boneRoot</text>
</g>
<!-- boneA -->
<g id="node2" class="node"><title>boneA</title>
<polygon fill="lightyellow" stroke="black" points="215.332,-76.098 215.332,-112.098 310.332,-112.098 310.332,-76.098 215.332,-76.098"/>
<text text-anchor="middle" x="262.832" y="-100.898" font-family="Verdana" font-size="9.00">boneA</text>
<polyline fill="none" stroke="black" points="215.332,-94.098 310.332,-94.098 "/>
<text text-anchor="start" x="223.332" y="-82.898" font-family="Verdana" font-size="9.00">圧縮不可に設定</text>
</g>
<!-- boneRoot&#45;&gt;boneA -->
<g id="edge1" class="edge"><title>boneRoot&#45;&gt;boneA</title>
<path fill="none" stroke="black" d="M317.403,-148.911C307.94,-139.579 296.119,-127.923 285.902,-117.847"/>
<polygon fill="black" stroke="black" points="287.763,-115.75 280.101,-112.127 283.831,-119.738 287.763,-115.75"/>
</g>
<!-- boneF -->
<g id="node3" class="node"><title>boneF</title>
<polygon fill="lightyellow" stroke="black" points="379.832,-76.098 379.832,-112.098 433.832,-112.098 433.832,-76.098 379.832,-76.098"/>
<text text-anchor="middle" x="406.832" y="-100.898" font-family="Verdana" font-size="9.00">boneF</text>
<polyline fill="none" stroke="black" points="379.832,-94.098 433.832,-94.098 "/>
<text text-anchor="middle" x="406.832" y="-82.898" font-family="Verdana" font-size="9.00"> </text>
</g>
<!-- boneRoot&#45;&gt;boneF -->
<g id="edge5" class="edge"><title>boneRoot&#45;&gt;boneF</title>
<path fill="none" stroke="black" d="M352.261,-148.911C361.724,-139.579 373.545,-127.923 383.762,-117.847"/>
<polygon fill="black" stroke="black" points="385.833,-119.738 389.563,-112.127 381.901,-115.75 385.833,-119.738"/>
</g>
<!-- shapeX -->
<g id="node5" class="node"><title>shapeX</title>
<ellipse fill="moccasin" stroke="black" cx="72.832" cy="-19.799" rx="72.6644" ry="19.6"/>
<text text-anchor="middle" x="72.832" y="-22.599" font-family="Verdana" font-size="9.00">shapeX</text>
<text text-anchor="middle" x="72.832" y="-12.599" font-family="Verdana" font-size="9.00">(スキニングあり)</text>
</g>
<!-- boneA&#45;&gt;shapeX -->
<g id="edge2" class="edge"><title>boneA&#45;&gt;shapeX</title>
<path fill="none" stroke="black" d="M217.805,-75.9641C188.793,-64.9245 151.089,-50.5773 121.404,-39.2817"/>
<polygon fill="black" stroke="black" points="122.123,-36.5594 113.65,-36.3311 120.131,-41.7933 122.123,-36.5594"/>
</g>
<!-- shapeY -->
<g id="node6" class="node"><title>shapeY</title>
<ellipse fill="moccasin" stroke="black" cx="236.832" cy="-19.799" rx="72.6644" ry="19.6"/>
<text text-anchor="middle" x="236.832" y="-22.599" font-family="Verdana" font-size="9.00">shapeY</text>
<text text-anchor="middle" x="236.832" y="-12.599" font-family="Verdana" font-size="9.00">(スキニングあり)</text>
</g>
<!-- boneA&#45;&gt;shapeY -->
<g id="edge3" class="edge"><title>boneA&#45;&gt;shapeY</title>
<path fill="none" stroke="black" d="M256.67,-75.9641C253.597,-67.4169 249.81,-56.887 246.371,-47.3257"/>
<polygon fill="black" stroke="black" points="248.931,-46.1673 243.588,-39.5868 243.661,-48.0624 248.931,-46.1673"/>
</g>
<!-- shapeZ -->
<g id="node7" class="node"><title>shapeZ</title>
<ellipse fill="moccasin" stroke="black" cx="357.832" cy="-19.799" rx="30.0444" ry="18"/>
<text text-anchor="middle" x="357.832" y="-17.599" font-family="Verdana" font-size="9.00">shapeZ</text>
</g>
<!-- boneA&#45;&gt;shapeZ -->
<g id="edge4" class="edge"><title>boneA&#45;&gt;shapeZ</title>
<path fill="none" stroke="black" d="M285.346,-75.9641C299.81,-64.9558 318.597,-50.6586 333.42,-39.3779"/>
<polygon fill="black" stroke="black" points="335.251,-41.5028 339.921,-34.4297 331.86,-37.0465 335.251,-41.5028"/>
</g>
<!-- boneG -->
<g id="node4" class="node"><title>boneG</title>
<polygon fill="lightyellow" stroke="black" points="405.832,-1.79899 405.832,-37.799 459.832,-37.799 459.832,-1.79899 405.832,-1.79899"/>
<text text-anchor="middle" x="432.832" y="-26.599" font-family="Verdana" font-size="9.00">boneG</text>
<polyline fill="none" stroke="black" points="405.832,-19.799 459.832,-19.799 "/>
<text text-anchor="middle" x="432.832" y="-8.59899" font-family="Verdana" font-size="9.00"> </text>
</g>
<!-- boneF&#45;&gt;boneG -->
<g id="edge6" class="edge"><title>boneF&#45;&gt;boneG</title>
<path fill="none" stroke="black" d="M412.994,-75.9641C416.264,-66.8701 420.342,-55.5317 423.948,-45.5035"/>
<polygon fill="black" stroke="black" points="426.642,-46.2854 426.715,-37.8099 421.373,-44.3903 426.642,-46.2854"/>
</g>
</g>
</svg>
